G75*
%MOIN*%
%OFA0B0*%
%FSLAX25Y25*%
%IPPOS*%
%LPD*%
%AMOC8*
5,1,8,0,0,1.08239X$1,22.5*
%
%ADD10C,0.06000*%
%ADD11C,0.01600*%
D10*
X0014045Y0013391D03*
X0014045Y0023391D03*
X0014045Y0033391D03*
X0014045Y0043391D03*
X0033545Y0062891D03*
X0043545Y0062891D03*
X0053545Y0062891D03*
X0063545Y0062891D03*
X0077045Y0062891D03*
X0087045Y0062891D03*
X0097045Y0062891D03*
X0107045Y0062891D03*
X0126545Y0043391D03*
X0126545Y0033391D03*
X0126545Y0023391D03*
X0126545Y0013391D03*
X0086045Y0020391D03*
X0076045Y0020391D03*
X0066045Y0020391D03*
X0056045Y0020391D03*
D11*
X0066045Y0030391D02*
X0066045Y0032391D01*
X0041045Y0032391D01*
X0032045Y0023391D01*
X0014045Y0023391D01*
X0006045Y0021391D02*
X0006045Y0047391D01*
X0026045Y0067391D01*
X0034045Y0067391D01*
X0033545Y0066891D01*
X0033545Y0062891D01*
X0034045Y0067391D02*
X0077545Y0067391D01*
X0077045Y0066891D01*
X0077045Y0062891D01*
X0077545Y0067391D02*
X0111045Y0067391D01*
X0126545Y0051891D01*
X0126545Y0043391D01*
X0126545Y0033391D02*
X0125545Y0032391D01*
X0066045Y0032391D01*
X0066045Y0057391D01*
X0081545Y0057391D01*
X0087045Y0062891D01*
X0066045Y0057391D02*
X0049045Y0057391D01*
X0043545Y0062891D01*
X0066045Y0030391D02*
X0076045Y0020391D01*
X0079045Y0013391D02*
X0086045Y0020391D01*
X0079045Y0013391D02*
X0014045Y0013391D01*
X0006045Y0021391D01*
M02*
