G75*
%MOIN*%
%OFA0B0*%
%FSLAX25Y25*%
%IPPOS*%
%LPD*%
%AMOC8*
5,1,8,0,0,1.08239X$1,22.5*
%
%ADD10C,0.00500*%
%ADD11R,0.02000X0.02000*%
D10*
X0001250Y0007485D02*
X0024045Y0007485D01*
X0024045Y0049296D01*
X0026841Y0049296D01*
X0026841Y0007485D01*
X0024045Y0007485D01*
X0027695Y0009819D02*
X0027695Y0010569D01*
X0030395Y0010569D01*
X0030395Y0009819D01*
X0030393Y0009765D01*
X0030387Y0009712D01*
X0030378Y0009660D01*
X0030365Y0009608D01*
X0030348Y0009557D01*
X0030327Y0009507D01*
X0030303Y0009460D01*
X0030276Y0009414D01*
X0030245Y0009370D01*
X0030212Y0009328D01*
X0030175Y0009289D01*
X0030136Y0009252D01*
X0030094Y0009219D01*
X0030050Y0009188D01*
X0030004Y0009161D01*
X0029957Y0009137D01*
X0029907Y0009116D01*
X0029856Y0009099D01*
X0029804Y0009086D01*
X0029752Y0009077D01*
X0029699Y0009071D01*
X0029645Y0009069D01*
X0028445Y0009069D01*
X0028391Y0009071D01*
X0028338Y0009077D01*
X0028286Y0009086D01*
X0028234Y0009099D01*
X0028183Y0009116D01*
X0028133Y0009137D01*
X0028086Y0009161D01*
X0028040Y0009188D01*
X0027996Y0009219D01*
X0027954Y0009252D01*
X0027915Y0009289D01*
X0027878Y0009328D01*
X0027845Y0009370D01*
X0027814Y0009414D01*
X0027787Y0009460D01*
X0027763Y0009507D01*
X0027742Y0009557D01*
X0027725Y0009608D01*
X0027712Y0009660D01*
X0027703Y0009712D01*
X0027697Y0009765D01*
X0027695Y0009819D01*
X0027695Y0012141D02*
X0030395Y0012141D01*
X0030395Y0013641D02*
X0027695Y0013641D01*
X0027695Y0012141D02*
X0030395Y0013641D01*
X0030395Y0015213D02*
X0030395Y0016113D01*
X0030393Y0016160D01*
X0030388Y0016207D01*
X0030378Y0016253D01*
X0030366Y0016298D01*
X0030349Y0016343D01*
X0030330Y0016385D01*
X0030307Y0016426D01*
X0030280Y0016466D01*
X0030251Y0016503D01*
X0030219Y0016537D01*
X0030185Y0016569D01*
X0030148Y0016598D01*
X0030108Y0016625D01*
X0030067Y0016648D01*
X0030025Y0016667D01*
X0029980Y0016684D01*
X0029935Y0016696D01*
X0029889Y0016706D01*
X0029842Y0016711D01*
X0029795Y0016713D01*
X0028295Y0016713D01*
X0028248Y0016711D01*
X0028201Y0016706D01*
X0028155Y0016696D01*
X0028110Y0016684D01*
X0028065Y0016667D01*
X0028023Y0016648D01*
X0027982Y0016625D01*
X0027942Y0016598D01*
X0027905Y0016569D01*
X0027871Y0016537D01*
X0027839Y0016503D01*
X0027810Y0016466D01*
X0027783Y0016426D01*
X0027760Y0016385D01*
X0027741Y0016343D01*
X0027724Y0016298D01*
X0027712Y0016253D01*
X0027702Y0016207D01*
X0027697Y0016160D01*
X0027695Y0016113D01*
X0027695Y0015213D01*
X0029195Y0015213D01*
X0029195Y0015663D01*
X0030395Y0020082D02*
X0030395Y0020682D01*
X0030393Y0020729D01*
X0030388Y0020776D01*
X0030378Y0020822D01*
X0030366Y0020867D01*
X0030349Y0020912D01*
X0030330Y0020954D01*
X0030307Y0020995D01*
X0030280Y0021035D01*
X0030251Y0021072D01*
X0030219Y0021106D01*
X0030185Y0021138D01*
X0030148Y0021167D01*
X0030108Y0021194D01*
X0030067Y0021217D01*
X0030025Y0021236D01*
X0029980Y0021253D01*
X0029935Y0021265D01*
X0029889Y0021275D01*
X0029842Y0021280D01*
X0029795Y0021282D01*
X0028295Y0021282D01*
X0028248Y0021280D01*
X0028201Y0021275D01*
X0028155Y0021265D01*
X0028110Y0021253D01*
X0028065Y0021236D01*
X0028023Y0021217D01*
X0027982Y0021194D01*
X0027942Y0021167D01*
X0027905Y0021138D01*
X0027871Y0021106D01*
X0027839Y0021072D01*
X0027810Y0021035D01*
X0027783Y0020995D01*
X0027760Y0020954D01*
X0027741Y0020912D01*
X0027724Y0020867D01*
X0027712Y0020822D01*
X0027702Y0020776D01*
X0027697Y0020729D01*
X0027695Y0020682D01*
X0027695Y0020082D01*
X0027695Y0022482D02*
X0027695Y0023082D01*
X0027697Y0023129D01*
X0027702Y0023176D01*
X0027712Y0023222D01*
X0027724Y0023267D01*
X0027741Y0023312D01*
X0027760Y0023354D01*
X0027783Y0023395D01*
X0027810Y0023435D01*
X0027839Y0023472D01*
X0027871Y0023506D01*
X0027905Y0023538D01*
X0027942Y0023567D01*
X0027982Y0023594D01*
X0028023Y0023617D01*
X0028065Y0023636D01*
X0028110Y0023653D01*
X0028155Y0023665D01*
X0028201Y0023675D01*
X0028248Y0023680D01*
X0028295Y0023682D01*
X0029795Y0023682D01*
X0029842Y0023680D01*
X0029889Y0023675D01*
X0029935Y0023665D01*
X0029980Y0023653D01*
X0030025Y0023636D01*
X0030067Y0023617D01*
X0030108Y0023594D01*
X0030148Y0023567D01*
X0030185Y0023538D01*
X0030219Y0023506D01*
X0030251Y0023472D01*
X0030280Y0023435D01*
X0030307Y0023395D01*
X0030330Y0023354D01*
X0030349Y0023312D01*
X0030366Y0023267D01*
X0030378Y0023222D01*
X0030388Y0023176D01*
X0030393Y0023129D01*
X0030395Y0023082D01*
X0030395Y0022482D01*
X0030395Y0024899D02*
X0027695Y0025799D01*
X0030395Y0026699D01*
X0028370Y0029863D02*
X0028370Y0031213D01*
X0027695Y0031438D02*
X0030395Y0030538D01*
X0027695Y0029638D01*
X0028445Y0032764D02*
X0029645Y0032764D01*
X0029699Y0032766D01*
X0029752Y0032772D01*
X0029804Y0032781D01*
X0029856Y0032794D01*
X0029907Y0032811D01*
X0029957Y0032832D01*
X0030004Y0032856D01*
X0030050Y0032883D01*
X0030094Y0032914D01*
X0030136Y0032947D01*
X0030175Y0032984D01*
X0030212Y0033023D01*
X0030245Y0033065D01*
X0030276Y0033109D01*
X0030303Y0033155D01*
X0030327Y0033202D01*
X0030348Y0033252D01*
X0030365Y0033303D01*
X0030378Y0033355D01*
X0030387Y0033407D01*
X0030393Y0033460D01*
X0030395Y0033514D01*
X0030395Y0034264D01*
X0027695Y0034264D01*
X0027695Y0033514D01*
X0027697Y0033460D01*
X0027703Y0033407D01*
X0027712Y0033355D01*
X0027725Y0033303D01*
X0027742Y0033252D01*
X0027763Y0033202D01*
X0027787Y0033155D01*
X0027814Y0033109D01*
X0027845Y0033065D01*
X0027878Y0033023D01*
X0027915Y0032984D01*
X0027954Y0032947D01*
X0027996Y0032914D01*
X0028040Y0032883D01*
X0028086Y0032856D01*
X0028133Y0032832D01*
X0028183Y0032811D01*
X0028234Y0032794D01*
X0028286Y0032781D01*
X0028338Y0032772D01*
X0028391Y0032766D01*
X0028445Y0032764D01*
X0028820Y0035944D02*
X0029270Y0036769D01*
X0030395Y0036469D02*
X0030393Y0036403D01*
X0030387Y0036338D01*
X0030378Y0036273D01*
X0030364Y0036208D01*
X0030347Y0036145D01*
X0030326Y0036082D01*
X0030302Y0036021D01*
X0030274Y0035962D01*
X0030243Y0035904D01*
X0030208Y0035848D01*
X0030170Y0035794D01*
X0029270Y0036768D02*
X0029297Y0036809D01*
X0029326Y0036848D01*
X0029359Y0036884D01*
X0029394Y0036917D01*
X0029432Y0036948D01*
X0029472Y0036975D01*
X0029514Y0036999D01*
X0029558Y0037020D01*
X0029604Y0037037D01*
X0029650Y0037051D01*
X0029698Y0037060D01*
X0029746Y0037066D01*
X0029795Y0037068D01*
X0029795Y0037069D02*
X0029842Y0037067D01*
X0029889Y0037062D01*
X0029935Y0037052D01*
X0029980Y0037040D01*
X0030025Y0037023D01*
X0030067Y0037004D01*
X0030108Y0036981D01*
X0030148Y0036954D01*
X0030185Y0036925D01*
X0030219Y0036893D01*
X0030251Y0036859D01*
X0030280Y0036822D01*
X0030307Y0036782D01*
X0030330Y0036741D01*
X0030349Y0036699D01*
X0030366Y0036654D01*
X0030378Y0036609D01*
X0030388Y0036563D01*
X0030393Y0036516D01*
X0030395Y0036469D01*
X0028071Y0037144D02*
X0028025Y0037095D01*
X0027981Y0037045D01*
X0027940Y0036992D01*
X0027903Y0036937D01*
X0027868Y0036881D01*
X0027836Y0036822D01*
X0027807Y0036762D01*
X0027781Y0036700D01*
X0027759Y0036638D01*
X0027740Y0036574D01*
X0027724Y0036509D01*
X0027712Y0036443D01*
X0027703Y0036377D01*
X0027698Y0036311D01*
X0027696Y0036244D01*
X0027695Y0036244D02*
X0027697Y0036197D01*
X0027702Y0036150D01*
X0027712Y0036104D01*
X0027724Y0036059D01*
X0027741Y0036014D01*
X0027760Y0035972D01*
X0027783Y0035931D01*
X0027810Y0035891D01*
X0027839Y0035854D01*
X0027871Y0035820D01*
X0027905Y0035788D01*
X0027942Y0035759D01*
X0027982Y0035732D01*
X0028023Y0035709D01*
X0028065Y0035690D01*
X0028110Y0035673D01*
X0028155Y0035661D01*
X0028201Y0035651D01*
X0028248Y0035646D01*
X0028295Y0035644D01*
X0028344Y0035646D01*
X0028392Y0035652D01*
X0028440Y0035661D01*
X0028486Y0035675D01*
X0028532Y0035692D01*
X0028576Y0035713D01*
X0028618Y0035737D01*
X0028658Y0035764D01*
X0028696Y0035795D01*
X0028731Y0035828D01*
X0028764Y0035864D01*
X0028793Y0035903D01*
X0028820Y0035944D01*
X0027695Y0040146D02*
X0027695Y0041346D01*
X0030395Y0041346D01*
X0030395Y0042663D02*
X0030395Y0043263D01*
X0030393Y0043310D01*
X0030388Y0043357D01*
X0030378Y0043403D01*
X0030366Y0043448D01*
X0030349Y0043493D01*
X0030330Y0043535D01*
X0030307Y0043576D01*
X0030280Y0043616D01*
X0030251Y0043653D01*
X0030219Y0043687D01*
X0030185Y0043719D01*
X0030148Y0043748D01*
X0030108Y0043775D01*
X0030067Y0043798D01*
X0030025Y0043817D01*
X0029980Y0043834D01*
X0029935Y0043846D01*
X0029889Y0043856D01*
X0029842Y0043861D01*
X0029795Y0043863D01*
X0028295Y0043863D01*
X0028248Y0043861D01*
X0028201Y0043856D01*
X0028155Y0043846D01*
X0028110Y0043834D01*
X0028065Y0043817D01*
X0028023Y0043798D01*
X0027982Y0043775D01*
X0027942Y0043748D01*
X0027905Y0043719D01*
X0027871Y0043687D01*
X0027839Y0043653D01*
X0027810Y0043616D01*
X0027783Y0043576D01*
X0027760Y0043535D01*
X0027741Y0043493D01*
X0027724Y0043448D01*
X0027712Y0043403D01*
X0027702Y0043357D01*
X0027697Y0043310D01*
X0027695Y0043263D01*
X0027695Y0042663D01*
X0028820Y0045435D02*
X0029270Y0046260D01*
X0030395Y0045960D02*
X0030393Y0045894D01*
X0030387Y0045829D01*
X0030378Y0045764D01*
X0030364Y0045699D01*
X0030347Y0045636D01*
X0030326Y0045573D01*
X0030302Y0045512D01*
X0030274Y0045453D01*
X0030243Y0045395D01*
X0030208Y0045339D01*
X0030170Y0045285D01*
X0029270Y0046259D02*
X0029297Y0046300D01*
X0029326Y0046339D01*
X0029359Y0046375D01*
X0029394Y0046408D01*
X0029432Y0046439D01*
X0029472Y0046466D01*
X0029514Y0046490D01*
X0029558Y0046511D01*
X0029604Y0046528D01*
X0029650Y0046542D01*
X0029698Y0046551D01*
X0029746Y0046557D01*
X0029795Y0046559D01*
X0029973Y0046541D02*
X0030723Y0046541D01*
X0030723Y0049241D01*
X0029973Y0049241D01*
X0029919Y0049239D01*
X0029866Y0049233D01*
X0029814Y0049224D01*
X0029762Y0049211D01*
X0029711Y0049194D01*
X0029661Y0049173D01*
X0029614Y0049149D01*
X0029568Y0049122D01*
X0029524Y0049091D01*
X0029482Y0049058D01*
X0029443Y0049021D01*
X0029406Y0048982D01*
X0029373Y0048940D01*
X0029342Y0048896D01*
X0029315Y0048850D01*
X0029291Y0048803D01*
X0029270Y0048753D01*
X0029253Y0048702D01*
X0029240Y0048650D01*
X0029231Y0048598D01*
X0029225Y0048545D01*
X0029223Y0048491D01*
X0029223Y0047291D01*
X0029225Y0047237D01*
X0029231Y0047184D01*
X0029240Y0047132D01*
X0029253Y0047080D01*
X0029270Y0047029D01*
X0029291Y0046979D01*
X0029315Y0046932D01*
X0029342Y0046886D01*
X0029373Y0046842D01*
X0029406Y0046800D01*
X0029443Y0046761D01*
X0029482Y0046724D01*
X0029524Y0046691D01*
X0029568Y0046660D01*
X0029614Y0046633D01*
X0029661Y0046609D01*
X0029711Y0046588D01*
X0029762Y0046571D01*
X0029814Y0046558D01*
X0029866Y0046549D01*
X0029919Y0046543D01*
X0029973Y0046541D01*
X0029795Y0046560D02*
X0029842Y0046558D01*
X0029889Y0046553D01*
X0029935Y0046543D01*
X0029980Y0046531D01*
X0030025Y0046514D01*
X0030067Y0046495D01*
X0030108Y0046472D01*
X0030148Y0046445D01*
X0030185Y0046416D01*
X0030219Y0046384D01*
X0030251Y0046350D01*
X0030280Y0046313D01*
X0030307Y0046273D01*
X0030330Y0046232D01*
X0030349Y0046190D01*
X0030366Y0046145D01*
X0030378Y0046100D01*
X0030388Y0046054D01*
X0030393Y0046007D01*
X0030395Y0045960D01*
X0028071Y0046635D02*
X0028025Y0046586D01*
X0027981Y0046536D01*
X0027940Y0046483D01*
X0027903Y0046428D01*
X0027868Y0046372D01*
X0027836Y0046313D01*
X0027807Y0046253D01*
X0027781Y0046191D01*
X0027759Y0046129D01*
X0027740Y0046065D01*
X0027724Y0046000D01*
X0027712Y0045934D01*
X0027703Y0045868D01*
X0027698Y0045802D01*
X0027696Y0045735D01*
X0027695Y0045735D02*
X0027697Y0045688D01*
X0027702Y0045641D01*
X0027712Y0045595D01*
X0027724Y0045550D01*
X0027741Y0045505D01*
X0027760Y0045463D01*
X0027783Y0045422D01*
X0027810Y0045382D01*
X0027839Y0045345D01*
X0027871Y0045311D01*
X0027905Y0045279D01*
X0027942Y0045250D01*
X0027982Y0045223D01*
X0028023Y0045200D01*
X0028065Y0045181D01*
X0028110Y0045164D01*
X0028155Y0045152D01*
X0028201Y0045142D01*
X0028248Y0045137D01*
X0028295Y0045135D01*
X0028344Y0045137D01*
X0028392Y0045143D01*
X0028440Y0045152D01*
X0028486Y0045166D01*
X0028532Y0045183D01*
X0028576Y0045204D01*
X0028618Y0045228D01*
X0028658Y0045255D01*
X0028696Y0045286D01*
X0028731Y0045319D01*
X0028764Y0045355D01*
X0028793Y0045394D01*
X0028820Y0045435D01*
X0032295Y0046541D02*
X0032295Y0049241D01*
X0033795Y0046541D01*
X0033795Y0049241D01*
X0035367Y0049241D02*
X0036267Y0049241D01*
X0036314Y0049239D01*
X0036361Y0049234D01*
X0036407Y0049224D01*
X0036452Y0049212D01*
X0036497Y0049195D01*
X0036539Y0049176D01*
X0036580Y0049153D01*
X0036620Y0049126D01*
X0036657Y0049097D01*
X0036691Y0049065D01*
X0036723Y0049031D01*
X0036752Y0048994D01*
X0036779Y0048954D01*
X0036802Y0048913D01*
X0036821Y0048871D01*
X0036838Y0048826D01*
X0036850Y0048781D01*
X0036860Y0048735D01*
X0036865Y0048688D01*
X0036867Y0048641D01*
X0036867Y0047141D01*
X0036865Y0047094D01*
X0036860Y0047047D01*
X0036850Y0047001D01*
X0036838Y0046956D01*
X0036821Y0046911D01*
X0036802Y0046869D01*
X0036779Y0046828D01*
X0036752Y0046788D01*
X0036723Y0046751D01*
X0036691Y0046717D01*
X0036657Y0046685D01*
X0036620Y0046656D01*
X0036580Y0046629D01*
X0036539Y0046606D01*
X0036497Y0046587D01*
X0036452Y0046570D01*
X0036407Y0046558D01*
X0036361Y0046548D01*
X0036314Y0046543D01*
X0036267Y0046541D01*
X0035367Y0046541D01*
X0035367Y0047741D02*
X0035367Y0049241D01*
X0035367Y0047741D02*
X0035817Y0047741D01*
X0040736Y0046541D02*
X0041336Y0046541D01*
X0041383Y0046543D01*
X0041430Y0046548D01*
X0041476Y0046558D01*
X0041521Y0046570D01*
X0041566Y0046587D01*
X0041608Y0046606D01*
X0041649Y0046629D01*
X0041689Y0046656D01*
X0041726Y0046685D01*
X0041760Y0046717D01*
X0041792Y0046751D01*
X0041821Y0046788D01*
X0041848Y0046828D01*
X0041871Y0046869D01*
X0041890Y0046911D01*
X0041907Y0046956D01*
X0041919Y0047001D01*
X0041929Y0047047D01*
X0041934Y0047094D01*
X0041936Y0047141D01*
X0041936Y0048641D01*
X0041934Y0048688D01*
X0041929Y0048735D01*
X0041919Y0048781D01*
X0041907Y0048826D01*
X0041890Y0048871D01*
X0041871Y0048913D01*
X0041848Y0048954D01*
X0041821Y0048994D01*
X0041792Y0049031D01*
X0041760Y0049065D01*
X0041726Y0049097D01*
X0041689Y0049126D01*
X0041649Y0049153D01*
X0041608Y0049176D01*
X0041566Y0049195D01*
X0041521Y0049212D01*
X0041476Y0049224D01*
X0041430Y0049234D01*
X0041383Y0049239D01*
X0041336Y0049241D01*
X0040736Y0049241D01*
X0043136Y0049241D02*
X0043736Y0049241D01*
X0043783Y0049239D01*
X0043830Y0049234D01*
X0043876Y0049224D01*
X0043921Y0049212D01*
X0043966Y0049195D01*
X0044008Y0049176D01*
X0044049Y0049153D01*
X0044089Y0049126D01*
X0044126Y0049097D01*
X0044160Y0049065D01*
X0044192Y0049031D01*
X0044221Y0048994D01*
X0044248Y0048954D01*
X0044271Y0048913D01*
X0044290Y0048871D01*
X0044307Y0048826D01*
X0044319Y0048781D01*
X0044329Y0048735D01*
X0044334Y0048688D01*
X0044336Y0048641D01*
X0044336Y0047141D01*
X0044334Y0047094D01*
X0044329Y0047047D01*
X0044319Y0047001D01*
X0044307Y0046956D01*
X0044290Y0046911D01*
X0044271Y0046869D01*
X0044248Y0046828D01*
X0044221Y0046788D01*
X0044192Y0046751D01*
X0044160Y0046717D01*
X0044126Y0046685D01*
X0044089Y0046656D01*
X0044049Y0046629D01*
X0044008Y0046606D01*
X0043966Y0046587D01*
X0043921Y0046570D01*
X0043876Y0046558D01*
X0043830Y0046548D01*
X0043783Y0046543D01*
X0043736Y0046541D01*
X0043136Y0046541D01*
X0045554Y0046541D02*
X0046454Y0049241D01*
X0047354Y0046541D01*
X0050017Y0048566D02*
X0051367Y0048566D01*
X0051592Y0049241D02*
X0050692Y0046541D01*
X0049792Y0049241D01*
X0052918Y0048491D02*
X0052918Y0047291D01*
X0052920Y0047237D01*
X0052926Y0047184D01*
X0052935Y0047132D01*
X0052948Y0047080D01*
X0052965Y0047029D01*
X0052986Y0046979D01*
X0053010Y0046932D01*
X0053037Y0046886D01*
X0053068Y0046842D01*
X0053101Y0046800D01*
X0053138Y0046761D01*
X0053177Y0046724D01*
X0053219Y0046691D01*
X0053263Y0046660D01*
X0053309Y0046633D01*
X0053356Y0046609D01*
X0053406Y0046588D01*
X0053457Y0046571D01*
X0053509Y0046558D01*
X0053561Y0046549D01*
X0053614Y0046543D01*
X0053668Y0046541D01*
X0054418Y0046541D01*
X0054418Y0049241D01*
X0053668Y0049241D01*
X0053614Y0049239D01*
X0053561Y0049233D01*
X0053509Y0049224D01*
X0053457Y0049211D01*
X0053406Y0049194D01*
X0053356Y0049173D01*
X0053309Y0049149D01*
X0053263Y0049122D01*
X0053219Y0049091D01*
X0053177Y0049058D01*
X0053138Y0049021D01*
X0053101Y0048982D01*
X0053068Y0048940D01*
X0053037Y0048896D01*
X0053010Y0048850D01*
X0052986Y0048803D01*
X0052965Y0048753D01*
X0052948Y0048702D01*
X0052935Y0048650D01*
X0052926Y0048598D01*
X0052920Y0048545D01*
X0052918Y0048491D01*
X0056098Y0048116D02*
X0056923Y0047666D01*
X0056623Y0046541D02*
X0056557Y0046543D01*
X0056492Y0046549D01*
X0056427Y0046558D01*
X0056362Y0046572D01*
X0056299Y0046589D01*
X0056236Y0046610D01*
X0056175Y0046634D01*
X0056116Y0046662D01*
X0056058Y0046693D01*
X0056002Y0046728D01*
X0055948Y0046766D01*
X0056923Y0047666D02*
X0056964Y0047639D01*
X0057003Y0047610D01*
X0057039Y0047577D01*
X0057072Y0047542D01*
X0057103Y0047504D01*
X0057130Y0047464D01*
X0057154Y0047422D01*
X0057175Y0047378D01*
X0057192Y0047332D01*
X0057206Y0047286D01*
X0057215Y0047238D01*
X0057221Y0047190D01*
X0057223Y0047141D01*
X0057221Y0047094D01*
X0057216Y0047047D01*
X0057206Y0047001D01*
X0057194Y0046956D01*
X0057177Y0046911D01*
X0057158Y0046869D01*
X0057135Y0046828D01*
X0057108Y0046788D01*
X0057079Y0046751D01*
X0057047Y0046717D01*
X0057013Y0046685D01*
X0056976Y0046656D01*
X0056936Y0046629D01*
X0056895Y0046606D01*
X0056853Y0046587D01*
X0056808Y0046570D01*
X0056763Y0046558D01*
X0056717Y0046548D01*
X0056670Y0046543D01*
X0056623Y0046541D01*
X0057298Y0048865D02*
X0057249Y0048911D01*
X0057199Y0048955D01*
X0057146Y0048996D01*
X0057091Y0049033D01*
X0057035Y0049068D01*
X0056976Y0049100D01*
X0056916Y0049129D01*
X0056854Y0049155D01*
X0056792Y0049177D01*
X0056728Y0049196D01*
X0056663Y0049212D01*
X0056597Y0049224D01*
X0056531Y0049233D01*
X0056465Y0049238D01*
X0056398Y0049240D01*
X0056398Y0049241D02*
X0056351Y0049239D01*
X0056304Y0049234D01*
X0056258Y0049224D01*
X0056213Y0049212D01*
X0056168Y0049195D01*
X0056126Y0049176D01*
X0056085Y0049153D01*
X0056045Y0049126D01*
X0056008Y0049097D01*
X0055974Y0049065D01*
X0055942Y0049031D01*
X0055913Y0048994D01*
X0055886Y0048954D01*
X0055863Y0048913D01*
X0055844Y0048871D01*
X0055827Y0048826D01*
X0055815Y0048781D01*
X0055805Y0048735D01*
X0055800Y0048688D01*
X0055798Y0048641D01*
X0055799Y0048641D02*
X0055801Y0048592D01*
X0055807Y0048544D01*
X0055816Y0048496D01*
X0055830Y0048450D01*
X0055847Y0048404D01*
X0055868Y0048360D01*
X0055892Y0048318D01*
X0055919Y0048278D01*
X0055950Y0048240D01*
X0055983Y0048205D01*
X0056019Y0048172D01*
X0056058Y0048143D01*
X0056099Y0048116D01*
X0060301Y0049241D02*
X0061501Y0049241D01*
X0061501Y0046541D01*
X0062818Y0046541D02*
X0063418Y0046541D01*
X0063465Y0046543D01*
X0063512Y0046548D01*
X0063558Y0046558D01*
X0063603Y0046570D01*
X0063648Y0046587D01*
X0063690Y0046606D01*
X0063731Y0046629D01*
X0063771Y0046656D01*
X0063808Y0046685D01*
X0063842Y0046717D01*
X0063874Y0046751D01*
X0063903Y0046788D01*
X0063930Y0046828D01*
X0063953Y0046869D01*
X0063972Y0046911D01*
X0063989Y0046956D01*
X0064001Y0047001D01*
X0064011Y0047047D01*
X0064016Y0047094D01*
X0064018Y0047141D01*
X0064018Y0048641D01*
X0064016Y0048688D01*
X0064011Y0048735D01*
X0064001Y0048781D01*
X0063989Y0048826D01*
X0063972Y0048871D01*
X0063953Y0048913D01*
X0063930Y0048954D01*
X0063903Y0048994D01*
X0063874Y0049031D01*
X0063842Y0049065D01*
X0063808Y0049097D01*
X0063771Y0049126D01*
X0063731Y0049153D01*
X0063690Y0049176D01*
X0063648Y0049195D01*
X0063603Y0049212D01*
X0063558Y0049224D01*
X0063512Y0049234D01*
X0063465Y0049239D01*
X0063418Y0049241D01*
X0062818Y0049241D01*
X0065589Y0048116D02*
X0066414Y0047666D01*
X0066114Y0046541D02*
X0066048Y0046543D01*
X0065983Y0046549D01*
X0065918Y0046558D01*
X0065853Y0046572D01*
X0065790Y0046589D01*
X0065727Y0046610D01*
X0065666Y0046634D01*
X0065607Y0046662D01*
X0065549Y0046693D01*
X0065493Y0046728D01*
X0065439Y0046766D01*
X0066414Y0047666D02*
X0066455Y0047639D01*
X0066494Y0047610D01*
X0066530Y0047577D01*
X0066563Y0047542D01*
X0066594Y0047504D01*
X0066621Y0047464D01*
X0066645Y0047422D01*
X0066666Y0047378D01*
X0066683Y0047332D01*
X0066697Y0047286D01*
X0066706Y0047238D01*
X0066712Y0047190D01*
X0066714Y0047141D01*
X0066712Y0047094D01*
X0066707Y0047047D01*
X0066697Y0047001D01*
X0066685Y0046956D01*
X0066668Y0046911D01*
X0066649Y0046869D01*
X0066626Y0046828D01*
X0066599Y0046788D01*
X0066570Y0046751D01*
X0066538Y0046717D01*
X0066504Y0046685D01*
X0066467Y0046656D01*
X0066427Y0046629D01*
X0066386Y0046606D01*
X0066344Y0046587D01*
X0066299Y0046570D01*
X0066254Y0046558D01*
X0066208Y0046548D01*
X0066161Y0046543D01*
X0066114Y0046541D01*
X0066789Y0048865D02*
X0066740Y0048911D01*
X0066690Y0048955D01*
X0066637Y0048996D01*
X0066582Y0049033D01*
X0066526Y0049068D01*
X0066467Y0049100D01*
X0066407Y0049129D01*
X0066345Y0049155D01*
X0066283Y0049177D01*
X0066219Y0049196D01*
X0066154Y0049212D01*
X0066088Y0049224D01*
X0066022Y0049233D01*
X0065956Y0049238D01*
X0065889Y0049240D01*
X0065889Y0049241D02*
X0065842Y0049239D01*
X0065795Y0049234D01*
X0065749Y0049224D01*
X0065704Y0049212D01*
X0065659Y0049195D01*
X0065617Y0049176D01*
X0065576Y0049153D01*
X0065536Y0049126D01*
X0065499Y0049097D01*
X0065465Y0049065D01*
X0065433Y0049031D01*
X0065404Y0048994D01*
X0065377Y0048954D01*
X0065354Y0048913D01*
X0065335Y0048871D01*
X0065318Y0048826D01*
X0065306Y0048781D01*
X0065296Y0048735D01*
X0065291Y0048688D01*
X0065289Y0048641D01*
X0065290Y0048641D02*
X0065292Y0048592D01*
X0065298Y0048544D01*
X0065307Y0048496D01*
X0065321Y0048450D01*
X0065338Y0048404D01*
X0065359Y0048360D01*
X0065383Y0048318D01*
X0065410Y0048278D01*
X0065441Y0048240D01*
X0065474Y0048205D01*
X0065510Y0048172D01*
X0065549Y0048143D01*
X0065590Y0048116D01*
X0069451Y0050095D02*
X0027640Y0050095D01*
X0027640Y0052891D01*
X0069451Y0052891D01*
X0069451Y0050095D01*
X0071140Y0050095D02*
X0071140Y0052891D01*
X0112951Y0052891D01*
X0112951Y0050095D01*
X0071140Y0050095D01*
X0073223Y0048491D02*
X0073223Y0047291D01*
X0073225Y0047237D01*
X0073231Y0047184D01*
X0073240Y0047132D01*
X0073253Y0047080D01*
X0073270Y0047029D01*
X0073291Y0046979D01*
X0073315Y0046932D01*
X0073342Y0046886D01*
X0073373Y0046842D01*
X0073406Y0046800D01*
X0073443Y0046761D01*
X0073482Y0046724D01*
X0073524Y0046691D01*
X0073568Y0046660D01*
X0073614Y0046633D01*
X0073661Y0046609D01*
X0073711Y0046588D01*
X0073762Y0046571D01*
X0073814Y0046558D01*
X0073866Y0046549D01*
X0073919Y0046543D01*
X0073973Y0046541D01*
X0074723Y0046541D01*
X0074723Y0049241D01*
X0073973Y0049241D01*
X0073919Y0049239D01*
X0073866Y0049233D01*
X0073814Y0049224D01*
X0073762Y0049211D01*
X0073711Y0049194D01*
X0073661Y0049173D01*
X0073614Y0049149D01*
X0073568Y0049122D01*
X0073524Y0049091D01*
X0073482Y0049058D01*
X0073443Y0049021D01*
X0073406Y0048982D01*
X0073373Y0048940D01*
X0073342Y0048896D01*
X0073315Y0048850D01*
X0073291Y0048803D01*
X0073270Y0048753D01*
X0073253Y0048702D01*
X0073240Y0048650D01*
X0073231Y0048598D01*
X0073225Y0048545D01*
X0073223Y0048491D01*
X0076295Y0049241D02*
X0076295Y0046541D01*
X0077795Y0046541D02*
X0076295Y0049241D01*
X0077795Y0049241D02*
X0077795Y0046541D01*
X0079367Y0046541D02*
X0080267Y0046541D01*
X0080314Y0046543D01*
X0080361Y0046548D01*
X0080407Y0046558D01*
X0080452Y0046570D01*
X0080497Y0046587D01*
X0080539Y0046606D01*
X0080580Y0046629D01*
X0080620Y0046656D01*
X0080657Y0046685D01*
X0080691Y0046717D01*
X0080723Y0046751D01*
X0080752Y0046788D01*
X0080779Y0046828D01*
X0080802Y0046869D01*
X0080821Y0046911D01*
X0080838Y0046956D01*
X0080850Y0047001D01*
X0080860Y0047047D01*
X0080865Y0047094D01*
X0080867Y0047141D01*
X0080867Y0048641D01*
X0080865Y0048688D01*
X0080860Y0048735D01*
X0080850Y0048781D01*
X0080838Y0048826D01*
X0080821Y0048871D01*
X0080802Y0048913D01*
X0080779Y0048954D01*
X0080752Y0048994D01*
X0080723Y0049031D01*
X0080691Y0049065D01*
X0080657Y0049097D01*
X0080620Y0049126D01*
X0080580Y0049153D01*
X0080539Y0049176D01*
X0080497Y0049195D01*
X0080452Y0049212D01*
X0080407Y0049224D01*
X0080361Y0049234D01*
X0080314Y0049239D01*
X0080267Y0049241D01*
X0079367Y0049241D01*
X0079367Y0047741D01*
X0079817Y0047741D01*
X0084736Y0046541D02*
X0085336Y0046541D01*
X0085383Y0046543D01*
X0085430Y0046548D01*
X0085476Y0046558D01*
X0085521Y0046570D01*
X0085566Y0046587D01*
X0085608Y0046606D01*
X0085649Y0046629D01*
X0085689Y0046656D01*
X0085726Y0046685D01*
X0085760Y0046717D01*
X0085792Y0046751D01*
X0085821Y0046788D01*
X0085848Y0046828D01*
X0085871Y0046869D01*
X0085890Y0046911D01*
X0085907Y0046956D01*
X0085919Y0047001D01*
X0085929Y0047047D01*
X0085934Y0047094D01*
X0085936Y0047141D01*
X0085936Y0048641D01*
X0085934Y0048688D01*
X0085929Y0048735D01*
X0085919Y0048781D01*
X0085907Y0048826D01*
X0085890Y0048871D01*
X0085871Y0048913D01*
X0085848Y0048954D01*
X0085821Y0048994D01*
X0085792Y0049031D01*
X0085760Y0049065D01*
X0085726Y0049097D01*
X0085689Y0049126D01*
X0085649Y0049153D01*
X0085608Y0049176D01*
X0085566Y0049195D01*
X0085521Y0049212D01*
X0085476Y0049224D01*
X0085430Y0049234D01*
X0085383Y0049239D01*
X0085336Y0049241D01*
X0084736Y0049241D01*
X0087136Y0049241D02*
X0087736Y0049241D01*
X0087783Y0049239D01*
X0087830Y0049234D01*
X0087876Y0049224D01*
X0087921Y0049212D01*
X0087966Y0049195D01*
X0088008Y0049176D01*
X0088049Y0049153D01*
X0088089Y0049126D01*
X0088126Y0049097D01*
X0088160Y0049065D01*
X0088192Y0049031D01*
X0088221Y0048994D01*
X0088248Y0048954D01*
X0088271Y0048913D01*
X0088290Y0048871D01*
X0088307Y0048826D01*
X0088319Y0048781D01*
X0088329Y0048735D01*
X0088334Y0048688D01*
X0088336Y0048641D01*
X0088336Y0047141D01*
X0088334Y0047094D01*
X0088329Y0047047D01*
X0088319Y0047001D01*
X0088307Y0046956D01*
X0088290Y0046911D01*
X0088271Y0046869D01*
X0088248Y0046828D01*
X0088221Y0046788D01*
X0088192Y0046751D01*
X0088160Y0046717D01*
X0088126Y0046685D01*
X0088089Y0046656D01*
X0088049Y0046629D01*
X0088008Y0046606D01*
X0087966Y0046587D01*
X0087921Y0046570D01*
X0087876Y0046558D01*
X0087830Y0046548D01*
X0087783Y0046543D01*
X0087736Y0046541D01*
X0087136Y0046541D01*
X0089554Y0046541D02*
X0090454Y0049241D01*
X0091354Y0046541D01*
X0094017Y0048566D02*
X0095367Y0048566D01*
X0095592Y0049241D02*
X0094692Y0046541D01*
X0093792Y0049241D01*
X0096918Y0048491D02*
X0096918Y0047291D01*
X0096920Y0047237D01*
X0096926Y0047184D01*
X0096935Y0047132D01*
X0096948Y0047080D01*
X0096965Y0047029D01*
X0096986Y0046979D01*
X0097010Y0046932D01*
X0097037Y0046886D01*
X0097068Y0046842D01*
X0097101Y0046800D01*
X0097138Y0046761D01*
X0097177Y0046724D01*
X0097219Y0046691D01*
X0097263Y0046660D01*
X0097309Y0046633D01*
X0097356Y0046609D01*
X0097406Y0046588D01*
X0097457Y0046571D01*
X0097509Y0046558D01*
X0097561Y0046549D01*
X0097614Y0046543D01*
X0097668Y0046541D01*
X0098418Y0046541D01*
X0098418Y0049241D01*
X0097668Y0049241D01*
X0097614Y0049239D01*
X0097561Y0049233D01*
X0097509Y0049224D01*
X0097457Y0049211D01*
X0097406Y0049194D01*
X0097356Y0049173D01*
X0097309Y0049149D01*
X0097263Y0049122D01*
X0097219Y0049091D01*
X0097177Y0049058D01*
X0097138Y0049021D01*
X0097101Y0048982D01*
X0097068Y0048940D01*
X0097037Y0048896D01*
X0097010Y0048850D01*
X0096986Y0048803D01*
X0096965Y0048753D01*
X0096948Y0048702D01*
X0096935Y0048650D01*
X0096926Y0048598D01*
X0096920Y0048545D01*
X0096918Y0048491D01*
X0100098Y0048116D02*
X0100923Y0047666D01*
X0100623Y0046541D02*
X0100557Y0046543D01*
X0100492Y0046549D01*
X0100427Y0046558D01*
X0100362Y0046572D01*
X0100299Y0046589D01*
X0100236Y0046610D01*
X0100175Y0046634D01*
X0100116Y0046662D01*
X0100058Y0046693D01*
X0100002Y0046728D01*
X0099948Y0046766D01*
X0100923Y0047666D02*
X0100964Y0047639D01*
X0101003Y0047610D01*
X0101039Y0047577D01*
X0101072Y0047542D01*
X0101103Y0047504D01*
X0101130Y0047464D01*
X0101154Y0047422D01*
X0101175Y0047378D01*
X0101192Y0047332D01*
X0101206Y0047286D01*
X0101215Y0047238D01*
X0101221Y0047190D01*
X0101223Y0047141D01*
X0101221Y0047094D01*
X0101216Y0047047D01*
X0101206Y0047001D01*
X0101194Y0046956D01*
X0101177Y0046911D01*
X0101158Y0046869D01*
X0101135Y0046828D01*
X0101108Y0046788D01*
X0101079Y0046751D01*
X0101047Y0046717D01*
X0101013Y0046685D01*
X0100976Y0046656D01*
X0100936Y0046629D01*
X0100895Y0046606D01*
X0100853Y0046587D01*
X0100808Y0046570D01*
X0100763Y0046558D01*
X0100717Y0046548D01*
X0100670Y0046543D01*
X0100623Y0046541D01*
X0101298Y0048865D02*
X0101249Y0048911D01*
X0101199Y0048955D01*
X0101146Y0048996D01*
X0101091Y0049033D01*
X0101035Y0049068D01*
X0100976Y0049100D01*
X0100916Y0049129D01*
X0100854Y0049155D01*
X0100792Y0049177D01*
X0100728Y0049196D01*
X0100663Y0049212D01*
X0100597Y0049224D01*
X0100531Y0049233D01*
X0100465Y0049238D01*
X0100398Y0049240D01*
X0100398Y0049241D02*
X0100351Y0049239D01*
X0100304Y0049234D01*
X0100258Y0049224D01*
X0100213Y0049212D01*
X0100168Y0049195D01*
X0100126Y0049176D01*
X0100085Y0049153D01*
X0100045Y0049126D01*
X0100008Y0049097D01*
X0099974Y0049065D01*
X0099942Y0049031D01*
X0099913Y0048994D01*
X0099886Y0048954D01*
X0099863Y0048913D01*
X0099844Y0048871D01*
X0099827Y0048826D01*
X0099815Y0048781D01*
X0099805Y0048735D01*
X0099800Y0048688D01*
X0099798Y0048641D01*
X0099799Y0048641D02*
X0099801Y0048592D01*
X0099807Y0048544D01*
X0099816Y0048496D01*
X0099830Y0048450D01*
X0099847Y0048404D01*
X0099868Y0048360D01*
X0099892Y0048318D01*
X0099919Y0048278D01*
X0099950Y0048240D01*
X0099983Y0048205D01*
X0100019Y0048172D01*
X0100058Y0048143D01*
X0100099Y0048116D01*
X0103801Y0049241D02*
X0105001Y0049241D01*
X0105001Y0046541D01*
X0106318Y0046541D02*
X0106918Y0046541D01*
X0106965Y0046543D01*
X0107012Y0046548D01*
X0107058Y0046558D01*
X0107103Y0046570D01*
X0107148Y0046587D01*
X0107190Y0046606D01*
X0107231Y0046629D01*
X0107271Y0046656D01*
X0107308Y0046685D01*
X0107342Y0046717D01*
X0107374Y0046751D01*
X0107403Y0046788D01*
X0107430Y0046828D01*
X0107453Y0046869D01*
X0107472Y0046911D01*
X0107489Y0046956D01*
X0107501Y0047001D01*
X0107511Y0047047D01*
X0107516Y0047094D01*
X0107518Y0047141D01*
X0107518Y0048641D01*
X0107516Y0048688D01*
X0107511Y0048735D01*
X0107501Y0048781D01*
X0107489Y0048826D01*
X0107472Y0048871D01*
X0107453Y0048913D01*
X0107430Y0048954D01*
X0107403Y0048994D01*
X0107374Y0049031D01*
X0107342Y0049065D01*
X0107308Y0049097D01*
X0107271Y0049126D01*
X0107231Y0049153D01*
X0107190Y0049176D01*
X0107148Y0049195D01*
X0107103Y0049212D01*
X0107058Y0049224D01*
X0107012Y0049234D01*
X0106965Y0049239D01*
X0106918Y0049241D01*
X0106318Y0049241D01*
X0109089Y0048116D02*
X0109914Y0047666D01*
X0109614Y0046541D02*
X0109548Y0046543D01*
X0109483Y0046549D01*
X0109418Y0046558D01*
X0109353Y0046572D01*
X0109290Y0046589D01*
X0109227Y0046610D01*
X0109166Y0046634D01*
X0109107Y0046662D01*
X0109049Y0046693D01*
X0108993Y0046728D01*
X0108939Y0046766D01*
X0109914Y0047666D02*
X0109955Y0047639D01*
X0109994Y0047610D01*
X0110030Y0047577D01*
X0110063Y0047542D01*
X0110094Y0047504D01*
X0110121Y0047464D01*
X0110145Y0047422D01*
X0110166Y0047378D01*
X0110183Y0047332D01*
X0110197Y0047286D01*
X0110206Y0047238D01*
X0110212Y0047190D01*
X0110214Y0047141D01*
X0110212Y0047094D01*
X0110207Y0047047D01*
X0110197Y0047001D01*
X0110185Y0046956D01*
X0110168Y0046911D01*
X0110149Y0046869D01*
X0110126Y0046828D01*
X0110099Y0046788D01*
X0110070Y0046751D01*
X0110038Y0046717D01*
X0110004Y0046685D01*
X0109967Y0046656D01*
X0109927Y0046629D01*
X0109886Y0046606D01*
X0109844Y0046587D01*
X0109799Y0046570D01*
X0109754Y0046558D01*
X0109708Y0046548D01*
X0109661Y0046543D01*
X0109614Y0046541D01*
X0110195Y0046463D02*
X0110195Y0045713D01*
X0112895Y0045713D01*
X0112895Y0046463D01*
X0112893Y0046517D01*
X0112887Y0046570D01*
X0112878Y0046622D01*
X0112865Y0046674D01*
X0112848Y0046725D01*
X0112827Y0046775D01*
X0112803Y0046822D01*
X0112776Y0046868D01*
X0112745Y0046912D01*
X0112712Y0046954D01*
X0112675Y0046993D01*
X0112636Y0047030D01*
X0112594Y0047063D01*
X0112550Y0047094D01*
X0112504Y0047121D01*
X0112457Y0047145D01*
X0112407Y0047166D01*
X0112356Y0047183D01*
X0112304Y0047196D01*
X0112252Y0047205D01*
X0112199Y0047211D01*
X0112145Y0047213D01*
X0110945Y0047213D01*
X0110891Y0047211D01*
X0110838Y0047205D01*
X0110786Y0047196D01*
X0110734Y0047183D01*
X0110683Y0047166D01*
X0110633Y0047145D01*
X0110586Y0047121D01*
X0110540Y0047094D01*
X0110496Y0047063D01*
X0110454Y0047030D01*
X0110415Y0046993D01*
X0110378Y0046954D01*
X0110345Y0046912D01*
X0110314Y0046868D01*
X0110287Y0046822D01*
X0110263Y0046775D01*
X0110242Y0046725D01*
X0110225Y0046674D01*
X0110212Y0046622D01*
X0110203Y0046570D01*
X0110197Y0046517D01*
X0110195Y0046463D01*
X0110289Y0048865D02*
X0110240Y0048911D01*
X0110190Y0048955D01*
X0110137Y0048996D01*
X0110082Y0049033D01*
X0110026Y0049068D01*
X0109967Y0049100D01*
X0109907Y0049129D01*
X0109845Y0049155D01*
X0109783Y0049177D01*
X0109719Y0049196D01*
X0109654Y0049212D01*
X0109588Y0049224D01*
X0109522Y0049233D01*
X0109456Y0049238D01*
X0109389Y0049240D01*
X0109389Y0049241D02*
X0109342Y0049239D01*
X0109295Y0049234D01*
X0109249Y0049224D01*
X0109204Y0049212D01*
X0109159Y0049195D01*
X0109117Y0049176D01*
X0109076Y0049153D01*
X0109036Y0049126D01*
X0108999Y0049097D01*
X0108965Y0049065D01*
X0108933Y0049031D01*
X0108904Y0048994D01*
X0108877Y0048954D01*
X0108854Y0048913D01*
X0108835Y0048871D01*
X0108818Y0048826D01*
X0108806Y0048781D01*
X0108796Y0048735D01*
X0108791Y0048688D01*
X0108789Y0048641D01*
X0108790Y0048641D02*
X0108792Y0048592D01*
X0108798Y0048544D01*
X0108807Y0048496D01*
X0108821Y0048450D01*
X0108838Y0048404D01*
X0108859Y0048360D01*
X0108883Y0048318D01*
X0108910Y0048278D01*
X0108941Y0048240D01*
X0108974Y0048205D01*
X0109010Y0048172D01*
X0109049Y0048143D01*
X0109090Y0048116D01*
X0113750Y0049296D02*
X0116545Y0049296D01*
X0116545Y0007485D01*
X0113750Y0007485D01*
X0113750Y0049296D01*
X0116545Y0049296D02*
X0139341Y0049296D01*
X0139341Y0007485D01*
X0116545Y0007485D01*
X0111320Y0010521D02*
X0111770Y0011346D01*
X0112895Y0011046D02*
X0112893Y0010979D01*
X0112888Y0010913D01*
X0112879Y0010847D01*
X0112867Y0010781D01*
X0112851Y0010716D01*
X0112832Y0010652D01*
X0112810Y0010590D01*
X0112784Y0010528D01*
X0112755Y0010468D01*
X0112723Y0010409D01*
X0112688Y0010353D01*
X0112651Y0010298D01*
X0112610Y0010245D01*
X0112566Y0010195D01*
X0112520Y0010146D01*
X0111770Y0011346D02*
X0111797Y0011387D01*
X0111826Y0011426D01*
X0111859Y0011462D01*
X0111894Y0011495D01*
X0111932Y0011526D01*
X0111972Y0011553D01*
X0112014Y0011577D01*
X0112058Y0011598D01*
X0112104Y0011615D01*
X0112150Y0011629D01*
X0112198Y0011638D01*
X0112246Y0011644D01*
X0112295Y0011646D01*
X0112342Y0011644D01*
X0112389Y0011639D01*
X0112435Y0011629D01*
X0112480Y0011617D01*
X0112525Y0011600D01*
X0112567Y0011581D01*
X0112608Y0011558D01*
X0112648Y0011531D01*
X0112685Y0011502D01*
X0112719Y0011470D01*
X0112751Y0011436D01*
X0112780Y0011399D01*
X0112807Y0011359D01*
X0112830Y0011318D01*
X0112849Y0011276D01*
X0112866Y0011231D01*
X0112878Y0011186D01*
X0112888Y0011140D01*
X0112893Y0011093D01*
X0112895Y0011046D01*
X0110420Y0011496D02*
X0110382Y0011442D01*
X0110347Y0011386D01*
X0110316Y0011328D01*
X0110288Y0011269D01*
X0110264Y0011208D01*
X0110243Y0011145D01*
X0110226Y0011082D01*
X0110212Y0011017D01*
X0110203Y0010952D01*
X0110197Y0010887D01*
X0110195Y0010821D01*
X0110197Y0010774D01*
X0110202Y0010727D01*
X0110212Y0010681D01*
X0110224Y0010636D01*
X0110241Y0010591D01*
X0110260Y0010549D01*
X0110283Y0010508D01*
X0110310Y0010468D01*
X0110339Y0010431D01*
X0110371Y0010397D01*
X0110405Y0010365D01*
X0110442Y0010336D01*
X0110482Y0010309D01*
X0110523Y0010286D01*
X0110565Y0010267D01*
X0110610Y0010250D01*
X0110655Y0010238D01*
X0110701Y0010228D01*
X0110748Y0010223D01*
X0110795Y0010221D01*
X0110795Y0010222D02*
X0110844Y0010224D01*
X0110892Y0010230D01*
X0110940Y0010239D01*
X0110986Y0010253D01*
X0111032Y0010270D01*
X0111076Y0010291D01*
X0111118Y0010315D01*
X0111158Y0010342D01*
X0111196Y0010373D01*
X0111231Y0010406D01*
X0111264Y0010442D01*
X0111293Y0010481D01*
X0111320Y0010522D01*
X0110795Y0012918D02*
X0112295Y0012918D01*
X0112342Y0012920D01*
X0112389Y0012925D01*
X0112435Y0012935D01*
X0112480Y0012947D01*
X0112525Y0012964D01*
X0112567Y0012983D01*
X0112608Y0013006D01*
X0112648Y0013033D01*
X0112685Y0013062D01*
X0112719Y0013094D01*
X0112751Y0013128D01*
X0112780Y0013165D01*
X0112807Y0013205D01*
X0112830Y0013246D01*
X0112849Y0013288D01*
X0112866Y0013333D01*
X0112878Y0013378D01*
X0112888Y0013424D01*
X0112893Y0013471D01*
X0112895Y0013518D01*
X0112895Y0014118D01*
X0112895Y0015435D02*
X0110195Y0015435D01*
X0110195Y0014118D02*
X0110195Y0013518D01*
X0110197Y0013471D01*
X0110202Y0013424D01*
X0110212Y0013378D01*
X0110224Y0013333D01*
X0110241Y0013288D01*
X0110260Y0013246D01*
X0110283Y0013205D01*
X0110310Y0013165D01*
X0110339Y0013128D01*
X0110371Y0013094D01*
X0110405Y0013062D01*
X0110442Y0013033D01*
X0110482Y0013006D01*
X0110523Y0012983D01*
X0110565Y0012964D01*
X0110610Y0012947D01*
X0110655Y0012935D01*
X0110701Y0012925D01*
X0110748Y0012920D01*
X0110795Y0012918D01*
X0112895Y0015435D02*
X0112895Y0016635D01*
X0111320Y0020013D02*
X0111770Y0020838D01*
X0112895Y0020538D02*
X0112893Y0020471D01*
X0112888Y0020405D01*
X0112879Y0020339D01*
X0112867Y0020273D01*
X0112851Y0020208D01*
X0112832Y0020144D01*
X0112810Y0020082D01*
X0112784Y0020020D01*
X0112755Y0019960D01*
X0112723Y0019901D01*
X0112688Y0019845D01*
X0112651Y0019790D01*
X0112610Y0019737D01*
X0112566Y0019687D01*
X0112520Y0019638D01*
X0111770Y0020837D02*
X0111797Y0020878D01*
X0111826Y0020917D01*
X0111859Y0020953D01*
X0111894Y0020986D01*
X0111932Y0021017D01*
X0111972Y0021044D01*
X0112014Y0021068D01*
X0112058Y0021089D01*
X0112104Y0021106D01*
X0112150Y0021120D01*
X0112198Y0021129D01*
X0112246Y0021135D01*
X0112295Y0021137D01*
X0112295Y0021138D02*
X0112342Y0021136D01*
X0112389Y0021131D01*
X0112435Y0021121D01*
X0112480Y0021109D01*
X0112525Y0021092D01*
X0112567Y0021073D01*
X0112608Y0021050D01*
X0112648Y0021023D01*
X0112685Y0020994D01*
X0112719Y0020962D01*
X0112751Y0020928D01*
X0112780Y0020891D01*
X0112807Y0020851D01*
X0112830Y0020810D01*
X0112849Y0020768D01*
X0112866Y0020723D01*
X0112878Y0020678D01*
X0112888Y0020632D01*
X0112893Y0020585D01*
X0112895Y0020538D01*
X0110420Y0020988D02*
X0110382Y0020934D01*
X0110347Y0020878D01*
X0110316Y0020820D01*
X0110288Y0020761D01*
X0110264Y0020700D01*
X0110243Y0020637D01*
X0110226Y0020574D01*
X0110212Y0020509D01*
X0110203Y0020444D01*
X0110197Y0020379D01*
X0110195Y0020313D01*
X0110197Y0020266D01*
X0110202Y0020219D01*
X0110212Y0020173D01*
X0110224Y0020128D01*
X0110241Y0020083D01*
X0110260Y0020041D01*
X0110283Y0020000D01*
X0110310Y0019960D01*
X0110339Y0019923D01*
X0110371Y0019889D01*
X0110405Y0019857D01*
X0110442Y0019828D01*
X0110482Y0019801D01*
X0110523Y0019778D01*
X0110565Y0019759D01*
X0110610Y0019742D01*
X0110655Y0019730D01*
X0110701Y0019720D01*
X0110748Y0019715D01*
X0110795Y0019713D01*
X0110844Y0019715D01*
X0110892Y0019721D01*
X0110940Y0019730D01*
X0110986Y0019744D01*
X0111032Y0019761D01*
X0111076Y0019782D01*
X0111118Y0019806D01*
X0111158Y0019833D01*
X0111196Y0019864D01*
X0111231Y0019897D01*
X0111264Y0019933D01*
X0111293Y0019972D01*
X0111320Y0020013D01*
X0110195Y0022518D02*
X0110195Y0023268D01*
X0110197Y0023322D01*
X0110203Y0023375D01*
X0110212Y0023427D01*
X0110225Y0023479D01*
X0110242Y0023530D01*
X0110263Y0023580D01*
X0110287Y0023627D01*
X0110314Y0023673D01*
X0110345Y0023717D01*
X0110378Y0023759D01*
X0110415Y0023798D01*
X0110454Y0023835D01*
X0110496Y0023868D01*
X0110540Y0023899D01*
X0110586Y0023926D01*
X0110633Y0023950D01*
X0110683Y0023971D01*
X0110734Y0023988D01*
X0110786Y0024001D01*
X0110838Y0024010D01*
X0110891Y0024016D01*
X0110945Y0024018D01*
X0112145Y0024018D01*
X0112199Y0024016D01*
X0112252Y0024010D01*
X0112304Y0024001D01*
X0112356Y0023988D01*
X0112407Y0023971D01*
X0112457Y0023950D01*
X0112504Y0023926D01*
X0112550Y0023899D01*
X0112594Y0023868D01*
X0112636Y0023835D01*
X0112675Y0023798D01*
X0112712Y0023759D01*
X0112745Y0023717D01*
X0112776Y0023673D01*
X0112803Y0023627D01*
X0112827Y0023580D01*
X0112848Y0023530D01*
X0112865Y0023479D01*
X0112878Y0023427D01*
X0112887Y0023375D01*
X0112893Y0023322D01*
X0112895Y0023268D01*
X0112895Y0022518D01*
X0110195Y0022518D01*
X0110195Y0026244D02*
X0112895Y0025344D01*
X0112220Y0025569D02*
X0112220Y0026919D01*
X0112895Y0027144D02*
X0110195Y0026244D01*
X0110195Y0029582D02*
X0112895Y0030482D01*
X0110195Y0031382D01*
X0110795Y0032599D02*
X0112295Y0032599D01*
X0112342Y0032601D01*
X0112389Y0032606D01*
X0112435Y0032616D01*
X0112480Y0032628D01*
X0112525Y0032645D01*
X0112567Y0032664D01*
X0112608Y0032687D01*
X0112648Y0032714D01*
X0112685Y0032743D01*
X0112719Y0032775D01*
X0112751Y0032809D01*
X0112780Y0032846D01*
X0112807Y0032886D01*
X0112830Y0032927D01*
X0112849Y0032969D01*
X0112866Y0033014D01*
X0112878Y0033059D01*
X0112888Y0033105D01*
X0112893Y0033152D01*
X0112895Y0033199D01*
X0112895Y0033799D01*
X0112295Y0034999D02*
X0110795Y0034999D01*
X0110748Y0035001D01*
X0110701Y0035006D01*
X0110655Y0035016D01*
X0110610Y0035028D01*
X0110565Y0035045D01*
X0110523Y0035064D01*
X0110482Y0035087D01*
X0110442Y0035114D01*
X0110405Y0035143D01*
X0110371Y0035175D01*
X0110339Y0035209D01*
X0110310Y0035246D01*
X0110283Y0035286D01*
X0110260Y0035327D01*
X0110241Y0035369D01*
X0110224Y0035414D01*
X0110212Y0035459D01*
X0110202Y0035505D01*
X0110197Y0035552D01*
X0110195Y0035599D01*
X0110195Y0036199D01*
X0112295Y0034999D02*
X0112342Y0035001D01*
X0112389Y0035006D01*
X0112435Y0035016D01*
X0112480Y0035028D01*
X0112525Y0035045D01*
X0112567Y0035064D01*
X0112608Y0035087D01*
X0112648Y0035114D01*
X0112685Y0035143D01*
X0112719Y0035175D01*
X0112751Y0035209D01*
X0112780Y0035246D01*
X0112807Y0035286D01*
X0112830Y0035327D01*
X0112849Y0035369D01*
X0112866Y0035414D01*
X0112878Y0035459D01*
X0112888Y0035505D01*
X0112893Y0035552D01*
X0112895Y0035599D01*
X0112895Y0036199D01*
X0110195Y0033799D02*
X0110195Y0033199D01*
X0110197Y0033152D01*
X0110202Y0033105D01*
X0110212Y0033059D01*
X0110224Y0033014D01*
X0110241Y0032969D01*
X0110260Y0032927D01*
X0110283Y0032886D01*
X0110310Y0032846D01*
X0110339Y0032809D01*
X0110371Y0032775D01*
X0110405Y0032743D01*
X0110442Y0032714D01*
X0110482Y0032687D01*
X0110523Y0032664D01*
X0110565Y0032645D01*
X0110610Y0032628D01*
X0110655Y0032616D01*
X0110701Y0032606D01*
X0110748Y0032601D01*
X0110795Y0032599D01*
X0110795Y0039569D02*
X0112295Y0039569D01*
X0112342Y0039571D01*
X0112389Y0039576D01*
X0112435Y0039586D01*
X0112480Y0039598D01*
X0112525Y0039615D01*
X0112567Y0039634D01*
X0112608Y0039657D01*
X0112648Y0039684D01*
X0112685Y0039713D01*
X0112719Y0039745D01*
X0112751Y0039779D01*
X0112780Y0039816D01*
X0112807Y0039856D01*
X0112830Y0039897D01*
X0112849Y0039939D01*
X0112866Y0039984D01*
X0112878Y0040029D01*
X0112888Y0040075D01*
X0112893Y0040122D01*
X0112895Y0040169D01*
X0112895Y0041069D01*
X0111395Y0041069D01*
X0111395Y0040619D01*
X0110795Y0039569D02*
X0110748Y0039571D01*
X0110701Y0039576D01*
X0110655Y0039586D01*
X0110610Y0039598D01*
X0110565Y0039615D01*
X0110523Y0039634D01*
X0110482Y0039657D01*
X0110442Y0039684D01*
X0110405Y0039713D01*
X0110371Y0039745D01*
X0110339Y0039779D01*
X0110310Y0039816D01*
X0110283Y0039856D01*
X0110260Y0039897D01*
X0110241Y0039939D01*
X0110224Y0039984D01*
X0110212Y0040029D01*
X0110202Y0040075D01*
X0110197Y0040122D01*
X0110195Y0040169D01*
X0110195Y0041069D01*
X0110195Y0042641D02*
X0112895Y0044141D01*
X0110195Y0044141D01*
X0110195Y0042641D02*
X0112895Y0042641D01*
X0112951Y0052891D02*
X0112951Y0075686D01*
X0071140Y0075686D01*
X0071140Y0052891D01*
X0069451Y0052891D02*
X0069451Y0075686D01*
X0027640Y0075686D01*
X0027640Y0052891D01*
X0024045Y0049296D02*
X0001250Y0049296D01*
X0001250Y0007485D01*
X0050140Y0007595D02*
X0050140Y0030391D01*
X0091951Y0030391D01*
X0091951Y0007595D01*
X0050140Y0007595D01*
X0050140Y0030391D02*
X0050140Y0033186D01*
X0091951Y0033186D01*
X0091951Y0030391D01*
X0089117Y0034041D02*
X0088367Y0034041D01*
X0088367Y0036741D01*
X0089117Y0036741D01*
X0089171Y0036739D01*
X0089224Y0036733D01*
X0089276Y0036724D01*
X0089328Y0036711D01*
X0089379Y0036694D01*
X0089429Y0036673D01*
X0089476Y0036649D01*
X0089522Y0036622D01*
X0089566Y0036591D01*
X0089608Y0036558D01*
X0089647Y0036521D01*
X0089684Y0036482D01*
X0089717Y0036440D01*
X0089748Y0036396D01*
X0089775Y0036350D01*
X0089799Y0036303D01*
X0089820Y0036253D01*
X0089837Y0036202D01*
X0089850Y0036150D01*
X0089859Y0036098D01*
X0089865Y0036045D01*
X0089867Y0035991D01*
X0089867Y0034791D01*
X0089865Y0034737D01*
X0089859Y0034684D01*
X0089850Y0034632D01*
X0089837Y0034580D01*
X0089820Y0034529D01*
X0089799Y0034479D01*
X0089775Y0034432D01*
X0089748Y0034386D01*
X0089717Y0034342D01*
X0089684Y0034300D01*
X0089647Y0034261D01*
X0089608Y0034224D01*
X0089566Y0034191D01*
X0089522Y0034160D01*
X0089476Y0034133D01*
X0089429Y0034109D01*
X0089379Y0034088D01*
X0089328Y0034071D01*
X0089276Y0034058D01*
X0089224Y0034049D01*
X0089171Y0034043D01*
X0089117Y0034041D01*
X0086795Y0034041D02*
X0086795Y0036741D01*
X0085295Y0036741D02*
X0086795Y0034041D01*
X0085295Y0034041D02*
X0085295Y0036741D01*
X0083723Y0036741D02*
X0082823Y0036741D01*
X0082776Y0036739D01*
X0082729Y0036734D01*
X0082683Y0036724D01*
X0082638Y0036712D01*
X0082593Y0036695D01*
X0082551Y0036676D01*
X0082510Y0036653D01*
X0082470Y0036626D01*
X0082433Y0036597D01*
X0082399Y0036565D01*
X0082367Y0036531D01*
X0082338Y0036494D01*
X0082311Y0036454D01*
X0082288Y0036413D01*
X0082269Y0036371D01*
X0082252Y0036326D01*
X0082240Y0036281D01*
X0082230Y0036235D01*
X0082225Y0036188D01*
X0082223Y0036141D01*
X0082223Y0034641D01*
X0082225Y0034594D01*
X0082230Y0034547D01*
X0082240Y0034501D01*
X0082252Y0034456D01*
X0082269Y0034411D01*
X0082288Y0034369D01*
X0082311Y0034328D01*
X0082338Y0034288D01*
X0082367Y0034251D01*
X0082399Y0034217D01*
X0082433Y0034185D01*
X0082470Y0034156D01*
X0082510Y0034129D01*
X0082551Y0034106D01*
X0082593Y0034087D01*
X0082638Y0034070D01*
X0082683Y0034058D01*
X0082729Y0034048D01*
X0082776Y0034043D01*
X0082823Y0034041D01*
X0083723Y0034041D01*
X0083723Y0035541D01*
X0083273Y0035541D01*
X0079354Y0036741D02*
X0078754Y0036741D01*
X0078707Y0036739D01*
X0078660Y0036734D01*
X0078614Y0036724D01*
X0078569Y0036712D01*
X0078524Y0036695D01*
X0078482Y0036676D01*
X0078441Y0036653D01*
X0078401Y0036626D01*
X0078364Y0036597D01*
X0078330Y0036565D01*
X0078298Y0036531D01*
X0078269Y0036494D01*
X0078242Y0036454D01*
X0078219Y0036413D01*
X0078200Y0036371D01*
X0078183Y0036326D01*
X0078171Y0036281D01*
X0078161Y0036235D01*
X0078156Y0036188D01*
X0078154Y0036141D01*
X0078154Y0034641D01*
X0078156Y0034594D01*
X0078161Y0034547D01*
X0078171Y0034501D01*
X0078183Y0034456D01*
X0078200Y0034411D01*
X0078219Y0034369D01*
X0078242Y0034328D01*
X0078269Y0034288D01*
X0078298Y0034251D01*
X0078330Y0034217D01*
X0078364Y0034185D01*
X0078401Y0034156D01*
X0078441Y0034129D01*
X0078482Y0034106D01*
X0078524Y0034087D01*
X0078569Y0034070D01*
X0078614Y0034058D01*
X0078660Y0034048D01*
X0078707Y0034043D01*
X0078754Y0034041D01*
X0079354Y0034041D01*
X0076954Y0034041D02*
X0076354Y0034041D01*
X0076307Y0034043D01*
X0076260Y0034048D01*
X0076214Y0034058D01*
X0076169Y0034070D01*
X0076124Y0034087D01*
X0076082Y0034106D01*
X0076041Y0034129D01*
X0076001Y0034156D01*
X0075964Y0034185D01*
X0075930Y0034217D01*
X0075898Y0034251D01*
X0075869Y0034288D01*
X0075842Y0034328D01*
X0075819Y0034369D01*
X0075800Y0034411D01*
X0075783Y0034456D01*
X0075771Y0034501D01*
X0075761Y0034547D01*
X0075756Y0034594D01*
X0075754Y0034641D01*
X0075754Y0036141D01*
X0075756Y0036188D01*
X0075761Y0036235D01*
X0075771Y0036281D01*
X0075783Y0036326D01*
X0075800Y0036371D01*
X0075819Y0036413D01*
X0075842Y0036454D01*
X0075869Y0036494D01*
X0075898Y0036531D01*
X0075930Y0036565D01*
X0075964Y0036597D01*
X0076001Y0036626D01*
X0076041Y0036653D01*
X0076082Y0036676D01*
X0076124Y0036695D01*
X0076169Y0036712D01*
X0076214Y0036724D01*
X0076260Y0036734D01*
X0076307Y0036739D01*
X0076354Y0036741D01*
X0076954Y0036741D01*
X0074536Y0036741D02*
X0073636Y0034041D01*
X0072736Y0036741D01*
X0069073Y0034716D02*
X0067723Y0034716D01*
X0067498Y0034041D02*
X0068398Y0036741D01*
X0069298Y0034041D01*
X0066172Y0034791D02*
X0066172Y0035991D01*
X0066170Y0036045D01*
X0066164Y0036098D01*
X0066155Y0036150D01*
X0066142Y0036202D01*
X0066125Y0036253D01*
X0066104Y0036303D01*
X0066080Y0036350D01*
X0066053Y0036396D01*
X0066022Y0036440D01*
X0065989Y0036482D01*
X0065952Y0036521D01*
X0065913Y0036558D01*
X0065871Y0036591D01*
X0065827Y0036622D01*
X0065781Y0036649D01*
X0065734Y0036673D01*
X0065684Y0036694D01*
X0065633Y0036711D01*
X0065581Y0036724D01*
X0065529Y0036733D01*
X0065476Y0036739D01*
X0065422Y0036741D01*
X0064672Y0036741D01*
X0064672Y0034041D01*
X0065422Y0034041D01*
X0065476Y0034043D01*
X0065529Y0034049D01*
X0065581Y0034058D01*
X0065633Y0034071D01*
X0065684Y0034088D01*
X0065734Y0034109D01*
X0065781Y0034133D01*
X0065827Y0034160D01*
X0065871Y0034191D01*
X0065913Y0034224D01*
X0065952Y0034261D01*
X0065989Y0034300D01*
X0066022Y0034342D01*
X0066053Y0034386D01*
X0066080Y0034432D01*
X0066104Y0034479D01*
X0066125Y0034529D01*
X0066142Y0034580D01*
X0066155Y0034632D01*
X0066164Y0034684D01*
X0066170Y0034737D01*
X0066172Y0034791D01*
X0062992Y0035166D02*
X0062167Y0035616D01*
X0062467Y0036741D02*
X0062533Y0036739D01*
X0062598Y0036733D01*
X0062663Y0036724D01*
X0062728Y0036710D01*
X0062791Y0036693D01*
X0062854Y0036672D01*
X0062915Y0036648D01*
X0062974Y0036620D01*
X0063032Y0036589D01*
X0063088Y0036554D01*
X0063142Y0036516D01*
X0062168Y0035616D02*
X0062127Y0035643D01*
X0062088Y0035672D01*
X0062052Y0035705D01*
X0062019Y0035740D01*
X0061988Y0035778D01*
X0061961Y0035818D01*
X0061937Y0035860D01*
X0061916Y0035904D01*
X0061899Y0035950D01*
X0061885Y0035996D01*
X0061876Y0036044D01*
X0061870Y0036092D01*
X0061868Y0036141D01*
X0061867Y0036141D02*
X0061869Y0036188D01*
X0061874Y0036235D01*
X0061884Y0036281D01*
X0061896Y0036326D01*
X0061913Y0036371D01*
X0061932Y0036413D01*
X0061955Y0036454D01*
X0061982Y0036494D01*
X0062011Y0036531D01*
X0062043Y0036565D01*
X0062077Y0036597D01*
X0062114Y0036626D01*
X0062154Y0036653D01*
X0062195Y0036676D01*
X0062237Y0036695D01*
X0062282Y0036712D01*
X0062327Y0036724D01*
X0062373Y0036734D01*
X0062420Y0036739D01*
X0062467Y0036741D01*
X0061792Y0034416D02*
X0061841Y0034370D01*
X0061891Y0034326D01*
X0061944Y0034285D01*
X0061999Y0034248D01*
X0062055Y0034213D01*
X0062114Y0034181D01*
X0062174Y0034152D01*
X0062236Y0034126D01*
X0062298Y0034104D01*
X0062362Y0034085D01*
X0062427Y0034069D01*
X0062493Y0034057D01*
X0062559Y0034048D01*
X0062625Y0034043D01*
X0062692Y0034041D01*
X0062739Y0034043D01*
X0062786Y0034048D01*
X0062832Y0034058D01*
X0062877Y0034070D01*
X0062922Y0034087D01*
X0062964Y0034106D01*
X0063005Y0034129D01*
X0063045Y0034156D01*
X0063082Y0034185D01*
X0063116Y0034217D01*
X0063148Y0034251D01*
X0063177Y0034288D01*
X0063204Y0034328D01*
X0063227Y0034369D01*
X0063246Y0034411D01*
X0063263Y0034456D01*
X0063275Y0034501D01*
X0063285Y0034547D01*
X0063290Y0034594D01*
X0063292Y0034641D01*
X0063290Y0034690D01*
X0063284Y0034738D01*
X0063275Y0034786D01*
X0063261Y0034832D01*
X0063244Y0034878D01*
X0063223Y0034922D01*
X0063199Y0034964D01*
X0063172Y0035004D01*
X0063141Y0035042D01*
X0063108Y0035077D01*
X0063072Y0035110D01*
X0063033Y0035139D01*
X0062992Y0035166D01*
X0058789Y0034041D02*
X0057589Y0034041D01*
X0057589Y0036741D01*
X0056273Y0036741D02*
X0055673Y0036741D01*
X0055626Y0036739D01*
X0055579Y0036734D01*
X0055533Y0036724D01*
X0055488Y0036712D01*
X0055443Y0036695D01*
X0055401Y0036676D01*
X0055360Y0036653D01*
X0055320Y0036626D01*
X0055283Y0036597D01*
X0055249Y0036565D01*
X0055217Y0036531D01*
X0055188Y0036494D01*
X0055161Y0036454D01*
X0055138Y0036413D01*
X0055119Y0036371D01*
X0055102Y0036326D01*
X0055090Y0036281D01*
X0055080Y0036235D01*
X0055075Y0036188D01*
X0055073Y0036141D01*
X0055073Y0034641D01*
X0055075Y0034594D01*
X0055080Y0034547D01*
X0055090Y0034501D01*
X0055102Y0034456D01*
X0055119Y0034411D01*
X0055138Y0034369D01*
X0055161Y0034328D01*
X0055188Y0034288D01*
X0055217Y0034251D01*
X0055249Y0034217D01*
X0055283Y0034185D01*
X0055320Y0034156D01*
X0055360Y0034129D01*
X0055401Y0034106D01*
X0055443Y0034087D01*
X0055488Y0034070D01*
X0055533Y0034058D01*
X0055579Y0034048D01*
X0055626Y0034043D01*
X0055673Y0034041D01*
X0056273Y0034041D01*
X0053501Y0035166D02*
X0052676Y0035616D01*
X0052976Y0036741D02*
X0053042Y0036739D01*
X0053107Y0036733D01*
X0053172Y0036724D01*
X0053237Y0036710D01*
X0053300Y0036693D01*
X0053363Y0036672D01*
X0053424Y0036648D01*
X0053483Y0036620D01*
X0053541Y0036589D01*
X0053597Y0036554D01*
X0053651Y0036516D01*
X0052676Y0035616D02*
X0052635Y0035643D01*
X0052596Y0035672D01*
X0052560Y0035705D01*
X0052527Y0035740D01*
X0052496Y0035778D01*
X0052469Y0035818D01*
X0052445Y0035860D01*
X0052424Y0035904D01*
X0052407Y0035950D01*
X0052393Y0035996D01*
X0052384Y0036044D01*
X0052378Y0036092D01*
X0052376Y0036141D01*
X0052378Y0036188D01*
X0052383Y0036235D01*
X0052393Y0036281D01*
X0052405Y0036326D01*
X0052422Y0036371D01*
X0052441Y0036413D01*
X0052464Y0036454D01*
X0052491Y0036494D01*
X0052520Y0036531D01*
X0052552Y0036565D01*
X0052586Y0036597D01*
X0052623Y0036626D01*
X0052663Y0036653D01*
X0052704Y0036676D01*
X0052746Y0036695D01*
X0052791Y0036712D01*
X0052836Y0036724D01*
X0052882Y0036734D01*
X0052929Y0036739D01*
X0052976Y0036741D01*
X0052301Y0034416D02*
X0052350Y0034370D01*
X0052400Y0034326D01*
X0052453Y0034285D01*
X0052508Y0034248D01*
X0052564Y0034213D01*
X0052623Y0034181D01*
X0052683Y0034152D01*
X0052745Y0034126D01*
X0052807Y0034104D01*
X0052871Y0034085D01*
X0052936Y0034069D01*
X0053002Y0034057D01*
X0053068Y0034048D01*
X0053134Y0034043D01*
X0053201Y0034041D01*
X0053248Y0034043D01*
X0053295Y0034048D01*
X0053341Y0034058D01*
X0053386Y0034070D01*
X0053431Y0034087D01*
X0053473Y0034106D01*
X0053514Y0034129D01*
X0053554Y0034156D01*
X0053591Y0034185D01*
X0053625Y0034217D01*
X0053657Y0034251D01*
X0053686Y0034288D01*
X0053713Y0034328D01*
X0053736Y0034369D01*
X0053755Y0034411D01*
X0053772Y0034456D01*
X0053784Y0034501D01*
X0053794Y0034547D01*
X0053799Y0034594D01*
X0053801Y0034641D01*
X0053799Y0034690D01*
X0053793Y0034738D01*
X0053784Y0034786D01*
X0053770Y0034832D01*
X0053753Y0034878D01*
X0053732Y0034922D01*
X0053708Y0034964D01*
X0053681Y0035004D01*
X0053650Y0035042D01*
X0053617Y0035077D01*
X0053581Y0035110D01*
X0053542Y0035139D01*
X0053501Y0035166D01*
D11*
X0056045Y0020391D03*
X0066045Y0020391D03*
X0076045Y0020391D03*
X0086045Y0020391D03*
X0126545Y0023391D03*
X0126545Y0033391D03*
X0126545Y0043391D03*
X0107045Y0062891D03*
X0097045Y0062891D03*
X0087045Y0062891D03*
X0077045Y0062891D03*
X0063545Y0062891D03*
X0053545Y0062891D03*
X0043545Y0062891D03*
X0033545Y0062891D03*
X0014045Y0043391D03*
X0014045Y0033391D03*
X0014045Y0023391D03*
X0014045Y0013391D03*
X0126545Y0013391D03*
M02*
