%
M48
M72
T01C0.04000
T02C0.13583
%
T01
X14045Y13391
X14045Y23391
X14045Y33391
X14045Y43391
X33545Y62891
X43545Y62891
X53545Y62891
X63545Y62891
X77045Y62891
X87045Y62891
X97045Y62891
X107045Y62891
X126545Y43391
X126545Y33391
X126545Y23391
X126545Y13391
X86045Y20391
X76045Y20391
X66045Y20391
X56045Y20391
T02
X11545Y65891
X129045Y65891
M30
