G04 EAGLE Gerber X2 export*
%TF.Part,Single*%
%TF.FileFunction,Copper,L1,Top,Mixed*%
%TF.FilePolarity,Positive*%
%TF.GenerationSoftware,Autodesk,EAGLE,9.1.3*%
%TF.CreationDate,2018-10-26T15:03:08Z*%
G75*
%MOMM*%
%FSLAX34Y34*%
%LPD*%
%AMOC8*
5,1,8,0,0,1.08239X$1,22.5*%
G01*
%ADD10C,1.524000*%
%ADD11R,0.635000X1.270000*%
%ADD12C,0.406400*%
%ADD13C,0.254000*%


D10*
X167640Y34290D03*
X193040Y34290D03*
X218440Y34290D03*
X243840Y34290D03*
X269240Y34290D03*
X294640Y34290D03*
X34290Y144780D03*
X34290Y119380D03*
X34290Y93980D03*
X34290Y68580D03*
X34290Y43180D03*
X34290Y17780D03*
X213360Y198120D03*
X187960Y198120D03*
X162560Y198120D03*
X137160Y198120D03*
X111760Y198120D03*
X86360Y198120D03*
X375920Y198120D03*
X350520Y198120D03*
X325120Y198120D03*
X299720Y198120D03*
X274320Y198120D03*
X248920Y198120D03*
X427990Y17780D03*
X427990Y43180D03*
X427990Y68580D03*
X427990Y93980D03*
X427990Y119380D03*
X427990Y144780D03*
D11*
X201676Y134620D03*
X209804Y134620D03*
X201676Y102870D03*
X209804Y102870D03*
D12*
X269240Y119380D02*
X269240Y34290D01*
X269240Y119380D02*
X269240Y173990D01*
X269240Y193040D01*
X274320Y198120D01*
X269240Y119380D02*
X427990Y119380D01*
X268700Y173450D02*
X134520Y173450D01*
X268700Y173450D02*
X269240Y173990D01*
X134520Y173450D02*
X111760Y196210D01*
X111760Y198120D01*
X22020Y148450D02*
X22020Y38450D01*
X234520Y195950D02*
X246862Y195950D01*
X234520Y195950D02*
X219520Y180950D01*
X137020Y180950D01*
X124520Y193450D01*
X124520Y203450D01*
X117020Y210950D01*
X246862Y195950D02*
X247650Y196850D01*
X248920Y198120D01*
X34290Y26180D02*
X22020Y38450D01*
X34290Y26180D02*
X34290Y17780D01*
X86360Y198120D02*
X99190Y210950D01*
X117020Y210950D01*
X22155Y148450D02*
X22020Y148450D01*
X44196Y155956D02*
X86360Y198120D01*
X29661Y155956D02*
X22155Y148450D01*
X29661Y155956D02*
X44196Y155956D01*
D13*
X209804Y134620D02*
X210830Y133690D01*
X109520Y68450D02*
X34520Y68450D01*
X34290Y68580D01*
X209804Y121666D02*
X209804Y134620D01*
X243840Y87630D02*
X243840Y34290D01*
X243840Y87630D02*
X209804Y121666D01*
X243840Y34290D02*
X243840Y34130D01*
X243840Y18370D02*
X294440Y18370D01*
X243840Y18370D02*
X159600Y18370D01*
X109520Y68450D01*
X243840Y34290D02*
X243840Y18370D01*
X370050Y93980D02*
X427990Y93980D01*
X370050Y93980D02*
X294440Y18370D01*
X218440Y94234D02*
X209804Y102870D01*
X218440Y94234D02*
X218440Y34290D01*
X182020Y23450D02*
X162020Y23450D01*
X182020Y23450D02*
X192020Y33450D01*
X193040Y34290D01*
X439520Y63450D02*
X439520Y123450D01*
X429520Y133450D01*
X217020Y185950D02*
X209520Y185950D01*
X217020Y185950D02*
X242020Y210950D01*
X193040Y94234D02*
X193040Y34290D01*
X193040Y94234D02*
X201676Y102870D01*
X66090Y119380D02*
X34290Y119380D01*
X66090Y119380D02*
X162020Y23450D01*
X187960Y198120D02*
X197350Y198120D01*
X209520Y185950D01*
X337690Y210950D02*
X350520Y198120D01*
X337690Y210950D02*
X242020Y210950D01*
X415190Y133450D02*
X429520Y133450D01*
X415190Y133450D02*
X350520Y198120D01*
X439520Y63450D02*
X427990Y51920D01*
X427990Y43180D01*
X201676Y134620D02*
X200830Y133690D01*
X167640Y87630D02*
X167640Y34290D01*
X201676Y121666D02*
X201676Y134620D01*
X201676Y121666D02*
X167640Y87630D01*
X71120Y144780D02*
X34290Y144780D01*
X71120Y144780D02*
X128270Y87630D01*
X167640Y87630D01*
X213360Y198120D02*
X231190Y215950D01*
X349520Y215950D01*
X367350Y198120D01*
X375920Y198120D01*
M02*
