M48
;GenerationSoftware,Autodesk,EAGLE,9.1.3*%
;CreationDate,2018-10-26T15:03:08Z*%
FMAT,2
ICI,OFF
METRIC,TZ,000.000
T2C1.016
T1C3.175
%
G90
M71
T1
X42749Y19762
X3479Y19762
T2
X16764Y3429
X19304Y3429
X21844Y3429
X24384Y3429
X26924Y3429
X29464Y3429
X3429Y14478
X3429Y11938
X3429Y9398
X3429Y6858
X3429Y4318
X3429Y1778
X21336Y19812
X18796Y19812
X16256Y19812
X13716Y19812
X11176Y19812
X8636Y19812
X37592Y19812
X35052Y19812
X32512Y19812
X29972Y19812
X27432Y19812
X24892Y19812
X42799Y1778
X42799Y4318
X42799Y6858
X42799Y9398
X42799Y11938
X42799Y14478
M30