G04 EAGLE Gerber X2 export*
%TF.Part,Single*%
%TF.FileFunction,Profile,NP*%
%TF.FilePolarity,Positive*%
%TF.GenerationSoftware,Autodesk,EAGLE,9.1.3*%
%TF.CreationDate,2018-10-26T15:03:08Z*%
G75*
%MOMM*%
%FSLAX34Y34*%
%LPD*%
%AMOC8*
5,1,8,0,0,1.08239X$1,22.5*%
G01*
%ADD10C,0.254000*%


D10*
X0Y0D02*
X462080Y0D01*
X462080Y211650D01*
X462004Y213393D01*
X461776Y215123D01*
X461399Y216826D01*
X460874Y218490D01*
X460206Y220102D01*
X459401Y221650D01*
X458463Y223122D01*
X457401Y224506D01*
X456222Y225792D01*
X454936Y226971D01*
X453552Y228033D01*
X452080Y228971D01*
X450532Y229776D01*
X448920Y230444D01*
X447256Y230969D01*
X445553Y231346D01*
X443823Y231574D01*
X442080Y231650D01*
X20000Y231650D01*
X18257Y231574D01*
X16527Y231346D01*
X14824Y230969D01*
X13160Y230444D01*
X11548Y229776D01*
X10000Y228971D01*
X8528Y228033D01*
X7144Y226971D01*
X5858Y225792D01*
X4679Y224506D01*
X3617Y223122D01*
X2680Y221650D01*
X1874Y220102D01*
X1206Y218490D01*
X681Y216826D01*
X304Y215123D01*
X76Y213393D01*
X0Y211650D01*
X0Y0D01*
X443365Y197100D02*
X443297Y196063D01*
X443161Y195033D01*
X442959Y194013D01*
X442690Y193009D01*
X442355Y192025D01*
X441958Y191065D01*
X441498Y190133D01*
X440978Y189232D01*
X440401Y188368D01*
X439768Y187544D01*
X439083Y186762D01*
X438348Y186027D01*
X437566Y185342D01*
X436742Y184709D01*
X435878Y184132D01*
X434977Y183612D01*
X434045Y183152D01*
X433085Y182755D01*
X432101Y182420D01*
X431097Y182151D01*
X430077Y181949D01*
X429047Y181813D01*
X428010Y181745D01*
X426970Y181745D01*
X425933Y181813D01*
X424903Y181949D01*
X423883Y182151D01*
X422879Y182420D01*
X421895Y182755D01*
X420935Y183152D01*
X420003Y183612D01*
X419102Y184132D01*
X418238Y184709D01*
X417414Y185342D01*
X416632Y186027D01*
X415897Y186762D01*
X415212Y187544D01*
X414579Y188368D01*
X414002Y189232D01*
X413482Y190133D01*
X413022Y191065D01*
X412625Y192025D01*
X412290Y193009D01*
X412021Y194013D01*
X411819Y195033D01*
X411683Y196063D01*
X411615Y197100D01*
X411615Y198140D01*
X411683Y199177D01*
X411819Y200207D01*
X412021Y201227D01*
X412290Y202231D01*
X412625Y203215D01*
X413022Y204175D01*
X413482Y205107D01*
X414002Y206008D01*
X414579Y206872D01*
X415212Y207696D01*
X415897Y208478D01*
X416632Y209213D01*
X417414Y209898D01*
X418238Y210531D01*
X419102Y211108D01*
X420003Y211628D01*
X420935Y212088D01*
X421895Y212485D01*
X422879Y212820D01*
X423883Y213089D01*
X424903Y213291D01*
X425933Y213427D01*
X426970Y213495D01*
X428010Y213495D01*
X429047Y213427D01*
X430077Y213291D01*
X431097Y213089D01*
X432101Y212820D01*
X433085Y212485D01*
X434045Y212088D01*
X434977Y211628D01*
X435878Y211108D01*
X436742Y210531D01*
X437566Y209898D01*
X438348Y209213D01*
X439083Y208478D01*
X439768Y207696D01*
X440401Y206872D01*
X440978Y206008D01*
X441498Y205107D01*
X441958Y204175D01*
X442355Y203215D01*
X442690Y202231D01*
X442959Y201227D01*
X443161Y200207D01*
X443297Y199177D01*
X443365Y198140D01*
X443365Y197100D01*
X50665Y197100D02*
X50597Y196063D01*
X50461Y195033D01*
X50259Y194013D01*
X49990Y193009D01*
X49655Y192025D01*
X49258Y191065D01*
X48798Y190133D01*
X48278Y189232D01*
X47701Y188368D01*
X47068Y187544D01*
X46383Y186762D01*
X45648Y186027D01*
X44866Y185342D01*
X44042Y184709D01*
X43178Y184132D01*
X42277Y183612D01*
X41345Y183152D01*
X40385Y182755D01*
X39401Y182420D01*
X38397Y182151D01*
X37377Y181949D01*
X36347Y181813D01*
X35310Y181745D01*
X34270Y181745D01*
X33233Y181813D01*
X32203Y181949D01*
X31183Y182151D01*
X30179Y182420D01*
X29195Y182755D01*
X28235Y183152D01*
X27303Y183612D01*
X26402Y184132D01*
X25538Y184709D01*
X24714Y185342D01*
X23932Y186027D01*
X23197Y186762D01*
X22512Y187544D01*
X21879Y188368D01*
X21302Y189232D01*
X20782Y190133D01*
X20322Y191065D01*
X19925Y192025D01*
X19590Y193009D01*
X19321Y194013D01*
X19119Y195033D01*
X18983Y196063D01*
X18915Y197100D01*
X18915Y198140D01*
X18983Y199177D01*
X19119Y200207D01*
X19321Y201227D01*
X19590Y202231D01*
X19925Y203215D01*
X20322Y204175D01*
X20782Y205107D01*
X21302Y206008D01*
X21879Y206872D01*
X22512Y207696D01*
X23197Y208478D01*
X23932Y209213D01*
X24714Y209898D01*
X25538Y210531D01*
X26402Y211108D01*
X27303Y211628D01*
X28235Y212088D01*
X29195Y212485D01*
X30179Y212820D01*
X31183Y213089D01*
X32203Y213291D01*
X33233Y213427D01*
X34270Y213495D01*
X35310Y213495D01*
X36347Y213427D01*
X37377Y213291D01*
X38397Y213089D01*
X39401Y212820D01*
X40385Y212485D01*
X41345Y212088D01*
X42277Y211628D01*
X43178Y211108D01*
X44042Y210531D01*
X44866Y209898D01*
X45648Y209213D01*
X46383Y208478D01*
X47068Y207696D01*
X47701Y206872D01*
X48278Y206008D01*
X48798Y205107D01*
X49258Y204175D01*
X49655Y203215D01*
X49990Y202231D01*
X50259Y201227D01*
X50461Y200207D01*
X50597Y199177D01*
X50665Y198140D01*
X50665Y197100D01*
M02*
