G04 EAGLE Gerber X2 export*
%TF.Part,Single*%
%TF.FileFunction,Legend,Top,1*%
%TF.FilePolarity,Positive*%
%TF.GenerationSoftware,Autodesk,EAGLE,9.1.3*%
%TF.CreationDate,2018-10-26T15:03:08Z*%
G75*
%MOMM*%
%FSLAX34Y34*%
%LPD*%
%AMOC8*
5,1,8,0,0,1.08239X$1,22.5*%
G01*
%ADD10C,0.127000*%
%ADD11R,0.508000X0.508000*%
%ADD12C,0.254000*%
%ADD13C,0.152400*%


D10*
X74041Y24821D02*
X74041Y23678D01*
X70231Y23678D01*
X70231Y25964D01*
X70233Y26041D01*
X70239Y26118D01*
X70249Y26195D01*
X70262Y26271D01*
X70280Y26346D01*
X70301Y26420D01*
X70326Y26493D01*
X70355Y26565D01*
X70387Y26635D01*
X70422Y26704D01*
X70462Y26770D01*
X70504Y26835D01*
X70550Y26897D01*
X70599Y26957D01*
X70650Y27014D01*
X70705Y27069D01*
X70762Y27120D01*
X70822Y27169D01*
X70884Y27215D01*
X70949Y27257D01*
X71015Y27297D01*
X71084Y27332D01*
X71154Y27364D01*
X71226Y27393D01*
X71299Y27418D01*
X71373Y27439D01*
X71448Y27457D01*
X71524Y27470D01*
X71601Y27480D01*
X71678Y27486D01*
X71755Y27488D01*
X75565Y27488D01*
X75642Y27486D01*
X75719Y27480D01*
X75796Y27470D01*
X75872Y27457D01*
X75947Y27439D01*
X76021Y27418D01*
X76094Y27393D01*
X76166Y27364D01*
X76236Y27332D01*
X76305Y27297D01*
X76371Y27257D01*
X76436Y27215D01*
X76498Y27169D01*
X76558Y27120D01*
X76615Y27069D01*
X76670Y27014D01*
X76721Y26957D01*
X76770Y26897D01*
X76816Y26835D01*
X76858Y26770D01*
X76898Y26704D01*
X76933Y26635D01*
X76965Y26565D01*
X76994Y26493D01*
X77019Y26420D01*
X77040Y26346D01*
X77058Y26271D01*
X77071Y26195D01*
X77081Y26118D01*
X77087Y26041D01*
X77089Y25964D01*
X77089Y23678D01*
X77089Y19685D02*
X70231Y19685D01*
X70231Y15875D02*
X77089Y19685D01*
X77089Y15875D02*
X70231Y15875D01*
X70231Y11882D02*
X77089Y11882D01*
X77089Y9977D01*
X77087Y9892D01*
X77081Y9806D01*
X77072Y9721D01*
X77058Y9637D01*
X77041Y9553D01*
X77020Y9470D01*
X76996Y9388D01*
X76968Y9308D01*
X76936Y9228D01*
X76900Y9150D01*
X76862Y9074D01*
X76819Y9000D01*
X76774Y8928D01*
X76725Y8857D01*
X76673Y8789D01*
X76619Y8724D01*
X76561Y8661D01*
X76500Y8600D01*
X76437Y8542D01*
X76372Y8488D01*
X76304Y8436D01*
X76233Y8387D01*
X76161Y8342D01*
X76087Y8299D01*
X76011Y8261D01*
X75933Y8225D01*
X75853Y8193D01*
X75773Y8165D01*
X75691Y8141D01*
X75608Y8120D01*
X75524Y8103D01*
X75440Y8089D01*
X75355Y8080D01*
X75269Y8074D01*
X75184Y8072D01*
X72136Y8072D01*
X72051Y8074D01*
X71965Y8080D01*
X71880Y8089D01*
X71796Y8103D01*
X71712Y8120D01*
X71629Y8141D01*
X71547Y8165D01*
X71467Y8193D01*
X71387Y8225D01*
X71309Y8261D01*
X71233Y8299D01*
X71159Y8342D01*
X71087Y8387D01*
X71016Y8436D01*
X70948Y8488D01*
X70883Y8542D01*
X70820Y8600D01*
X70759Y8661D01*
X70701Y8724D01*
X70647Y8789D01*
X70595Y8857D01*
X70546Y8928D01*
X70501Y9000D01*
X70458Y9074D01*
X70420Y9150D01*
X70384Y9228D01*
X70352Y9308D01*
X70324Y9388D01*
X70300Y9470D01*
X70279Y9553D01*
X70262Y9637D01*
X70248Y9721D01*
X70239Y9806D01*
X70233Y9892D01*
X70231Y9977D01*
X70231Y11882D01*
X70231Y49298D02*
X77089Y51584D01*
X77089Y47012D02*
X70231Y49298D01*
X70231Y42396D02*
X70231Y40872D01*
X70231Y42396D02*
X70233Y42473D01*
X70239Y42550D01*
X70249Y42627D01*
X70262Y42703D01*
X70280Y42778D01*
X70301Y42852D01*
X70326Y42925D01*
X70355Y42997D01*
X70387Y43067D01*
X70422Y43136D01*
X70462Y43202D01*
X70504Y43267D01*
X70550Y43329D01*
X70599Y43389D01*
X70650Y43446D01*
X70705Y43501D01*
X70762Y43552D01*
X70822Y43601D01*
X70884Y43647D01*
X70949Y43689D01*
X71015Y43729D01*
X71084Y43764D01*
X71154Y43796D01*
X71226Y43825D01*
X71299Y43850D01*
X71373Y43871D01*
X71448Y43889D01*
X71524Y43902D01*
X71601Y43912D01*
X71678Y43918D01*
X71755Y43920D01*
X75565Y43920D01*
X75642Y43918D01*
X75719Y43912D01*
X75796Y43902D01*
X75872Y43889D01*
X75947Y43871D01*
X76021Y43850D01*
X76094Y43825D01*
X76166Y43796D01*
X76236Y43764D01*
X76305Y43729D01*
X76371Y43689D01*
X76436Y43647D01*
X76498Y43601D01*
X76558Y43552D01*
X76615Y43501D01*
X76670Y43446D01*
X76721Y43389D01*
X76770Y43329D01*
X76816Y43267D01*
X76858Y43202D01*
X76898Y43136D01*
X76933Y43067D01*
X76965Y42997D01*
X76994Y42925D01*
X77019Y42852D01*
X77040Y42778D01*
X77058Y42703D01*
X77071Y42627D01*
X77081Y42550D01*
X77087Y42473D01*
X77089Y42396D01*
X77089Y40872D01*
X70231Y36300D02*
X70231Y34776D01*
X70231Y36300D02*
X70233Y36377D01*
X70239Y36454D01*
X70249Y36531D01*
X70262Y36607D01*
X70280Y36682D01*
X70301Y36756D01*
X70326Y36829D01*
X70355Y36901D01*
X70387Y36971D01*
X70422Y37040D01*
X70462Y37106D01*
X70504Y37171D01*
X70550Y37233D01*
X70599Y37293D01*
X70650Y37350D01*
X70705Y37405D01*
X70762Y37456D01*
X70822Y37505D01*
X70884Y37551D01*
X70949Y37593D01*
X71015Y37633D01*
X71084Y37668D01*
X71154Y37700D01*
X71226Y37729D01*
X71299Y37754D01*
X71373Y37775D01*
X71448Y37793D01*
X71524Y37806D01*
X71601Y37816D01*
X71678Y37822D01*
X71755Y37824D01*
X75565Y37824D01*
X75642Y37822D01*
X75719Y37816D01*
X75796Y37806D01*
X75872Y37793D01*
X75947Y37775D01*
X76021Y37754D01*
X76094Y37729D01*
X76166Y37700D01*
X76236Y37668D01*
X76305Y37633D01*
X76371Y37593D01*
X76436Y37551D01*
X76498Y37505D01*
X76558Y37456D01*
X76615Y37405D01*
X76670Y37350D01*
X76721Y37293D01*
X76770Y37233D01*
X76816Y37171D01*
X76858Y37106D01*
X76898Y37040D01*
X76933Y36971D01*
X76965Y36901D01*
X76994Y36829D01*
X77019Y36756D01*
X77040Y36682D01*
X77058Y36607D01*
X77071Y36531D01*
X77081Y36454D01*
X77087Y36377D01*
X77089Y36300D01*
X77089Y34776D01*
X77089Y76086D02*
X70231Y76086D01*
X77089Y77991D02*
X77089Y74181D01*
X77089Y66972D02*
X70231Y71544D01*
X70231Y66972D02*
X77089Y71544D01*
X72898Y63741D02*
X72898Y59169D01*
X70612Y61455D02*
X75184Y61455D01*
X77089Y101486D02*
X70231Y101486D01*
X77089Y103391D02*
X77089Y99581D01*
X77089Y92372D02*
X70231Y96944D01*
X70231Y92372D02*
X77089Y96944D01*
X72898Y89141D02*
X72898Y84569D01*
X70231Y129000D02*
X77089Y129000D01*
X77089Y127095D01*
X77087Y127010D01*
X77081Y126924D01*
X77072Y126839D01*
X77058Y126755D01*
X77041Y126671D01*
X77020Y126588D01*
X76996Y126506D01*
X76968Y126426D01*
X76936Y126346D01*
X76900Y126268D01*
X76862Y126192D01*
X76819Y126118D01*
X76774Y126046D01*
X76725Y125975D01*
X76673Y125907D01*
X76619Y125842D01*
X76561Y125779D01*
X76500Y125718D01*
X76437Y125660D01*
X76372Y125606D01*
X76304Y125554D01*
X76233Y125505D01*
X76161Y125460D01*
X76087Y125417D01*
X76011Y125379D01*
X75933Y125343D01*
X75853Y125311D01*
X75773Y125283D01*
X75691Y125259D01*
X75608Y125238D01*
X75524Y125221D01*
X75440Y125207D01*
X75355Y125198D01*
X75269Y125192D01*
X75184Y125190D01*
X75099Y125192D01*
X75013Y125198D01*
X74928Y125207D01*
X74844Y125221D01*
X74760Y125238D01*
X74677Y125259D01*
X74595Y125283D01*
X74515Y125311D01*
X74435Y125343D01*
X74357Y125379D01*
X74281Y125417D01*
X74207Y125460D01*
X74135Y125505D01*
X74064Y125554D01*
X73996Y125606D01*
X73931Y125660D01*
X73868Y125718D01*
X73807Y125779D01*
X73749Y125842D01*
X73695Y125907D01*
X73643Y125975D01*
X73594Y126046D01*
X73549Y126118D01*
X73506Y126192D01*
X73468Y126268D01*
X73432Y126346D01*
X73400Y126426D01*
X73372Y126506D01*
X73348Y126588D01*
X73327Y126671D01*
X73310Y126755D01*
X73296Y126839D01*
X73287Y126924D01*
X73281Y127010D01*
X73279Y127095D01*
X73279Y129000D01*
X73279Y126714D02*
X70231Y125190D01*
X70231Y122135D02*
X77089Y117563D01*
X77089Y122135D02*
X70231Y117563D01*
X72898Y114332D02*
X72898Y109760D01*
X70231Y154400D02*
X77089Y154400D01*
X77089Y152495D01*
X77087Y152410D01*
X77081Y152324D01*
X77072Y152239D01*
X77058Y152155D01*
X77041Y152071D01*
X77020Y151988D01*
X76996Y151906D01*
X76968Y151826D01*
X76936Y151746D01*
X76900Y151668D01*
X76862Y151592D01*
X76819Y151518D01*
X76774Y151446D01*
X76725Y151375D01*
X76673Y151307D01*
X76619Y151242D01*
X76561Y151179D01*
X76500Y151118D01*
X76437Y151060D01*
X76372Y151006D01*
X76304Y150954D01*
X76233Y150905D01*
X76161Y150860D01*
X76087Y150817D01*
X76011Y150779D01*
X75933Y150743D01*
X75853Y150711D01*
X75773Y150683D01*
X75691Y150659D01*
X75608Y150638D01*
X75524Y150621D01*
X75440Y150607D01*
X75355Y150598D01*
X75269Y150592D01*
X75184Y150590D01*
X75099Y150592D01*
X75013Y150598D01*
X74928Y150607D01*
X74844Y150621D01*
X74760Y150638D01*
X74677Y150659D01*
X74595Y150683D01*
X74515Y150711D01*
X74435Y150743D01*
X74357Y150779D01*
X74281Y150817D01*
X74207Y150860D01*
X74135Y150905D01*
X74064Y150954D01*
X73996Y151006D01*
X73931Y151060D01*
X73868Y151118D01*
X73807Y151179D01*
X73749Y151242D01*
X73695Y151307D01*
X73643Y151375D01*
X73594Y151446D01*
X73549Y151518D01*
X73506Y151592D01*
X73468Y151668D01*
X73432Y151746D01*
X73400Y151826D01*
X73372Y151906D01*
X73348Y151988D01*
X73327Y152071D01*
X73310Y152155D01*
X73296Y152239D01*
X73287Y152324D01*
X73281Y152410D01*
X73279Y152495D01*
X73279Y154400D01*
X73279Y152114D02*
X70231Y150590D01*
X70231Y147535D02*
X77089Y142963D01*
X77089Y147535D02*
X70231Y142963D01*
X72898Y139732D02*
X72898Y135160D01*
X70612Y137446D02*
X75184Y137446D01*
X92258Y158369D02*
X93401Y158369D01*
X92258Y158369D02*
X92258Y162179D01*
X94544Y162179D01*
X94621Y162177D01*
X94698Y162171D01*
X94775Y162161D01*
X94851Y162148D01*
X94926Y162130D01*
X95000Y162109D01*
X95073Y162084D01*
X95145Y162055D01*
X95215Y162023D01*
X95284Y161988D01*
X95350Y161948D01*
X95415Y161906D01*
X95477Y161860D01*
X95537Y161811D01*
X95594Y161760D01*
X95649Y161705D01*
X95700Y161648D01*
X95749Y161588D01*
X95795Y161526D01*
X95837Y161461D01*
X95877Y161395D01*
X95912Y161326D01*
X95944Y161256D01*
X95973Y161184D01*
X95998Y161111D01*
X96019Y161037D01*
X96037Y160962D01*
X96050Y160886D01*
X96060Y160809D01*
X96066Y160732D01*
X96068Y160655D01*
X96068Y156845D01*
X96066Y156768D01*
X96060Y156691D01*
X96050Y156614D01*
X96037Y156538D01*
X96019Y156463D01*
X95998Y156389D01*
X95973Y156316D01*
X95944Y156244D01*
X95912Y156174D01*
X95877Y156105D01*
X95837Y156039D01*
X95795Y155974D01*
X95749Y155912D01*
X95700Y155852D01*
X95649Y155795D01*
X95594Y155740D01*
X95537Y155689D01*
X95477Y155640D01*
X95415Y155594D01*
X95350Y155552D01*
X95284Y155512D01*
X95215Y155477D01*
X95145Y155445D01*
X95073Y155416D01*
X95000Y155391D01*
X94926Y155370D01*
X94851Y155352D01*
X94775Y155339D01*
X94698Y155329D01*
X94621Y155323D01*
X94544Y155321D01*
X92258Y155321D01*
X88265Y155321D02*
X88265Y162179D01*
X84455Y162179D02*
X88265Y155321D01*
X84455Y155321D02*
X84455Y162179D01*
X80462Y162179D02*
X80462Y155321D01*
X78557Y155321D01*
X78472Y155323D01*
X78386Y155329D01*
X78301Y155338D01*
X78217Y155352D01*
X78133Y155369D01*
X78050Y155390D01*
X77968Y155414D01*
X77888Y155442D01*
X77808Y155474D01*
X77730Y155510D01*
X77654Y155548D01*
X77580Y155591D01*
X77508Y155636D01*
X77437Y155685D01*
X77369Y155737D01*
X77304Y155791D01*
X77241Y155849D01*
X77180Y155910D01*
X77122Y155973D01*
X77068Y156038D01*
X77016Y156106D01*
X76967Y156177D01*
X76922Y156249D01*
X76879Y156323D01*
X76841Y156399D01*
X76805Y156477D01*
X76773Y156557D01*
X76745Y156637D01*
X76721Y156719D01*
X76700Y156802D01*
X76683Y156886D01*
X76669Y156970D01*
X76660Y157055D01*
X76654Y157141D01*
X76652Y157226D01*
X76652Y160274D01*
X76654Y160359D01*
X76660Y160445D01*
X76669Y160530D01*
X76683Y160614D01*
X76700Y160698D01*
X76721Y160781D01*
X76745Y160863D01*
X76773Y160943D01*
X76805Y161023D01*
X76841Y161101D01*
X76879Y161177D01*
X76922Y161251D01*
X76967Y161323D01*
X77016Y161394D01*
X77068Y161462D01*
X77122Y161527D01*
X77180Y161590D01*
X77241Y161651D01*
X77304Y161709D01*
X77369Y161763D01*
X77437Y161815D01*
X77508Y161864D01*
X77580Y161909D01*
X77654Y161952D01*
X77730Y161990D01*
X77808Y162026D01*
X77888Y162058D01*
X77968Y162086D01*
X78050Y162110D01*
X78133Y162131D01*
X78217Y162148D01*
X78301Y162162D01*
X78386Y162171D01*
X78472Y162177D01*
X78557Y162179D01*
X80462Y162179D01*
X117878Y162179D02*
X120164Y155321D01*
X115592Y155321D02*
X117878Y162179D01*
X110976Y162179D02*
X109452Y162179D01*
X110976Y162179D02*
X111053Y162177D01*
X111130Y162171D01*
X111207Y162161D01*
X111283Y162148D01*
X111358Y162130D01*
X111432Y162109D01*
X111505Y162084D01*
X111577Y162055D01*
X111647Y162023D01*
X111716Y161988D01*
X111782Y161948D01*
X111847Y161906D01*
X111909Y161860D01*
X111969Y161811D01*
X112026Y161760D01*
X112081Y161705D01*
X112132Y161648D01*
X112181Y161588D01*
X112227Y161526D01*
X112269Y161461D01*
X112309Y161395D01*
X112344Y161326D01*
X112376Y161256D01*
X112405Y161184D01*
X112430Y161111D01*
X112451Y161037D01*
X112469Y160962D01*
X112482Y160886D01*
X112492Y160809D01*
X112498Y160732D01*
X112500Y160655D01*
X112500Y156845D01*
X112498Y156768D01*
X112492Y156691D01*
X112482Y156614D01*
X112469Y156538D01*
X112451Y156463D01*
X112430Y156389D01*
X112405Y156316D01*
X112376Y156244D01*
X112344Y156174D01*
X112309Y156105D01*
X112269Y156039D01*
X112227Y155974D01*
X112181Y155912D01*
X112132Y155852D01*
X112081Y155795D01*
X112026Y155740D01*
X111969Y155689D01*
X111909Y155640D01*
X111847Y155594D01*
X111782Y155552D01*
X111716Y155512D01*
X111647Y155477D01*
X111577Y155445D01*
X111505Y155416D01*
X111432Y155391D01*
X111358Y155370D01*
X111283Y155352D01*
X111207Y155339D01*
X111130Y155329D01*
X111053Y155323D01*
X110976Y155321D01*
X109452Y155321D01*
X104880Y162179D02*
X103356Y162179D01*
X104880Y162179D02*
X104957Y162177D01*
X105034Y162171D01*
X105111Y162161D01*
X105187Y162148D01*
X105262Y162130D01*
X105336Y162109D01*
X105409Y162084D01*
X105481Y162055D01*
X105551Y162023D01*
X105620Y161988D01*
X105686Y161948D01*
X105751Y161906D01*
X105813Y161860D01*
X105873Y161811D01*
X105930Y161760D01*
X105985Y161705D01*
X106036Y161648D01*
X106085Y161588D01*
X106131Y161526D01*
X106173Y161461D01*
X106213Y161395D01*
X106248Y161326D01*
X106280Y161256D01*
X106309Y161184D01*
X106334Y161111D01*
X106355Y161037D01*
X106373Y160962D01*
X106386Y160886D01*
X106396Y160809D01*
X106402Y160732D01*
X106404Y160655D01*
X106404Y156845D01*
X106402Y156768D01*
X106396Y156691D01*
X106386Y156614D01*
X106373Y156538D01*
X106355Y156463D01*
X106334Y156389D01*
X106309Y156316D01*
X106280Y156244D01*
X106248Y156174D01*
X106213Y156105D01*
X106173Y156039D01*
X106131Y155974D01*
X106085Y155912D01*
X106036Y155852D01*
X105985Y155795D01*
X105930Y155740D01*
X105873Y155689D01*
X105813Y155640D01*
X105751Y155594D01*
X105686Y155552D01*
X105620Y155512D01*
X105551Y155477D01*
X105481Y155445D01*
X105409Y155416D01*
X105336Y155391D01*
X105262Y155370D01*
X105187Y155352D01*
X105111Y155339D01*
X105034Y155329D01*
X104957Y155323D01*
X104880Y155321D01*
X103356Y155321D01*
X144666Y155321D02*
X144666Y162179D01*
X146571Y155321D02*
X142761Y155321D01*
X135552Y155321D02*
X140124Y162179D01*
X135552Y162179D02*
X140124Y155321D01*
X132321Y159512D02*
X127749Y159512D01*
X130035Y161798D02*
X130035Y157226D01*
X170066Y155321D02*
X170066Y162179D01*
X171971Y155321D02*
X168161Y155321D01*
X160952Y155321D02*
X165524Y162179D01*
X160952Y162179D02*
X165524Y155321D01*
X157721Y159512D02*
X153149Y159512D01*
X197580Y162179D02*
X197580Y155321D01*
X195675Y155321D01*
X195590Y155323D01*
X195504Y155329D01*
X195419Y155338D01*
X195335Y155352D01*
X195251Y155369D01*
X195168Y155390D01*
X195086Y155414D01*
X195006Y155442D01*
X194926Y155474D01*
X194848Y155510D01*
X194772Y155548D01*
X194698Y155591D01*
X194626Y155636D01*
X194555Y155685D01*
X194487Y155737D01*
X194422Y155791D01*
X194359Y155849D01*
X194298Y155910D01*
X194240Y155973D01*
X194186Y156038D01*
X194134Y156106D01*
X194085Y156177D01*
X194040Y156249D01*
X193997Y156323D01*
X193959Y156399D01*
X193923Y156477D01*
X193891Y156557D01*
X193863Y156637D01*
X193839Y156719D01*
X193818Y156802D01*
X193801Y156886D01*
X193787Y156970D01*
X193778Y157055D01*
X193772Y157141D01*
X193770Y157226D01*
X193772Y157311D01*
X193778Y157397D01*
X193787Y157482D01*
X193801Y157566D01*
X193818Y157650D01*
X193839Y157733D01*
X193863Y157815D01*
X193891Y157895D01*
X193923Y157975D01*
X193959Y158053D01*
X193997Y158129D01*
X194040Y158203D01*
X194085Y158275D01*
X194134Y158346D01*
X194186Y158414D01*
X194240Y158479D01*
X194298Y158542D01*
X194359Y158603D01*
X194422Y158661D01*
X194487Y158715D01*
X194555Y158767D01*
X194626Y158816D01*
X194698Y158861D01*
X194772Y158904D01*
X194848Y158942D01*
X194926Y158978D01*
X195006Y159010D01*
X195086Y159038D01*
X195168Y159062D01*
X195251Y159083D01*
X195335Y159100D01*
X195419Y159114D01*
X195504Y159123D01*
X195590Y159129D01*
X195675Y159131D01*
X197580Y159131D01*
X195294Y159131D02*
X193770Y162179D01*
X190715Y162179D02*
X186143Y155321D01*
X190715Y155321D02*
X186143Y162179D01*
X182912Y159512D02*
X178340Y159512D01*
X222980Y162179D02*
X222980Y155321D01*
X221075Y155321D01*
X220990Y155323D01*
X220904Y155329D01*
X220819Y155338D01*
X220735Y155352D01*
X220651Y155369D01*
X220568Y155390D01*
X220486Y155414D01*
X220406Y155442D01*
X220326Y155474D01*
X220248Y155510D01*
X220172Y155548D01*
X220098Y155591D01*
X220026Y155636D01*
X219955Y155685D01*
X219887Y155737D01*
X219822Y155791D01*
X219759Y155849D01*
X219698Y155910D01*
X219640Y155973D01*
X219586Y156038D01*
X219534Y156106D01*
X219485Y156177D01*
X219440Y156249D01*
X219397Y156323D01*
X219359Y156399D01*
X219323Y156477D01*
X219291Y156557D01*
X219263Y156637D01*
X219239Y156719D01*
X219218Y156802D01*
X219201Y156886D01*
X219187Y156970D01*
X219178Y157055D01*
X219172Y157141D01*
X219170Y157226D01*
X219172Y157311D01*
X219178Y157397D01*
X219187Y157482D01*
X219201Y157566D01*
X219218Y157650D01*
X219239Y157733D01*
X219263Y157815D01*
X219291Y157895D01*
X219323Y157975D01*
X219359Y158053D01*
X219397Y158129D01*
X219440Y158203D01*
X219485Y158275D01*
X219534Y158346D01*
X219586Y158414D01*
X219640Y158479D01*
X219698Y158542D01*
X219759Y158603D01*
X219822Y158661D01*
X219887Y158715D01*
X219955Y158767D01*
X220026Y158816D01*
X220098Y158861D01*
X220172Y158904D01*
X220248Y158942D01*
X220326Y158978D01*
X220406Y159010D01*
X220486Y159038D01*
X220568Y159062D01*
X220651Y159083D01*
X220735Y159100D01*
X220819Y159114D01*
X220904Y159123D01*
X220990Y159129D01*
X221075Y159131D01*
X222980Y159131D01*
X220694Y159131D02*
X219170Y162179D01*
X216115Y162179D02*
X211543Y155321D01*
X216115Y155321D02*
X211543Y162179D01*
X208312Y159512D02*
X203740Y159512D01*
X206026Y161798D02*
X206026Y157226D01*
X254818Y158369D02*
X255961Y158369D01*
X254818Y158369D02*
X254818Y162179D01*
X257104Y162179D01*
X257181Y162177D01*
X257258Y162171D01*
X257335Y162161D01*
X257411Y162148D01*
X257486Y162130D01*
X257560Y162109D01*
X257633Y162084D01*
X257705Y162055D01*
X257775Y162023D01*
X257844Y161988D01*
X257910Y161948D01*
X257975Y161906D01*
X258037Y161860D01*
X258097Y161811D01*
X258154Y161760D01*
X258209Y161705D01*
X258260Y161648D01*
X258309Y161588D01*
X258355Y161526D01*
X258397Y161461D01*
X258437Y161395D01*
X258472Y161326D01*
X258504Y161256D01*
X258533Y161184D01*
X258558Y161111D01*
X258579Y161037D01*
X258597Y160962D01*
X258610Y160886D01*
X258620Y160809D01*
X258626Y160732D01*
X258628Y160655D01*
X258628Y156845D01*
X258626Y156768D01*
X258620Y156691D01*
X258610Y156614D01*
X258597Y156538D01*
X258579Y156463D01*
X258558Y156389D01*
X258533Y156316D01*
X258504Y156244D01*
X258472Y156174D01*
X258437Y156105D01*
X258397Y156039D01*
X258355Y155974D01*
X258309Y155912D01*
X258260Y155852D01*
X258209Y155795D01*
X258154Y155740D01*
X258097Y155689D01*
X258037Y155640D01*
X257975Y155594D01*
X257910Y155552D01*
X257844Y155512D01*
X257775Y155477D01*
X257705Y155445D01*
X257633Y155416D01*
X257560Y155391D01*
X257486Y155370D01*
X257411Y155352D01*
X257335Y155339D01*
X257258Y155329D01*
X257181Y155323D01*
X257104Y155321D01*
X254818Y155321D01*
X250825Y155321D02*
X250825Y162179D01*
X247015Y162179D02*
X250825Y155321D01*
X247015Y155321D02*
X247015Y162179D01*
X243022Y162179D02*
X243022Y155321D01*
X241117Y155321D01*
X241032Y155323D01*
X240946Y155329D01*
X240861Y155338D01*
X240777Y155352D01*
X240693Y155369D01*
X240610Y155390D01*
X240528Y155414D01*
X240448Y155442D01*
X240368Y155474D01*
X240290Y155510D01*
X240214Y155548D01*
X240140Y155591D01*
X240068Y155636D01*
X239997Y155685D01*
X239929Y155737D01*
X239864Y155791D01*
X239801Y155849D01*
X239740Y155910D01*
X239682Y155973D01*
X239628Y156038D01*
X239576Y156106D01*
X239527Y156177D01*
X239482Y156249D01*
X239439Y156323D01*
X239401Y156399D01*
X239365Y156477D01*
X239333Y156557D01*
X239305Y156637D01*
X239281Y156719D01*
X239260Y156802D01*
X239243Y156886D01*
X239229Y156970D01*
X239220Y157055D01*
X239214Y157141D01*
X239212Y157226D01*
X239212Y160274D01*
X239214Y160359D01*
X239220Y160445D01*
X239229Y160530D01*
X239243Y160614D01*
X239260Y160698D01*
X239281Y160781D01*
X239305Y160863D01*
X239333Y160943D01*
X239365Y161023D01*
X239401Y161101D01*
X239439Y161177D01*
X239482Y161251D01*
X239527Y161323D01*
X239576Y161394D01*
X239628Y161462D01*
X239682Y161527D01*
X239740Y161590D01*
X239801Y161651D01*
X239864Y161709D01*
X239929Y161763D01*
X239997Y161815D01*
X240068Y161864D01*
X240140Y161909D01*
X240214Y161952D01*
X240290Y161990D01*
X240368Y162026D01*
X240448Y162058D01*
X240528Y162086D01*
X240610Y162110D01*
X240693Y162131D01*
X240777Y162148D01*
X240861Y162162D01*
X240946Y162171D01*
X241032Y162177D01*
X241117Y162179D01*
X243022Y162179D01*
X280438Y162179D02*
X282724Y155321D01*
X278152Y155321D02*
X280438Y162179D01*
X273536Y162179D02*
X272012Y162179D01*
X273536Y162179D02*
X273613Y162177D01*
X273690Y162171D01*
X273767Y162161D01*
X273843Y162148D01*
X273918Y162130D01*
X273992Y162109D01*
X274065Y162084D01*
X274137Y162055D01*
X274207Y162023D01*
X274276Y161988D01*
X274342Y161948D01*
X274407Y161906D01*
X274469Y161860D01*
X274529Y161811D01*
X274586Y161760D01*
X274641Y161705D01*
X274692Y161648D01*
X274741Y161588D01*
X274787Y161526D01*
X274829Y161461D01*
X274869Y161395D01*
X274904Y161326D01*
X274936Y161256D01*
X274965Y161184D01*
X274990Y161111D01*
X275011Y161037D01*
X275029Y160962D01*
X275042Y160886D01*
X275052Y160809D01*
X275058Y160732D01*
X275060Y160655D01*
X275060Y156845D01*
X275058Y156768D01*
X275052Y156691D01*
X275042Y156614D01*
X275029Y156538D01*
X275011Y156463D01*
X274990Y156389D01*
X274965Y156316D01*
X274936Y156244D01*
X274904Y156174D01*
X274869Y156105D01*
X274829Y156039D01*
X274787Y155974D01*
X274741Y155912D01*
X274692Y155852D01*
X274641Y155795D01*
X274586Y155740D01*
X274529Y155689D01*
X274469Y155640D01*
X274407Y155594D01*
X274342Y155552D01*
X274276Y155512D01*
X274207Y155477D01*
X274137Y155445D01*
X274065Y155416D01*
X273992Y155391D01*
X273918Y155370D01*
X273843Y155352D01*
X273767Y155339D01*
X273690Y155329D01*
X273613Y155323D01*
X273536Y155321D01*
X272012Y155321D01*
X267440Y162179D02*
X265916Y162179D01*
X267440Y162179D02*
X267517Y162177D01*
X267594Y162171D01*
X267671Y162161D01*
X267747Y162148D01*
X267822Y162130D01*
X267896Y162109D01*
X267969Y162084D01*
X268041Y162055D01*
X268111Y162023D01*
X268180Y161988D01*
X268246Y161948D01*
X268311Y161906D01*
X268373Y161860D01*
X268433Y161811D01*
X268490Y161760D01*
X268545Y161705D01*
X268596Y161648D01*
X268645Y161588D01*
X268691Y161526D01*
X268733Y161461D01*
X268773Y161395D01*
X268808Y161326D01*
X268840Y161256D01*
X268869Y161184D01*
X268894Y161111D01*
X268915Y161037D01*
X268933Y160962D01*
X268946Y160886D01*
X268956Y160809D01*
X268962Y160732D01*
X268964Y160655D01*
X268964Y156845D01*
X268962Y156768D01*
X268956Y156691D01*
X268946Y156614D01*
X268933Y156538D01*
X268915Y156463D01*
X268894Y156389D01*
X268869Y156316D01*
X268840Y156244D01*
X268808Y156174D01*
X268773Y156105D01*
X268733Y156039D01*
X268691Y155974D01*
X268645Y155912D01*
X268596Y155852D01*
X268545Y155795D01*
X268490Y155740D01*
X268433Y155689D01*
X268373Y155640D01*
X268311Y155594D01*
X268246Y155552D01*
X268180Y155512D01*
X268111Y155477D01*
X268041Y155445D01*
X267969Y155416D01*
X267896Y155391D01*
X267822Y155370D01*
X267747Y155352D01*
X267671Y155339D01*
X267594Y155329D01*
X267517Y155323D01*
X267440Y155321D01*
X265916Y155321D01*
X307226Y155321D02*
X307226Y162179D01*
X309131Y155321D02*
X305321Y155321D01*
X298112Y155321D02*
X302684Y162179D01*
X298112Y162179D02*
X302684Y155321D01*
X294881Y159512D02*
X290309Y159512D01*
X292595Y161798D02*
X292595Y157226D01*
X332626Y155321D02*
X332626Y162179D01*
X334531Y155321D02*
X330721Y155321D01*
X323512Y155321D02*
X328084Y162179D01*
X323512Y162179D02*
X328084Y155321D01*
X320281Y159512D02*
X315709Y159512D01*
X360140Y162179D02*
X360140Y155321D01*
X358235Y155321D01*
X358150Y155323D01*
X358064Y155329D01*
X357979Y155338D01*
X357895Y155352D01*
X357811Y155369D01*
X357728Y155390D01*
X357646Y155414D01*
X357566Y155442D01*
X357486Y155474D01*
X357408Y155510D01*
X357332Y155548D01*
X357258Y155591D01*
X357186Y155636D01*
X357115Y155685D01*
X357047Y155737D01*
X356982Y155791D01*
X356919Y155849D01*
X356858Y155910D01*
X356800Y155973D01*
X356746Y156038D01*
X356694Y156106D01*
X356645Y156177D01*
X356600Y156249D01*
X356557Y156323D01*
X356519Y156399D01*
X356483Y156477D01*
X356451Y156557D01*
X356423Y156637D01*
X356399Y156719D01*
X356378Y156802D01*
X356361Y156886D01*
X356347Y156970D01*
X356338Y157055D01*
X356332Y157141D01*
X356330Y157226D01*
X356332Y157311D01*
X356338Y157397D01*
X356347Y157482D01*
X356361Y157566D01*
X356378Y157650D01*
X356399Y157733D01*
X356423Y157815D01*
X356451Y157895D01*
X356483Y157975D01*
X356519Y158053D01*
X356557Y158129D01*
X356600Y158203D01*
X356645Y158275D01*
X356694Y158346D01*
X356746Y158414D01*
X356800Y158479D01*
X356858Y158542D01*
X356919Y158603D01*
X356982Y158661D01*
X357047Y158715D01*
X357115Y158767D01*
X357186Y158816D01*
X357258Y158861D01*
X357332Y158904D01*
X357408Y158942D01*
X357486Y158978D01*
X357566Y159010D01*
X357646Y159038D01*
X357728Y159062D01*
X357811Y159083D01*
X357895Y159100D01*
X357979Y159114D01*
X358064Y159123D01*
X358150Y159129D01*
X358235Y159131D01*
X360140Y159131D01*
X357854Y159131D02*
X356330Y162179D01*
X353275Y162179D02*
X348703Y155321D01*
X353275Y155321D02*
X348703Y162179D01*
X345472Y159512D02*
X340900Y159512D01*
X385540Y162179D02*
X385540Y155321D01*
X383635Y155321D01*
X383550Y155323D01*
X383464Y155329D01*
X383379Y155338D01*
X383295Y155352D01*
X383211Y155369D01*
X383128Y155390D01*
X383046Y155414D01*
X382966Y155442D01*
X382886Y155474D01*
X382808Y155510D01*
X382732Y155548D01*
X382658Y155591D01*
X382586Y155636D01*
X382515Y155685D01*
X382447Y155737D01*
X382382Y155791D01*
X382319Y155849D01*
X382258Y155910D01*
X382200Y155973D01*
X382146Y156038D01*
X382094Y156106D01*
X382045Y156177D01*
X382000Y156249D01*
X381957Y156323D01*
X381919Y156399D01*
X381883Y156477D01*
X381851Y156557D01*
X381823Y156637D01*
X381799Y156719D01*
X381778Y156802D01*
X381761Y156886D01*
X381747Y156970D01*
X381738Y157055D01*
X381732Y157141D01*
X381730Y157226D01*
X381732Y157311D01*
X381738Y157397D01*
X381747Y157482D01*
X381761Y157566D01*
X381778Y157650D01*
X381799Y157733D01*
X381823Y157815D01*
X381851Y157895D01*
X381883Y157975D01*
X381919Y158053D01*
X381957Y158129D01*
X382000Y158203D01*
X382045Y158275D01*
X382094Y158346D01*
X382146Y158414D01*
X382200Y158479D01*
X382258Y158542D01*
X382319Y158603D01*
X382382Y158661D01*
X382447Y158715D01*
X382515Y158767D01*
X382586Y158816D01*
X382658Y158861D01*
X382732Y158904D01*
X382808Y158942D01*
X382886Y158978D01*
X382966Y159010D01*
X383046Y159038D01*
X383128Y159062D01*
X383211Y159083D01*
X383295Y159100D01*
X383379Y159114D01*
X383464Y159123D01*
X383550Y159129D01*
X383635Y159131D01*
X385540Y159131D01*
X383254Y159131D02*
X381730Y162179D01*
X378675Y162179D02*
X374103Y155321D01*
X378675Y155321D02*
X374103Y162179D01*
X370872Y159512D02*
X366300Y159512D01*
X368586Y161798D02*
X368586Y157226D01*
X388239Y138882D02*
X388239Y137739D01*
X388239Y138882D02*
X392049Y138882D01*
X392049Y136596D01*
X392047Y136519D01*
X392041Y136442D01*
X392031Y136365D01*
X392018Y136289D01*
X392000Y136214D01*
X391979Y136140D01*
X391954Y136067D01*
X391925Y135995D01*
X391893Y135925D01*
X391858Y135856D01*
X391818Y135790D01*
X391776Y135725D01*
X391730Y135663D01*
X391681Y135603D01*
X391630Y135546D01*
X391575Y135491D01*
X391518Y135440D01*
X391458Y135391D01*
X391396Y135345D01*
X391331Y135303D01*
X391265Y135263D01*
X391196Y135228D01*
X391126Y135196D01*
X391054Y135167D01*
X390981Y135142D01*
X390907Y135121D01*
X390832Y135103D01*
X390756Y135090D01*
X390679Y135080D01*
X390602Y135074D01*
X390525Y135072D01*
X386715Y135072D01*
X386638Y135074D01*
X386561Y135080D01*
X386484Y135090D01*
X386408Y135103D01*
X386333Y135121D01*
X386259Y135142D01*
X386186Y135167D01*
X386114Y135196D01*
X386044Y135228D01*
X385975Y135263D01*
X385909Y135303D01*
X385844Y135345D01*
X385782Y135391D01*
X385722Y135440D01*
X385665Y135491D01*
X385610Y135546D01*
X385559Y135603D01*
X385510Y135663D01*
X385464Y135725D01*
X385422Y135790D01*
X385382Y135856D01*
X385347Y135925D01*
X385315Y135995D01*
X385286Y136067D01*
X385261Y136140D01*
X385240Y136214D01*
X385222Y136289D01*
X385209Y136365D01*
X385199Y136442D01*
X385193Y136519D01*
X385191Y136596D01*
X385191Y138882D01*
X385191Y142875D02*
X392049Y142875D01*
X392049Y146685D02*
X385191Y142875D01*
X385191Y146685D02*
X392049Y146685D01*
X392049Y150678D02*
X385191Y150678D01*
X385191Y152583D01*
X385193Y152668D01*
X385199Y152754D01*
X385208Y152839D01*
X385222Y152923D01*
X385239Y153007D01*
X385260Y153090D01*
X385284Y153172D01*
X385312Y153252D01*
X385344Y153332D01*
X385380Y153410D01*
X385418Y153486D01*
X385461Y153560D01*
X385506Y153632D01*
X385555Y153703D01*
X385607Y153771D01*
X385661Y153836D01*
X385719Y153899D01*
X385780Y153960D01*
X385843Y154018D01*
X385908Y154072D01*
X385976Y154124D01*
X386047Y154173D01*
X386119Y154218D01*
X386193Y154261D01*
X386269Y154299D01*
X386347Y154335D01*
X386427Y154367D01*
X386507Y154395D01*
X386589Y154419D01*
X386672Y154440D01*
X386756Y154457D01*
X386840Y154471D01*
X386925Y154480D01*
X387011Y154486D01*
X387096Y154488D01*
X390144Y154488D01*
X390229Y154486D01*
X390315Y154480D01*
X390400Y154471D01*
X390484Y154457D01*
X390568Y154440D01*
X390651Y154419D01*
X390733Y154395D01*
X390813Y154367D01*
X390893Y154335D01*
X390971Y154299D01*
X391047Y154261D01*
X391121Y154218D01*
X391193Y154173D01*
X391264Y154124D01*
X391332Y154072D01*
X391397Y154018D01*
X391460Y153960D01*
X391521Y153899D01*
X391579Y153836D01*
X391633Y153771D01*
X391685Y153703D01*
X391734Y153632D01*
X391779Y153560D01*
X391822Y153486D01*
X391860Y153410D01*
X391896Y153332D01*
X391928Y153252D01*
X391956Y153172D01*
X391980Y153090D01*
X392001Y153007D01*
X392018Y152923D01*
X392032Y152839D01*
X392041Y152754D01*
X392047Y152668D01*
X392049Y152583D01*
X392049Y150678D01*
X392049Y113262D02*
X385191Y110976D01*
X385191Y115548D02*
X392049Y113262D01*
X392049Y120164D02*
X392049Y121688D01*
X392049Y120164D02*
X392047Y120087D01*
X392041Y120010D01*
X392031Y119933D01*
X392018Y119857D01*
X392000Y119782D01*
X391979Y119708D01*
X391954Y119635D01*
X391925Y119563D01*
X391893Y119493D01*
X391858Y119424D01*
X391818Y119358D01*
X391776Y119293D01*
X391730Y119231D01*
X391681Y119171D01*
X391630Y119114D01*
X391575Y119059D01*
X391518Y119008D01*
X391458Y118959D01*
X391396Y118913D01*
X391331Y118871D01*
X391265Y118831D01*
X391196Y118796D01*
X391126Y118764D01*
X391054Y118735D01*
X390981Y118710D01*
X390907Y118689D01*
X390832Y118671D01*
X390756Y118658D01*
X390679Y118648D01*
X390602Y118642D01*
X390525Y118640D01*
X386715Y118640D01*
X386638Y118642D01*
X386561Y118648D01*
X386484Y118658D01*
X386408Y118671D01*
X386333Y118689D01*
X386259Y118710D01*
X386186Y118735D01*
X386114Y118764D01*
X386044Y118796D01*
X385975Y118831D01*
X385909Y118871D01*
X385844Y118913D01*
X385782Y118959D01*
X385722Y119008D01*
X385665Y119059D01*
X385610Y119114D01*
X385559Y119171D01*
X385510Y119231D01*
X385464Y119293D01*
X385422Y119358D01*
X385382Y119424D01*
X385347Y119493D01*
X385315Y119563D01*
X385286Y119635D01*
X385261Y119708D01*
X385240Y119782D01*
X385222Y119857D01*
X385209Y119933D01*
X385199Y120010D01*
X385193Y120087D01*
X385191Y120164D01*
X385191Y121688D01*
X392049Y126260D02*
X392049Y127784D01*
X392049Y126260D02*
X392047Y126183D01*
X392041Y126106D01*
X392031Y126029D01*
X392018Y125953D01*
X392000Y125878D01*
X391979Y125804D01*
X391954Y125731D01*
X391925Y125659D01*
X391893Y125589D01*
X391858Y125520D01*
X391818Y125454D01*
X391776Y125389D01*
X391730Y125327D01*
X391681Y125267D01*
X391630Y125210D01*
X391575Y125155D01*
X391518Y125104D01*
X391458Y125055D01*
X391396Y125009D01*
X391331Y124967D01*
X391265Y124927D01*
X391196Y124892D01*
X391126Y124860D01*
X391054Y124831D01*
X390981Y124806D01*
X390907Y124785D01*
X390832Y124767D01*
X390756Y124754D01*
X390679Y124744D01*
X390602Y124738D01*
X390525Y124736D01*
X386715Y124736D01*
X386638Y124738D01*
X386561Y124744D01*
X386484Y124754D01*
X386408Y124767D01*
X386333Y124785D01*
X386259Y124806D01*
X386186Y124831D01*
X386114Y124860D01*
X386044Y124892D01*
X385975Y124927D01*
X385909Y124967D01*
X385844Y125009D01*
X385782Y125055D01*
X385722Y125104D01*
X385665Y125155D01*
X385610Y125210D01*
X385559Y125267D01*
X385510Y125327D01*
X385464Y125389D01*
X385422Y125454D01*
X385382Y125520D01*
X385347Y125589D01*
X385315Y125659D01*
X385286Y125731D01*
X385261Y125804D01*
X385240Y125878D01*
X385222Y125953D01*
X385209Y126029D01*
X385199Y126106D01*
X385193Y126183D01*
X385191Y126260D01*
X385191Y127784D01*
X385191Y86474D02*
X392049Y86474D01*
X385191Y84569D02*
X385191Y88379D01*
X385191Y95588D02*
X392049Y91016D01*
X392049Y95588D02*
X385191Y91016D01*
X389382Y98819D02*
X389382Y103391D01*
X391668Y101105D02*
X387096Y101105D01*
X385191Y61074D02*
X392049Y61074D01*
X385191Y59169D02*
X385191Y62979D01*
X385191Y70188D02*
X392049Y65616D01*
X392049Y70188D02*
X385191Y65616D01*
X389382Y73419D02*
X389382Y77991D01*
X392049Y33560D02*
X385191Y33560D01*
X385191Y35465D01*
X385193Y35550D01*
X385199Y35636D01*
X385208Y35721D01*
X385222Y35805D01*
X385239Y35889D01*
X385260Y35972D01*
X385284Y36054D01*
X385312Y36134D01*
X385344Y36214D01*
X385380Y36292D01*
X385418Y36368D01*
X385461Y36442D01*
X385506Y36514D01*
X385555Y36585D01*
X385607Y36653D01*
X385661Y36718D01*
X385719Y36781D01*
X385780Y36842D01*
X385843Y36900D01*
X385908Y36954D01*
X385976Y37006D01*
X386047Y37055D01*
X386119Y37100D01*
X386193Y37143D01*
X386269Y37181D01*
X386347Y37217D01*
X386427Y37249D01*
X386507Y37277D01*
X386589Y37301D01*
X386672Y37322D01*
X386756Y37339D01*
X386840Y37353D01*
X386925Y37362D01*
X387011Y37368D01*
X387096Y37370D01*
X387181Y37368D01*
X387267Y37362D01*
X387352Y37353D01*
X387436Y37339D01*
X387520Y37322D01*
X387603Y37301D01*
X387685Y37277D01*
X387765Y37249D01*
X387845Y37217D01*
X387923Y37181D01*
X387999Y37143D01*
X388073Y37100D01*
X388145Y37055D01*
X388216Y37006D01*
X388284Y36954D01*
X388349Y36900D01*
X388412Y36842D01*
X388473Y36781D01*
X388531Y36718D01*
X388585Y36653D01*
X388637Y36585D01*
X388686Y36514D01*
X388731Y36442D01*
X388774Y36368D01*
X388812Y36292D01*
X388848Y36214D01*
X388880Y36134D01*
X388908Y36054D01*
X388932Y35972D01*
X388953Y35889D01*
X388970Y35805D01*
X388984Y35721D01*
X388993Y35636D01*
X388999Y35550D01*
X389001Y35465D01*
X389001Y33560D01*
X389001Y35846D02*
X392049Y37370D01*
X392049Y40425D02*
X385191Y44997D01*
X385191Y40425D02*
X392049Y44997D01*
X389382Y48228D02*
X389382Y52800D01*
X392049Y8160D02*
X385191Y8160D01*
X385191Y10065D01*
X385193Y10150D01*
X385199Y10236D01*
X385208Y10321D01*
X385222Y10405D01*
X385239Y10489D01*
X385260Y10572D01*
X385284Y10654D01*
X385312Y10734D01*
X385344Y10814D01*
X385380Y10892D01*
X385418Y10968D01*
X385461Y11042D01*
X385506Y11114D01*
X385555Y11185D01*
X385607Y11253D01*
X385661Y11318D01*
X385719Y11381D01*
X385780Y11442D01*
X385843Y11500D01*
X385908Y11554D01*
X385976Y11606D01*
X386047Y11655D01*
X386119Y11700D01*
X386193Y11743D01*
X386269Y11781D01*
X386347Y11817D01*
X386427Y11849D01*
X386507Y11877D01*
X386589Y11901D01*
X386672Y11922D01*
X386756Y11939D01*
X386840Y11953D01*
X386925Y11962D01*
X387011Y11968D01*
X387096Y11970D01*
X387181Y11968D01*
X387267Y11962D01*
X387352Y11953D01*
X387436Y11939D01*
X387520Y11922D01*
X387603Y11901D01*
X387685Y11877D01*
X387765Y11849D01*
X387845Y11817D01*
X387923Y11781D01*
X387999Y11743D01*
X388073Y11700D01*
X388145Y11655D01*
X388216Y11606D01*
X388284Y11554D01*
X388349Y11500D01*
X388412Y11442D01*
X388473Y11381D01*
X388531Y11318D01*
X388585Y11253D01*
X388637Y11185D01*
X388686Y11114D01*
X388731Y11042D01*
X388774Y10968D01*
X388812Y10892D01*
X388848Y10814D01*
X388880Y10734D01*
X388908Y10654D01*
X388932Y10572D01*
X388953Y10489D01*
X388970Y10405D01*
X388984Y10321D01*
X388993Y10236D01*
X388999Y10150D01*
X389001Y10065D01*
X389001Y8160D01*
X389001Y10446D02*
X392049Y11970D01*
X392049Y15025D02*
X385191Y19597D01*
X385191Y15025D02*
X392049Y19597D01*
X389382Y22828D02*
X389382Y27400D01*
X391668Y25114D02*
X387096Y25114D01*
X288742Y74041D02*
X287599Y74041D01*
X288742Y74041D02*
X288742Y70231D01*
X286456Y70231D01*
X286379Y70233D01*
X286302Y70239D01*
X286225Y70249D01*
X286149Y70262D01*
X286074Y70280D01*
X286000Y70301D01*
X285927Y70326D01*
X285855Y70355D01*
X285785Y70387D01*
X285716Y70422D01*
X285650Y70462D01*
X285585Y70504D01*
X285523Y70550D01*
X285463Y70599D01*
X285406Y70650D01*
X285351Y70705D01*
X285300Y70762D01*
X285251Y70822D01*
X285205Y70884D01*
X285163Y70949D01*
X285123Y71015D01*
X285088Y71084D01*
X285056Y71154D01*
X285027Y71226D01*
X285002Y71299D01*
X284981Y71373D01*
X284963Y71448D01*
X284950Y71524D01*
X284940Y71601D01*
X284934Y71678D01*
X284932Y71755D01*
X284932Y75565D01*
X284934Y75642D01*
X284940Y75719D01*
X284950Y75796D01*
X284963Y75872D01*
X284981Y75947D01*
X285002Y76021D01*
X285027Y76094D01*
X285056Y76166D01*
X285088Y76236D01*
X285123Y76305D01*
X285163Y76371D01*
X285205Y76436D01*
X285251Y76498D01*
X285300Y76558D01*
X285351Y76615D01*
X285406Y76670D01*
X285463Y76721D01*
X285523Y76770D01*
X285585Y76816D01*
X285650Y76858D01*
X285716Y76898D01*
X285785Y76933D01*
X285855Y76965D01*
X285927Y76994D01*
X286000Y77019D01*
X286074Y77040D01*
X286149Y77058D01*
X286225Y77071D01*
X286302Y77081D01*
X286379Y77087D01*
X286456Y77089D01*
X288742Y77089D01*
X292735Y77089D02*
X292735Y70231D01*
X296545Y70231D02*
X292735Y77089D01*
X296545Y77089D02*
X296545Y70231D01*
X300538Y70231D02*
X300538Y77089D01*
X302443Y77089D01*
X302528Y77087D01*
X302614Y77081D01*
X302699Y77072D01*
X302783Y77058D01*
X302867Y77041D01*
X302950Y77020D01*
X303032Y76996D01*
X303112Y76968D01*
X303192Y76936D01*
X303270Y76900D01*
X303346Y76862D01*
X303420Y76819D01*
X303492Y76774D01*
X303563Y76725D01*
X303631Y76673D01*
X303696Y76619D01*
X303759Y76561D01*
X303820Y76500D01*
X303878Y76437D01*
X303932Y76372D01*
X303984Y76304D01*
X304033Y76233D01*
X304078Y76161D01*
X304121Y76087D01*
X304159Y76011D01*
X304195Y75933D01*
X304227Y75853D01*
X304255Y75773D01*
X304279Y75691D01*
X304300Y75608D01*
X304317Y75524D01*
X304331Y75440D01*
X304340Y75355D01*
X304346Y75269D01*
X304348Y75184D01*
X304348Y72136D01*
X304346Y72051D01*
X304340Y71965D01*
X304331Y71880D01*
X304317Y71796D01*
X304300Y71712D01*
X304279Y71629D01*
X304255Y71547D01*
X304227Y71467D01*
X304195Y71387D01*
X304159Y71309D01*
X304121Y71233D01*
X304078Y71159D01*
X304033Y71087D01*
X303984Y71016D01*
X303932Y70948D01*
X303878Y70883D01*
X303820Y70820D01*
X303759Y70759D01*
X303696Y70701D01*
X303631Y70647D01*
X303563Y70595D01*
X303492Y70546D01*
X303420Y70501D01*
X303346Y70458D01*
X303270Y70420D01*
X303192Y70384D01*
X303112Y70352D01*
X303032Y70324D01*
X302950Y70300D01*
X302867Y70279D01*
X302783Y70262D01*
X302699Y70248D01*
X302614Y70239D01*
X302528Y70233D01*
X302443Y70231D01*
X300538Y70231D01*
X263122Y70231D02*
X260836Y77089D01*
X265408Y77089D02*
X263122Y70231D01*
X270024Y70231D02*
X271548Y70231D01*
X270024Y70231D02*
X269947Y70233D01*
X269870Y70239D01*
X269793Y70249D01*
X269717Y70262D01*
X269642Y70280D01*
X269568Y70301D01*
X269495Y70326D01*
X269423Y70355D01*
X269353Y70387D01*
X269284Y70422D01*
X269218Y70462D01*
X269153Y70504D01*
X269091Y70550D01*
X269031Y70599D01*
X268974Y70650D01*
X268919Y70705D01*
X268868Y70762D01*
X268819Y70822D01*
X268773Y70884D01*
X268731Y70949D01*
X268691Y71015D01*
X268656Y71084D01*
X268624Y71154D01*
X268595Y71226D01*
X268570Y71299D01*
X268549Y71373D01*
X268531Y71448D01*
X268518Y71524D01*
X268508Y71601D01*
X268502Y71678D01*
X268500Y71755D01*
X268500Y75565D01*
X268502Y75642D01*
X268508Y75719D01*
X268518Y75796D01*
X268531Y75872D01*
X268549Y75947D01*
X268570Y76021D01*
X268595Y76094D01*
X268624Y76166D01*
X268656Y76236D01*
X268691Y76305D01*
X268731Y76371D01*
X268773Y76436D01*
X268819Y76498D01*
X268868Y76558D01*
X268919Y76615D01*
X268974Y76670D01*
X269031Y76721D01*
X269091Y76770D01*
X269153Y76816D01*
X269218Y76858D01*
X269284Y76898D01*
X269353Y76933D01*
X269423Y76965D01*
X269495Y76994D01*
X269568Y77019D01*
X269642Y77040D01*
X269717Y77058D01*
X269793Y77071D01*
X269870Y77081D01*
X269947Y77087D01*
X270024Y77089D01*
X271548Y77089D01*
X276120Y70231D02*
X277644Y70231D01*
X276120Y70231D02*
X276043Y70233D01*
X275966Y70239D01*
X275889Y70249D01*
X275813Y70262D01*
X275738Y70280D01*
X275664Y70301D01*
X275591Y70326D01*
X275519Y70355D01*
X275449Y70387D01*
X275380Y70422D01*
X275314Y70462D01*
X275249Y70504D01*
X275187Y70550D01*
X275127Y70599D01*
X275070Y70650D01*
X275015Y70705D01*
X274964Y70762D01*
X274915Y70822D01*
X274869Y70884D01*
X274827Y70949D01*
X274787Y71015D01*
X274752Y71084D01*
X274720Y71154D01*
X274691Y71226D01*
X274666Y71299D01*
X274645Y71373D01*
X274627Y71448D01*
X274614Y71524D01*
X274604Y71601D01*
X274598Y71678D01*
X274596Y71755D01*
X274596Y75565D01*
X274598Y75642D01*
X274604Y75719D01*
X274614Y75796D01*
X274627Y75872D01*
X274645Y75947D01*
X274666Y76021D01*
X274691Y76094D01*
X274720Y76166D01*
X274752Y76236D01*
X274787Y76305D01*
X274827Y76371D01*
X274869Y76436D01*
X274915Y76498D01*
X274964Y76558D01*
X275015Y76615D01*
X275070Y76670D01*
X275127Y76721D01*
X275187Y76770D01*
X275249Y76816D01*
X275314Y76858D01*
X275380Y76898D01*
X275449Y76933D01*
X275519Y76965D01*
X275591Y76994D01*
X275664Y77019D01*
X275738Y77040D01*
X275813Y77058D01*
X275889Y77071D01*
X275966Y77081D01*
X276043Y77087D01*
X276120Y77089D01*
X277644Y77089D01*
X236334Y77089D02*
X236334Y70231D01*
X234429Y77089D02*
X238239Y77089D01*
X245448Y77089D02*
X240876Y70231D01*
X245448Y70231D02*
X240876Y77089D01*
X248679Y72898D02*
X253251Y72898D01*
X250965Y70612D02*
X250965Y75184D01*
X210934Y77089D02*
X210934Y70231D01*
X209029Y77089D02*
X212839Y77089D01*
X220048Y77089D02*
X215476Y70231D01*
X220048Y70231D02*
X215476Y77089D01*
X223279Y72898D02*
X227851Y72898D01*
X183420Y70231D02*
X183420Y77089D01*
X185325Y77089D01*
X185410Y77087D01*
X185496Y77081D01*
X185581Y77072D01*
X185665Y77058D01*
X185749Y77041D01*
X185832Y77020D01*
X185914Y76996D01*
X185994Y76968D01*
X186074Y76936D01*
X186152Y76900D01*
X186228Y76862D01*
X186302Y76819D01*
X186374Y76774D01*
X186445Y76725D01*
X186513Y76673D01*
X186578Y76619D01*
X186641Y76561D01*
X186702Y76500D01*
X186760Y76437D01*
X186814Y76372D01*
X186866Y76304D01*
X186915Y76233D01*
X186960Y76161D01*
X187003Y76087D01*
X187041Y76011D01*
X187077Y75933D01*
X187109Y75853D01*
X187137Y75773D01*
X187161Y75691D01*
X187182Y75608D01*
X187199Y75524D01*
X187213Y75440D01*
X187222Y75355D01*
X187228Y75269D01*
X187230Y75184D01*
X187228Y75099D01*
X187222Y75013D01*
X187213Y74928D01*
X187199Y74844D01*
X187182Y74760D01*
X187161Y74677D01*
X187137Y74595D01*
X187109Y74515D01*
X187077Y74435D01*
X187041Y74357D01*
X187003Y74281D01*
X186960Y74207D01*
X186915Y74135D01*
X186866Y74064D01*
X186814Y73996D01*
X186760Y73931D01*
X186702Y73868D01*
X186641Y73807D01*
X186578Y73749D01*
X186513Y73695D01*
X186445Y73643D01*
X186374Y73594D01*
X186302Y73549D01*
X186228Y73506D01*
X186152Y73468D01*
X186074Y73432D01*
X185994Y73400D01*
X185914Y73372D01*
X185832Y73348D01*
X185749Y73327D01*
X185665Y73310D01*
X185581Y73296D01*
X185496Y73287D01*
X185410Y73281D01*
X185325Y73279D01*
X183420Y73279D01*
X185706Y73279D02*
X187230Y70231D01*
X190285Y70231D02*
X194857Y77089D01*
X190285Y77089D02*
X194857Y70231D01*
X198088Y72898D02*
X202660Y72898D01*
X158020Y70231D02*
X158020Y77089D01*
X159925Y77089D01*
X160010Y77087D01*
X160096Y77081D01*
X160181Y77072D01*
X160265Y77058D01*
X160349Y77041D01*
X160432Y77020D01*
X160514Y76996D01*
X160594Y76968D01*
X160674Y76936D01*
X160752Y76900D01*
X160828Y76862D01*
X160902Y76819D01*
X160974Y76774D01*
X161045Y76725D01*
X161113Y76673D01*
X161178Y76619D01*
X161241Y76561D01*
X161302Y76500D01*
X161360Y76437D01*
X161414Y76372D01*
X161466Y76304D01*
X161515Y76233D01*
X161560Y76161D01*
X161603Y76087D01*
X161641Y76011D01*
X161677Y75933D01*
X161709Y75853D01*
X161737Y75773D01*
X161761Y75691D01*
X161782Y75608D01*
X161799Y75524D01*
X161813Y75440D01*
X161822Y75355D01*
X161828Y75269D01*
X161830Y75184D01*
X161828Y75099D01*
X161822Y75013D01*
X161813Y74928D01*
X161799Y74844D01*
X161782Y74760D01*
X161761Y74677D01*
X161737Y74595D01*
X161709Y74515D01*
X161677Y74435D01*
X161641Y74357D01*
X161603Y74281D01*
X161560Y74207D01*
X161515Y74135D01*
X161466Y74064D01*
X161414Y73996D01*
X161360Y73931D01*
X161302Y73868D01*
X161241Y73807D01*
X161178Y73749D01*
X161113Y73695D01*
X161045Y73643D01*
X160974Y73594D01*
X160902Y73549D01*
X160828Y73506D01*
X160752Y73468D01*
X160674Y73432D01*
X160594Y73400D01*
X160514Y73372D01*
X160432Y73348D01*
X160349Y73327D01*
X160265Y73310D01*
X160181Y73296D01*
X160096Y73287D01*
X160010Y73281D01*
X159925Y73279D01*
X158020Y73279D01*
X160306Y73279D02*
X161830Y70231D01*
X164885Y70231D02*
X169457Y77089D01*
X164885Y77089D02*
X169457Y70231D01*
X172688Y72898D02*
X177260Y72898D01*
X174974Y70612D02*
X174974Y75184D01*
X184531Y132005D02*
X189865Y132005D01*
X189942Y132003D01*
X190019Y131997D01*
X190096Y131987D01*
X190172Y131974D01*
X190247Y131956D01*
X190321Y131935D01*
X190394Y131910D01*
X190466Y131881D01*
X190536Y131849D01*
X190605Y131814D01*
X190671Y131774D01*
X190736Y131732D01*
X190798Y131686D01*
X190858Y131637D01*
X190915Y131586D01*
X190970Y131531D01*
X191021Y131474D01*
X191070Y131414D01*
X191116Y131352D01*
X191158Y131287D01*
X191198Y131221D01*
X191233Y131152D01*
X191265Y131082D01*
X191294Y131010D01*
X191319Y130937D01*
X191340Y130863D01*
X191358Y130788D01*
X191371Y130712D01*
X191381Y130635D01*
X191387Y130558D01*
X191389Y130481D01*
X191389Y129719D01*
X186055Y135711D02*
X184531Y137616D01*
X191389Y137616D01*
X191389Y135711D02*
X191389Y139521D01*
X189865Y100255D02*
X184531Y100255D01*
X189865Y100255D02*
X189942Y100253D01*
X190019Y100247D01*
X190096Y100237D01*
X190172Y100224D01*
X190247Y100206D01*
X190321Y100185D01*
X190394Y100160D01*
X190466Y100131D01*
X190536Y100099D01*
X190605Y100064D01*
X190671Y100024D01*
X190736Y99982D01*
X190798Y99936D01*
X190858Y99887D01*
X190915Y99836D01*
X190970Y99781D01*
X191021Y99724D01*
X191070Y99664D01*
X191116Y99602D01*
X191158Y99537D01*
X191198Y99471D01*
X191233Y99402D01*
X191265Y99332D01*
X191294Y99260D01*
X191319Y99187D01*
X191340Y99113D01*
X191358Y99038D01*
X191371Y98962D01*
X191381Y98885D01*
X191387Y98808D01*
X191389Y98731D01*
X191389Y97969D01*
X184531Y106056D02*
X184533Y106138D01*
X184539Y106219D01*
X184548Y106300D01*
X184562Y106381D01*
X184579Y106460D01*
X184600Y106539D01*
X184625Y106617D01*
X184654Y106693D01*
X184686Y106768D01*
X184722Y106842D01*
X184761Y106914D01*
X184803Y106983D01*
X184849Y107051D01*
X184898Y107116D01*
X184950Y107179D01*
X185005Y107239D01*
X185063Y107297D01*
X185123Y107352D01*
X185186Y107404D01*
X185251Y107453D01*
X185319Y107499D01*
X185389Y107541D01*
X185460Y107580D01*
X185534Y107616D01*
X185609Y107648D01*
X185685Y107677D01*
X185763Y107702D01*
X185842Y107723D01*
X185921Y107740D01*
X186002Y107754D01*
X186083Y107763D01*
X186164Y107769D01*
X186246Y107771D01*
X184531Y106056D02*
X184533Y105964D01*
X184539Y105872D01*
X184548Y105780D01*
X184562Y105688D01*
X184579Y105598D01*
X184600Y105508D01*
X184625Y105419D01*
X184654Y105331D01*
X184686Y105244D01*
X184722Y105159D01*
X184761Y105076D01*
X184804Y104994D01*
X184850Y104914D01*
X184900Y104836D01*
X184952Y104760D01*
X185008Y104687D01*
X185067Y104616D01*
X185129Y104547D01*
X185194Y104481D01*
X185261Y104418D01*
X185331Y104358D01*
X185403Y104300D01*
X185478Y104246D01*
X185555Y104195D01*
X185634Y104147D01*
X185715Y104103D01*
X185798Y104062D01*
X185882Y104024D01*
X185968Y103990D01*
X186055Y103960D01*
X187580Y107199D02*
X187521Y107258D01*
X187460Y107314D01*
X187397Y107367D01*
X187331Y107418D01*
X187263Y107465D01*
X187193Y107509D01*
X187121Y107550D01*
X187047Y107588D01*
X186972Y107622D01*
X186895Y107653D01*
X186817Y107680D01*
X186737Y107704D01*
X186657Y107725D01*
X186576Y107741D01*
X186494Y107754D01*
X186412Y107764D01*
X186329Y107769D01*
X186246Y107771D01*
X187579Y107199D02*
X191389Y103961D01*
X191389Y107771D01*
D11*
X294640Y34290D03*
X269240Y34290D03*
X243840Y34290D03*
X218440Y34290D03*
X193040Y34290D03*
X167640Y34290D03*
D12*
X152640Y67290D02*
X309640Y67290D01*
X309640Y59690D01*
X309640Y2290D01*
X152640Y2290D01*
X152640Y59690D01*
X152640Y67290D01*
X152640Y59690D02*
X309640Y59690D01*
D11*
X34290Y17780D03*
X34290Y43180D03*
X34290Y68580D03*
X34290Y93980D03*
X34290Y119380D03*
X34290Y144780D03*
D12*
X67290Y159780D02*
X67290Y2780D01*
X59690Y2780D01*
X2290Y2780D01*
X2290Y159780D01*
X59690Y159780D01*
X67290Y159780D01*
X59690Y159780D02*
X59690Y2780D01*
D11*
X86360Y198120D03*
X111760Y198120D03*
X137160Y198120D03*
X162560Y198120D03*
X187960Y198120D03*
X213360Y198120D03*
D12*
X228360Y165120D02*
X71360Y165120D01*
X71360Y172720D01*
X71360Y230120D01*
X228360Y230120D01*
X228360Y172720D01*
X228360Y165120D01*
X228360Y172720D02*
X71360Y172720D01*
D11*
X248920Y198120D03*
X274320Y198120D03*
X299720Y198120D03*
X325120Y198120D03*
X350520Y198120D03*
X375920Y198120D03*
D12*
X390920Y165120D02*
X233920Y165120D01*
X233920Y172720D01*
X233920Y230120D01*
X390920Y230120D01*
X390920Y172720D01*
X390920Y165120D01*
X390920Y172720D02*
X233920Y172720D01*
D11*
X427990Y144780D03*
X427990Y119380D03*
X427990Y93980D03*
X427990Y68580D03*
X427990Y43180D03*
X427990Y17780D03*
D12*
X394990Y2780D02*
X394990Y159780D01*
X402590Y159780D01*
X459990Y159780D01*
X459990Y2780D01*
X402590Y2780D01*
X394990Y2780D01*
X402590Y2780D02*
X402590Y159780D01*
D13*
X214376Y124460D02*
X197104Y124460D01*
X216916Y142240D02*
X216914Y142340D01*
X216908Y142439D01*
X216898Y142539D01*
X216885Y142637D01*
X216867Y142736D01*
X216846Y142833D01*
X216821Y142929D01*
X216792Y143025D01*
X216759Y143119D01*
X216723Y143212D01*
X216683Y143303D01*
X216639Y143393D01*
X216592Y143481D01*
X216542Y143567D01*
X216488Y143651D01*
X216431Y143733D01*
X216371Y143812D01*
X216307Y143890D01*
X216241Y143964D01*
X216172Y144036D01*
X216100Y144105D01*
X216026Y144171D01*
X215948Y144235D01*
X215869Y144295D01*
X215787Y144352D01*
X215703Y144406D01*
X215617Y144456D01*
X215529Y144503D01*
X215439Y144547D01*
X215348Y144587D01*
X215255Y144623D01*
X215161Y144656D01*
X215065Y144685D01*
X214969Y144710D01*
X214872Y144731D01*
X214773Y144749D01*
X214675Y144762D01*
X214575Y144772D01*
X214476Y144778D01*
X214376Y144780D01*
X197104Y144780D02*
X197004Y144778D01*
X196905Y144772D01*
X196805Y144762D01*
X196707Y144749D01*
X196608Y144731D01*
X196511Y144710D01*
X196415Y144685D01*
X196319Y144656D01*
X196225Y144623D01*
X196132Y144587D01*
X196041Y144547D01*
X195951Y144503D01*
X195863Y144456D01*
X195777Y144406D01*
X195693Y144352D01*
X195611Y144295D01*
X195532Y144235D01*
X195454Y144171D01*
X195380Y144105D01*
X195308Y144036D01*
X195239Y143964D01*
X195173Y143890D01*
X195109Y143812D01*
X195049Y143733D01*
X194992Y143651D01*
X194938Y143567D01*
X194888Y143481D01*
X194841Y143393D01*
X194797Y143303D01*
X194757Y143212D01*
X194721Y143119D01*
X194688Y143025D01*
X194659Y142929D01*
X194634Y142833D01*
X194613Y142736D01*
X194595Y142637D01*
X194582Y142539D01*
X194572Y142439D01*
X194566Y142340D01*
X194564Y142240D01*
X194564Y127000D02*
X194566Y126900D01*
X194572Y126801D01*
X194582Y126701D01*
X194595Y126603D01*
X194613Y126504D01*
X194634Y126407D01*
X194659Y126311D01*
X194688Y126215D01*
X194721Y126121D01*
X194757Y126028D01*
X194797Y125937D01*
X194841Y125847D01*
X194888Y125759D01*
X194938Y125673D01*
X194992Y125589D01*
X195049Y125507D01*
X195109Y125428D01*
X195173Y125350D01*
X195239Y125276D01*
X195308Y125204D01*
X195380Y125135D01*
X195454Y125069D01*
X195532Y125005D01*
X195611Y124945D01*
X195693Y124888D01*
X195777Y124834D01*
X195863Y124784D01*
X195951Y124737D01*
X196041Y124693D01*
X196132Y124653D01*
X196225Y124617D01*
X196319Y124584D01*
X196415Y124555D01*
X196511Y124530D01*
X196608Y124509D01*
X196707Y124491D01*
X196805Y124478D01*
X196905Y124468D01*
X197004Y124462D01*
X197104Y124460D01*
X214376Y124460D02*
X214476Y124462D01*
X214575Y124468D01*
X214675Y124478D01*
X214773Y124491D01*
X214872Y124509D01*
X214969Y124530D01*
X215065Y124555D01*
X215161Y124584D01*
X215255Y124617D01*
X215348Y124653D01*
X215439Y124693D01*
X215529Y124737D01*
X215617Y124784D01*
X215703Y124834D01*
X215787Y124888D01*
X215869Y124945D01*
X215948Y125005D01*
X216026Y125069D01*
X216100Y125135D01*
X216172Y125204D01*
X216241Y125276D01*
X216307Y125350D01*
X216371Y125428D01*
X216431Y125507D01*
X216488Y125589D01*
X216542Y125673D01*
X216592Y125759D01*
X216639Y125847D01*
X216683Y125937D01*
X216723Y126028D01*
X216759Y126121D01*
X216792Y126215D01*
X216821Y126311D01*
X216846Y126407D01*
X216867Y126504D01*
X216885Y126603D01*
X216898Y126701D01*
X216908Y126801D01*
X216914Y126900D01*
X216916Y127000D01*
X216916Y142240D01*
X194564Y142240D02*
X194564Y127000D01*
X197104Y144780D02*
X214376Y144780D01*
X214376Y92710D02*
X197104Y92710D01*
X216916Y110490D02*
X216914Y110590D01*
X216908Y110689D01*
X216898Y110789D01*
X216885Y110887D01*
X216867Y110986D01*
X216846Y111083D01*
X216821Y111179D01*
X216792Y111275D01*
X216759Y111369D01*
X216723Y111462D01*
X216683Y111553D01*
X216639Y111643D01*
X216592Y111731D01*
X216542Y111817D01*
X216488Y111901D01*
X216431Y111983D01*
X216371Y112062D01*
X216307Y112140D01*
X216241Y112214D01*
X216172Y112286D01*
X216100Y112355D01*
X216026Y112421D01*
X215948Y112485D01*
X215869Y112545D01*
X215787Y112602D01*
X215703Y112656D01*
X215617Y112706D01*
X215529Y112753D01*
X215439Y112797D01*
X215348Y112837D01*
X215255Y112873D01*
X215161Y112906D01*
X215065Y112935D01*
X214969Y112960D01*
X214872Y112981D01*
X214773Y112999D01*
X214675Y113012D01*
X214575Y113022D01*
X214476Y113028D01*
X214376Y113030D01*
X197104Y113030D02*
X197004Y113028D01*
X196905Y113022D01*
X196805Y113012D01*
X196707Y112999D01*
X196608Y112981D01*
X196511Y112960D01*
X196415Y112935D01*
X196319Y112906D01*
X196225Y112873D01*
X196132Y112837D01*
X196041Y112797D01*
X195951Y112753D01*
X195863Y112706D01*
X195777Y112656D01*
X195693Y112602D01*
X195611Y112545D01*
X195532Y112485D01*
X195454Y112421D01*
X195380Y112355D01*
X195308Y112286D01*
X195239Y112214D01*
X195173Y112140D01*
X195109Y112062D01*
X195049Y111983D01*
X194992Y111901D01*
X194938Y111817D01*
X194888Y111731D01*
X194841Y111643D01*
X194797Y111553D01*
X194757Y111462D01*
X194721Y111369D01*
X194688Y111275D01*
X194659Y111179D01*
X194634Y111083D01*
X194613Y110986D01*
X194595Y110887D01*
X194582Y110789D01*
X194572Y110689D01*
X194566Y110590D01*
X194564Y110490D01*
X194564Y95250D02*
X194566Y95150D01*
X194572Y95051D01*
X194582Y94951D01*
X194595Y94853D01*
X194613Y94754D01*
X194634Y94657D01*
X194659Y94561D01*
X194688Y94465D01*
X194721Y94371D01*
X194757Y94278D01*
X194797Y94187D01*
X194841Y94097D01*
X194888Y94009D01*
X194938Y93923D01*
X194992Y93839D01*
X195049Y93757D01*
X195109Y93678D01*
X195173Y93600D01*
X195239Y93526D01*
X195308Y93454D01*
X195380Y93385D01*
X195454Y93319D01*
X195532Y93255D01*
X195611Y93195D01*
X195693Y93138D01*
X195777Y93084D01*
X195863Y93034D01*
X195951Y92987D01*
X196041Y92943D01*
X196132Y92903D01*
X196225Y92867D01*
X196319Y92834D01*
X196415Y92805D01*
X196511Y92780D01*
X196608Y92759D01*
X196707Y92741D01*
X196805Y92728D01*
X196905Y92718D01*
X197004Y92712D01*
X197104Y92710D01*
X214376Y92710D02*
X214476Y92712D01*
X214575Y92718D01*
X214675Y92728D01*
X214773Y92741D01*
X214872Y92759D01*
X214969Y92780D01*
X215065Y92805D01*
X215161Y92834D01*
X215255Y92867D01*
X215348Y92903D01*
X215439Y92943D01*
X215529Y92987D01*
X215617Y93034D01*
X215703Y93084D01*
X215787Y93138D01*
X215869Y93195D01*
X215948Y93255D01*
X216026Y93319D01*
X216100Y93385D01*
X216172Y93454D01*
X216241Y93526D01*
X216307Y93600D01*
X216371Y93678D01*
X216431Y93757D01*
X216488Y93839D01*
X216542Y93923D01*
X216592Y94009D01*
X216639Y94097D01*
X216683Y94187D01*
X216723Y94278D01*
X216759Y94371D01*
X216792Y94465D01*
X216821Y94561D01*
X216846Y94657D01*
X216867Y94754D01*
X216885Y94853D01*
X216898Y94951D01*
X216908Y95051D01*
X216914Y95150D01*
X216916Y95250D01*
X216916Y110490D01*
X194564Y110490D02*
X194564Y95250D01*
X197104Y113030D02*
X214376Y113030D01*
D10*
X400990Y197620D02*
X400998Y198270D01*
X401022Y198920D01*
X401062Y199569D01*
X401118Y200217D01*
X401189Y200864D01*
X401277Y201508D01*
X401380Y202150D01*
X401499Y202790D01*
X401634Y203426D01*
X401784Y204059D01*
X401950Y204688D01*
X402131Y205313D01*
X402328Y205933D01*
X402539Y206548D01*
X402766Y207157D01*
X403007Y207761D01*
X403263Y208359D01*
X403534Y208950D01*
X403820Y209535D01*
X404119Y210112D01*
X404433Y210682D01*
X404760Y211244D01*
X405101Y211797D01*
X405456Y212343D01*
X405824Y212879D01*
X406205Y213406D01*
X406599Y213924D01*
X407005Y214431D01*
X407424Y214929D01*
X407855Y215416D01*
X408297Y215893D01*
X408752Y216358D01*
X409217Y216813D01*
X409694Y217255D01*
X410181Y217686D01*
X410679Y218105D01*
X411186Y218511D01*
X411704Y218905D01*
X412231Y219286D01*
X412767Y219654D01*
X413313Y220009D01*
X413866Y220350D01*
X414428Y220677D01*
X414998Y220991D01*
X415575Y221290D01*
X416160Y221576D01*
X416751Y221847D01*
X417349Y222103D01*
X417953Y222344D01*
X418562Y222571D01*
X419177Y222782D01*
X419797Y222979D01*
X420422Y223160D01*
X421051Y223326D01*
X421684Y223476D01*
X422320Y223611D01*
X422960Y223730D01*
X423602Y223833D01*
X424246Y223921D01*
X424893Y223992D01*
X425541Y224048D01*
X426190Y224088D01*
X426840Y224112D01*
X427490Y224120D01*
X428140Y224112D01*
X428790Y224088D01*
X429439Y224048D01*
X430087Y223992D01*
X430734Y223921D01*
X431378Y223833D01*
X432020Y223730D01*
X432660Y223611D01*
X433296Y223476D01*
X433929Y223326D01*
X434558Y223160D01*
X435183Y222979D01*
X435803Y222782D01*
X436418Y222571D01*
X437027Y222344D01*
X437631Y222103D01*
X438229Y221847D01*
X438820Y221576D01*
X439405Y221290D01*
X439982Y220991D01*
X440552Y220677D01*
X441114Y220350D01*
X441667Y220009D01*
X442213Y219654D01*
X442749Y219286D01*
X443276Y218905D01*
X443794Y218511D01*
X444301Y218105D01*
X444799Y217686D01*
X445286Y217255D01*
X445763Y216813D01*
X446228Y216358D01*
X446683Y215893D01*
X447125Y215416D01*
X447556Y214929D01*
X447975Y214431D01*
X448381Y213924D01*
X448775Y213406D01*
X449156Y212879D01*
X449524Y212343D01*
X449879Y211797D01*
X450220Y211244D01*
X450547Y210682D01*
X450861Y210112D01*
X451160Y209535D01*
X451446Y208950D01*
X451717Y208359D01*
X451973Y207761D01*
X452214Y207157D01*
X452441Y206548D01*
X452652Y205933D01*
X452849Y205313D01*
X453030Y204688D01*
X453196Y204059D01*
X453346Y203426D01*
X453481Y202790D01*
X453600Y202150D01*
X453703Y201508D01*
X453791Y200864D01*
X453862Y200217D01*
X453918Y199569D01*
X453958Y198920D01*
X453982Y198270D01*
X453990Y197620D01*
X453982Y196970D01*
X453958Y196320D01*
X453918Y195671D01*
X453862Y195023D01*
X453791Y194376D01*
X453703Y193732D01*
X453600Y193090D01*
X453481Y192450D01*
X453346Y191814D01*
X453196Y191181D01*
X453030Y190552D01*
X452849Y189927D01*
X452652Y189307D01*
X452441Y188692D01*
X452214Y188083D01*
X451973Y187479D01*
X451717Y186881D01*
X451446Y186290D01*
X451160Y185705D01*
X450861Y185128D01*
X450547Y184558D01*
X450220Y183996D01*
X449879Y183443D01*
X449524Y182897D01*
X449156Y182361D01*
X448775Y181834D01*
X448381Y181316D01*
X447975Y180809D01*
X447556Y180311D01*
X447125Y179824D01*
X446683Y179347D01*
X446228Y178882D01*
X445763Y178427D01*
X445286Y177985D01*
X444799Y177554D01*
X444301Y177135D01*
X443794Y176729D01*
X443276Y176335D01*
X442749Y175954D01*
X442213Y175586D01*
X441667Y175231D01*
X441114Y174890D01*
X440552Y174563D01*
X439982Y174249D01*
X439405Y173950D01*
X438820Y173664D01*
X438229Y173393D01*
X437631Y173137D01*
X437027Y172896D01*
X436418Y172669D01*
X435803Y172458D01*
X435183Y172261D01*
X434558Y172080D01*
X433929Y171914D01*
X433296Y171764D01*
X432660Y171629D01*
X432020Y171510D01*
X431378Y171407D01*
X430734Y171319D01*
X430087Y171248D01*
X429439Y171192D01*
X428790Y171152D01*
X428140Y171128D01*
X427490Y171120D01*
X426840Y171128D01*
X426190Y171152D01*
X425541Y171192D01*
X424893Y171248D01*
X424246Y171319D01*
X423602Y171407D01*
X422960Y171510D01*
X422320Y171629D01*
X421684Y171764D01*
X421051Y171914D01*
X420422Y172080D01*
X419797Y172261D01*
X419177Y172458D01*
X418562Y172669D01*
X417953Y172896D01*
X417349Y173137D01*
X416751Y173393D01*
X416160Y173664D01*
X415575Y173950D01*
X414998Y174249D01*
X414428Y174563D01*
X413866Y174890D01*
X413313Y175231D01*
X412767Y175586D01*
X412231Y175954D01*
X411704Y176335D01*
X411186Y176729D01*
X410679Y177135D01*
X410181Y177554D01*
X409694Y177985D01*
X409217Y178427D01*
X408752Y178882D01*
X408297Y179347D01*
X407855Y179824D01*
X407424Y180311D01*
X407005Y180809D01*
X406599Y181316D01*
X406205Y181834D01*
X405824Y182361D01*
X405456Y182897D01*
X405101Y183443D01*
X404760Y183996D01*
X404433Y184558D01*
X404119Y185128D01*
X403820Y185705D01*
X403534Y186290D01*
X403263Y186881D01*
X403007Y187479D01*
X402766Y188083D01*
X402539Y188692D01*
X402328Y189307D01*
X402131Y189927D01*
X401950Y190552D01*
X401784Y191181D01*
X401634Y191814D01*
X401499Y192450D01*
X401380Y193090D01*
X401277Y193732D01*
X401189Y194376D01*
X401118Y195023D01*
X401062Y195671D01*
X401022Y196320D01*
X400998Y196970D01*
X400990Y197620D01*
X8290Y197620D02*
X8298Y198270D01*
X8322Y198920D01*
X8362Y199569D01*
X8418Y200217D01*
X8489Y200864D01*
X8577Y201508D01*
X8680Y202150D01*
X8799Y202790D01*
X8934Y203426D01*
X9084Y204059D01*
X9250Y204688D01*
X9431Y205313D01*
X9628Y205933D01*
X9839Y206548D01*
X10066Y207157D01*
X10307Y207761D01*
X10563Y208359D01*
X10834Y208950D01*
X11120Y209535D01*
X11419Y210112D01*
X11733Y210682D01*
X12060Y211244D01*
X12401Y211797D01*
X12756Y212343D01*
X13124Y212879D01*
X13505Y213406D01*
X13899Y213924D01*
X14305Y214431D01*
X14724Y214929D01*
X15155Y215416D01*
X15597Y215893D01*
X16052Y216358D01*
X16517Y216813D01*
X16994Y217255D01*
X17481Y217686D01*
X17979Y218105D01*
X18486Y218511D01*
X19004Y218905D01*
X19531Y219286D01*
X20067Y219654D01*
X20613Y220009D01*
X21166Y220350D01*
X21728Y220677D01*
X22298Y220991D01*
X22875Y221290D01*
X23460Y221576D01*
X24051Y221847D01*
X24649Y222103D01*
X25253Y222344D01*
X25862Y222571D01*
X26477Y222782D01*
X27097Y222979D01*
X27722Y223160D01*
X28351Y223326D01*
X28984Y223476D01*
X29620Y223611D01*
X30260Y223730D01*
X30902Y223833D01*
X31546Y223921D01*
X32193Y223992D01*
X32841Y224048D01*
X33490Y224088D01*
X34140Y224112D01*
X34790Y224120D01*
X35440Y224112D01*
X36090Y224088D01*
X36739Y224048D01*
X37387Y223992D01*
X38034Y223921D01*
X38678Y223833D01*
X39320Y223730D01*
X39960Y223611D01*
X40596Y223476D01*
X41229Y223326D01*
X41858Y223160D01*
X42483Y222979D01*
X43103Y222782D01*
X43718Y222571D01*
X44327Y222344D01*
X44931Y222103D01*
X45529Y221847D01*
X46120Y221576D01*
X46705Y221290D01*
X47282Y220991D01*
X47852Y220677D01*
X48414Y220350D01*
X48967Y220009D01*
X49513Y219654D01*
X50049Y219286D01*
X50576Y218905D01*
X51094Y218511D01*
X51601Y218105D01*
X52099Y217686D01*
X52586Y217255D01*
X53063Y216813D01*
X53528Y216358D01*
X53983Y215893D01*
X54425Y215416D01*
X54856Y214929D01*
X55275Y214431D01*
X55681Y213924D01*
X56075Y213406D01*
X56456Y212879D01*
X56824Y212343D01*
X57179Y211797D01*
X57520Y211244D01*
X57847Y210682D01*
X58161Y210112D01*
X58460Y209535D01*
X58746Y208950D01*
X59017Y208359D01*
X59273Y207761D01*
X59514Y207157D01*
X59741Y206548D01*
X59952Y205933D01*
X60149Y205313D01*
X60330Y204688D01*
X60496Y204059D01*
X60646Y203426D01*
X60781Y202790D01*
X60900Y202150D01*
X61003Y201508D01*
X61091Y200864D01*
X61162Y200217D01*
X61218Y199569D01*
X61258Y198920D01*
X61282Y198270D01*
X61290Y197620D01*
X61282Y196970D01*
X61258Y196320D01*
X61218Y195671D01*
X61162Y195023D01*
X61091Y194376D01*
X61003Y193732D01*
X60900Y193090D01*
X60781Y192450D01*
X60646Y191814D01*
X60496Y191181D01*
X60330Y190552D01*
X60149Y189927D01*
X59952Y189307D01*
X59741Y188692D01*
X59514Y188083D01*
X59273Y187479D01*
X59017Y186881D01*
X58746Y186290D01*
X58460Y185705D01*
X58161Y185128D01*
X57847Y184558D01*
X57520Y183996D01*
X57179Y183443D01*
X56824Y182897D01*
X56456Y182361D01*
X56075Y181834D01*
X55681Y181316D01*
X55275Y180809D01*
X54856Y180311D01*
X54425Y179824D01*
X53983Y179347D01*
X53528Y178882D01*
X53063Y178427D01*
X52586Y177985D01*
X52099Y177554D01*
X51601Y177135D01*
X51094Y176729D01*
X50576Y176335D01*
X50049Y175954D01*
X49513Y175586D01*
X48967Y175231D01*
X48414Y174890D01*
X47852Y174563D01*
X47282Y174249D01*
X46705Y173950D01*
X46120Y173664D01*
X45529Y173393D01*
X44931Y173137D01*
X44327Y172896D01*
X43718Y172669D01*
X43103Y172458D01*
X42483Y172261D01*
X41858Y172080D01*
X41229Y171914D01*
X40596Y171764D01*
X39960Y171629D01*
X39320Y171510D01*
X38678Y171407D01*
X38034Y171319D01*
X37387Y171248D01*
X36739Y171192D01*
X36090Y171152D01*
X35440Y171128D01*
X34790Y171120D01*
X34140Y171128D01*
X33490Y171152D01*
X32841Y171192D01*
X32193Y171248D01*
X31546Y171319D01*
X30902Y171407D01*
X30260Y171510D01*
X29620Y171629D01*
X28984Y171764D01*
X28351Y171914D01*
X27722Y172080D01*
X27097Y172261D01*
X26477Y172458D01*
X25862Y172669D01*
X25253Y172896D01*
X24649Y173137D01*
X24051Y173393D01*
X23460Y173664D01*
X22875Y173950D01*
X22298Y174249D01*
X21728Y174563D01*
X21166Y174890D01*
X20613Y175231D01*
X20067Y175586D01*
X19531Y175954D01*
X19004Y176335D01*
X18486Y176729D01*
X17979Y177135D01*
X17481Y177554D01*
X16994Y177985D01*
X16517Y178427D01*
X16052Y178882D01*
X15597Y179347D01*
X15155Y179824D01*
X14724Y180311D01*
X14305Y180809D01*
X13899Y181316D01*
X13505Y181834D01*
X13124Y182361D01*
X12756Y182897D01*
X12401Y183443D01*
X12060Y183996D01*
X11733Y184558D01*
X11419Y185128D01*
X11120Y185705D01*
X10834Y186290D01*
X10563Y186881D01*
X10307Y187479D01*
X10066Y188083D01*
X9839Y188692D01*
X9628Y189307D01*
X9431Y189927D01*
X9250Y190552D01*
X9084Y191181D01*
X8934Y191814D01*
X8799Y192450D01*
X8680Y193090D01*
X8577Y193732D01*
X8489Y194376D01*
X8418Y195023D01*
X8362Y195671D01*
X8322Y196320D01*
X8298Y196970D01*
X8290Y197620D01*
M02*
