G04 EAGLE Gerber X2 export*
%TF.Part,Single*%
%TF.FileFunction,Copper,L2,Bot,Mixed*%
%TF.FilePolarity,Positive*%
%TF.GenerationSoftware,Autodesk,EAGLE,9.1.3*%
%TF.CreationDate,2018-10-26T15:03:08Z*%
G75*
%MOMM*%
%FSLAX34Y34*%
%LPD*%
%AMOC8*
5,1,8,0,0,1.08239X$1,22.5*%
G01*
%ADD10C,1.524000*%
%ADD11C,0.406400*%
%ADD12C,0.254000*%


D10*
X167640Y34290D03*
X193040Y34290D03*
X218440Y34290D03*
X243840Y34290D03*
X269240Y34290D03*
X294640Y34290D03*
X34290Y144780D03*
X34290Y119380D03*
X34290Y93980D03*
X34290Y68580D03*
X34290Y43180D03*
X34290Y17780D03*
X213360Y198120D03*
X187960Y198120D03*
X162560Y198120D03*
X137160Y198120D03*
X111760Y198120D03*
X86360Y198120D03*
X375920Y198120D03*
X350520Y198120D03*
X325120Y198120D03*
X299720Y198120D03*
X274320Y198120D03*
X248920Y198120D03*
X427990Y17780D03*
X427990Y43180D03*
X427990Y68580D03*
X427990Y93980D03*
X427990Y119380D03*
X427990Y144780D03*
D11*
X111760Y120650D02*
X34290Y43180D01*
X111760Y120650D02*
X111760Y198120D01*
X393270Y109700D02*
X427020Y143450D01*
X427990Y144780D01*
X392020Y110950D02*
X312020Y190950D01*
X312020Y203450D01*
X304520Y210950D01*
X392020Y110950D02*
X393270Y109700D01*
X261750Y210950D02*
X248920Y198120D01*
X261750Y210950D02*
X304520Y210950D01*
X393270Y109700D02*
X317860Y34290D01*
X294640Y34290D01*
D12*
X34520Y70950D02*
X34520Y78450D01*
X99520Y143450D01*
X99520Y200950D01*
X109520Y210950D01*
X124520Y210950D01*
X137020Y198450D01*
X34520Y70950D02*
X34290Y68580D01*
X137160Y198120D02*
X137020Y198450D01*
X255270Y45720D02*
X280670Y45720D01*
X255270Y45720D02*
X243840Y34290D01*
X299720Y64770D02*
X299720Y198120D01*
X299720Y64770D02*
X280670Y45720D01*
X74520Y143450D02*
X74520Y203450D01*
X87020Y215950D01*
X224520Y215950D02*
X304800Y215950D01*
X307020Y215950D01*
X224520Y193450D02*
X220790Y189720D01*
X224520Y193450D02*
X224520Y215950D01*
X162560Y215950D01*
X87020Y215950D01*
X162560Y215950D02*
X162560Y198120D01*
X74520Y143450D02*
X34290Y103220D01*
X34290Y93980D01*
X307290Y215950D02*
X325120Y198120D01*
X307290Y215950D02*
X304800Y215950D01*
X359650Y68580D02*
X427990Y68580D01*
X359650Y68580D02*
X314520Y23450D01*
X220790Y50610D02*
X220790Y189720D01*
X220790Y50610D02*
X218440Y48260D01*
X218440Y34290D01*
X229280Y23450D01*
X314520Y23450D01*
X162020Y23450D02*
X157020Y28450D01*
X157020Y167180D02*
X187960Y198120D01*
X157020Y167180D02*
X157020Y28450D01*
X182200Y23450D02*
X193040Y34290D01*
X182200Y23450D02*
X162020Y23450D01*
X439520Y38450D02*
X439520Y148450D01*
X439520Y38450D02*
X427990Y26920D01*
X427990Y17780D01*
X213360Y80010D02*
X213360Y198120D01*
X213360Y80010D02*
X167640Y34290D01*
X375920Y198120D02*
X417830Y156210D01*
X431760Y156210D01*
X439520Y148450D01*
M02*
