G75*
%MOIN*%
%OFA0B0*%
%FSLAX25Y25*%
%IPPOS*%
%LPD*%
%AMOC8*
5,1,8,0,0,1.08239X$1,22.5*
%
%ADD10C,0.00000*%
%ADD11C,0.06000*%
%ADD12R,0.05000X0.02500*%
%ADD13C,0.01000*%
%ADD14C,0.02578*%
%ADD15C,0.01600*%
D10*
X0001045Y0015079D02*
X0001045Y0075906D01*
X0001047Y0076096D01*
X0001054Y0076286D01*
X0001066Y0076476D01*
X0001082Y0076666D01*
X0001102Y0076855D01*
X0001128Y0077044D01*
X0001157Y0077232D01*
X0001192Y0077419D01*
X0001231Y0077605D01*
X0001274Y0077790D01*
X0001322Y0077975D01*
X0001374Y0078158D01*
X0001430Y0078339D01*
X0001491Y0078519D01*
X0001557Y0078698D01*
X0001626Y0078875D01*
X0001700Y0079051D01*
X0001778Y0079224D01*
X0001861Y0079396D01*
X0001947Y0079565D01*
X0002037Y0079733D01*
X0002132Y0079898D01*
X0002230Y0080061D01*
X0002333Y0080221D01*
X0002439Y0080379D01*
X0002549Y0080534D01*
X0002662Y0080687D01*
X0002780Y0080837D01*
X0002901Y0080983D01*
X0003025Y0081127D01*
X0003153Y0081268D01*
X0003284Y0081406D01*
X0003419Y0081541D01*
X0003557Y0081672D01*
X0003698Y0081800D01*
X0003842Y0081924D01*
X0003988Y0082045D01*
X0004138Y0082163D01*
X0004291Y0082276D01*
X0004446Y0082386D01*
X0004604Y0082492D01*
X0004764Y0082595D01*
X0004927Y0082693D01*
X0005092Y0082788D01*
X0005260Y0082878D01*
X0005429Y0082964D01*
X0005601Y0083047D01*
X0005774Y0083125D01*
X0005950Y0083199D01*
X0006127Y0083268D01*
X0006306Y0083334D01*
X0006486Y0083395D01*
X0006667Y0083451D01*
X0006850Y0083503D01*
X0007035Y0083551D01*
X0007220Y0083594D01*
X0007406Y0083633D01*
X0007593Y0083668D01*
X0007781Y0083697D01*
X0007970Y0083723D01*
X0008159Y0083743D01*
X0008349Y0083759D01*
X0008539Y0083771D01*
X0008729Y0083778D01*
X0008919Y0083780D01*
X0131593Y0083780D01*
X0131783Y0083778D01*
X0131973Y0083771D01*
X0132163Y0083759D01*
X0132353Y0083743D01*
X0132542Y0083723D01*
X0132731Y0083697D01*
X0132919Y0083668D01*
X0133106Y0083633D01*
X0133292Y0083594D01*
X0133477Y0083551D01*
X0133662Y0083503D01*
X0133845Y0083451D01*
X0134026Y0083395D01*
X0134206Y0083334D01*
X0134385Y0083268D01*
X0134562Y0083199D01*
X0134738Y0083125D01*
X0134911Y0083047D01*
X0135083Y0082964D01*
X0135252Y0082878D01*
X0135420Y0082788D01*
X0135585Y0082693D01*
X0135748Y0082595D01*
X0135908Y0082492D01*
X0136066Y0082386D01*
X0136221Y0082276D01*
X0136374Y0082163D01*
X0136524Y0082045D01*
X0136670Y0081924D01*
X0136814Y0081800D01*
X0136955Y0081672D01*
X0137093Y0081541D01*
X0137228Y0081406D01*
X0137359Y0081268D01*
X0137487Y0081127D01*
X0137611Y0080983D01*
X0137732Y0080837D01*
X0137850Y0080687D01*
X0137963Y0080534D01*
X0138073Y0080379D01*
X0138179Y0080221D01*
X0138282Y0080061D01*
X0138380Y0079898D01*
X0138475Y0079733D01*
X0138565Y0079565D01*
X0138651Y0079396D01*
X0138734Y0079224D01*
X0138812Y0079051D01*
X0138886Y0078875D01*
X0138955Y0078698D01*
X0139021Y0078519D01*
X0139082Y0078339D01*
X0139138Y0078158D01*
X0139190Y0077975D01*
X0139238Y0077790D01*
X0139281Y0077605D01*
X0139320Y0077419D01*
X0139355Y0077232D01*
X0139384Y0077044D01*
X0139410Y0076855D01*
X0139430Y0076666D01*
X0139446Y0076476D01*
X0139458Y0076286D01*
X0139465Y0076096D01*
X0139467Y0075906D01*
X0139467Y0015079D01*
X0001045Y0015079D01*
X0004754Y0073579D02*
X0004756Y0073746D01*
X0004762Y0073912D01*
X0004772Y0074079D01*
X0004787Y0074245D01*
X0004805Y0074410D01*
X0004828Y0074575D01*
X0004854Y0074740D01*
X0004884Y0074904D01*
X0004919Y0075067D01*
X0004958Y0075229D01*
X0005000Y0075390D01*
X0005046Y0075550D01*
X0005097Y0075709D01*
X0005151Y0075867D01*
X0005209Y0076023D01*
X0005271Y0076178D01*
X0005337Y0076331D01*
X0005406Y0076483D01*
X0005479Y0076632D01*
X0005556Y0076780D01*
X0005636Y0076926D01*
X0005720Y0077070D01*
X0005808Y0077212D01*
X0005898Y0077352D01*
X0005993Y0077489D01*
X0006090Y0077624D01*
X0006191Y0077757D01*
X0006295Y0077887D01*
X0006403Y0078015D01*
X0006513Y0078140D01*
X0006627Y0078262D01*
X0006743Y0078381D01*
X0006862Y0078497D01*
X0006984Y0078611D01*
X0007109Y0078721D01*
X0007237Y0078829D01*
X0007367Y0078933D01*
X0007500Y0079034D01*
X0007635Y0079131D01*
X0007772Y0079226D01*
X0007912Y0079316D01*
X0008054Y0079404D01*
X0008198Y0079488D01*
X0008344Y0079568D01*
X0008492Y0079645D01*
X0008641Y0079718D01*
X0008793Y0079787D01*
X0008946Y0079853D01*
X0009101Y0079915D01*
X0009257Y0079973D01*
X0009415Y0080027D01*
X0009574Y0080078D01*
X0009734Y0080124D01*
X0009895Y0080166D01*
X0010057Y0080205D01*
X0010220Y0080240D01*
X0010384Y0080270D01*
X0010549Y0080296D01*
X0010714Y0080319D01*
X0010879Y0080337D01*
X0011045Y0080352D01*
X0011212Y0080362D01*
X0011378Y0080368D01*
X0011545Y0080370D01*
X0011712Y0080368D01*
X0011878Y0080362D01*
X0012045Y0080352D01*
X0012211Y0080337D01*
X0012376Y0080319D01*
X0012541Y0080296D01*
X0012706Y0080270D01*
X0012870Y0080240D01*
X0013033Y0080205D01*
X0013195Y0080166D01*
X0013356Y0080124D01*
X0013516Y0080078D01*
X0013675Y0080027D01*
X0013833Y0079973D01*
X0013989Y0079915D01*
X0014144Y0079853D01*
X0014297Y0079787D01*
X0014449Y0079718D01*
X0014598Y0079645D01*
X0014746Y0079568D01*
X0014892Y0079488D01*
X0015036Y0079404D01*
X0015178Y0079316D01*
X0015318Y0079226D01*
X0015455Y0079131D01*
X0015590Y0079034D01*
X0015723Y0078933D01*
X0015853Y0078829D01*
X0015981Y0078721D01*
X0016106Y0078611D01*
X0016228Y0078497D01*
X0016347Y0078381D01*
X0016463Y0078262D01*
X0016577Y0078140D01*
X0016687Y0078015D01*
X0016795Y0077887D01*
X0016899Y0077757D01*
X0017000Y0077624D01*
X0017097Y0077489D01*
X0017192Y0077352D01*
X0017282Y0077212D01*
X0017370Y0077070D01*
X0017454Y0076926D01*
X0017534Y0076780D01*
X0017611Y0076632D01*
X0017684Y0076483D01*
X0017753Y0076331D01*
X0017819Y0076178D01*
X0017881Y0076023D01*
X0017939Y0075867D01*
X0017993Y0075709D01*
X0018044Y0075550D01*
X0018090Y0075390D01*
X0018132Y0075229D01*
X0018171Y0075067D01*
X0018206Y0074904D01*
X0018236Y0074740D01*
X0018262Y0074575D01*
X0018285Y0074410D01*
X0018303Y0074245D01*
X0018318Y0074079D01*
X0018328Y0073912D01*
X0018334Y0073746D01*
X0018336Y0073579D01*
X0018334Y0073412D01*
X0018328Y0073246D01*
X0018318Y0073079D01*
X0018303Y0072913D01*
X0018285Y0072748D01*
X0018262Y0072583D01*
X0018236Y0072418D01*
X0018206Y0072254D01*
X0018171Y0072091D01*
X0018132Y0071929D01*
X0018090Y0071768D01*
X0018044Y0071608D01*
X0017993Y0071449D01*
X0017939Y0071291D01*
X0017881Y0071135D01*
X0017819Y0070980D01*
X0017753Y0070827D01*
X0017684Y0070675D01*
X0017611Y0070526D01*
X0017534Y0070378D01*
X0017454Y0070232D01*
X0017370Y0070088D01*
X0017282Y0069946D01*
X0017192Y0069806D01*
X0017097Y0069669D01*
X0017000Y0069534D01*
X0016899Y0069401D01*
X0016795Y0069271D01*
X0016687Y0069143D01*
X0016577Y0069018D01*
X0016463Y0068896D01*
X0016347Y0068777D01*
X0016228Y0068661D01*
X0016106Y0068547D01*
X0015981Y0068437D01*
X0015853Y0068329D01*
X0015723Y0068225D01*
X0015590Y0068124D01*
X0015455Y0068027D01*
X0015318Y0067932D01*
X0015178Y0067842D01*
X0015036Y0067754D01*
X0014892Y0067670D01*
X0014746Y0067590D01*
X0014598Y0067513D01*
X0014449Y0067440D01*
X0014297Y0067371D01*
X0014144Y0067305D01*
X0013989Y0067243D01*
X0013833Y0067185D01*
X0013675Y0067131D01*
X0013516Y0067080D01*
X0013356Y0067034D01*
X0013195Y0066992D01*
X0013033Y0066953D01*
X0012870Y0066918D01*
X0012706Y0066888D01*
X0012541Y0066862D01*
X0012376Y0066839D01*
X0012211Y0066821D01*
X0012045Y0066806D01*
X0011878Y0066796D01*
X0011712Y0066790D01*
X0011545Y0066788D01*
X0011378Y0066790D01*
X0011212Y0066796D01*
X0011045Y0066806D01*
X0010879Y0066821D01*
X0010714Y0066839D01*
X0010549Y0066862D01*
X0010384Y0066888D01*
X0010220Y0066918D01*
X0010057Y0066953D01*
X0009895Y0066992D01*
X0009734Y0067034D01*
X0009574Y0067080D01*
X0009415Y0067131D01*
X0009257Y0067185D01*
X0009101Y0067243D01*
X0008946Y0067305D01*
X0008793Y0067371D01*
X0008641Y0067440D01*
X0008492Y0067513D01*
X0008344Y0067590D01*
X0008198Y0067670D01*
X0008054Y0067754D01*
X0007912Y0067842D01*
X0007772Y0067932D01*
X0007635Y0068027D01*
X0007500Y0068124D01*
X0007367Y0068225D01*
X0007237Y0068329D01*
X0007109Y0068437D01*
X0006984Y0068547D01*
X0006862Y0068661D01*
X0006743Y0068777D01*
X0006627Y0068896D01*
X0006513Y0069018D01*
X0006403Y0069143D01*
X0006295Y0069271D01*
X0006191Y0069401D01*
X0006090Y0069534D01*
X0005993Y0069669D01*
X0005898Y0069806D01*
X0005808Y0069946D01*
X0005720Y0070088D01*
X0005636Y0070232D01*
X0005556Y0070378D01*
X0005479Y0070526D01*
X0005406Y0070675D01*
X0005337Y0070827D01*
X0005271Y0070980D01*
X0005209Y0071135D01*
X0005151Y0071291D01*
X0005097Y0071449D01*
X0005046Y0071608D01*
X0005000Y0071768D01*
X0004958Y0071929D01*
X0004919Y0072091D01*
X0004884Y0072254D01*
X0004854Y0072418D01*
X0004828Y0072583D01*
X0004805Y0072748D01*
X0004787Y0072913D01*
X0004772Y0073079D01*
X0004762Y0073246D01*
X0004756Y0073412D01*
X0004754Y0073579D01*
X0122254Y0073579D02*
X0122256Y0073746D01*
X0122262Y0073912D01*
X0122272Y0074079D01*
X0122287Y0074245D01*
X0122305Y0074410D01*
X0122328Y0074575D01*
X0122354Y0074740D01*
X0122384Y0074904D01*
X0122419Y0075067D01*
X0122458Y0075229D01*
X0122500Y0075390D01*
X0122546Y0075550D01*
X0122597Y0075709D01*
X0122651Y0075867D01*
X0122709Y0076023D01*
X0122771Y0076178D01*
X0122837Y0076331D01*
X0122906Y0076483D01*
X0122979Y0076632D01*
X0123056Y0076780D01*
X0123136Y0076926D01*
X0123220Y0077070D01*
X0123308Y0077212D01*
X0123398Y0077352D01*
X0123493Y0077489D01*
X0123590Y0077624D01*
X0123691Y0077757D01*
X0123795Y0077887D01*
X0123903Y0078015D01*
X0124013Y0078140D01*
X0124127Y0078262D01*
X0124243Y0078381D01*
X0124362Y0078497D01*
X0124484Y0078611D01*
X0124609Y0078721D01*
X0124737Y0078829D01*
X0124867Y0078933D01*
X0125000Y0079034D01*
X0125135Y0079131D01*
X0125272Y0079226D01*
X0125412Y0079316D01*
X0125554Y0079404D01*
X0125698Y0079488D01*
X0125844Y0079568D01*
X0125992Y0079645D01*
X0126141Y0079718D01*
X0126293Y0079787D01*
X0126446Y0079853D01*
X0126601Y0079915D01*
X0126757Y0079973D01*
X0126915Y0080027D01*
X0127074Y0080078D01*
X0127234Y0080124D01*
X0127395Y0080166D01*
X0127557Y0080205D01*
X0127720Y0080240D01*
X0127884Y0080270D01*
X0128049Y0080296D01*
X0128214Y0080319D01*
X0128379Y0080337D01*
X0128545Y0080352D01*
X0128712Y0080362D01*
X0128878Y0080368D01*
X0129045Y0080370D01*
X0129212Y0080368D01*
X0129378Y0080362D01*
X0129545Y0080352D01*
X0129711Y0080337D01*
X0129876Y0080319D01*
X0130041Y0080296D01*
X0130206Y0080270D01*
X0130370Y0080240D01*
X0130533Y0080205D01*
X0130695Y0080166D01*
X0130856Y0080124D01*
X0131016Y0080078D01*
X0131175Y0080027D01*
X0131333Y0079973D01*
X0131489Y0079915D01*
X0131644Y0079853D01*
X0131797Y0079787D01*
X0131949Y0079718D01*
X0132098Y0079645D01*
X0132246Y0079568D01*
X0132392Y0079488D01*
X0132536Y0079404D01*
X0132678Y0079316D01*
X0132818Y0079226D01*
X0132955Y0079131D01*
X0133090Y0079034D01*
X0133223Y0078933D01*
X0133353Y0078829D01*
X0133481Y0078721D01*
X0133606Y0078611D01*
X0133728Y0078497D01*
X0133847Y0078381D01*
X0133963Y0078262D01*
X0134077Y0078140D01*
X0134187Y0078015D01*
X0134295Y0077887D01*
X0134399Y0077757D01*
X0134500Y0077624D01*
X0134597Y0077489D01*
X0134692Y0077352D01*
X0134782Y0077212D01*
X0134870Y0077070D01*
X0134954Y0076926D01*
X0135034Y0076780D01*
X0135111Y0076632D01*
X0135184Y0076483D01*
X0135253Y0076331D01*
X0135319Y0076178D01*
X0135381Y0076023D01*
X0135439Y0075867D01*
X0135493Y0075709D01*
X0135544Y0075550D01*
X0135590Y0075390D01*
X0135632Y0075229D01*
X0135671Y0075067D01*
X0135706Y0074904D01*
X0135736Y0074740D01*
X0135762Y0074575D01*
X0135785Y0074410D01*
X0135803Y0074245D01*
X0135818Y0074079D01*
X0135828Y0073912D01*
X0135834Y0073746D01*
X0135836Y0073579D01*
X0135834Y0073412D01*
X0135828Y0073246D01*
X0135818Y0073079D01*
X0135803Y0072913D01*
X0135785Y0072748D01*
X0135762Y0072583D01*
X0135736Y0072418D01*
X0135706Y0072254D01*
X0135671Y0072091D01*
X0135632Y0071929D01*
X0135590Y0071768D01*
X0135544Y0071608D01*
X0135493Y0071449D01*
X0135439Y0071291D01*
X0135381Y0071135D01*
X0135319Y0070980D01*
X0135253Y0070827D01*
X0135184Y0070675D01*
X0135111Y0070526D01*
X0135034Y0070378D01*
X0134954Y0070232D01*
X0134870Y0070088D01*
X0134782Y0069946D01*
X0134692Y0069806D01*
X0134597Y0069669D01*
X0134500Y0069534D01*
X0134399Y0069401D01*
X0134295Y0069271D01*
X0134187Y0069143D01*
X0134077Y0069018D01*
X0133963Y0068896D01*
X0133847Y0068777D01*
X0133728Y0068661D01*
X0133606Y0068547D01*
X0133481Y0068437D01*
X0133353Y0068329D01*
X0133223Y0068225D01*
X0133090Y0068124D01*
X0132955Y0068027D01*
X0132818Y0067932D01*
X0132678Y0067842D01*
X0132536Y0067754D01*
X0132392Y0067670D01*
X0132246Y0067590D01*
X0132098Y0067513D01*
X0131949Y0067440D01*
X0131797Y0067371D01*
X0131644Y0067305D01*
X0131489Y0067243D01*
X0131333Y0067185D01*
X0131175Y0067131D01*
X0131016Y0067080D01*
X0130856Y0067034D01*
X0130695Y0066992D01*
X0130533Y0066953D01*
X0130370Y0066918D01*
X0130206Y0066888D01*
X0130041Y0066862D01*
X0129876Y0066839D01*
X0129711Y0066821D01*
X0129545Y0066806D01*
X0129378Y0066796D01*
X0129212Y0066790D01*
X0129045Y0066788D01*
X0128878Y0066790D01*
X0128712Y0066796D01*
X0128545Y0066806D01*
X0128379Y0066821D01*
X0128214Y0066839D01*
X0128049Y0066862D01*
X0127884Y0066888D01*
X0127720Y0066918D01*
X0127557Y0066953D01*
X0127395Y0066992D01*
X0127234Y0067034D01*
X0127074Y0067080D01*
X0126915Y0067131D01*
X0126757Y0067185D01*
X0126601Y0067243D01*
X0126446Y0067305D01*
X0126293Y0067371D01*
X0126141Y0067440D01*
X0125992Y0067513D01*
X0125844Y0067590D01*
X0125698Y0067670D01*
X0125554Y0067754D01*
X0125412Y0067842D01*
X0125272Y0067932D01*
X0125135Y0068027D01*
X0125000Y0068124D01*
X0124867Y0068225D01*
X0124737Y0068329D01*
X0124609Y0068437D01*
X0124484Y0068547D01*
X0124362Y0068661D01*
X0124243Y0068777D01*
X0124127Y0068896D01*
X0124013Y0069018D01*
X0123903Y0069143D01*
X0123795Y0069271D01*
X0123691Y0069401D01*
X0123590Y0069534D01*
X0123493Y0069669D01*
X0123398Y0069806D01*
X0123308Y0069946D01*
X0123220Y0070088D01*
X0123136Y0070232D01*
X0123056Y0070378D01*
X0122979Y0070526D01*
X0122906Y0070675D01*
X0122837Y0070827D01*
X0122771Y0070980D01*
X0122709Y0071135D01*
X0122651Y0071291D01*
X0122597Y0071449D01*
X0122546Y0071608D01*
X0122500Y0071768D01*
X0122458Y0071929D01*
X0122419Y0072091D01*
X0122384Y0072254D01*
X0122354Y0072418D01*
X0122328Y0072583D01*
X0122305Y0072748D01*
X0122287Y0072913D01*
X0122272Y0073079D01*
X0122262Y0073246D01*
X0122256Y0073412D01*
X0122254Y0073579D01*
D11*
X0107045Y0070579D03*
X0097045Y0070579D03*
X0087045Y0070579D03*
X0077045Y0070579D03*
X0063545Y0070579D03*
X0053545Y0070579D03*
X0043545Y0070579D03*
X0033545Y0070579D03*
X0014045Y0051079D03*
X0014045Y0041079D03*
X0014045Y0031079D03*
X0014045Y0021079D03*
X0056045Y0028079D03*
X0066045Y0028079D03*
X0076045Y0028079D03*
X0086045Y0028079D03*
X0126545Y0031079D03*
X0126545Y0021079D03*
X0126545Y0041079D03*
X0126545Y0051079D03*
D12*
X0045045Y0023679D03*
X0045045Y0020479D03*
X0036045Y0020479D03*
X0036045Y0023679D03*
X0040545Y0029979D03*
X0040545Y0033179D03*
D13*
X0040545Y0035690D01*
X0038045Y0038190D01*
X0037545Y0041079D02*
X0046045Y0041079D01*
X0051045Y0036079D01*
X0051045Y0026579D01*
X0054045Y0023579D01*
X0060045Y0023579D01*
X0064545Y0028079D01*
X0066045Y0028079D01*
X0056045Y0028079D02*
X0056045Y0045079D01*
X0050045Y0051079D01*
X0046045Y0051079D01*
X0014045Y0051079D01*
X0014045Y0058079D01*
X0031045Y0075079D01*
X0063545Y0075079D01*
X0087858Y0075079D01*
X0089758Y0076979D01*
X0100645Y0076979D01*
X0107045Y0070579D01*
X0109545Y0068079D01*
X0119232Y0068079D01*
X0134445Y0052866D01*
X0134445Y0030070D01*
X0126545Y0022170D01*
X0126545Y0021079D01*
X0126545Y0031079D02*
X0104045Y0053579D01*
X0039045Y0053579D01*
X0039045Y0059079D02*
X0085545Y0059079D01*
X0097045Y0070579D01*
X0063545Y0070579D02*
X0063545Y0075079D01*
X0052485Y0061519D02*
X0032485Y0061519D01*
X0031045Y0060079D01*
X0032045Y0046579D02*
X0037545Y0041079D01*
X0034045Y0040579D02*
X0034045Y0028079D01*
X0036045Y0026079D01*
X0036045Y0023679D01*
X0036045Y0020479D02*
X0040545Y0020479D01*
X0040545Y0017879D01*
X0040045Y0017379D01*
X0040545Y0020479D02*
X0040545Y0029979D01*
X0045045Y0028079D02*
X0045045Y0023679D01*
X0045045Y0020479D02*
X0040545Y0020479D01*
X0045045Y0028079D02*
X0046545Y0029579D01*
X0046545Y0035802D01*
D14*
X0046545Y0035802D03*
X0038045Y0038190D03*
X0034045Y0040579D03*
X0032045Y0046579D03*
X0039045Y0053579D03*
X0039045Y0059079D03*
X0031045Y0060079D03*
X0052485Y0061519D03*
D15*
X0051723Y0066179D02*
X0078868Y0066179D01*
X0083268Y0070579D01*
X0086045Y0070579D01*
X0090545Y0075079D01*
X0099045Y0075079D01*
X0102645Y0071479D01*
X0102645Y0068757D01*
X0105223Y0066179D01*
X0118445Y0066179D01*
X0132545Y0052079D01*
X0132545Y0041079D01*
X0126545Y0041079D01*
X0132545Y0041079D02*
X0132545Y0030857D01*
X0128368Y0026679D01*
X0124645Y0026679D01*
X0115345Y0017379D01*
X0076045Y0017379D01*
X0040045Y0017379D01*
X0027745Y0017379D01*
X0014045Y0031079D01*
X0051723Y0066179D02*
X0047323Y0070579D01*
X0043545Y0070579D01*
X0086045Y0070579D02*
X0087045Y0070579D01*
X0076045Y0028079D02*
X0076045Y0017379D01*
M02*
