%
M48
M72
T01C0.01378
T02C0.04000
T03C0.13583
%
T01
X46545Y35802
X38045Y38190
X34045Y40579
X32045Y46579
X39045Y53579
X39045Y59079
X31045Y60079
X52485Y61519
T02
X14045Y21079
X14045Y31079
X14045Y41079
X14045Y51079
X33545Y70579
X43545Y70579
X53545Y70579
X63545Y70579
X77045Y70579
X87045Y70579
X97045Y70579
X107045Y70579
X126545Y51079
X126545Y41079
X126545Y31079
X126545Y21079
X86045Y28079
X76045Y28079
X66045Y28079
X56045Y28079
T03
X11545Y73579
X129045Y73579
M30
