G04 EAGLE Gerber RS-274X export*
G75*
%MOMM*%
%FSLAX34Y34*%
%LPD*%
%INSilk screen SOL*%
%IPPOS*%
%AMOC8*
5,1,8,0,0,1.08239X$1,22.5*%
G01*
%ADD10C,0.127000*%


D10*
X176353Y108839D02*
X176353Y115697D01*
X174448Y115697D01*
X174363Y115695D01*
X174277Y115689D01*
X174192Y115680D01*
X174108Y115666D01*
X174024Y115649D01*
X173941Y115628D01*
X173859Y115604D01*
X173779Y115576D01*
X173699Y115544D01*
X173621Y115508D01*
X173545Y115470D01*
X173471Y115427D01*
X173399Y115382D01*
X173328Y115333D01*
X173260Y115281D01*
X173195Y115227D01*
X173132Y115169D01*
X173071Y115108D01*
X173013Y115045D01*
X172959Y114980D01*
X172907Y114912D01*
X172858Y114841D01*
X172813Y114769D01*
X172770Y114695D01*
X172732Y114619D01*
X172696Y114541D01*
X172664Y114461D01*
X172636Y114381D01*
X172612Y114299D01*
X172591Y114216D01*
X172574Y114132D01*
X172560Y114048D01*
X172551Y113963D01*
X172545Y113877D01*
X172543Y113792D01*
X172545Y113707D01*
X172551Y113621D01*
X172560Y113536D01*
X172574Y113452D01*
X172591Y113368D01*
X172612Y113285D01*
X172636Y113203D01*
X172664Y113123D01*
X172696Y113043D01*
X172732Y112965D01*
X172770Y112889D01*
X172813Y112815D01*
X172858Y112743D01*
X172907Y112672D01*
X172959Y112604D01*
X173013Y112539D01*
X173071Y112476D01*
X173132Y112415D01*
X173195Y112357D01*
X173260Y112303D01*
X173328Y112251D01*
X173399Y112202D01*
X173471Y112157D01*
X173545Y112114D01*
X173621Y112076D01*
X173699Y112040D01*
X173779Y112008D01*
X173859Y111980D01*
X173941Y111956D01*
X174024Y111935D01*
X174108Y111918D01*
X174192Y111904D01*
X174277Y111895D01*
X174363Y111889D01*
X174448Y111887D01*
X176353Y111887D01*
X169242Y113411D02*
X169242Y108839D01*
X169242Y113411D02*
X166956Y113411D01*
X166956Y112649D01*
X164428Y111887D02*
X164428Y110363D01*
X164428Y111887D02*
X164426Y111964D01*
X164420Y112041D01*
X164410Y112118D01*
X164397Y112194D01*
X164379Y112269D01*
X164358Y112343D01*
X164333Y112416D01*
X164304Y112488D01*
X164272Y112558D01*
X164237Y112627D01*
X164197Y112693D01*
X164155Y112758D01*
X164109Y112820D01*
X164060Y112880D01*
X164009Y112937D01*
X163954Y112992D01*
X163897Y113043D01*
X163837Y113092D01*
X163775Y113138D01*
X163710Y113180D01*
X163644Y113220D01*
X163575Y113255D01*
X163505Y113287D01*
X163433Y113316D01*
X163360Y113341D01*
X163286Y113362D01*
X163211Y113380D01*
X163135Y113393D01*
X163058Y113403D01*
X162981Y113409D01*
X162904Y113411D01*
X162827Y113409D01*
X162750Y113403D01*
X162673Y113393D01*
X162597Y113380D01*
X162522Y113362D01*
X162448Y113341D01*
X162375Y113316D01*
X162303Y113287D01*
X162233Y113255D01*
X162164Y113220D01*
X162098Y113180D01*
X162033Y113138D01*
X161971Y113092D01*
X161911Y113043D01*
X161854Y112992D01*
X161799Y112937D01*
X161748Y112880D01*
X161699Y112820D01*
X161653Y112758D01*
X161611Y112693D01*
X161571Y112627D01*
X161536Y112558D01*
X161504Y112488D01*
X161475Y112416D01*
X161450Y112343D01*
X161429Y112269D01*
X161411Y112194D01*
X161398Y112118D01*
X161388Y112041D01*
X161382Y111964D01*
X161380Y111887D01*
X161380Y110363D01*
X161382Y110286D01*
X161388Y110209D01*
X161398Y110132D01*
X161411Y110056D01*
X161429Y109981D01*
X161450Y109907D01*
X161475Y109834D01*
X161504Y109762D01*
X161536Y109692D01*
X161571Y109623D01*
X161611Y109557D01*
X161653Y109492D01*
X161699Y109430D01*
X161748Y109370D01*
X161799Y109313D01*
X161854Y109258D01*
X161911Y109207D01*
X161971Y109158D01*
X162033Y109112D01*
X162098Y109070D01*
X162164Y109030D01*
X162233Y108995D01*
X162303Y108963D01*
X162375Y108934D01*
X162448Y108909D01*
X162522Y108888D01*
X162597Y108870D01*
X162673Y108857D01*
X162750Y108847D01*
X162827Y108841D01*
X162904Y108839D01*
X162981Y108841D01*
X163058Y108847D01*
X163135Y108857D01*
X163211Y108870D01*
X163286Y108888D01*
X163360Y108909D01*
X163433Y108934D01*
X163505Y108963D01*
X163575Y108995D01*
X163644Y109030D01*
X163710Y109070D01*
X163775Y109112D01*
X163837Y109158D01*
X163897Y109207D01*
X163954Y109258D01*
X164009Y109313D01*
X164060Y109370D01*
X164109Y109430D01*
X164155Y109492D01*
X164197Y109557D01*
X164237Y109623D01*
X164272Y109692D01*
X164304Y109762D01*
X164333Y109834D01*
X164358Y109907D01*
X164379Y109981D01*
X164397Y110056D01*
X164410Y110132D01*
X164420Y110209D01*
X164426Y110286D01*
X164428Y110363D01*
X158458Y107696D02*
X158458Y113411D01*
X158458Y107696D02*
X158460Y107630D01*
X158466Y107563D01*
X158475Y107498D01*
X158489Y107432D01*
X158506Y107368D01*
X158527Y107305D01*
X158551Y107243D01*
X158580Y107183D01*
X158611Y107125D01*
X158646Y107068D01*
X158684Y107013D01*
X158725Y106961D01*
X158770Y106912D01*
X158817Y106865D01*
X158866Y106820D01*
X158918Y106779D01*
X158973Y106741D01*
X159030Y106706D01*
X159088Y106675D01*
X159148Y106646D01*
X159210Y106622D01*
X159273Y106601D01*
X159337Y106584D01*
X159403Y106570D01*
X159468Y106561D01*
X159535Y106555D01*
X159601Y106553D01*
X159982Y106553D01*
X158648Y115316D02*
X158648Y115697D01*
X158267Y115697D01*
X158267Y115316D01*
X158648Y115316D01*
X154019Y108839D02*
X152114Y108839D01*
X154019Y108839D02*
X154085Y108841D01*
X154152Y108847D01*
X154217Y108856D01*
X154283Y108870D01*
X154347Y108887D01*
X154410Y108908D01*
X154472Y108932D01*
X154532Y108961D01*
X154591Y108992D01*
X154647Y109027D01*
X154702Y109065D01*
X154754Y109106D01*
X154803Y109151D01*
X154850Y109198D01*
X154895Y109247D01*
X154936Y109299D01*
X154974Y109354D01*
X155009Y109411D01*
X155040Y109469D01*
X155069Y109529D01*
X155093Y109591D01*
X155114Y109654D01*
X155131Y109718D01*
X155145Y109784D01*
X155154Y109849D01*
X155160Y109916D01*
X155162Y109982D01*
X155162Y111887D01*
X155160Y111964D01*
X155154Y112041D01*
X155144Y112118D01*
X155131Y112194D01*
X155113Y112269D01*
X155092Y112343D01*
X155067Y112416D01*
X155038Y112488D01*
X155006Y112558D01*
X154971Y112627D01*
X154931Y112693D01*
X154889Y112758D01*
X154843Y112820D01*
X154794Y112880D01*
X154743Y112937D01*
X154688Y112992D01*
X154631Y113043D01*
X154571Y113092D01*
X154509Y113138D01*
X154444Y113180D01*
X154378Y113220D01*
X154309Y113255D01*
X154239Y113287D01*
X154167Y113316D01*
X154094Y113341D01*
X154020Y113362D01*
X153945Y113380D01*
X153869Y113393D01*
X153792Y113403D01*
X153715Y113409D01*
X153638Y113411D01*
X153561Y113409D01*
X153484Y113403D01*
X153407Y113393D01*
X153331Y113380D01*
X153256Y113362D01*
X153182Y113341D01*
X153109Y113316D01*
X153037Y113287D01*
X152967Y113255D01*
X152898Y113220D01*
X152832Y113180D01*
X152767Y113138D01*
X152705Y113092D01*
X152645Y113043D01*
X152588Y112992D01*
X152533Y112937D01*
X152482Y112880D01*
X152433Y112820D01*
X152387Y112758D01*
X152345Y112693D01*
X152305Y112627D01*
X152270Y112558D01*
X152238Y112488D01*
X152209Y112416D01*
X152184Y112343D01*
X152163Y112269D01*
X152145Y112194D01*
X152132Y112118D01*
X152122Y112041D01*
X152116Y111964D01*
X152114Y111887D01*
X152114Y111125D01*
X155162Y111125D01*
X147667Y108839D02*
X146143Y108839D01*
X147667Y108839D02*
X147733Y108841D01*
X147800Y108847D01*
X147865Y108856D01*
X147931Y108870D01*
X147995Y108887D01*
X148058Y108908D01*
X148120Y108932D01*
X148180Y108961D01*
X148239Y108992D01*
X148295Y109027D01*
X148350Y109065D01*
X148402Y109106D01*
X148451Y109151D01*
X148498Y109198D01*
X148543Y109247D01*
X148584Y109299D01*
X148622Y109354D01*
X148657Y109411D01*
X148688Y109469D01*
X148717Y109529D01*
X148741Y109591D01*
X148762Y109654D01*
X148779Y109718D01*
X148793Y109784D01*
X148802Y109849D01*
X148808Y109916D01*
X148810Y109982D01*
X148810Y112268D01*
X148808Y112334D01*
X148802Y112401D01*
X148793Y112466D01*
X148779Y112532D01*
X148762Y112596D01*
X148741Y112659D01*
X148717Y112721D01*
X148688Y112781D01*
X148657Y112840D01*
X148622Y112896D01*
X148584Y112951D01*
X148543Y113003D01*
X148498Y113052D01*
X148451Y113099D01*
X148402Y113144D01*
X148350Y113185D01*
X148295Y113223D01*
X148239Y113258D01*
X148180Y113289D01*
X148120Y113318D01*
X148058Y113342D01*
X147995Y113363D01*
X147931Y113380D01*
X147865Y113394D01*
X147800Y113403D01*
X147733Y113409D01*
X147667Y113411D01*
X146143Y113411D01*
X143896Y113411D02*
X141610Y113411D01*
X143134Y115697D02*
X143134Y109982D01*
X143132Y109916D01*
X143126Y109849D01*
X143117Y109784D01*
X143103Y109718D01*
X143086Y109654D01*
X143065Y109591D01*
X143041Y109529D01*
X143012Y109469D01*
X142981Y109411D01*
X142946Y109354D01*
X142908Y109299D01*
X142867Y109247D01*
X142822Y109198D01*
X142775Y109151D01*
X142726Y109106D01*
X142674Y109065D01*
X142619Y109027D01*
X142563Y108992D01*
X142504Y108961D01*
X142444Y108932D01*
X142382Y108908D01*
X142319Y108887D01*
X142255Y108870D01*
X142189Y108856D01*
X142124Y108847D01*
X142057Y108841D01*
X141991Y108839D01*
X141610Y108839D01*
X134329Y108839D02*
X134329Y115697D01*
X134329Y112649D02*
X130519Y112649D01*
X130519Y115697D02*
X130519Y108839D01*
X125734Y108839D02*
X123829Y108839D01*
X125734Y108839D02*
X125800Y108841D01*
X125867Y108847D01*
X125932Y108856D01*
X125998Y108870D01*
X126062Y108887D01*
X126125Y108908D01*
X126187Y108932D01*
X126247Y108961D01*
X126306Y108992D01*
X126362Y109027D01*
X126417Y109065D01*
X126469Y109106D01*
X126518Y109151D01*
X126565Y109198D01*
X126610Y109247D01*
X126651Y109299D01*
X126689Y109354D01*
X126724Y109411D01*
X126755Y109469D01*
X126784Y109529D01*
X126808Y109591D01*
X126829Y109654D01*
X126846Y109718D01*
X126860Y109784D01*
X126869Y109849D01*
X126875Y109916D01*
X126877Y109982D01*
X126877Y111887D01*
X126875Y111964D01*
X126869Y112041D01*
X126859Y112118D01*
X126846Y112194D01*
X126828Y112269D01*
X126807Y112343D01*
X126782Y112416D01*
X126753Y112488D01*
X126721Y112558D01*
X126686Y112627D01*
X126646Y112693D01*
X126604Y112758D01*
X126558Y112820D01*
X126509Y112880D01*
X126458Y112937D01*
X126403Y112992D01*
X126346Y113043D01*
X126286Y113092D01*
X126224Y113138D01*
X126159Y113180D01*
X126093Y113220D01*
X126024Y113255D01*
X125954Y113287D01*
X125882Y113316D01*
X125809Y113341D01*
X125735Y113362D01*
X125660Y113380D01*
X125584Y113393D01*
X125507Y113403D01*
X125430Y113409D01*
X125353Y113411D01*
X125276Y113409D01*
X125199Y113403D01*
X125122Y113393D01*
X125046Y113380D01*
X124971Y113362D01*
X124897Y113341D01*
X124824Y113316D01*
X124752Y113287D01*
X124682Y113255D01*
X124613Y113220D01*
X124547Y113180D01*
X124482Y113138D01*
X124420Y113092D01*
X124360Y113043D01*
X124303Y112992D01*
X124248Y112937D01*
X124197Y112880D01*
X124148Y112820D01*
X124102Y112758D01*
X124060Y112693D01*
X124020Y112627D01*
X123985Y112558D01*
X123953Y112488D01*
X123924Y112416D01*
X123899Y112343D01*
X123878Y112269D01*
X123860Y112194D01*
X123847Y112118D01*
X123837Y112041D01*
X123831Y111964D01*
X123829Y111887D01*
X123829Y111125D01*
X126877Y111125D01*
X120237Y113411D02*
X120237Y106553D01*
X120237Y113411D02*
X118332Y113411D01*
X118266Y113409D01*
X118199Y113403D01*
X118134Y113394D01*
X118068Y113380D01*
X118004Y113363D01*
X117941Y113342D01*
X117879Y113318D01*
X117819Y113289D01*
X117761Y113258D01*
X117704Y113223D01*
X117649Y113185D01*
X117597Y113144D01*
X117548Y113099D01*
X117501Y113052D01*
X117456Y113003D01*
X117415Y112951D01*
X117377Y112896D01*
X117342Y112840D01*
X117311Y112781D01*
X117282Y112721D01*
X117258Y112659D01*
X117237Y112596D01*
X117220Y112532D01*
X117206Y112466D01*
X117197Y112401D01*
X117191Y112334D01*
X117189Y112268D01*
X117189Y109982D01*
X117191Y109916D01*
X117197Y109849D01*
X117206Y109784D01*
X117220Y109718D01*
X117237Y109654D01*
X117258Y109591D01*
X117282Y109529D01*
X117311Y109469D01*
X117342Y109411D01*
X117377Y109354D01*
X117415Y109299D01*
X117456Y109247D01*
X117501Y109198D01*
X117548Y109151D01*
X117597Y109106D01*
X117649Y109065D01*
X117704Y109027D01*
X117761Y108992D01*
X117819Y108961D01*
X117879Y108932D01*
X117941Y108908D01*
X118004Y108887D01*
X118068Y108870D01*
X118134Y108856D01*
X118199Y108847D01*
X118266Y108841D01*
X118332Y108839D01*
X120237Y108839D01*
X114635Y113411D02*
X112349Y113411D01*
X113873Y115697D02*
X113873Y109982D01*
X113871Y109916D01*
X113865Y109849D01*
X113856Y109784D01*
X113842Y109718D01*
X113825Y109654D01*
X113804Y109591D01*
X113780Y109529D01*
X113751Y109469D01*
X113720Y109411D01*
X113685Y109354D01*
X113647Y109299D01*
X113606Y109247D01*
X113561Y109198D01*
X113514Y109151D01*
X113465Y109106D01*
X113413Y109065D01*
X113358Y109027D01*
X113302Y108992D01*
X113243Y108961D01*
X113183Y108932D01*
X113121Y108908D01*
X113058Y108887D01*
X112994Y108870D01*
X112928Y108856D01*
X112863Y108847D01*
X112796Y108841D01*
X112730Y108839D01*
X112349Y108839D01*
X108043Y111506D02*
X106328Y111506D01*
X108043Y111506D02*
X108115Y111504D01*
X108187Y111498D01*
X108259Y111488D01*
X108330Y111475D01*
X108400Y111457D01*
X108469Y111436D01*
X108537Y111411D01*
X108603Y111383D01*
X108668Y111351D01*
X108731Y111315D01*
X108792Y111276D01*
X108850Y111234D01*
X108907Y111189D01*
X108960Y111140D01*
X109011Y111089D01*
X109060Y111036D01*
X109105Y110979D01*
X109147Y110921D01*
X109186Y110860D01*
X109222Y110797D01*
X109254Y110732D01*
X109282Y110666D01*
X109307Y110598D01*
X109328Y110529D01*
X109346Y110459D01*
X109359Y110388D01*
X109369Y110316D01*
X109375Y110244D01*
X109377Y110172D01*
X109375Y110100D01*
X109369Y110028D01*
X109359Y109956D01*
X109346Y109885D01*
X109328Y109815D01*
X109307Y109746D01*
X109282Y109678D01*
X109254Y109612D01*
X109222Y109547D01*
X109186Y109484D01*
X109147Y109423D01*
X109105Y109365D01*
X109060Y109308D01*
X109011Y109255D01*
X108960Y109204D01*
X108907Y109155D01*
X108850Y109110D01*
X108792Y109068D01*
X108731Y109029D01*
X108668Y108993D01*
X108603Y108961D01*
X108537Y108933D01*
X108469Y108908D01*
X108400Y108887D01*
X108330Y108869D01*
X108259Y108856D01*
X108187Y108846D01*
X108115Y108840D01*
X108043Y108838D01*
X108043Y108839D02*
X106328Y108839D01*
X106328Y112268D01*
X106330Y112334D01*
X106336Y112401D01*
X106345Y112466D01*
X106359Y112532D01*
X106376Y112596D01*
X106397Y112659D01*
X106421Y112721D01*
X106450Y112781D01*
X106481Y112840D01*
X106516Y112896D01*
X106554Y112951D01*
X106595Y113003D01*
X106640Y113052D01*
X106687Y113099D01*
X106736Y113144D01*
X106788Y113185D01*
X106843Y113223D01*
X106900Y113258D01*
X106958Y113289D01*
X107018Y113318D01*
X107080Y113342D01*
X107143Y113363D01*
X107207Y113380D01*
X107273Y113394D01*
X107338Y113403D01*
X107405Y113409D01*
X107471Y113411D01*
X108995Y113411D01*
X102437Y113411D02*
X102437Y106553D01*
X102437Y113411D02*
X100532Y113411D01*
X100466Y113409D01*
X100399Y113403D01*
X100334Y113394D01*
X100268Y113380D01*
X100204Y113363D01*
X100141Y113342D01*
X100079Y113318D01*
X100019Y113289D01*
X99961Y113258D01*
X99904Y113223D01*
X99849Y113185D01*
X99797Y113144D01*
X99748Y113099D01*
X99701Y113052D01*
X99656Y113003D01*
X99615Y112951D01*
X99577Y112896D01*
X99542Y112840D01*
X99511Y112781D01*
X99482Y112721D01*
X99458Y112659D01*
X99437Y112596D01*
X99420Y112532D01*
X99406Y112466D01*
X99397Y112401D01*
X99391Y112334D01*
X99389Y112268D01*
X99389Y109982D01*
X99391Y109916D01*
X99397Y109849D01*
X99406Y109784D01*
X99420Y109718D01*
X99437Y109654D01*
X99458Y109591D01*
X99482Y109529D01*
X99511Y109469D01*
X99542Y109411D01*
X99577Y109354D01*
X99615Y109299D01*
X99656Y109247D01*
X99701Y109198D01*
X99748Y109151D01*
X99797Y109106D01*
X99849Y109065D01*
X99904Y109027D01*
X99961Y108992D01*
X100019Y108961D01*
X100079Y108932D01*
X100141Y108908D01*
X100204Y108887D01*
X100268Y108870D01*
X100334Y108856D01*
X100399Y108847D01*
X100466Y108841D01*
X100532Y108839D01*
X102437Y108839D01*
X96153Y110363D02*
X96153Y111887D01*
X96151Y111964D01*
X96145Y112041D01*
X96135Y112118D01*
X96122Y112194D01*
X96104Y112269D01*
X96083Y112343D01*
X96058Y112416D01*
X96029Y112488D01*
X95997Y112558D01*
X95962Y112627D01*
X95922Y112693D01*
X95880Y112758D01*
X95834Y112820D01*
X95785Y112880D01*
X95734Y112937D01*
X95679Y112992D01*
X95622Y113043D01*
X95562Y113092D01*
X95500Y113138D01*
X95435Y113180D01*
X95369Y113220D01*
X95300Y113255D01*
X95230Y113287D01*
X95158Y113316D01*
X95085Y113341D01*
X95011Y113362D01*
X94936Y113380D01*
X94860Y113393D01*
X94783Y113403D01*
X94706Y113409D01*
X94629Y113411D01*
X94552Y113409D01*
X94475Y113403D01*
X94398Y113393D01*
X94322Y113380D01*
X94247Y113362D01*
X94173Y113341D01*
X94100Y113316D01*
X94028Y113287D01*
X93958Y113255D01*
X93889Y113220D01*
X93823Y113180D01*
X93758Y113138D01*
X93696Y113092D01*
X93636Y113043D01*
X93579Y112992D01*
X93524Y112937D01*
X93473Y112880D01*
X93424Y112820D01*
X93378Y112758D01*
X93336Y112693D01*
X93296Y112627D01*
X93261Y112558D01*
X93229Y112488D01*
X93200Y112416D01*
X93175Y112343D01*
X93154Y112269D01*
X93136Y112194D01*
X93123Y112118D01*
X93113Y112041D01*
X93107Y111964D01*
X93105Y111887D01*
X93105Y110363D01*
X93107Y110286D01*
X93113Y110209D01*
X93123Y110132D01*
X93136Y110056D01*
X93154Y109981D01*
X93175Y109907D01*
X93200Y109834D01*
X93229Y109762D01*
X93261Y109692D01*
X93296Y109623D01*
X93336Y109557D01*
X93378Y109492D01*
X93424Y109430D01*
X93473Y109370D01*
X93524Y109313D01*
X93579Y109258D01*
X93636Y109207D01*
X93696Y109158D01*
X93758Y109112D01*
X93823Y109070D01*
X93889Y109030D01*
X93958Y108995D01*
X94028Y108963D01*
X94100Y108934D01*
X94173Y108909D01*
X94247Y108888D01*
X94322Y108870D01*
X94398Y108857D01*
X94475Y108847D01*
X94552Y108841D01*
X94629Y108839D01*
X94706Y108841D01*
X94783Y108847D01*
X94860Y108857D01*
X94936Y108870D01*
X95011Y108888D01*
X95085Y108909D01*
X95158Y108934D01*
X95230Y108963D01*
X95300Y108995D01*
X95369Y109030D01*
X95435Y109070D01*
X95500Y109112D01*
X95562Y109158D01*
X95622Y109207D01*
X95679Y109258D01*
X95734Y109313D01*
X95785Y109370D01*
X95834Y109430D01*
X95880Y109492D01*
X95922Y109557D01*
X95962Y109623D01*
X95997Y109692D01*
X96029Y109762D01*
X96058Y109834D01*
X96083Y109907D01*
X96104Y109981D01*
X96122Y110056D01*
X96135Y110132D01*
X96145Y110209D01*
X96151Y110286D01*
X96153Y110363D01*
X86821Y108839D02*
X86821Y115697D01*
X86821Y108839D02*
X88726Y108839D01*
X88792Y108841D01*
X88859Y108847D01*
X88924Y108856D01*
X88990Y108870D01*
X89054Y108887D01*
X89117Y108908D01*
X89179Y108932D01*
X89239Y108961D01*
X89298Y108992D01*
X89354Y109027D01*
X89409Y109065D01*
X89461Y109106D01*
X89510Y109151D01*
X89557Y109198D01*
X89602Y109247D01*
X89643Y109299D01*
X89681Y109354D01*
X89716Y109411D01*
X89747Y109469D01*
X89776Y109529D01*
X89800Y109591D01*
X89821Y109654D01*
X89838Y109718D01*
X89852Y109784D01*
X89861Y109849D01*
X89867Y109916D01*
X89869Y109982D01*
X89869Y112268D01*
X89867Y112334D01*
X89861Y112401D01*
X89852Y112466D01*
X89838Y112532D01*
X89821Y112596D01*
X89800Y112659D01*
X89776Y112721D01*
X89747Y112781D01*
X89716Y112840D01*
X89681Y112896D01*
X89643Y112951D01*
X89602Y113003D01*
X89557Y113052D01*
X89510Y113099D01*
X89461Y113144D01*
X89409Y113185D01*
X89354Y113223D01*
X89298Y113258D01*
X89239Y113289D01*
X89179Y113318D01*
X89117Y113342D01*
X89054Y113363D01*
X88990Y113380D01*
X88924Y113394D01*
X88859Y113403D01*
X88792Y113409D01*
X88726Y113411D01*
X86821Y113411D01*
X79115Y111506D02*
X74543Y111506D01*
X66679Y108839D02*
X66679Y115697D01*
X64393Y111887D01*
X62107Y115697D01*
X62107Y108839D01*
X58541Y108839D02*
X58541Y113411D01*
X58731Y115316D02*
X58731Y115697D01*
X58350Y115697D01*
X58350Y115316D01*
X58731Y115316D01*
X55188Y113411D02*
X55188Y108839D01*
X55188Y113411D02*
X53283Y113411D01*
X53217Y113409D01*
X53150Y113403D01*
X53085Y113394D01*
X53019Y113380D01*
X52955Y113363D01*
X52892Y113342D01*
X52830Y113318D01*
X52770Y113289D01*
X52712Y113258D01*
X52655Y113223D01*
X52600Y113185D01*
X52548Y113144D01*
X52499Y113099D01*
X52452Y113052D01*
X52407Y113003D01*
X52366Y112951D01*
X52328Y112896D01*
X52293Y112840D01*
X52262Y112781D01*
X52233Y112721D01*
X52209Y112659D01*
X52188Y112596D01*
X52171Y112532D01*
X52157Y112466D01*
X52148Y112401D01*
X52142Y112334D01*
X52140Y112268D01*
X52140Y108839D01*
X48787Y108839D02*
X48787Y113411D01*
X48978Y115316D02*
X48978Y115697D01*
X48597Y115697D01*
X48597Y115316D01*
X48978Y115316D01*
X172368Y100127D02*
X176940Y100127D01*
X168650Y100127D02*
X164078Y100127D01*
X160359Y100127D02*
X155787Y100127D01*
X152069Y100127D02*
X147497Y100127D01*
X143778Y100127D02*
X139206Y100127D01*
X135487Y100127D02*
X130915Y100127D01*
X127197Y100127D02*
X122625Y100127D01*
X118906Y100127D02*
X114334Y100127D01*
X110616Y100127D02*
X106044Y100127D01*
X102325Y100127D02*
X97753Y100127D01*
X94035Y100127D02*
X89463Y100127D01*
X85744Y100127D02*
X81172Y100127D01*
X77453Y100127D02*
X72881Y100127D01*
X69163Y100127D02*
X64591Y100127D01*
X60872Y100127D02*
X56300Y100127D01*
X52582Y100127D02*
X48010Y100127D01*
X146254Y92939D02*
X146254Y86081D01*
X146254Y92939D02*
X144349Y92939D01*
X144264Y92937D01*
X144178Y92931D01*
X144093Y92922D01*
X144009Y92908D01*
X143925Y92891D01*
X143842Y92870D01*
X143760Y92846D01*
X143680Y92818D01*
X143600Y92786D01*
X143522Y92750D01*
X143446Y92712D01*
X143372Y92669D01*
X143300Y92624D01*
X143229Y92575D01*
X143161Y92523D01*
X143096Y92469D01*
X143033Y92411D01*
X142972Y92350D01*
X142914Y92287D01*
X142860Y92222D01*
X142808Y92154D01*
X142759Y92083D01*
X142714Y92011D01*
X142671Y91937D01*
X142633Y91861D01*
X142597Y91783D01*
X142565Y91703D01*
X142537Y91623D01*
X142513Y91541D01*
X142492Y91458D01*
X142475Y91374D01*
X142461Y91290D01*
X142452Y91205D01*
X142446Y91119D01*
X142444Y91034D01*
X142444Y87986D01*
X142446Y87901D01*
X142452Y87815D01*
X142461Y87730D01*
X142475Y87646D01*
X142492Y87562D01*
X142513Y87479D01*
X142537Y87397D01*
X142565Y87317D01*
X142597Y87237D01*
X142633Y87159D01*
X142671Y87083D01*
X142714Y87009D01*
X142759Y86937D01*
X142808Y86866D01*
X142860Y86798D01*
X142914Y86733D01*
X142972Y86670D01*
X143033Y86609D01*
X143096Y86551D01*
X143161Y86497D01*
X143229Y86445D01*
X143300Y86396D01*
X143372Y86351D01*
X143446Y86308D01*
X143522Y86270D01*
X143600Y86234D01*
X143680Y86202D01*
X143760Y86174D01*
X143842Y86150D01*
X143925Y86129D01*
X144009Y86112D01*
X144093Y86098D01*
X144178Y86089D01*
X144264Y86083D01*
X144349Y86081D01*
X146254Y86081D01*
X137659Y86081D02*
X135754Y86081D01*
X137659Y86081D02*
X137725Y86083D01*
X137792Y86089D01*
X137857Y86098D01*
X137923Y86112D01*
X137987Y86129D01*
X138050Y86150D01*
X138112Y86174D01*
X138172Y86203D01*
X138231Y86234D01*
X138287Y86269D01*
X138342Y86307D01*
X138394Y86348D01*
X138443Y86393D01*
X138490Y86440D01*
X138535Y86489D01*
X138576Y86541D01*
X138614Y86596D01*
X138649Y86653D01*
X138680Y86711D01*
X138709Y86771D01*
X138733Y86833D01*
X138754Y86896D01*
X138771Y86960D01*
X138785Y87026D01*
X138794Y87091D01*
X138800Y87158D01*
X138802Y87224D01*
X138802Y89129D01*
X138800Y89206D01*
X138794Y89283D01*
X138784Y89360D01*
X138771Y89436D01*
X138753Y89511D01*
X138732Y89585D01*
X138707Y89658D01*
X138678Y89730D01*
X138646Y89800D01*
X138611Y89869D01*
X138571Y89935D01*
X138529Y90000D01*
X138483Y90062D01*
X138434Y90122D01*
X138383Y90179D01*
X138328Y90234D01*
X138271Y90285D01*
X138211Y90334D01*
X138149Y90380D01*
X138084Y90422D01*
X138018Y90462D01*
X137949Y90497D01*
X137879Y90529D01*
X137807Y90558D01*
X137734Y90583D01*
X137660Y90604D01*
X137585Y90622D01*
X137509Y90635D01*
X137432Y90645D01*
X137355Y90651D01*
X137278Y90653D01*
X137201Y90651D01*
X137124Y90645D01*
X137047Y90635D01*
X136971Y90622D01*
X136896Y90604D01*
X136822Y90583D01*
X136749Y90558D01*
X136677Y90529D01*
X136607Y90497D01*
X136538Y90462D01*
X136472Y90422D01*
X136407Y90380D01*
X136345Y90334D01*
X136285Y90285D01*
X136228Y90234D01*
X136173Y90179D01*
X136122Y90122D01*
X136073Y90062D01*
X136027Y90000D01*
X135985Y89935D01*
X135945Y89869D01*
X135910Y89800D01*
X135878Y89730D01*
X135849Y89658D01*
X135824Y89585D01*
X135803Y89511D01*
X135785Y89436D01*
X135772Y89360D01*
X135762Y89283D01*
X135756Y89206D01*
X135754Y89129D01*
X135754Y88367D01*
X138802Y88367D01*
X131891Y88748D02*
X129986Y87986D01*
X131891Y88748D02*
X131948Y88773D01*
X132003Y88801D01*
X132057Y88833D01*
X132108Y88868D01*
X132157Y88907D01*
X132204Y88948D01*
X132248Y88992D01*
X132289Y89039D01*
X132327Y89089D01*
X132361Y89141D01*
X132393Y89194D01*
X132421Y89250D01*
X132445Y89307D01*
X132466Y89366D01*
X132483Y89426D01*
X132496Y89487D01*
X132505Y89549D01*
X132511Y89611D01*
X132512Y89673D01*
X132509Y89735D01*
X132503Y89797D01*
X132493Y89859D01*
X132479Y89919D01*
X132461Y89979D01*
X132439Y90038D01*
X132414Y90094D01*
X132385Y90150D01*
X132353Y90203D01*
X132317Y90254D01*
X132278Y90303D01*
X132237Y90349D01*
X132192Y90393D01*
X132145Y90434D01*
X132095Y90471D01*
X132043Y90506D01*
X131989Y90537D01*
X131933Y90564D01*
X131876Y90588D01*
X131817Y90609D01*
X131757Y90625D01*
X131696Y90638D01*
X131634Y90647D01*
X131572Y90652D01*
X131510Y90653D01*
X131384Y90649D01*
X131258Y90642D01*
X131132Y90631D01*
X131006Y90616D01*
X130881Y90598D01*
X130757Y90576D01*
X130633Y90550D01*
X130510Y90521D01*
X130388Y90488D01*
X130267Y90452D01*
X130148Y90412D01*
X130029Y90368D01*
X129912Y90322D01*
X129796Y90272D01*
X129986Y87985D02*
X129929Y87960D01*
X129874Y87932D01*
X129820Y87900D01*
X129769Y87865D01*
X129720Y87826D01*
X129673Y87785D01*
X129629Y87741D01*
X129588Y87694D01*
X129550Y87644D01*
X129516Y87592D01*
X129484Y87539D01*
X129456Y87483D01*
X129432Y87426D01*
X129411Y87367D01*
X129394Y87307D01*
X129381Y87246D01*
X129372Y87184D01*
X129366Y87122D01*
X129365Y87060D01*
X129368Y86998D01*
X129374Y86936D01*
X129384Y86874D01*
X129398Y86814D01*
X129416Y86754D01*
X129438Y86695D01*
X129463Y86639D01*
X129492Y86583D01*
X129524Y86530D01*
X129560Y86479D01*
X129599Y86430D01*
X129640Y86384D01*
X129685Y86340D01*
X129732Y86299D01*
X129782Y86262D01*
X129834Y86227D01*
X129888Y86196D01*
X129944Y86169D01*
X130001Y86145D01*
X130060Y86124D01*
X130120Y86108D01*
X130181Y86095D01*
X130243Y86086D01*
X130305Y86081D01*
X130367Y86080D01*
X130366Y86081D02*
X130519Y86085D01*
X130672Y86092D01*
X130824Y86103D01*
X130976Y86118D01*
X131128Y86137D01*
X131279Y86159D01*
X131430Y86184D01*
X131580Y86213D01*
X131729Y86246D01*
X131878Y86282D01*
X132025Y86322D01*
X132172Y86365D01*
X132318Y86412D01*
X132462Y86462D01*
X126305Y86081D02*
X126305Y90653D01*
X126496Y92558D02*
X126496Y92939D01*
X126115Y92939D01*
X126115Y92558D01*
X126496Y92558D01*
X122109Y86081D02*
X120204Y86081D01*
X122109Y86081D02*
X122175Y86083D01*
X122242Y86089D01*
X122307Y86098D01*
X122373Y86112D01*
X122437Y86129D01*
X122500Y86150D01*
X122562Y86174D01*
X122622Y86203D01*
X122681Y86234D01*
X122737Y86269D01*
X122792Y86307D01*
X122844Y86348D01*
X122893Y86393D01*
X122940Y86440D01*
X122985Y86489D01*
X123026Y86541D01*
X123064Y86596D01*
X123099Y86653D01*
X123130Y86711D01*
X123159Y86771D01*
X123183Y86833D01*
X123204Y86896D01*
X123221Y86960D01*
X123235Y87026D01*
X123244Y87091D01*
X123250Y87158D01*
X123252Y87224D01*
X123252Y89510D01*
X123250Y89576D01*
X123244Y89643D01*
X123235Y89708D01*
X123221Y89774D01*
X123204Y89838D01*
X123183Y89901D01*
X123159Y89963D01*
X123130Y90023D01*
X123099Y90082D01*
X123064Y90138D01*
X123026Y90193D01*
X122985Y90245D01*
X122940Y90294D01*
X122893Y90341D01*
X122844Y90386D01*
X122792Y90427D01*
X122737Y90465D01*
X122681Y90500D01*
X122622Y90531D01*
X122562Y90560D01*
X122500Y90584D01*
X122437Y90605D01*
X122373Y90622D01*
X122307Y90636D01*
X122242Y90645D01*
X122175Y90651D01*
X122109Y90653D01*
X120204Y90653D01*
X120204Y84938D01*
X120206Y84872D01*
X120212Y84805D01*
X120221Y84740D01*
X120235Y84674D01*
X120252Y84610D01*
X120273Y84547D01*
X120297Y84485D01*
X120326Y84425D01*
X120357Y84367D01*
X120392Y84310D01*
X120430Y84255D01*
X120471Y84203D01*
X120516Y84154D01*
X120563Y84107D01*
X120612Y84062D01*
X120664Y84021D01*
X120719Y83983D01*
X120776Y83948D01*
X120834Y83917D01*
X120894Y83888D01*
X120956Y83864D01*
X121019Y83843D01*
X121083Y83826D01*
X121149Y83812D01*
X121214Y83803D01*
X121281Y83797D01*
X121347Y83795D01*
X122871Y83795D01*
X116369Y86081D02*
X116369Y90653D01*
X114464Y90653D01*
X114398Y90651D01*
X114331Y90645D01*
X114266Y90636D01*
X114200Y90622D01*
X114136Y90605D01*
X114073Y90584D01*
X114011Y90560D01*
X113951Y90531D01*
X113893Y90500D01*
X113836Y90465D01*
X113781Y90427D01*
X113729Y90386D01*
X113680Y90341D01*
X113633Y90294D01*
X113588Y90245D01*
X113547Y90193D01*
X113509Y90138D01*
X113474Y90082D01*
X113443Y90023D01*
X113414Y89963D01*
X113390Y89901D01*
X113369Y89838D01*
X113352Y89774D01*
X113338Y89708D01*
X113329Y89643D01*
X113323Y89576D01*
X113321Y89510D01*
X113321Y86081D01*
X108642Y86081D02*
X106737Y86081D01*
X108642Y86081D02*
X108708Y86083D01*
X108775Y86089D01*
X108840Y86098D01*
X108906Y86112D01*
X108970Y86129D01*
X109033Y86150D01*
X109095Y86174D01*
X109155Y86203D01*
X109214Y86234D01*
X109270Y86269D01*
X109325Y86307D01*
X109377Y86348D01*
X109426Y86393D01*
X109473Y86440D01*
X109518Y86489D01*
X109559Y86541D01*
X109597Y86596D01*
X109632Y86653D01*
X109663Y86711D01*
X109692Y86771D01*
X109716Y86833D01*
X109737Y86896D01*
X109754Y86960D01*
X109768Y87026D01*
X109777Y87091D01*
X109783Y87158D01*
X109785Y87224D01*
X109785Y89129D01*
X109783Y89206D01*
X109777Y89283D01*
X109767Y89360D01*
X109754Y89436D01*
X109736Y89511D01*
X109715Y89585D01*
X109690Y89658D01*
X109661Y89730D01*
X109629Y89800D01*
X109594Y89869D01*
X109554Y89935D01*
X109512Y90000D01*
X109466Y90062D01*
X109417Y90122D01*
X109366Y90179D01*
X109311Y90234D01*
X109254Y90285D01*
X109194Y90334D01*
X109132Y90380D01*
X109067Y90422D01*
X109001Y90462D01*
X108932Y90497D01*
X108862Y90529D01*
X108790Y90558D01*
X108717Y90583D01*
X108643Y90604D01*
X108568Y90622D01*
X108492Y90635D01*
X108415Y90645D01*
X108338Y90651D01*
X108261Y90653D01*
X108184Y90651D01*
X108107Y90645D01*
X108030Y90635D01*
X107954Y90622D01*
X107879Y90604D01*
X107805Y90583D01*
X107732Y90558D01*
X107660Y90529D01*
X107590Y90497D01*
X107521Y90462D01*
X107455Y90422D01*
X107390Y90380D01*
X107328Y90334D01*
X107268Y90285D01*
X107211Y90234D01*
X107156Y90179D01*
X107105Y90122D01*
X107056Y90062D01*
X107010Y90000D01*
X106968Y89935D01*
X106928Y89869D01*
X106893Y89800D01*
X106861Y89730D01*
X106832Y89658D01*
X106807Y89585D01*
X106786Y89511D01*
X106768Y89436D01*
X106755Y89360D01*
X106745Y89283D01*
X106739Y89206D01*
X106737Y89129D01*
X106737Y88367D01*
X109785Y88367D01*
X100453Y86081D02*
X100453Y92939D01*
X100453Y86081D02*
X102358Y86081D01*
X102424Y86083D01*
X102491Y86089D01*
X102556Y86098D01*
X102622Y86112D01*
X102686Y86129D01*
X102749Y86150D01*
X102811Y86174D01*
X102871Y86203D01*
X102930Y86234D01*
X102986Y86269D01*
X103041Y86307D01*
X103093Y86348D01*
X103142Y86393D01*
X103189Y86440D01*
X103234Y86489D01*
X103275Y86541D01*
X103313Y86596D01*
X103348Y86653D01*
X103379Y86711D01*
X103408Y86771D01*
X103432Y86833D01*
X103453Y86896D01*
X103470Y86960D01*
X103484Y87026D01*
X103493Y87091D01*
X103499Y87158D01*
X103501Y87224D01*
X103501Y89510D01*
X103499Y89576D01*
X103493Y89643D01*
X103484Y89708D01*
X103470Y89774D01*
X103453Y89838D01*
X103432Y89901D01*
X103408Y89963D01*
X103379Y90023D01*
X103348Y90082D01*
X103313Y90138D01*
X103275Y90193D01*
X103234Y90245D01*
X103189Y90294D01*
X103142Y90341D01*
X103093Y90386D01*
X103041Y90427D01*
X102986Y90465D01*
X102930Y90500D01*
X102871Y90531D01*
X102811Y90560D01*
X102749Y90584D01*
X102686Y90605D01*
X102622Y90622D01*
X102556Y90636D01*
X102491Y90645D01*
X102424Y90651D01*
X102358Y90653D01*
X100453Y90653D01*
X92661Y92939D02*
X92661Y86081D01*
X90756Y86081D01*
X90690Y86083D01*
X90623Y86089D01*
X90558Y86098D01*
X90492Y86112D01*
X90428Y86129D01*
X90365Y86150D01*
X90303Y86174D01*
X90243Y86203D01*
X90185Y86234D01*
X90128Y86269D01*
X90073Y86307D01*
X90021Y86348D01*
X89972Y86393D01*
X89925Y86440D01*
X89880Y86489D01*
X89839Y86541D01*
X89801Y86596D01*
X89766Y86653D01*
X89735Y86711D01*
X89706Y86771D01*
X89682Y86833D01*
X89661Y86896D01*
X89644Y86960D01*
X89630Y87026D01*
X89621Y87091D01*
X89615Y87158D01*
X89613Y87224D01*
X89613Y89510D01*
X89615Y89576D01*
X89621Y89643D01*
X89630Y89708D01*
X89644Y89774D01*
X89661Y89838D01*
X89682Y89901D01*
X89706Y89963D01*
X89735Y90023D01*
X89766Y90082D01*
X89801Y90138D01*
X89839Y90193D01*
X89880Y90245D01*
X89925Y90294D01*
X89972Y90341D01*
X90021Y90386D01*
X90073Y90427D01*
X90128Y90465D01*
X90185Y90500D01*
X90243Y90531D01*
X90303Y90560D01*
X90365Y90584D01*
X90428Y90605D01*
X90492Y90622D01*
X90558Y90636D01*
X90623Y90645D01*
X90690Y90651D01*
X90756Y90653D01*
X92661Y90653D01*
X86620Y83795D02*
X85858Y83795D01*
X83572Y90653D01*
X86620Y90653D02*
X85096Y86081D01*
X167075Y81559D02*
X167075Y74701D01*
X163265Y74701D02*
X167075Y81559D01*
X163265Y81559D02*
X163265Y74701D01*
X159622Y76225D02*
X159622Y77749D01*
X159620Y77826D01*
X159614Y77903D01*
X159604Y77980D01*
X159591Y78056D01*
X159573Y78131D01*
X159552Y78205D01*
X159527Y78278D01*
X159498Y78350D01*
X159466Y78420D01*
X159431Y78489D01*
X159391Y78555D01*
X159349Y78620D01*
X159303Y78682D01*
X159254Y78742D01*
X159203Y78799D01*
X159148Y78854D01*
X159091Y78905D01*
X159031Y78954D01*
X158969Y79000D01*
X158904Y79042D01*
X158838Y79082D01*
X158769Y79117D01*
X158699Y79149D01*
X158627Y79178D01*
X158554Y79203D01*
X158480Y79224D01*
X158405Y79242D01*
X158329Y79255D01*
X158252Y79265D01*
X158175Y79271D01*
X158098Y79273D01*
X158021Y79271D01*
X157944Y79265D01*
X157867Y79255D01*
X157791Y79242D01*
X157716Y79224D01*
X157642Y79203D01*
X157569Y79178D01*
X157497Y79149D01*
X157427Y79117D01*
X157358Y79082D01*
X157292Y79042D01*
X157227Y79000D01*
X157165Y78954D01*
X157105Y78905D01*
X157048Y78854D01*
X156993Y78799D01*
X156942Y78742D01*
X156893Y78682D01*
X156847Y78620D01*
X156805Y78555D01*
X156765Y78489D01*
X156730Y78420D01*
X156698Y78350D01*
X156669Y78278D01*
X156644Y78205D01*
X156623Y78131D01*
X156605Y78056D01*
X156592Y77980D01*
X156582Y77903D01*
X156576Y77826D01*
X156574Y77749D01*
X156574Y76225D01*
X156576Y76148D01*
X156582Y76071D01*
X156592Y75994D01*
X156605Y75918D01*
X156623Y75843D01*
X156644Y75769D01*
X156669Y75696D01*
X156698Y75624D01*
X156730Y75554D01*
X156765Y75485D01*
X156805Y75419D01*
X156847Y75354D01*
X156893Y75292D01*
X156942Y75232D01*
X156993Y75175D01*
X157048Y75120D01*
X157105Y75069D01*
X157165Y75020D01*
X157227Y74974D01*
X157292Y74932D01*
X157358Y74892D01*
X157427Y74857D01*
X157497Y74825D01*
X157569Y74796D01*
X157642Y74771D01*
X157716Y74750D01*
X157791Y74732D01*
X157867Y74719D01*
X157944Y74709D01*
X158021Y74703D01*
X158098Y74701D01*
X158175Y74703D01*
X158252Y74709D01*
X158329Y74719D01*
X158405Y74732D01*
X158480Y74750D01*
X158554Y74771D01*
X158627Y74796D01*
X158699Y74825D01*
X158769Y74857D01*
X158838Y74892D01*
X158904Y74932D01*
X158969Y74974D01*
X159031Y75020D01*
X159091Y75069D01*
X159148Y75120D01*
X159203Y75175D01*
X159254Y75232D01*
X159303Y75292D01*
X159349Y75354D01*
X159391Y75419D01*
X159431Y75485D01*
X159466Y75554D01*
X159498Y75624D01*
X159527Y75696D01*
X159552Y75769D01*
X159573Y75843D01*
X159591Y75918D01*
X159604Y75994D01*
X159614Y76071D01*
X159620Y76148D01*
X159622Y76225D01*
X152976Y74701D02*
X152976Y79273D01*
X150690Y79273D01*
X150690Y78511D01*
X148844Y79273D02*
X146558Y79273D01*
X148082Y81559D02*
X148082Y75844D01*
X148080Y75778D01*
X148074Y75711D01*
X148065Y75646D01*
X148051Y75580D01*
X148034Y75516D01*
X148013Y75453D01*
X147989Y75391D01*
X147960Y75331D01*
X147929Y75273D01*
X147894Y75216D01*
X147856Y75161D01*
X147815Y75109D01*
X147770Y75060D01*
X147723Y75013D01*
X147674Y74968D01*
X147622Y74927D01*
X147567Y74889D01*
X147511Y74854D01*
X147452Y74823D01*
X147392Y74794D01*
X147330Y74770D01*
X147267Y74749D01*
X147203Y74732D01*
X147137Y74718D01*
X147072Y74709D01*
X147005Y74703D01*
X146939Y74701D01*
X146558Y74701D01*
X143285Y74701D02*
X143285Y81559D01*
X143285Y79273D02*
X141380Y79273D01*
X141314Y79271D01*
X141247Y79265D01*
X141182Y79256D01*
X141116Y79242D01*
X141052Y79225D01*
X140989Y79204D01*
X140927Y79180D01*
X140867Y79151D01*
X140809Y79120D01*
X140752Y79085D01*
X140697Y79047D01*
X140645Y79006D01*
X140596Y78961D01*
X140549Y78914D01*
X140504Y78865D01*
X140463Y78813D01*
X140425Y78758D01*
X140390Y78702D01*
X140359Y78643D01*
X140330Y78583D01*
X140306Y78521D01*
X140285Y78458D01*
X140268Y78394D01*
X140254Y78328D01*
X140245Y78263D01*
X140239Y78196D01*
X140237Y78130D01*
X140237Y74701D01*
X135559Y74701D02*
X133654Y74701D01*
X135559Y74701D02*
X135625Y74703D01*
X135692Y74709D01*
X135757Y74718D01*
X135823Y74732D01*
X135887Y74749D01*
X135950Y74770D01*
X136012Y74794D01*
X136072Y74823D01*
X136131Y74854D01*
X136187Y74889D01*
X136242Y74927D01*
X136294Y74968D01*
X136343Y75013D01*
X136390Y75060D01*
X136435Y75109D01*
X136476Y75161D01*
X136514Y75216D01*
X136549Y75273D01*
X136580Y75331D01*
X136609Y75391D01*
X136633Y75453D01*
X136654Y75516D01*
X136671Y75580D01*
X136685Y75646D01*
X136694Y75711D01*
X136700Y75778D01*
X136702Y75844D01*
X136702Y77749D01*
X136700Y77826D01*
X136694Y77903D01*
X136684Y77980D01*
X136671Y78056D01*
X136653Y78131D01*
X136632Y78205D01*
X136607Y78278D01*
X136578Y78350D01*
X136546Y78420D01*
X136511Y78489D01*
X136471Y78555D01*
X136429Y78620D01*
X136383Y78682D01*
X136334Y78742D01*
X136283Y78799D01*
X136228Y78854D01*
X136171Y78905D01*
X136111Y78954D01*
X136049Y79000D01*
X135984Y79042D01*
X135918Y79082D01*
X135849Y79117D01*
X135779Y79149D01*
X135707Y79178D01*
X135634Y79203D01*
X135560Y79224D01*
X135485Y79242D01*
X135409Y79255D01*
X135332Y79265D01*
X135255Y79271D01*
X135178Y79273D01*
X135101Y79271D01*
X135024Y79265D01*
X134947Y79255D01*
X134871Y79242D01*
X134796Y79224D01*
X134722Y79203D01*
X134649Y79178D01*
X134577Y79149D01*
X134507Y79117D01*
X134438Y79082D01*
X134372Y79042D01*
X134307Y79000D01*
X134245Y78954D01*
X134185Y78905D01*
X134128Y78854D01*
X134073Y78799D01*
X134022Y78742D01*
X133973Y78682D01*
X133927Y78620D01*
X133885Y78555D01*
X133845Y78489D01*
X133810Y78420D01*
X133778Y78350D01*
X133749Y78278D01*
X133724Y78205D01*
X133703Y78131D01*
X133685Y78056D01*
X133672Y77980D01*
X133662Y77903D01*
X133656Y77826D01*
X133654Y77749D01*
X133654Y76987D01*
X136702Y76987D01*
X130055Y74701D02*
X130055Y79273D01*
X127769Y79273D01*
X127769Y78511D01*
X124997Y79273D02*
X124997Y74701D01*
X124997Y79273D02*
X123092Y79273D01*
X123026Y79271D01*
X122959Y79265D01*
X122894Y79256D01*
X122828Y79242D01*
X122764Y79225D01*
X122701Y79204D01*
X122639Y79180D01*
X122579Y79151D01*
X122521Y79120D01*
X122464Y79085D01*
X122409Y79047D01*
X122357Y79006D01*
X122308Y78961D01*
X122261Y78914D01*
X122216Y78865D01*
X122175Y78813D01*
X122137Y78758D01*
X122102Y78702D01*
X122071Y78643D01*
X122042Y78583D01*
X122018Y78521D01*
X121997Y78458D01*
X121980Y78394D01*
X121966Y78328D01*
X121957Y78263D01*
X121951Y78196D01*
X121949Y78130D01*
X121949Y74701D01*
X113049Y74701D02*
X114573Y81559D01*
X111525Y79273D02*
X113049Y74701D01*
X110001Y74701D02*
X111525Y79273D01*
X108477Y81559D02*
X110001Y74701D01*
X105429Y74701D02*
X105429Y79273D01*
X105620Y81178D02*
X105620Y81559D01*
X105239Y81559D01*
X105239Y81178D01*
X105620Y81178D01*
X99328Y81559D02*
X99328Y74701D01*
X101233Y74701D01*
X101299Y74703D01*
X101366Y74709D01*
X101431Y74718D01*
X101497Y74732D01*
X101561Y74749D01*
X101624Y74770D01*
X101686Y74794D01*
X101746Y74823D01*
X101805Y74854D01*
X101861Y74889D01*
X101916Y74927D01*
X101968Y74968D01*
X102017Y75013D01*
X102064Y75060D01*
X102109Y75109D01*
X102150Y75161D01*
X102188Y75216D01*
X102223Y75273D01*
X102254Y75331D01*
X102283Y75391D01*
X102307Y75453D01*
X102328Y75516D01*
X102345Y75580D01*
X102359Y75646D01*
X102368Y75711D01*
X102374Y75778D01*
X102376Y75844D01*
X102376Y78130D01*
X102374Y78196D01*
X102368Y78263D01*
X102359Y78328D01*
X102345Y78394D01*
X102328Y78458D01*
X102307Y78521D01*
X102283Y78583D01*
X102254Y78643D01*
X102223Y78702D01*
X102188Y78758D01*
X102150Y78813D01*
X102109Y78865D01*
X102064Y78914D01*
X102017Y78961D01*
X101968Y79006D01*
X101916Y79047D01*
X101861Y79085D01*
X101805Y79120D01*
X101746Y79151D01*
X101686Y79180D01*
X101624Y79204D01*
X101561Y79225D01*
X101497Y79242D01*
X101431Y79256D01*
X101366Y79265D01*
X101299Y79271D01*
X101233Y79273D01*
X99328Y79273D01*
X94649Y74701D02*
X92744Y74701D01*
X94649Y74701D02*
X94715Y74703D01*
X94782Y74709D01*
X94847Y74718D01*
X94913Y74732D01*
X94977Y74749D01*
X95040Y74770D01*
X95102Y74794D01*
X95162Y74823D01*
X95221Y74854D01*
X95277Y74889D01*
X95332Y74927D01*
X95384Y74968D01*
X95433Y75013D01*
X95480Y75060D01*
X95525Y75109D01*
X95566Y75161D01*
X95604Y75216D01*
X95639Y75273D01*
X95670Y75331D01*
X95699Y75391D01*
X95723Y75453D01*
X95744Y75516D01*
X95761Y75580D01*
X95775Y75646D01*
X95784Y75711D01*
X95790Y75778D01*
X95792Y75844D01*
X95792Y78130D01*
X95790Y78196D01*
X95784Y78263D01*
X95775Y78328D01*
X95761Y78394D01*
X95744Y78458D01*
X95723Y78521D01*
X95699Y78583D01*
X95670Y78643D01*
X95639Y78702D01*
X95604Y78758D01*
X95566Y78813D01*
X95525Y78865D01*
X95480Y78914D01*
X95433Y78961D01*
X95384Y79006D01*
X95332Y79047D01*
X95277Y79085D01*
X95221Y79120D01*
X95162Y79151D01*
X95102Y79180D01*
X95040Y79204D01*
X94977Y79225D01*
X94913Y79242D01*
X94847Y79256D01*
X94782Y79265D01*
X94715Y79271D01*
X94649Y79273D01*
X92744Y79273D01*
X92744Y73558D01*
X92746Y73492D01*
X92752Y73425D01*
X92761Y73360D01*
X92775Y73294D01*
X92792Y73230D01*
X92813Y73167D01*
X92837Y73105D01*
X92866Y73045D01*
X92897Y72987D01*
X92932Y72930D01*
X92970Y72875D01*
X93011Y72823D01*
X93056Y72774D01*
X93103Y72727D01*
X93152Y72682D01*
X93204Y72641D01*
X93259Y72603D01*
X93316Y72568D01*
X93374Y72537D01*
X93434Y72508D01*
X93496Y72484D01*
X93559Y72463D01*
X93623Y72446D01*
X93689Y72432D01*
X93754Y72423D01*
X93821Y72417D01*
X93887Y72415D01*
X95411Y72415D01*
X88010Y74701D02*
X86105Y74701D01*
X88010Y74701D02*
X88076Y74703D01*
X88143Y74709D01*
X88208Y74718D01*
X88274Y74732D01*
X88338Y74749D01*
X88401Y74770D01*
X88463Y74794D01*
X88523Y74823D01*
X88582Y74854D01*
X88638Y74889D01*
X88693Y74927D01*
X88745Y74968D01*
X88794Y75013D01*
X88841Y75060D01*
X88886Y75109D01*
X88927Y75161D01*
X88965Y75216D01*
X89000Y75273D01*
X89031Y75331D01*
X89060Y75391D01*
X89084Y75453D01*
X89105Y75516D01*
X89122Y75580D01*
X89136Y75646D01*
X89145Y75711D01*
X89151Y75778D01*
X89153Y75844D01*
X89153Y77749D01*
X89151Y77826D01*
X89145Y77903D01*
X89135Y77980D01*
X89122Y78056D01*
X89104Y78131D01*
X89083Y78205D01*
X89058Y78278D01*
X89029Y78350D01*
X88997Y78420D01*
X88962Y78489D01*
X88922Y78555D01*
X88880Y78620D01*
X88834Y78682D01*
X88785Y78742D01*
X88734Y78799D01*
X88679Y78854D01*
X88622Y78905D01*
X88562Y78954D01*
X88500Y79000D01*
X88435Y79042D01*
X88369Y79082D01*
X88300Y79117D01*
X88230Y79149D01*
X88158Y79178D01*
X88085Y79203D01*
X88011Y79224D01*
X87936Y79242D01*
X87860Y79255D01*
X87783Y79265D01*
X87706Y79271D01*
X87629Y79273D01*
X87552Y79271D01*
X87475Y79265D01*
X87398Y79255D01*
X87322Y79242D01*
X87247Y79224D01*
X87173Y79203D01*
X87100Y79178D01*
X87028Y79149D01*
X86958Y79117D01*
X86889Y79082D01*
X86823Y79042D01*
X86758Y79000D01*
X86696Y78954D01*
X86636Y78905D01*
X86579Y78854D01*
X86524Y78799D01*
X86473Y78742D01*
X86424Y78682D01*
X86378Y78620D01*
X86336Y78555D01*
X86296Y78489D01*
X86261Y78420D01*
X86229Y78350D01*
X86200Y78278D01*
X86175Y78205D01*
X86154Y78131D01*
X86136Y78056D01*
X86123Y77980D01*
X86113Y77903D01*
X86107Y77826D01*
X86105Y77749D01*
X86105Y76987D01*
X89153Y76987D01*
X83495Y79273D02*
X81209Y79273D01*
X82733Y81559D02*
X82733Y75844D01*
X82731Y75778D01*
X82725Y75711D01*
X82716Y75646D01*
X82702Y75580D01*
X82685Y75516D01*
X82664Y75453D01*
X82640Y75391D01*
X82611Y75331D01*
X82580Y75273D01*
X82545Y75216D01*
X82507Y75161D01*
X82466Y75109D01*
X82421Y75060D01*
X82374Y75013D01*
X82325Y74968D01*
X82273Y74927D01*
X82218Y74889D01*
X82162Y74854D01*
X82103Y74823D01*
X82043Y74794D01*
X81981Y74770D01*
X81918Y74749D01*
X81854Y74732D01*
X81788Y74718D01*
X81723Y74709D01*
X81656Y74703D01*
X81590Y74701D01*
X81209Y74701D01*
X73001Y77368D02*
X71286Y77368D01*
X73001Y77369D02*
X73073Y77367D01*
X73145Y77361D01*
X73217Y77351D01*
X73288Y77338D01*
X73358Y77320D01*
X73427Y77299D01*
X73495Y77274D01*
X73561Y77246D01*
X73626Y77214D01*
X73689Y77178D01*
X73750Y77139D01*
X73808Y77097D01*
X73865Y77052D01*
X73918Y77003D01*
X73969Y76952D01*
X74018Y76899D01*
X74063Y76842D01*
X74105Y76784D01*
X74144Y76723D01*
X74180Y76660D01*
X74212Y76595D01*
X74240Y76529D01*
X74265Y76461D01*
X74286Y76392D01*
X74304Y76322D01*
X74317Y76251D01*
X74327Y76179D01*
X74333Y76107D01*
X74335Y76035D01*
X74333Y75963D01*
X74327Y75891D01*
X74317Y75819D01*
X74304Y75748D01*
X74286Y75678D01*
X74265Y75609D01*
X74240Y75541D01*
X74212Y75475D01*
X74180Y75410D01*
X74144Y75347D01*
X74105Y75286D01*
X74063Y75228D01*
X74018Y75171D01*
X73969Y75118D01*
X73918Y75067D01*
X73865Y75018D01*
X73808Y74973D01*
X73750Y74931D01*
X73689Y74892D01*
X73626Y74856D01*
X73561Y74824D01*
X73495Y74796D01*
X73427Y74771D01*
X73358Y74750D01*
X73288Y74732D01*
X73217Y74719D01*
X73145Y74709D01*
X73073Y74703D01*
X73001Y74701D01*
X71286Y74701D01*
X71286Y78130D01*
X71288Y78196D01*
X71294Y78263D01*
X71303Y78328D01*
X71317Y78394D01*
X71334Y78458D01*
X71355Y78521D01*
X71379Y78583D01*
X71408Y78643D01*
X71439Y78702D01*
X71474Y78758D01*
X71512Y78813D01*
X71553Y78865D01*
X71598Y78914D01*
X71645Y78961D01*
X71694Y79006D01*
X71746Y79047D01*
X71801Y79085D01*
X71858Y79120D01*
X71916Y79151D01*
X71976Y79180D01*
X72038Y79204D01*
X72101Y79225D01*
X72165Y79242D01*
X72231Y79256D01*
X72296Y79265D01*
X72363Y79271D01*
X72429Y79273D01*
X73953Y79273D01*
X67451Y79273D02*
X67451Y74701D01*
X67451Y79273D02*
X65546Y79273D01*
X65480Y79271D01*
X65413Y79265D01*
X65348Y79256D01*
X65282Y79242D01*
X65218Y79225D01*
X65155Y79204D01*
X65093Y79180D01*
X65033Y79151D01*
X64975Y79120D01*
X64918Y79085D01*
X64863Y79047D01*
X64811Y79006D01*
X64762Y78961D01*
X64715Y78914D01*
X64670Y78865D01*
X64629Y78813D01*
X64591Y78758D01*
X64556Y78702D01*
X64525Y78643D01*
X64496Y78583D01*
X64472Y78521D01*
X64451Y78458D01*
X64434Y78394D01*
X64420Y78328D01*
X64411Y78263D01*
X64405Y78196D01*
X64403Y78130D01*
X64403Y74701D01*
X57875Y74701D02*
X57875Y81559D01*
X57875Y74701D02*
X59780Y74701D01*
X59846Y74703D01*
X59913Y74709D01*
X59978Y74718D01*
X60044Y74732D01*
X60108Y74749D01*
X60171Y74770D01*
X60233Y74794D01*
X60293Y74823D01*
X60352Y74854D01*
X60408Y74889D01*
X60463Y74927D01*
X60515Y74968D01*
X60564Y75013D01*
X60611Y75060D01*
X60656Y75109D01*
X60697Y75161D01*
X60735Y75216D01*
X60770Y75273D01*
X60801Y75331D01*
X60830Y75391D01*
X60854Y75453D01*
X60875Y75516D01*
X60892Y75580D01*
X60906Y75646D01*
X60915Y75711D01*
X60921Y75778D01*
X60923Y75844D01*
X60923Y78130D01*
X60921Y78196D01*
X60915Y78263D01*
X60906Y78328D01*
X60892Y78394D01*
X60875Y78458D01*
X60854Y78521D01*
X60830Y78583D01*
X60801Y78643D01*
X60770Y78702D01*
X60735Y78758D01*
X60697Y78813D01*
X60656Y78865D01*
X60611Y78914D01*
X60564Y78961D01*
X60515Y79006D01*
X60463Y79047D01*
X60408Y79085D01*
X60352Y79120D01*
X60293Y79151D01*
X60233Y79180D01*
X60171Y79204D01*
X60108Y79225D01*
X60044Y79242D01*
X59978Y79256D01*
X59913Y79265D01*
X59846Y79271D01*
X59780Y79273D01*
X57875Y79273D01*
X174756Y70180D02*
X174756Y65227D01*
X174754Y65142D01*
X174748Y65056D01*
X174739Y64971D01*
X174725Y64887D01*
X174708Y64803D01*
X174687Y64720D01*
X174663Y64638D01*
X174635Y64558D01*
X174603Y64478D01*
X174567Y64400D01*
X174529Y64324D01*
X174486Y64250D01*
X174441Y64178D01*
X174392Y64107D01*
X174340Y64039D01*
X174286Y63974D01*
X174228Y63911D01*
X174167Y63850D01*
X174104Y63792D01*
X174039Y63738D01*
X173971Y63686D01*
X173900Y63637D01*
X173828Y63592D01*
X173754Y63549D01*
X173678Y63511D01*
X173600Y63475D01*
X173520Y63443D01*
X173440Y63415D01*
X173358Y63391D01*
X173275Y63370D01*
X173191Y63353D01*
X173107Y63339D01*
X173022Y63330D01*
X172936Y63324D01*
X172851Y63322D01*
X172766Y63324D01*
X172680Y63330D01*
X172595Y63339D01*
X172511Y63353D01*
X172427Y63370D01*
X172344Y63391D01*
X172262Y63415D01*
X172182Y63443D01*
X172102Y63475D01*
X172024Y63511D01*
X171948Y63549D01*
X171874Y63592D01*
X171802Y63637D01*
X171731Y63686D01*
X171663Y63738D01*
X171598Y63792D01*
X171535Y63850D01*
X171474Y63911D01*
X171416Y63974D01*
X171362Y64039D01*
X171310Y64107D01*
X171261Y64178D01*
X171216Y64250D01*
X171173Y64324D01*
X171135Y64400D01*
X171099Y64478D01*
X171067Y64558D01*
X171039Y64638D01*
X171015Y64720D01*
X170994Y64803D01*
X170977Y64887D01*
X170963Y64971D01*
X170954Y65056D01*
X170948Y65142D01*
X170946Y65227D01*
X170946Y70180D01*
X167059Y67894D02*
X167059Y63322D01*
X167059Y67894D02*
X165154Y67894D01*
X165088Y67892D01*
X165021Y67886D01*
X164956Y67877D01*
X164890Y67863D01*
X164826Y67846D01*
X164763Y67825D01*
X164701Y67801D01*
X164641Y67772D01*
X164583Y67741D01*
X164526Y67706D01*
X164471Y67668D01*
X164419Y67627D01*
X164370Y67582D01*
X164323Y67535D01*
X164278Y67486D01*
X164237Y67434D01*
X164199Y67379D01*
X164164Y67323D01*
X164133Y67264D01*
X164104Y67204D01*
X164080Y67142D01*
X164059Y67079D01*
X164042Y67015D01*
X164028Y66949D01*
X164019Y66884D01*
X164013Y66817D01*
X164011Y66751D01*
X164011Y63322D01*
X160659Y63322D02*
X160659Y67894D01*
X160849Y69799D02*
X160849Y70180D01*
X160468Y70180D01*
X160468Y69799D01*
X160849Y69799D01*
X157794Y67894D02*
X156270Y63322D01*
X154746Y67894D01*
X150555Y63322D02*
X148650Y63322D01*
X150555Y63322D02*
X150621Y63324D01*
X150688Y63330D01*
X150753Y63339D01*
X150819Y63353D01*
X150883Y63370D01*
X150946Y63391D01*
X151008Y63415D01*
X151068Y63444D01*
X151127Y63475D01*
X151183Y63510D01*
X151238Y63548D01*
X151290Y63589D01*
X151339Y63634D01*
X151386Y63681D01*
X151431Y63730D01*
X151472Y63782D01*
X151510Y63837D01*
X151545Y63894D01*
X151576Y63952D01*
X151605Y64012D01*
X151629Y64074D01*
X151650Y64137D01*
X151667Y64201D01*
X151681Y64267D01*
X151690Y64332D01*
X151696Y64399D01*
X151698Y64465D01*
X151698Y66370D01*
X151696Y66447D01*
X151690Y66524D01*
X151680Y66601D01*
X151667Y66677D01*
X151649Y66752D01*
X151628Y66826D01*
X151603Y66899D01*
X151574Y66971D01*
X151542Y67041D01*
X151507Y67110D01*
X151467Y67176D01*
X151425Y67241D01*
X151379Y67303D01*
X151330Y67363D01*
X151279Y67420D01*
X151224Y67475D01*
X151167Y67526D01*
X151107Y67575D01*
X151045Y67621D01*
X150980Y67663D01*
X150914Y67703D01*
X150845Y67738D01*
X150775Y67770D01*
X150703Y67799D01*
X150630Y67824D01*
X150556Y67845D01*
X150481Y67863D01*
X150405Y67876D01*
X150328Y67886D01*
X150251Y67892D01*
X150174Y67894D01*
X150097Y67892D01*
X150020Y67886D01*
X149943Y67876D01*
X149867Y67863D01*
X149792Y67845D01*
X149718Y67824D01*
X149645Y67799D01*
X149573Y67770D01*
X149503Y67738D01*
X149434Y67703D01*
X149368Y67663D01*
X149303Y67621D01*
X149241Y67575D01*
X149181Y67526D01*
X149124Y67475D01*
X149069Y67420D01*
X149018Y67363D01*
X148969Y67303D01*
X148923Y67241D01*
X148881Y67176D01*
X148841Y67110D01*
X148806Y67041D01*
X148774Y66971D01*
X148745Y66899D01*
X148720Y66826D01*
X148699Y66752D01*
X148681Y66677D01*
X148668Y66601D01*
X148658Y66524D01*
X148652Y66447D01*
X148650Y66370D01*
X148650Y65608D01*
X151698Y65608D01*
X145051Y63322D02*
X145051Y67894D01*
X142765Y67894D01*
X142765Y67132D01*
X139666Y65989D02*
X137761Y65227D01*
X139666Y65989D02*
X139723Y66014D01*
X139778Y66042D01*
X139832Y66074D01*
X139883Y66109D01*
X139932Y66148D01*
X139979Y66189D01*
X140023Y66233D01*
X140064Y66280D01*
X140102Y66330D01*
X140136Y66382D01*
X140168Y66435D01*
X140196Y66491D01*
X140220Y66548D01*
X140241Y66607D01*
X140258Y66667D01*
X140271Y66728D01*
X140280Y66790D01*
X140286Y66852D01*
X140287Y66914D01*
X140284Y66976D01*
X140278Y67038D01*
X140268Y67100D01*
X140254Y67160D01*
X140236Y67220D01*
X140214Y67279D01*
X140189Y67335D01*
X140160Y67391D01*
X140128Y67444D01*
X140092Y67495D01*
X140053Y67544D01*
X140012Y67590D01*
X139967Y67634D01*
X139920Y67675D01*
X139870Y67712D01*
X139818Y67747D01*
X139764Y67778D01*
X139708Y67805D01*
X139651Y67829D01*
X139592Y67850D01*
X139532Y67866D01*
X139471Y67879D01*
X139409Y67888D01*
X139347Y67893D01*
X139285Y67894D01*
X139285Y67895D02*
X139159Y67891D01*
X139033Y67884D01*
X138907Y67873D01*
X138781Y67858D01*
X138656Y67840D01*
X138532Y67818D01*
X138408Y67792D01*
X138285Y67763D01*
X138163Y67730D01*
X138042Y67694D01*
X137923Y67654D01*
X137804Y67610D01*
X137687Y67564D01*
X137571Y67514D01*
X137761Y65227D02*
X137704Y65202D01*
X137649Y65174D01*
X137595Y65142D01*
X137544Y65107D01*
X137495Y65068D01*
X137448Y65027D01*
X137404Y64983D01*
X137363Y64936D01*
X137325Y64886D01*
X137291Y64834D01*
X137259Y64781D01*
X137231Y64725D01*
X137207Y64668D01*
X137186Y64609D01*
X137169Y64549D01*
X137156Y64488D01*
X137147Y64426D01*
X137141Y64364D01*
X137140Y64302D01*
X137143Y64240D01*
X137149Y64178D01*
X137159Y64116D01*
X137173Y64056D01*
X137191Y63996D01*
X137213Y63937D01*
X137238Y63881D01*
X137267Y63825D01*
X137299Y63772D01*
X137335Y63721D01*
X137374Y63672D01*
X137415Y63626D01*
X137460Y63582D01*
X137507Y63541D01*
X137557Y63504D01*
X137609Y63469D01*
X137663Y63438D01*
X137719Y63411D01*
X137776Y63387D01*
X137835Y63366D01*
X137895Y63350D01*
X137956Y63337D01*
X138018Y63328D01*
X138080Y63323D01*
X138142Y63322D01*
X138141Y63323D02*
X138294Y63327D01*
X138447Y63334D01*
X138599Y63345D01*
X138751Y63360D01*
X138903Y63379D01*
X139054Y63401D01*
X139205Y63426D01*
X139355Y63455D01*
X139504Y63488D01*
X139653Y63524D01*
X139800Y63564D01*
X139947Y63607D01*
X140093Y63654D01*
X140237Y63704D01*
X134080Y63322D02*
X134080Y67894D01*
X134271Y69799D02*
X134271Y70180D01*
X133890Y70180D01*
X133890Y69799D01*
X134271Y69799D01*
X131653Y67894D02*
X129367Y67894D01*
X130891Y70180D02*
X130891Y64465D01*
X130889Y64399D01*
X130883Y64332D01*
X130874Y64267D01*
X130860Y64201D01*
X130843Y64137D01*
X130822Y64074D01*
X130798Y64012D01*
X130769Y63952D01*
X130738Y63894D01*
X130703Y63837D01*
X130665Y63782D01*
X130624Y63730D01*
X130579Y63681D01*
X130532Y63634D01*
X130483Y63589D01*
X130431Y63548D01*
X130376Y63510D01*
X130320Y63475D01*
X130261Y63444D01*
X130201Y63415D01*
X130139Y63391D01*
X130076Y63370D01*
X130012Y63353D01*
X129946Y63339D01*
X129881Y63330D01*
X129814Y63324D01*
X129748Y63322D01*
X129367Y63322D01*
X126582Y61036D02*
X125820Y61036D01*
X123534Y67894D01*
X126582Y67894D02*
X125058Y63322D01*
X116585Y64846D02*
X116585Y66370D01*
X116583Y66447D01*
X116577Y66524D01*
X116567Y66601D01*
X116554Y66677D01*
X116536Y66752D01*
X116515Y66826D01*
X116490Y66899D01*
X116461Y66971D01*
X116429Y67041D01*
X116394Y67110D01*
X116354Y67176D01*
X116312Y67241D01*
X116266Y67303D01*
X116217Y67363D01*
X116166Y67420D01*
X116111Y67475D01*
X116054Y67526D01*
X115994Y67575D01*
X115932Y67621D01*
X115867Y67663D01*
X115801Y67703D01*
X115732Y67738D01*
X115662Y67770D01*
X115590Y67799D01*
X115517Y67824D01*
X115443Y67845D01*
X115368Y67863D01*
X115292Y67876D01*
X115215Y67886D01*
X115138Y67892D01*
X115061Y67894D01*
X114984Y67892D01*
X114907Y67886D01*
X114830Y67876D01*
X114754Y67863D01*
X114679Y67845D01*
X114605Y67824D01*
X114532Y67799D01*
X114460Y67770D01*
X114390Y67738D01*
X114321Y67703D01*
X114255Y67663D01*
X114190Y67621D01*
X114128Y67575D01*
X114068Y67526D01*
X114011Y67475D01*
X113956Y67420D01*
X113905Y67363D01*
X113856Y67303D01*
X113810Y67241D01*
X113768Y67176D01*
X113728Y67110D01*
X113693Y67041D01*
X113661Y66971D01*
X113632Y66899D01*
X113607Y66826D01*
X113586Y66752D01*
X113568Y66677D01*
X113555Y66601D01*
X113545Y66524D01*
X113539Y66447D01*
X113537Y66370D01*
X113537Y64846D01*
X113539Y64769D01*
X113545Y64692D01*
X113555Y64615D01*
X113568Y64539D01*
X113586Y64464D01*
X113607Y64390D01*
X113632Y64317D01*
X113661Y64245D01*
X113693Y64175D01*
X113728Y64106D01*
X113768Y64040D01*
X113810Y63975D01*
X113856Y63913D01*
X113905Y63853D01*
X113956Y63796D01*
X114011Y63741D01*
X114068Y63690D01*
X114128Y63641D01*
X114190Y63595D01*
X114255Y63553D01*
X114321Y63513D01*
X114390Y63478D01*
X114460Y63446D01*
X114532Y63417D01*
X114605Y63392D01*
X114679Y63371D01*
X114754Y63353D01*
X114830Y63340D01*
X114907Y63330D01*
X114984Y63324D01*
X115061Y63322D01*
X115138Y63324D01*
X115215Y63330D01*
X115292Y63340D01*
X115368Y63353D01*
X115443Y63371D01*
X115517Y63392D01*
X115590Y63417D01*
X115662Y63446D01*
X115732Y63478D01*
X115801Y63513D01*
X115867Y63553D01*
X115932Y63595D01*
X115994Y63641D01*
X116054Y63690D01*
X116111Y63741D01*
X116166Y63796D01*
X116217Y63853D01*
X116266Y63913D01*
X116312Y63975D01*
X116354Y64040D01*
X116394Y64106D01*
X116429Y64175D01*
X116461Y64245D01*
X116490Y64317D01*
X116515Y64390D01*
X116536Y64464D01*
X116554Y64539D01*
X116567Y64615D01*
X116577Y64692D01*
X116583Y64769D01*
X116585Y64846D01*
X109885Y63322D02*
X109885Y69037D01*
X109883Y69103D01*
X109877Y69170D01*
X109868Y69235D01*
X109854Y69301D01*
X109837Y69365D01*
X109816Y69428D01*
X109792Y69490D01*
X109763Y69550D01*
X109732Y69609D01*
X109697Y69665D01*
X109659Y69720D01*
X109618Y69772D01*
X109573Y69821D01*
X109526Y69868D01*
X109477Y69913D01*
X109425Y69954D01*
X109370Y69992D01*
X109314Y70027D01*
X109255Y70058D01*
X109195Y70087D01*
X109133Y70111D01*
X109070Y70132D01*
X109006Y70149D01*
X108940Y70163D01*
X108875Y70172D01*
X108808Y70178D01*
X108742Y70180D01*
X108361Y70180D01*
X108361Y67894D02*
X110647Y67894D01*
X101741Y70180D02*
X101741Y63322D01*
X99455Y66370D02*
X101741Y70180D01*
X99455Y66370D02*
X97169Y70180D01*
X97169Y63322D01*
X93603Y63322D02*
X93603Y67894D01*
X93794Y69799D02*
X93794Y70180D01*
X93413Y70180D01*
X93413Y69799D01*
X93794Y69799D01*
X90250Y67894D02*
X90250Y63322D01*
X90250Y67894D02*
X88345Y67894D01*
X88279Y67892D01*
X88212Y67886D01*
X88147Y67877D01*
X88081Y67863D01*
X88017Y67846D01*
X87954Y67825D01*
X87892Y67801D01*
X87832Y67772D01*
X87774Y67741D01*
X87717Y67706D01*
X87662Y67668D01*
X87610Y67627D01*
X87561Y67582D01*
X87514Y67535D01*
X87469Y67486D01*
X87428Y67434D01*
X87390Y67379D01*
X87355Y67323D01*
X87324Y67264D01*
X87295Y67204D01*
X87271Y67142D01*
X87250Y67079D01*
X87233Y67015D01*
X87219Y66949D01*
X87210Y66884D01*
X87204Y66817D01*
X87202Y66751D01*
X87202Y63322D01*
X83423Y63322D02*
X83423Y67894D01*
X81518Y67894D01*
X81452Y67892D01*
X81385Y67886D01*
X81320Y67877D01*
X81254Y67863D01*
X81190Y67846D01*
X81127Y67825D01*
X81065Y67801D01*
X81005Y67772D01*
X80947Y67741D01*
X80890Y67706D01*
X80835Y67668D01*
X80783Y67627D01*
X80734Y67582D01*
X80687Y67535D01*
X80642Y67486D01*
X80601Y67434D01*
X80563Y67379D01*
X80528Y67323D01*
X80497Y67264D01*
X80468Y67204D01*
X80444Y67142D01*
X80423Y67079D01*
X80406Y67015D01*
X80392Y66949D01*
X80383Y66884D01*
X80377Y66817D01*
X80375Y66751D01*
X80375Y63322D01*
X75696Y63322D02*
X73791Y63322D01*
X75696Y63322D02*
X75762Y63324D01*
X75829Y63330D01*
X75894Y63339D01*
X75960Y63353D01*
X76024Y63370D01*
X76087Y63391D01*
X76149Y63415D01*
X76209Y63444D01*
X76268Y63475D01*
X76324Y63510D01*
X76379Y63548D01*
X76431Y63589D01*
X76480Y63634D01*
X76527Y63681D01*
X76572Y63730D01*
X76613Y63782D01*
X76651Y63837D01*
X76686Y63894D01*
X76717Y63952D01*
X76746Y64012D01*
X76770Y64074D01*
X76791Y64137D01*
X76808Y64201D01*
X76822Y64267D01*
X76831Y64332D01*
X76837Y64399D01*
X76839Y64465D01*
X76839Y66370D01*
X76837Y66447D01*
X76831Y66524D01*
X76821Y66601D01*
X76808Y66677D01*
X76790Y66752D01*
X76769Y66826D01*
X76744Y66899D01*
X76715Y66971D01*
X76683Y67041D01*
X76648Y67110D01*
X76608Y67176D01*
X76566Y67241D01*
X76520Y67303D01*
X76471Y67363D01*
X76420Y67420D01*
X76365Y67475D01*
X76308Y67526D01*
X76248Y67575D01*
X76186Y67621D01*
X76121Y67663D01*
X76055Y67703D01*
X75986Y67738D01*
X75916Y67770D01*
X75844Y67799D01*
X75771Y67824D01*
X75697Y67845D01*
X75622Y67863D01*
X75546Y67876D01*
X75469Y67886D01*
X75392Y67892D01*
X75315Y67894D01*
X75238Y67892D01*
X75161Y67886D01*
X75084Y67876D01*
X75008Y67863D01*
X74933Y67845D01*
X74859Y67824D01*
X74786Y67799D01*
X74714Y67770D01*
X74644Y67738D01*
X74575Y67703D01*
X74509Y67663D01*
X74444Y67621D01*
X74382Y67575D01*
X74322Y67526D01*
X74265Y67475D01*
X74210Y67420D01*
X74159Y67363D01*
X74110Y67303D01*
X74064Y67241D01*
X74022Y67176D01*
X73982Y67110D01*
X73947Y67041D01*
X73915Y66971D01*
X73886Y66899D01*
X73861Y66826D01*
X73840Y66752D01*
X73822Y66677D01*
X73809Y66601D01*
X73799Y66524D01*
X73793Y66447D01*
X73791Y66370D01*
X73791Y65608D01*
X76839Y65608D01*
X69928Y65989D02*
X68023Y65227D01*
X69928Y65989D02*
X69985Y66014D01*
X70040Y66042D01*
X70094Y66074D01*
X70145Y66109D01*
X70194Y66148D01*
X70241Y66189D01*
X70285Y66233D01*
X70326Y66280D01*
X70364Y66330D01*
X70398Y66382D01*
X70430Y66435D01*
X70458Y66491D01*
X70482Y66548D01*
X70503Y66607D01*
X70520Y66667D01*
X70533Y66728D01*
X70542Y66790D01*
X70548Y66852D01*
X70549Y66914D01*
X70546Y66976D01*
X70540Y67038D01*
X70530Y67100D01*
X70516Y67160D01*
X70498Y67220D01*
X70476Y67279D01*
X70451Y67335D01*
X70422Y67391D01*
X70390Y67444D01*
X70354Y67495D01*
X70315Y67544D01*
X70274Y67590D01*
X70229Y67634D01*
X70182Y67675D01*
X70132Y67712D01*
X70080Y67747D01*
X70026Y67778D01*
X69970Y67805D01*
X69913Y67829D01*
X69854Y67850D01*
X69794Y67866D01*
X69733Y67879D01*
X69671Y67888D01*
X69609Y67893D01*
X69547Y67894D01*
X69547Y67895D02*
X69421Y67891D01*
X69295Y67884D01*
X69169Y67873D01*
X69043Y67858D01*
X68918Y67840D01*
X68794Y67818D01*
X68670Y67792D01*
X68547Y67763D01*
X68425Y67730D01*
X68304Y67694D01*
X68185Y67654D01*
X68066Y67610D01*
X67949Y67564D01*
X67833Y67514D01*
X68023Y65227D02*
X67966Y65202D01*
X67911Y65174D01*
X67857Y65142D01*
X67806Y65107D01*
X67757Y65068D01*
X67710Y65027D01*
X67666Y64983D01*
X67625Y64936D01*
X67587Y64886D01*
X67553Y64834D01*
X67521Y64781D01*
X67493Y64725D01*
X67469Y64668D01*
X67448Y64609D01*
X67431Y64549D01*
X67418Y64488D01*
X67409Y64426D01*
X67403Y64364D01*
X67402Y64302D01*
X67405Y64240D01*
X67411Y64178D01*
X67421Y64116D01*
X67435Y64056D01*
X67453Y63996D01*
X67475Y63937D01*
X67500Y63881D01*
X67529Y63825D01*
X67561Y63772D01*
X67597Y63721D01*
X67636Y63672D01*
X67677Y63626D01*
X67722Y63582D01*
X67769Y63541D01*
X67819Y63504D01*
X67871Y63469D01*
X67925Y63438D01*
X67981Y63411D01*
X68038Y63387D01*
X68097Y63366D01*
X68157Y63350D01*
X68218Y63337D01*
X68280Y63328D01*
X68342Y63323D01*
X68404Y63322D01*
X68403Y63323D02*
X68556Y63327D01*
X68709Y63334D01*
X68861Y63345D01*
X69013Y63360D01*
X69165Y63379D01*
X69316Y63401D01*
X69467Y63426D01*
X69617Y63455D01*
X69766Y63488D01*
X69915Y63524D01*
X70062Y63564D01*
X70209Y63607D01*
X70355Y63654D01*
X70499Y63704D01*
X64159Y64846D02*
X64159Y66370D01*
X64157Y66447D01*
X64151Y66524D01*
X64141Y66601D01*
X64128Y66677D01*
X64110Y66752D01*
X64089Y66826D01*
X64064Y66899D01*
X64035Y66971D01*
X64003Y67041D01*
X63968Y67110D01*
X63928Y67176D01*
X63886Y67241D01*
X63840Y67303D01*
X63791Y67363D01*
X63740Y67420D01*
X63685Y67475D01*
X63628Y67526D01*
X63568Y67575D01*
X63506Y67621D01*
X63441Y67663D01*
X63375Y67703D01*
X63306Y67738D01*
X63236Y67770D01*
X63164Y67799D01*
X63091Y67824D01*
X63017Y67845D01*
X62942Y67863D01*
X62866Y67876D01*
X62789Y67886D01*
X62712Y67892D01*
X62635Y67894D01*
X62558Y67892D01*
X62481Y67886D01*
X62404Y67876D01*
X62328Y67863D01*
X62253Y67845D01*
X62179Y67824D01*
X62106Y67799D01*
X62034Y67770D01*
X61964Y67738D01*
X61895Y67703D01*
X61829Y67663D01*
X61764Y67621D01*
X61702Y67575D01*
X61642Y67526D01*
X61585Y67475D01*
X61530Y67420D01*
X61479Y67363D01*
X61430Y67303D01*
X61384Y67241D01*
X61342Y67176D01*
X61302Y67110D01*
X61267Y67041D01*
X61235Y66971D01*
X61206Y66899D01*
X61181Y66826D01*
X61160Y66752D01*
X61142Y66677D01*
X61129Y66601D01*
X61119Y66524D01*
X61113Y66447D01*
X61111Y66370D01*
X61111Y64846D01*
X61113Y64769D01*
X61119Y64692D01*
X61129Y64615D01*
X61142Y64539D01*
X61160Y64464D01*
X61181Y64390D01*
X61206Y64317D01*
X61235Y64245D01*
X61267Y64175D01*
X61302Y64106D01*
X61342Y64040D01*
X61384Y63975D01*
X61430Y63913D01*
X61479Y63853D01*
X61530Y63796D01*
X61585Y63741D01*
X61642Y63690D01*
X61702Y63641D01*
X61764Y63595D01*
X61829Y63553D01*
X61895Y63513D01*
X61964Y63478D01*
X62034Y63446D01*
X62106Y63417D01*
X62179Y63392D01*
X62253Y63371D01*
X62328Y63353D01*
X62404Y63340D01*
X62481Y63330D01*
X62558Y63324D01*
X62635Y63322D01*
X62712Y63324D01*
X62789Y63330D01*
X62866Y63340D01*
X62942Y63353D01*
X63017Y63371D01*
X63091Y63392D01*
X63164Y63417D01*
X63236Y63446D01*
X63306Y63478D01*
X63375Y63513D01*
X63441Y63553D01*
X63506Y63595D01*
X63568Y63641D01*
X63628Y63690D01*
X63685Y63741D01*
X63740Y63796D01*
X63791Y63853D01*
X63840Y63913D01*
X63886Y63975D01*
X63928Y64040D01*
X63968Y64106D01*
X64003Y64175D01*
X64035Y64245D01*
X64064Y64317D01*
X64089Y64390D01*
X64110Y64464D01*
X64128Y64539D01*
X64141Y64615D01*
X64151Y64692D01*
X64157Y64769D01*
X64159Y64846D01*
X58501Y67894D02*
X56215Y67894D01*
X57739Y70180D02*
X57739Y64465D01*
X57737Y64399D01*
X57731Y64332D01*
X57722Y64267D01*
X57708Y64201D01*
X57691Y64137D01*
X57670Y64074D01*
X57646Y64012D01*
X57617Y63952D01*
X57586Y63894D01*
X57551Y63837D01*
X57513Y63782D01*
X57472Y63730D01*
X57427Y63681D01*
X57380Y63634D01*
X57331Y63589D01*
X57279Y63548D01*
X57224Y63510D01*
X57168Y63475D01*
X57109Y63444D01*
X57049Y63415D01*
X56987Y63391D01*
X56924Y63370D01*
X56860Y63353D01*
X56794Y63339D01*
X56729Y63330D01*
X56662Y63324D01*
X56596Y63322D01*
X56215Y63322D01*
X51909Y65989D02*
X50194Y65989D01*
X51909Y65990D02*
X51981Y65988D01*
X52053Y65982D01*
X52125Y65972D01*
X52196Y65959D01*
X52266Y65941D01*
X52335Y65920D01*
X52403Y65895D01*
X52469Y65867D01*
X52534Y65835D01*
X52597Y65799D01*
X52658Y65760D01*
X52716Y65718D01*
X52773Y65673D01*
X52826Y65624D01*
X52877Y65573D01*
X52926Y65520D01*
X52971Y65463D01*
X53013Y65405D01*
X53052Y65344D01*
X53088Y65281D01*
X53120Y65216D01*
X53148Y65150D01*
X53173Y65082D01*
X53194Y65013D01*
X53212Y64943D01*
X53225Y64872D01*
X53235Y64800D01*
X53241Y64728D01*
X53243Y64656D01*
X53241Y64584D01*
X53235Y64512D01*
X53225Y64440D01*
X53212Y64369D01*
X53194Y64299D01*
X53173Y64230D01*
X53148Y64162D01*
X53120Y64096D01*
X53088Y64031D01*
X53052Y63968D01*
X53013Y63907D01*
X52971Y63849D01*
X52926Y63792D01*
X52877Y63739D01*
X52826Y63688D01*
X52773Y63639D01*
X52716Y63594D01*
X52658Y63552D01*
X52597Y63513D01*
X52534Y63477D01*
X52469Y63445D01*
X52403Y63417D01*
X52335Y63392D01*
X52266Y63371D01*
X52196Y63353D01*
X52125Y63340D01*
X52053Y63330D01*
X51981Y63324D01*
X51909Y63322D01*
X50194Y63322D01*
X50194Y66751D01*
X50196Y66817D01*
X50202Y66884D01*
X50211Y66949D01*
X50225Y67015D01*
X50242Y67079D01*
X50263Y67142D01*
X50287Y67204D01*
X50316Y67264D01*
X50347Y67323D01*
X50382Y67379D01*
X50420Y67434D01*
X50461Y67486D01*
X50506Y67535D01*
X50553Y67582D01*
X50602Y67627D01*
X50654Y67668D01*
X50709Y67706D01*
X50766Y67741D01*
X50824Y67772D01*
X50884Y67801D01*
X50946Y67825D01*
X51009Y67846D01*
X51073Y67863D01*
X51139Y67877D01*
X51204Y67886D01*
X51271Y67892D01*
X51337Y67894D01*
X52861Y67894D01*
M02*
