G75*
%MOIN*%
%OFA0B0*%
%FSLAX25Y25*%
%IPPOS*%
%LPD*%
%AMOC8*
5,1,8,0,0,1.08239X$1,22.5*
%
%ADD10C,0.00500*%
%ADD11C,0.00600*%
%ADD12C,0.00200*%
%ADD13R,0.03300X0.00800*%
%ADD14R,0.03400X0.01600*%
%ADD15C,0.00800*%
%ADD16C,0.00098*%
D10*
X0071755Y0032769D02*
X0071755Y0034119D01*
X0071755Y0033819D02*
X0072430Y0033819D01*
X0071755Y0034119D02*
X0071757Y0034161D01*
X0071763Y0034202D01*
X0071772Y0034242D01*
X0071785Y0034282D01*
X0071802Y0034320D01*
X0071822Y0034356D01*
X0071846Y0034390D01*
X0071872Y0034422D01*
X0071902Y0034452D01*
X0071934Y0034478D01*
X0071968Y0034502D01*
X0072004Y0034522D01*
X0072042Y0034539D01*
X0072082Y0034552D01*
X0072122Y0034561D01*
X0072163Y0034567D01*
X0072205Y0034569D01*
X0072805Y0034569D01*
X0074126Y0034569D02*
X0075026Y0034569D01*
X0074726Y0035469D02*
X0074726Y0033219D01*
X0074724Y0033177D01*
X0074718Y0033136D01*
X0074709Y0033096D01*
X0074696Y0033056D01*
X0074679Y0033018D01*
X0074659Y0032982D01*
X0074635Y0032948D01*
X0074609Y0032916D01*
X0074579Y0032886D01*
X0074547Y0032860D01*
X0074513Y0032836D01*
X0074477Y0032816D01*
X0074439Y0032799D01*
X0074399Y0032786D01*
X0074359Y0032777D01*
X0074318Y0032771D01*
X0074276Y0032769D01*
X0074126Y0032769D01*
X0072430Y0032769D02*
X0071755Y0032769D01*
X0072430Y0032769D02*
X0072475Y0032771D01*
X0072519Y0032777D01*
X0072562Y0032786D01*
X0072605Y0032799D01*
X0072646Y0032816D01*
X0072686Y0032836D01*
X0072724Y0032859D01*
X0072760Y0032886D01*
X0072793Y0032915D01*
X0072824Y0032947D01*
X0072852Y0032982D01*
X0072877Y0033019D01*
X0072899Y0033058D01*
X0072917Y0033098D01*
X0072932Y0033140D01*
X0072943Y0033183D01*
X0072951Y0033227D01*
X0072955Y0033272D01*
X0072955Y0033316D01*
X0072951Y0033361D01*
X0072943Y0033405D01*
X0072932Y0033448D01*
X0072917Y0033490D01*
X0072899Y0033530D01*
X0072877Y0033569D01*
X0072852Y0033606D01*
X0072824Y0033641D01*
X0072793Y0033673D01*
X0072760Y0033702D01*
X0072724Y0033729D01*
X0072686Y0033752D01*
X0072646Y0033772D01*
X0072605Y0033789D01*
X0072562Y0033802D01*
X0072519Y0033811D01*
X0072475Y0033817D01*
X0072430Y0033819D01*
X0076053Y0033969D02*
X0076053Y0033369D01*
X0076055Y0033321D01*
X0076061Y0033273D01*
X0076070Y0033225D01*
X0076084Y0033179D01*
X0076101Y0033134D01*
X0076122Y0033090D01*
X0076146Y0033048D01*
X0076173Y0033009D01*
X0076204Y0032971D01*
X0076237Y0032936D01*
X0076274Y0032904D01*
X0076312Y0032875D01*
X0076353Y0032849D01*
X0076396Y0032827D01*
X0076440Y0032808D01*
X0076486Y0032793D01*
X0076533Y0032781D01*
X0076581Y0032773D01*
X0076629Y0032769D01*
X0076677Y0032769D01*
X0076725Y0032773D01*
X0076773Y0032781D01*
X0076820Y0032793D01*
X0076866Y0032808D01*
X0076910Y0032827D01*
X0076953Y0032849D01*
X0076994Y0032875D01*
X0077032Y0032904D01*
X0077069Y0032936D01*
X0077102Y0032971D01*
X0077133Y0033009D01*
X0077160Y0033048D01*
X0077184Y0033090D01*
X0077205Y0033134D01*
X0077222Y0033179D01*
X0077236Y0033225D01*
X0077245Y0033273D01*
X0077251Y0033321D01*
X0077253Y0033369D01*
X0077253Y0033969D01*
X0077251Y0034017D01*
X0077245Y0034065D01*
X0077236Y0034113D01*
X0077222Y0034159D01*
X0077205Y0034204D01*
X0077184Y0034248D01*
X0077160Y0034290D01*
X0077133Y0034329D01*
X0077102Y0034367D01*
X0077069Y0034402D01*
X0077032Y0034434D01*
X0076994Y0034463D01*
X0076953Y0034489D01*
X0076910Y0034511D01*
X0076866Y0034530D01*
X0076820Y0034545D01*
X0076773Y0034557D01*
X0076725Y0034565D01*
X0076677Y0034569D01*
X0076629Y0034569D01*
X0076581Y0034565D01*
X0076533Y0034557D01*
X0076486Y0034545D01*
X0076440Y0034530D01*
X0076396Y0034511D01*
X0076353Y0034489D01*
X0076312Y0034463D01*
X0076274Y0034434D01*
X0076237Y0034402D01*
X0076204Y0034367D01*
X0076173Y0034329D01*
X0076146Y0034290D01*
X0076122Y0034248D01*
X0076101Y0034204D01*
X0076084Y0034159D01*
X0076070Y0034113D01*
X0076061Y0034065D01*
X0076055Y0034017D01*
X0076053Y0033969D01*
X0078774Y0033519D02*
X0079524Y0033819D01*
X0079524Y0033820D02*
X0079559Y0033836D01*
X0079593Y0033855D01*
X0079624Y0033878D01*
X0079653Y0033904D01*
X0079679Y0033932D01*
X0079702Y0033963D01*
X0079722Y0033996D01*
X0079739Y0034030D01*
X0079752Y0034067D01*
X0079761Y0034104D01*
X0079767Y0034142D01*
X0079769Y0034181D01*
X0079767Y0034219D01*
X0079761Y0034257D01*
X0079752Y0034295D01*
X0079739Y0034331D01*
X0079722Y0034366D01*
X0079702Y0034399D01*
X0079679Y0034430D01*
X0079653Y0034458D01*
X0079624Y0034484D01*
X0079593Y0034506D01*
X0079560Y0034526D01*
X0079525Y0034542D01*
X0079489Y0034555D01*
X0079451Y0034563D01*
X0079413Y0034569D01*
X0079374Y0034570D01*
X0079749Y0032919D02*
X0079661Y0032889D01*
X0079571Y0032862D01*
X0079480Y0032839D01*
X0079389Y0032819D01*
X0079297Y0032802D01*
X0079204Y0032789D01*
X0079111Y0032779D01*
X0079018Y0032772D01*
X0078924Y0032769D01*
X0078925Y0032769D02*
X0078886Y0032770D01*
X0078848Y0032776D01*
X0078810Y0032784D01*
X0078774Y0032797D01*
X0078739Y0032813D01*
X0078706Y0032833D01*
X0078675Y0032855D01*
X0078646Y0032881D01*
X0078620Y0032909D01*
X0078597Y0032940D01*
X0078577Y0032973D01*
X0078560Y0033008D01*
X0078547Y0033044D01*
X0078538Y0033082D01*
X0078532Y0033120D01*
X0078530Y0033158D01*
X0078532Y0033197D01*
X0078538Y0033235D01*
X0078547Y0033272D01*
X0078560Y0033309D01*
X0078577Y0033343D01*
X0078597Y0033376D01*
X0078620Y0033407D01*
X0078646Y0033435D01*
X0078675Y0033461D01*
X0078706Y0033484D01*
X0078740Y0033503D01*
X0078775Y0033519D01*
X0078699Y0034420D02*
X0078771Y0034450D01*
X0078843Y0034477D01*
X0078917Y0034500D01*
X0078992Y0034521D01*
X0079067Y0034537D01*
X0079143Y0034551D01*
X0079220Y0034561D01*
X0079297Y0034567D01*
X0079375Y0034570D01*
X0081045Y0033969D02*
X0081045Y0033669D01*
X0082245Y0033669D01*
X0082245Y0033969D02*
X0082245Y0033219D01*
X0082243Y0033177D01*
X0082237Y0033136D01*
X0082228Y0033096D01*
X0082215Y0033056D01*
X0082198Y0033018D01*
X0082178Y0032982D01*
X0082154Y0032948D01*
X0082128Y0032916D01*
X0082098Y0032886D01*
X0082066Y0032860D01*
X0082032Y0032836D01*
X0081996Y0032816D01*
X0081958Y0032799D01*
X0081918Y0032786D01*
X0081878Y0032777D01*
X0081837Y0032771D01*
X0081795Y0032769D01*
X0081045Y0032769D01*
X0081045Y0033969D02*
X0081047Y0034017D01*
X0081053Y0034065D01*
X0081062Y0034113D01*
X0081076Y0034159D01*
X0081093Y0034204D01*
X0081114Y0034248D01*
X0081138Y0034290D01*
X0081165Y0034329D01*
X0081196Y0034367D01*
X0081229Y0034402D01*
X0081266Y0034434D01*
X0081304Y0034463D01*
X0081345Y0034489D01*
X0081388Y0034511D01*
X0081432Y0034530D01*
X0081478Y0034545D01*
X0081525Y0034557D01*
X0081573Y0034565D01*
X0081621Y0034569D01*
X0081669Y0034569D01*
X0081717Y0034565D01*
X0081765Y0034557D01*
X0081812Y0034545D01*
X0081858Y0034530D01*
X0081902Y0034511D01*
X0081945Y0034489D01*
X0081986Y0034463D01*
X0082024Y0034434D01*
X0082061Y0034402D01*
X0082094Y0034367D01*
X0082125Y0034329D01*
X0082152Y0034290D01*
X0082176Y0034248D01*
X0082197Y0034204D01*
X0082214Y0034159D01*
X0082228Y0034113D01*
X0082237Y0034065D01*
X0082243Y0034017D01*
X0082245Y0033969D01*
X0083637Y0034119D02*
X0083637Y0032769D01*
X0084837Y0032769D02*
X0084837Y0034569D01*
X0084087Y0034569D01*
X0084045Y0034567D01*
X0084004Y0034561D01*
X0083964Y0034552D01*
X0083924Y0034539D01*
X0083886Y0034522D01*
X0083850Y0034502D01*
X0083816Y0034478D01*
X0083784Y0034452D01*
X0083754Y0034422D01*
X0083728Y0034390D01*
X0083704Y0034356D01*
X0083684Y0034320D01*
X0083667Y0034282D01*
X0083654Y0034242D01*
X0083645Y0034202D01*
X0083639Y0034161D01*
X0083637Y0034119D01*
X0086325Y0034119D02*
X0086325Y0032769D01*
X0087525Y0032769D02*
X0087525Y0034569D01*
X0086775Y0034569D01*
X0086733Y0034567D01*
X0086692Y0034561D01*
X0086652Y0034552D01*
X0086612Y0034539D01*
X0086574Y0034522D01*
X0086538Y0034502D01*
X0086504Y0034478D01*
X0086472Y0034452D01*
X0086442Y0034422D01*
X0086416Y0034390D01*
X0086392Y0034356D01*
X0086372Y0034320D01*
X0086355Y0034282D01*
X0086342Y0034242D01*
X0086333Y0034202D01*
X0086327Y0034161D01*
X0086325Y0034119D01*
X0088845Y0034569D02*
X0088845Y0032769D01*
X0090249Y0032769D02*
X0090249Y0035469D01*
X0091149Y0033969D01*
X0092049Y0035469D01*
X0092049Y0032769D01*
X0094656Y0034569D02*
X0095556Y0034569D01*
X0095256Y0035019D02*
X0095256Y0032769D01*
X0096693Y0033369D02*
X0096693Y0033969D01*
X0096695Y0034017D01*
X0096701Y0034065D01*
X0096710Y0034113D01*
X0096724Y0034159D01*
X0096741Y0034204D01*
X0096762Y0034248D01*
X0096786Y0034290D01*
X0096813Y0034329D01*
X0096844Y0034367D01*
X0096877Y0034402D01*
X0096914Y0034434D01*
X0096952Y0034463D01*
X0096993Y0034489D01*
X0097036Y0034511D01*
X0097080Y0034530D01*
X0097126Y0034545D01*
X0097173Y0034557D01*
X0097221Y0034565D01*
X0097269Y0034569D01*
X0097317Y0034569D01*
X0097365Y0034565D01*
X0097413Y0034557D01*
X0097460Y0034545D01*
X0097506Y0034530D01*
X0097550Y0034511D01*
X0097593Y0034489D01*
X0097634Y0034463D01*
X0097672Y0034434D01*
X0097709Y0034402D01*
X0097742Y0034367D01*
X0097773Y0034329D01*
X0097800Y0034290D01*
X0097824Y0034248D01*
X0097845Y0034204D01*
X0097862Y0034159D01*
X0097876Y0034113D01*
X0097885Y0034065D01*
X0097891Y0034017D01*
X0097893Y0033969D01*
X0097893Y0033369D01*
X0097891Y0033321D01*
X0097885Y0033273D01*
X0097876Y0033225D01*
X0097862Y0033179D01*
X0097845Y0033134D01*
X0097824Y0033090D01*
X0097800Y0033048D01*
X0097773Y0033009D01*
X0097742Y0032971D01*
X0097709Y0032936D01*
X0097672Y0032904D01*
X0097634Y0032875D01*
X0097593Y0032849D01*
X0097550Y0032827D01*
X0097506Y0032808D01*
X0097460Y0032793D01*
X0097413Y0032781D01*
X0097365Y0032773D01*
X0097317Y0032769D01*
X0097269Y0032769D01*
X0097221Y0032773D01*
X0097173Y0032781D01*
X0097126Y0032793D01*
X0097080Y0032808D01*
X0097036Y0032827D01*
X0096993Y0032849D01*
X0096952Y0032875D01*
X0096914Y0032904D01*
X0096877Y0032936D01*
X0096844Y0032971D01*
X0096813Y0033009D01*
X0096786Y0033048D01*
X0096762Y0033090D01*
X0096741Y0033134D01*
X0096724Y0033179D01*
X0096710Y0033225D01*
X0096701Y0033273D01*
X0096695Y0033321D01*
X0096693Y0033369D01*
X0095256Y0035019D02*
X0095254Y0035061D01*
X0095248Y0035102D01*
X0095239Y0035142D01*
X0095226Y0035182D01*
X0095209Y0035220D01*
X0095189Y0035256D01*
X0095165Y0035290D01*
X0095139Y0035322D01*
X0095109Y0035352D01*
X0095077Y0035378D01*
X0095043Y0035402D01*
X0095007Y0035422D01*
X0094969Y0035439D01*
X0094929Y0035452D01*
X0094889Y0035461D01*
X0094848Y0035467D01*
X0094806Y0035469D01*
X0094656Y0035469D01*
X0094873Y0037249D02*
X0094123Y0037249D01*
X0094123Y0039949D01*
X0094123Y0039049D02*
X0094873Y0039049D01*
X0094915Y0039047D01*
X0094956Y0039041D01*
X0094996Y0039032D01*
X0095036Y0039019D01*
X0095074Y0039002D01*
X0095110Y0038982D01*
X0095144Y0038958D01*
X0095176Y0038932D01*
X0095206Y0038902D01*
X0095232Y0038870D01*
X0095256Y0038836D01*
X0095276Y0038800D01*
X0095293Y0038762D01*
X0095306Y0038722D01*
X0095315Y0038682D01*
X0095321Y0038641D01*
X0095323Y0038599D01*
X0095323Y0037699D01*
X0095321Y0037657D01*
X0095315Y0037616D01*
X0095306Y0037576D01*
X0095293Y0037536D01*
X0095276Y0037498D01*
X0095256Y0037462D01*
X0095232Y0037428D01*
X0095206Y0037396D01*
X0095176Y0037366D01*
X0095144Y0037340D01*
X0095110Y0037316D01*
X0095074Y0037296D01*
X0095036Y0037279D01*
X0094996Y0037266D01*
X0094956Y0037257D01*
X0094915Y0037251D01*
X0094873Y0037249D01*
X0096525Y0037249D02*
X0096525Y0039049D01*
X0096450Y0039799D02*
X0096600Y0039799D01*
X0096600Y0039949D01*
X0096450Y0039949D01*
X0096450Y0039799D01*
X0097725Y0039949D02*
X0098325Y0037249D01*
X0098925Y0039049D01*
X0099525Y0037249D01*
X0100125Y0039949D01*
X0099695Y0041729D02*
X0098945Y0041729D01*
X0098903Y0041731D01*
X0098862Y0041737D01*
X0098822Y0041746D01*
X0098782Y0041759D01*
X0098744Y0041776D01*
X0098708Y0041796D01*
X0098674Y0041820D01*
X0098642Y0041846D01*
X0098612Y0041876D01*
X0098586Y0041908D01*
X0098562Y0041942D01*
X0098542Y0041978D01*
X0098525Y0042016D01*
X0098512Y0042056D01*
X0098503Y0042096D01*
X0098497Y0042137D01*
X0098495Y0042179D01*
X0098495Y0043079D01*
X0098497Y0043121D01*
X0098503Y0043162D01*
X0098512Y0043202D01*
X0098525Y0043242D01*
X0098542Y0043280D01*
X0098562Y0043316D01*
X0098586Y0043350D01*
X0098612Y0043382D01*
X0098642Y0043412D01*
X0098674Y0043438D01*
X0098708Y0043462D01*
X0098744Y0043482D01*
X0098782Y0043499D01*
X0098822Y0043512D01*
X0098862Y0043521D01*
X0098903Y0043527D01*
X0098945Y0043529D01*
X0099695Y0043529D01*
X0099695Y0044429D02*
X0099695Y0041729D01*
X0097317Y0040829D02*
X0097017Y0040829D01*
X0096117Y0043529D01*
X0097317Y0043529D02*
X0096717Y0041729D01*
X0092281Y0039049D02*
X0091531Y0039049D01*
X0091531Y0036799D01*
X0091533Y0036757D01*
X0091539Y0036716D01*
X0091548Y0036676D01*
X0091561Y0036636D01*
X0091578Y0036598D01*
X0091598Y0036562D01*
X0091622Y0036528D01*
X0091648Y0036496D01*
X0091678Y0036466D01*
X0091710Y0036440D01*
X0091744Y0036416D01*
X0091780Y0036396D01*
X0091818Y0036379D01*
X0091858Y0036366D01*
X0091898Y0036357D01*
X0091939Y0036351D01*
X0091981Y0036349D01*
X0092581Y0036349D01*
X0092281Y0037249D02*
X0091531Y0037249D01*
X0092281Y0037249D02*
X0092323Y0037251D01*
X0092364Y0037257D01*
X0092404Y0037266D01*
X0092444Y0037279D01*
X0092482Y0037296D01*
X0092518Y0037316D01*
X0092552Y0037340D01*
X0092584Y0037366D01*
X0092614Y0037396D01*
X0092640Y0037428D01*
X0092664Y0037462D01*
X0092684Y0037498D01*
X0092701Y0037536D01*
X0092714Y0037576D01*
X0092723Y0037616D01*
X0092729Y0037657D01*
X0092731Y0037699D01*
X0092731Y0038599D01*
X0092729Y0038641D01*
X0092723Y0038682D01*
X0092714Y0038722D01*
X0092701Y0038762D01*
X0092684Y0038800D01*
X0092664Y0038836D01*
X0092640Y0038870D01*
X0092614Y0038902D01*
X0092584Y0038932D01*
X0092552Y0038958D01*
X0092518Y0038982D01*
X0092482Y0039002D01*
X0092444Y0039019D01*
X0092404Y0039032D01*
X0092364Y0039041D01*
X0092323Y0039047D01*
X0092281Y0039049D01*
X0090117Y0038449D02*
X0090117Y0037699D01*
X0090115Y0037657D01*
X0090109Y0037616D01*
X0090100Y0037576D01*
X0090087Y0037536D01*
X0090070Y0037498D01*
X0090050Y0037462D01*
X0090026Y0037428D01*
X0090000Y0037396D01*
X0089970Y0037366D01*
X0089938Y0037340D01*
X0089904Y0037316D01*
X0089868Y0037296D01*
X0089830Y0037279D01*
X0089790Y0037266D01*
X0089750Y0037257D01*
X0089709Y0037251D01*
X0089667Y0037249D01*
X0088917Y0037249D01*
X0088917Y0038149D02*
X0090117Y0038149D01*
X0090117Y0038449D02*
X0090115Y0038497D01*
X0090109Y0038545D01*
X0090100Y0038593D01*
X0090086Y0038639D01*
X0090069Y0038684D01*
X0090048Y0038728D01*
X0090024Y0038770D01*
X0089997Y0038809D01*
X0089966Y0038847D01*
X0089933Y0038882D01*
X0089896Y0038914D01*
X0089858Y0038943D01*
X0089817Y0038969D01*
X0089774Y0038991D01*
X0089730Y0039010D01*
X0089684Y0039025D01*
X0089637Y0039037D01*
X0089589Y0039045D01*
X0089541Y0039049D01*
X0089493Y0039049D01*
X0089445Y0039045D01*
X0089397Y0039037D01*
X0089350Y0039025D01*
X0089304Y0039010D01*
X0089260Y0038991D01*
X0089217Y0038969D01*
X0089176Y0038943D01*
X0089138Y0038914D01*
X0089101Y0038882D01*
X0089068Y0038847D01*
X0089037Y0038809D01*
X0089010Y0038770D01*
X0088986Y0038728D01*
X0088965Y0038684D01*
X0088948Y0038639D01*
X0088934Y0038593D01*
X0088925Y0038545D01*
X0088919Y0038497D01*
X0088917Y0038449D01*
X0088917Y0038149D01*
X0087590Y0037699D02*
X0087590Y0039949D01*
X0087890Y0039049D02*
X0086990Y0039049D01*
X0087590Y0037699D02*
X0087588Y0037657D01*
X0087582Y0037616D01*
X0087573Y0037576D01*
X0087560Y0037536D01*
X0087543Y0037498D01*
X0087523Y0037462D01*
X0087499Y0037428D01*
X0087473Y0037396D01*
X0087443Y0037366D01*
X0087411Y0037340D01*
X0087377Y0037316D01*
X0087341Y0037296D01*
X0087303Y0037279D01*
X0087263Y0037266D01*
X0087223Y0037257D01*
X0087182Y0037251D01*
X0087140Y0037249D01*
X0086990Y0037249D01*
X0088770Y0035469D02*
X0088770Y0035319D01*
X0088920Y0035319D01*
X0088920Y0035469D01*
X0088770Y0035469D01*
X0083758Y0037249D02*
X0083083Y0037249D01*
X0083083Y0038599D01*
X0083083Y0038299D02*
X0083758Y0038299D01*
X0083083Y0038599D02*
X0083085Y0038641D01*
X0083091Y0038682D01*
X0083100Y0038722D01*
X0083113Y0038762D01*
X0083130Y0038800D01*
X0083150Y0038836D01*
X0083174Y0038870D01*
X0083200Y0038902D01*
X0083230Y0038932D01*
X0083262Y0038958D01*
X0083296Y0038982D01*
X0083332Y0039002D01*
X0083370Y0039019D01*
X0083410Y0039032D01*
X0083450Y0039041D01*
X0083491Y0039047D01*
X0083533Y0039049D01*
X0084133Y0039049D01*
X0081573Y0039049D02*
X0080823Y0039049D01*
X0080781Y0039047D01*
X0080740Y0039041D01*
X0080700Y0039032D01*
X0080660Y0039019D01*
X0080622Y0039002D01*
X0080586Y0038982D01*
X0080552Y0038958D01*
X0080520Y0038932D01*
X0080490Y0038902D01*
X0080464Y0038870D01*
X0080440Y0038836D01*
X0080420Y0038800D01*
X0080403Y0038762D01*
X0080390Y0038722D01*
X0080381Y0038682D01*
X0080375Y0038641D01*
X0080373Y0038599D01*
X0080373Y0037249D01*
X0081573Y0037249D02*
X0081573Y0039049D01*
X0083758Y0038299D02*
X0083803Y0038297D01*
X0083847Y0038291D01*
X0083890Y0038282D01*
X0083933Y0038269D01*
X0083974Y0038252D01*
X0084014Y0038232D01*
X0084052Y0038209D01*
X0084088Y0038182D01*
X0084121Y0038153D01*
X0084152Y0038121D01*
X0084180Y0038086D01*
X0084205Y0038049D01*
X0084227Y0038010D01*
X0084245Y0037970D01*
X0084260Y0037928D01*
X0084271Y0037885D01*
X0084279Y0037841D01*
X0084283Y0037796D01*
X0084283Y0037752D01*
X0084279Y0037707D01*
X0084271Y0037663D01*
X0084260Y0037620D01*
X0084245Y0037578D01*
X0084227Y0037538D01*
X0084205Y0037499D01*
X0084180Y0037462D01*
X0084152Y0037427D01*
X0084121Y0037395D01*
X0084088Y0037366D01*
X0084052Y0037339D01*
X0084014Y0037316D01*
X0083974Y0037296D01*
X0083933Y0037279D01*
X0083890Y0037266D01*
X0083847Y0037257D01*
X0083803Y0037251D01*
X0083758Y0037249D01*
X0079003Y0037699D02*
X0079003Y0038599D01*
X0079001Y0038641D01*
X0078995Y0038682D01*
X0078986Y0038722D01*
X0078973Y0038762D01*
X0078956Y0038800D01*
X0078936Y0038836D01*
X0078912Y0038870D01*
X0078886Y0038902D01*
X0078856Y0038932D01*
X0078824Y0038958D01*
X0078790Y0038982D01*
X0078754Y0039002D01*
X0078716Y0039019D01*
X0078676Y0039032D01*
X0078636Y0039041D01*
X0078595Y0039047D01*
X0078553Y0039049D01*
X0077803Y0039049D01*
X0077803Y0039949D02*
X0077803Y0037249D01*
X0078553Y0037249D01*
X0078595Y0037251D01*
X0078636Y0037257D01*
X0078676Y0037266D01*
X0078716Y0037279D01*
X0078754Y0037296D01*
X0078790Y0037316D01*
X0078824Y0037340D01*
X0078856Y0037366D01*
X0078886Y0037396D01*
X0078912Y0037428D01*
X0078936Y0037462D01*
X0078956Y0037498D01*
X0078973Y0037536D01*
X0078986Y0037576D01*
X0078995Y0037616D01*
X0079001Y0037657D01*
X0079003Y0037699D01*
X0086355Y0047259D02*
X0088155Y0047259D01*
X0089619Y0047259D02*
X0091419Y0047259D01*
X0092883Y0047259D02*
X0094683Y0047259D01*
X0096147Y0047259D02*
X0097947Y0047259D01*
X0099411Y0047259D02*
X0101211Y0047259D01*
X0102675Y0047259D02*
X0104475Y0047259D01*
X0105939Y0047259D02*
X0107739Y0047259D01*
X0109203Y0047259D02*
X0111003Y0047259D01*
X0112467Y0047259D02*
X0114267Y0047259D01*
X0115731Y0047259D02*
X0117531Y0047259D01*
X0118995Y0047259D02*
X0120795Y0047259D01*
X0120795Y0044429D02*
X0120045Y0044429D01*
X0119991Y0044427D01*
X0119938Y0044421D01*
X0119886Y0044412D01*
X0119834Y0044399D01*
X0119783Y0044382D01*
X0119733Y0044361D01*
X0119686Y0044337D01*
X0119640Y0044310D01*
X0119596Y0044279D01*
X0119554Y0044246D01*
X0119515Y0044209D01*
X0119478Y0044170D01*
X0119445Y0044128D01*
X0119414Y0044084D01*
X0119387Y0044038D01*
X0119363Y0043991D01*
X0119342Y0043941D01*
X0119325Y0043890D01*
X0119312Y0043838D01*
X0119303Y0043786D01*
X0119297Y0043733D01*
X0119295Y0043679D01*
X0119295Y0042479D01*
X0119297Y0042425D01*
X0119303Y0042372D01*
X0119312Y0042320D01*
X0119325Y0042268D01*
X0119342Y0042217D01*
X0119363Y0042167D01*
X0119387Y0042120D01*
X0119414Y0042074D01*
X0119445Y0042030D01*
X0119478Y0041988D01*
X0119515Y0041949D01*
X0119554Y0041912D01*
X0119596Y0041879D01*
X0119640Y0041848D01*
X0119686Y0041821D01*
X0119733Y0041797D01*
X0119783Y0041776D01*
X0119834Y0041759D01*
X0119886Y0041746D01*
X0119938Y0041737D01*
X0119991Y0041731D01*
X0120045Y0041729D01*
X0120795Y0041729D01*
X0120795Y0044429D01*
X0117861Y0042929D02*
X0117861Y0042179D01*
X0117859Y0042137D01*
X0117853Y0042096D01*
X0117844Y0042056D01*
X0117831Y0042016D01*
X0117814Y0041978D01*
X0117794Y0041942D01*
X0117770Y0041908D01*
X0117744Y0041876D01*
X0117714Y0041846D01*
X0117682Y0041820D01*
X0117648Y0041796D01*
X0117612Y0041776D01*
X0117574Y0041759D01*
X0117534Y0041746D01*
X0117494Y0041737D01*
X0117453Y0041731D01*
X0117411Y0041729D01*
X0116661Y0041729D01*
X0116661Y0042629D02*
X0117861Y0042629D01*
X0117861Y0042929D02*
X0117859Y0042977D01*
X0117853Y0043025D01*
X0117844Y0043073D01*
X0117830Y0043119D01*
X0117813Y0043164D01*
X0117792Y0043208D01*
X0117768Y0043250D01*
X0117741Y0043289D01*
X0117710Y0043327D01*
X0117677Y0043362D01*
X0117640Y0043394D01*
X0117602Y0043423D01*
X0117561Y0043449D01*
X0117518Y0043471D01*
X0117474Y0043490D01*
X0117428Y0043505D01*
X0117381Y0043517D01*
X0117333Y0043525D01*
X0117285Y0043529D01*
X0117237Y0043529D01*
X0117189Y0043525D01*
X0117141Y0043517D01*
X0117094Y0043505D01*
X0117048Y0043490D01*
X0117004Y0043471D01*
X0116961Y0043449D01*
X0116920Y0043423D01*
X0116882Y0043394D01*
X0116845Y0043362D01*
X0116812Y0043327D01*
X0116781Y0043289D01*
X0116754Y0043250D01*
X0116730Y0043208D01*
X0116709Y0043164D01*
X0116692Y0043119D01*
X0116678Y0043073D01*
X0116669Y0043025D01*
X0116663Y0042977D01*
X0116661Y0042929D01*
X0116661Y0042629D01*
X0115140Y0042779D02*
X0114390Y0042479D01*
X0114391Y0042479D02*
X0114356Y0042463D01*
X0114322Y0042444D01*
X0114291Y0042421D01*
X0114262Y0042395D01*
X0114236Y0042367D01*
X0114213Y0042336D01*
X0114193Y0042303D01*
X0114176Y0042269D01*
X0114163Y0042232D01*
X0114154Y0042195D01*
X0114148Y0042157D01*
X0114146Y0042118D01*
X0114148Y0042080D01*
X0114154Y0042042D01*
X0114163Y0042004D01*
X0114176Y0041968D01*
X0114193Y0041933D01*
X0114213Y0041900D01*
X0114236Y0041869D01*
X0114262Y0041841D01*
X0114291Y0041815D01*
X0114322Y0041793D01*
X0114355Y0041773D01*
X0114390Y0041757D01*
X0114426Y0041744D01*
X0114464Y0041736D01*
X0114502Y0041730D01*
X0114541Y0041729D01*
X0114315Y0043380D02*
X0114387Y0043410D01*
X0114459Y0043437D01*
X0114533Y0043460D01*
X0114608Y0043481D01*
X0114683Y0043497D01*
X0114759Y0043511D01*
X0114836Y0043521D01*
X0114913Y0043527D01*
X0114991Y0043530D01*
X0114990Y0043530D02*
X0115029Y0043529D01*
X0115067Y0043523D01*
X0115105Y0043515D01*
X0115141Y0043502D01*
X0115176Y0043486D01*
X0115209Y0043466D01*
X0115240Y0043444D01*
X0115269Y0043418D01*
X0115295Y0043390D01*
X0115318Y0043359D01*
X0115338Y0043326D01*
X0115355Y0043291D01*
X0115368Y0043255D01*
X0115377Y0043217D01*
X0115383Y0043179D01*
X0115385Y0043141D01*
X0115383Y0043102D01*
X0115377Y0043064D01*
X0115368Y0043027D01*
X0115355Y0042990D01*
X0115338Y0042956D01*
X0115318Y0042923D01*
X0115295Y0042892D01*
X0115269Y0042864D01*
X0115240Y0042838D01*
X0115209Y0042815D01*
X0115175Y0042796D01*
X0115140Y0042780D01*
X0112941Y0043529D02*
X0112941Y0041729D01*
X0111739Y0042179D02*
X0111739Y0043079D01*
X0111737Y0043121D01*
X0111731Y0043162D01*
X0111722Y0043202D01*
X0111709Y0043242D01*
X0111692Y0043280D01*
X0111672Y0043316D01*
X0111648Y0043350D01*
X0111622Y0043382D01*
X0111592Y0043412D01*
X0111560Y0043438D01*
X0111526Y0043462D01*
X0111490Y0043482D01*
X0111452Y0043499D01*
X0111412Y0043512D01*
X0111372Y0043521D01*
X0111331Y0043527D01*
X0111289Y0043529D01*
X0110539Y0043529D01*
X0110539Y0041279D01*
X0110541Y0041237D01*
X0110547Y0041196D01*
X0110556Y0041156D01*
X0110569Y0041116D01*
X0110586Y0041078D01*
X0110606Y0041042D01*
X0110630Y0041008D01*
X0110656Y0040976D01*
X0110686Y0040946D01*
X0110718Y0040920D01*
X0110752Y0040896D01*
X0110788Y0040876D01*
X0110826Y0040859D01*
X0110866Y0040846D01*
X0110906Y0040837D01*
X0110947Y0040831D01*
X0110989Y0040829D01*
X0111589Y0040829D01*
X0111429Y0039949D02*
X0111429Y0037249D01*
X0110229Y0037249D02*
X0110229Y0038599D01*
X0110231Y0038641D01*
X0110237Y0038682D01*
X0110246Y0038722D01*
X0110259Y0038762D01*
X0110276Y0038800D01*
X0110296Y0038836D01*
X0110320Y0038870D01*
X0110346Y0038902D01*
X0110376Y0038932D01*
X0110408Y0038958D01*
X0110442Y0038982D01*
X0110478Y0039002D01*
X0110516Y0039019D01*
X0110556Y0039032D01*
X0110596Y0039041D01*
X0110637Y0039047D01*
X0110679Y0039049D01*
X0111429Y0039049D01*
X0112718Y0039049D02*
X0113618Y0039049D01*
X0114345Y0039049D02*
X0114345Y0038749D01*
X0114345Y0039049D02*
X0115245Y0039049D01*
X0115245Y0037249D01*
X0116661Y0037849D02*
X0116661Y0038449D01*
X0116663Y0038497D01*
X0116669Y0038545D01*
X0116678Y0038593D01*
X0116692Y0038639D01*
X0116709Y0038684D01*
X0116730Y0038728D01*
X0116754Y0038770D01*
X0116781Y0038809D01*
X0116812Y0038847D01*
X0116845Y0038882D01*
X0116882Y0038914D01*
X0116920Y0038943D01*
X0116961Y0038969D01*
X0117004Y0038991D01*
X0117048Y0039010D01*
X0117094Y0039025D01*
X0117141Y0039037D01*
X0117189Y0039045D01*
X0117237Y0039049D01*
X0117285Y0039049D01*
X0117333Y0039045D01*
X0117381Y0039037D01*
X0117428Y0039025D01*
X0117474Y0039010D01*
X0117518Y0038991D01*
X0117561Y0038969D01*
X0117602Y0038943D01*
X0117640Y0038914D01*
X0117677Y0038882D01*
X0117710Y0038847D01*
X0117741Y0038809D01*
X0117768Y0038770D01*
X0117792Y0038728D01*
X0117813Y0038684D01*
X0117830Y0038639D01*
X0117844Y0038593D01*
X0117853Y0038545D01*
X0117859Y0038497D01*
X0117861Y0038449D01*
X0117861Y0037849D01*
X0117859Y0037801D01*
X0117853Y0037753D01*
X0117844Y0037705D01*
X0117830Y0037659D01*
X0117813Y0037614D01*
X0117792Y0037570D01*
X0117768Y0037528D01*
X0117741Y0037489D01*
X0117710Y0037451D01*
X0117677Y0037416D01*
X0117640Y0037384D01*
X0117602Y0037355D01*
X0117561Y0037329D01*
X0117518Y0037307D01*
X0117474Y0037288D01*
X0117428Y0037273D01*
X0117381Y0037261D01*
X0117333Y0037253D01*
X0117285Y0037249D01*
X0117237Y0037249D01*
X0117189Y0037253D01*
X0117141Y0037261D01*
X0117094Y0037273D01*
X0117048Y0037288D01*
X0117004Y0037307D01*
X0116961Y0037329D01*
X0116920Y0037355D01*
X0116882Y0037384D01*
X0116845Y0037416D01*
X0116812Y0037451D01*
X0116781Y0037489D01*
X0116754Y0037528D01*
X0116730Y0037570D01*
X0116709Y0037614D01*
X0116692Y0037659D01*
X0116678Y0037705D01*
X0116669Y0037753D01*
X0116663Y0037801D01*
X0116661Y0037849D01*
X0119295Y0037249D02*
X0119295Y0039949D01*
X0120795Y0039949D02*
X0119295Y0037249D01*
X0120795Y0037249D02*
X0120795Y0039949D01*
X0113318Y0039949D02*
X0113318Y0037699D01*
X0113316Y0037657D01*
X0113310Y0037616D01*
X0113301Y0037576D01*
X0113288Y0037536D01*
X0113271Y0037498D01*
X0113251Y0037462D01*
X0113227Y0037428D01*
X0113201Y0037396D01*
X0113171Y0037366D01*
X0113139Y0037340D01*
X0113105Y0037316D01*
X0113069Y0037296D01*
X0113031Y0037279D01*
X0112991Y0037266D01*
X0112951Y0037257D01*
X0112910Y0037251D01*
X0112868Y0037249D01*
X0112718Y0037249D01*
X0115170Y0035469D02*
X0115170Y0035319D01*
X0115320Y0035319D01*
X0115320Y0035469D01*
X0115170Y0035469D01*
X0115245Y0034569D02*
X0115245Y0032769D01*
X0116565Y0032769D02*
X0116565Y0034119D01*
X0116567Y0034161D01*
X0116573Y0034202D01*
X0116582Y0034242D01*
X0116595Y0034282D01*
X0116612Y0034320D01*
X0116632Y0034356D01*
X0116656Y0034390D01*
X0116682Y0034422D01*
X0116712Y0034452D01*
X0116744Y0034478D01*
X0116778Y0034502D01*
X0116814Y0034522D01*
X0116852Y0034539D01*
X0116892Y0034552D01*
X0116932Y0034561D01*
X0116973Y0034567D01*
X0117015Y0034569D01*
X0117765Y0034569D01*
X0117765Y0032769D01*
X0119295Y0033519D02*
X0119295Y0035469D01*
X0120795Y0035469D02*
X0120795Y0033519D01*
X0120793Y0033465D01*
X0120787Y0033412D01*
X0120778Y0033360D01*
X0120765Y0033308D01*
X0120748Y0033257D01*
X0120727Y0033207D01*
X0120703Y0033160D01*
X0120676Y0033114D01*
X0120645Y0033070D01*
X0120612Y0033028D01*
X0120575Y0032989D01*
X0120536Y0032952D01*
X0120494Y0032919D01*
X0120450Y0032888D01*
X0120404Y0032861D01*
X0120357Y0032837D01*
X0120307Y0032816D01*
X0120256Y0032799D01*
X0120204Y0032786D01*
X0120152Y0032777D01*
X0120099Y0032771D01*
X0120045Y0032769D01*
X0119991Y0032771D01*
X0119938Y0032777D01*
X0119886Y0032786D01*
X0119834Y0032799D01*
X0119783Y0032816D01*
X0119733Y0032837D01*
X0119686Y0032861D01*
X0119640Y0032888D01*
X0119596Y0032919D01*
X0119554Y0032952D01*
X0119515Y0032989D01*
X0119478Y0033028D01*
X0119445Y0033070D01*
X0119414Y0033114D01*
X0119387Y0033160D01*
X0119363Y0033207D01*
X0119342Y0033257D01*
X0119325Y0033308D01*
X0119312Y0033360D01*
X0119303Y0033412D01*
X0119297Y0033465D01*
X0119295Y0033519D01*
X0114117Y0034569D02*
X0113517Y0032769D01*
X0112917Y0034569D01*
X0111717Y0033969D02*
X0111717Y0033219D01*
X0111715Y0033177D01*
X0111709Y0033136D01*
X0111700Y0033096D01*
X0111687Y0033056D01*
X0111670Y0033018D01*
X0111650Y0032982D01*
X0111626Y0032948D01*
X0111600Y0032916D01*
X0111570Y0032886D01*
X0111538Y0032860D01*
X0111504Y0032836D01*
X0111468Y0032816D01*
X0111430Y0032799D01*
X0111390Y0032786D01*
X0111350Y0032777D01*
X0111309Y0032771D01*
X0111267Y0032769D01*
X0110517Y0032769D01*
X0110517Y0033669D02*
X0111717Y0033669D01*
X0111717Y0033969D02*
X0111715Y0034017D01*
X0111709Y0034065D01*
X0111700Y0034113D01*
X0111686Y0034159D01*
X0111669Y0034204D01*
X0111648Y0034248D01*
X0111624Y0034290D01*
X0111597Y0034329D01*
X0111566Y0034367D01*
X0111533Y0034402D01*
X0111496Y0034434D01*
X0111458Y0034463D01*
X0111417Y0034489D01*
X0111374Y0034511D01*
X0111330Y0034530D01*
X0111284Y0034545D01*
X0111237Y0034557D01*
X0111189Y0034565D01*
X0111141Y0034569D01*
X0111093Y0034569D01*
X0111045Y0034565D01*
X0110997Y0034557D01*
X0110950Y0034545D01*
X0110904Y0034530D01*
X0110860Y0034511D01*
X0110817Y0034489D01*
X0110776Y0034463D01*
X0110738Y0034434D01*
X0110701Y0034402D01*
X0110668Y0034367D01*
X0110637Y0034329D01*
X0110610Y0034290D01*
X0110586Y0034248D01*
X0110565Y0034204D01*
X0110548Y0034159D01*
X0110534Y0034113D01*
X0110525Y0034065D01*
X0110519Y0034017D01*
X0110517Y0033969D01*
X0110517Y0033669D01*
X0109101Y0032769D02*
X0109101Y0034569D01*
X0108201Y0034569D01*
X0108201Y0034269D01*
X0106980Y0033819D02*
X0106230Y0033519D01*
X0106231Y0033519D02*
X0106196Y0033503D01*
X0106162Y0033484D01*
X0106131Y0033461D01*
X0106102Y0033435D01*
X0106076Y0033407D01*
X0106053Y0033376D01*
X0106033Y0033343D01*
X0106016Y0033309D01*
X0106003Y0033272D01*
X0105994Y0033235D01*
X0105988Y0033197D01*
X0105986Y0033158D01*
X0105988Y0033120D01*
X0105994Y0033082D01*
X0106003Y0033044D01*
X0106016Y0033008D01*
X0106033Y0032973D01*
X0106053Y0032940D01*
X0106076Y0032909D01*
X0106102Y0032881D01*
X0106131Y0032855D01*
X0106162Y0032833D01*
X0106195Y0032813D01*
X0106230Y0032797D01*
X0106266Y0032784D01*
X0106304Y0032776D01*
X0106342Y0032770D01*
X0106381Y0032769D01*
X0106155Y0034420D02*
X0106227Y0034450D01*
X0106299Y0034477D01*
X0106373Y0034500D01*
X0106448Y0034521D01*
X0106523Y0034537D01*
X0106599Y0034551D01*
X0106676Y0034561D01*
X0106753Y0034567D01*
X0106831Y0034570D01*
X0106830Y0034570D02*
X0106869Y0034569D01*
X0106907Y0034563D01*
X0106945Y0034555D01*
X0106981Y0034542D01*
X0107016Y0034526D01*
X0107049Y0034506D01*
X0107080Y0034484D01*
X0107109Y0034458D01*
X0107135Y0034430D01*
X0107158Y0034399D01*
X0107178Y0034366D01*
X0107195Y0034331D01*
X0107208Y0034295D01*
X0107217Y0034257D01*
X0107223Y0034219D01*
X0107225Y0034181D01*
X0107223Y0034142D01*
X0107217Y0034104D01*
X0107208Y0034067D01*
X0107195Y0034030D01*
X0107178Y0033996D01*
X0107158Y0033963D01*
X0107135Y0033932D01*
X0107109Y0033904D01*
X0107080Y0033878D01*
X0107049Y0033855D01*
X0107015Y0033836D01*
X0106980Y0033820D01*
X0107205Y0032919D02*
X0107117Y0032889D01*
X0107027Y0032862D01*
X0106936Y0032839D01*
X0106845Y0032819D01*
X0106753Y0032802D01*
X0106660Y0032789D01*
X0106567Y0032779D01*
X0106474Y0032772D01*
X0106380Y0032769D01*
X0104781Y0032769D02*
X0104781Y0034569D01*
X0104706Y0035319D02*
X0104856Y0035319D01*
X0104856Y0035469D01*
X0104706Y0035469D01*
X0104706Y0035319D01*
X0103826Y0034569D02*
X0102926Y0034569D01*
X0103526Y0035469D02*
X0103526Y0033219D01*
X0103524Y0033177D01*
X0103518Y0033136D01*
X0103509Y0033096D01*
X0103496Y0033056D01*
X0103479Y0033018D01*
X0103459Y0032982D01*
X0103435Y0032948D01*
X0103409Y0032916D01*
X0103379Y0032886D01*
X0103347Y0032860D01*
X0103313Y0032836D01*
X0103277Y0032816D01*
X0103239Y0032799D01*
X0103199Y0032786D01*
X0103159Y0032777D01*
X0103118Y0032771D01*
X0103076Y0032769D01*
X0102926Y0032769D01*
X0101829Y0031869D02*
X0101529Y0031869D01*
X0100629Y0034569D01*
X0101829Y0034569D02*
X0101229Y0032769D01*
X0103029Y0037249D02*
X0103029Y0038599D01*
X0103031Y0038641D01*
X0103037Y0038682D01*
X0103046Y0038722D01*
X0103059Y0038762D01*
X0103076Y0038800D01*
X0103096Y0038836D01*
X0103120Y0038870D01*
X0103146Y0038902D01*
X0103176Y0038932D01*
X0103208Y0038958D01*
X0103242Y0038982D01*
X0103278Y0039002D01*
X0103316Y0039019D01*
X0103356Y0039032D01*
X0103396Y0039041D01*
X0103437Y0039047D01*
X0103479Y0039049D01*
X0104229Y0039049D01*
X0104229Y0037249D01*
X0106221Y0037249D02*
X0106221Y0039049D01*
X0105321Y0039049D01*
X0105321Y0038749D01*
X0107637Y0038449D02*
X0107637Y0038149D01*
X0108837Y0038149D01*
X0108837Y0038449D02*
X0108837Y0037699D01*
X0108835Y0037657D01*
X0108829Y0037616D01*
X0108820Y0037576D01*
X0108807Y0037536D01*
X0108790Y0037498D01*
X0108770Y0037462D01*
X0108746Y0037428D01*
X0108720Y0037396D01*
X0108690Y0037366D01*
X0108658Y0037340D01*
X0108624Y0037316D01*
X0108588Y0037296D01*
X0108550Y0037279D01*
X0108510Y0037266D01*
X0108470Y0037257D01*
X0108429Y0037251D01*
X0108387Y0037249D01*
X0107637Y0037249D01*
X0107637Y0038449D02*
X0107639Y0038497D01*
X0107645Y0038545D01*
X0107654Y0038593D01*
X0107668Y0038639D01*
X0107685Y0038684D01*
X0107706Y0038728D01*
X0107730Y0038770D01*
X0107757Y0038809D01*
X0107788Y0038847D01*
X0107821Y0038882D01*
X0107858Y0038914D01*
X0107896Y0038943D01*
X0107937Y0038969D01*
X0107980Y0038991D01*
X0108024Y0039010D01*
X0108070Y0039025D01*
X0108117Y0039037D01*
X0108165Y0039045D01*
X0108213Y0039049D01*
X0108261Y0039049D01*
X0108309Y0039045D01*
X0108357Y0039037D01*
X0108404Y0039025D01*
X0108450Y0039010D01*
X0108494Y0038991D01*
X0108537Y0038969D01*
X0108578Y0038943D01*
X0108616Y0038914D01*
X0108653Y0038882D01*
X0108686Y0038847D01*
X0108717Y0038809D01*
X0108744Y0038770D01*
X0108768Y0038728D01*
X0108789Y0038684D01*
X0108806Y0038639D01*
X0108820Y0038593D01*
X0108829Y0038545D01*
X0108835Y0038497D01*
X0108837Y0038449D01*
X0109029Y0041729D02*
X0109029Y0043529D01*
X0108279Y0043529D01*
X0108237Y0043527D01*
X0108196Y0043521D01*
X0108156Y0043512D01*
X0108116Y0043499D01*
X0108078Y0043482D01*
X0108042Y0043462D01*
X0108008Y0043438D01*
X0107976Y0043412D01*
X0107946Y0043382D01*
X0107920Y0043350D01*
X0107896Y0043316D01*
X0107876Y0043280D01*
X0107859Y0043242D01*
X0107846Y0043202D01*
X0107837Y0043162D01*
X0107831Y0043121D01*
X0107829Y0043079D01*
X0107829Y0041729D01*
X0106437Y0042179D02*
X0106437Y0042929D01*
X0106437Y0042629D02*
X0105237Y0042629D01*
X0105237Y0042929D01*
X0105239Y0042977D01*
X0105245Y0043025D01*
X0105254Y0043073D01*
X0105268Y0043119D01*
X0105285Y0043164D01*
X0105306Y0043208D01*
X0105330Y0043250D01*
X0105357Y0043289D01*
X0105388Y0043327D01*
X0105421Y0043362D01*
X0105458Y0043394D01*
X0105496Y0043423D01*
X0105537Y0043449D01*
X0105580Y0043471D01*
X0105624Y0043490D01*
X0105670Y0043505D01*
X0105717Y0043517D01*
X0105765Y0043525D01*
X0105813Y0043529D01*
X0105861Y0043529D01*
X0105909Y0043525D01*
X0105957Y0043517D01*
X0106004Y0043505D01*
X0106050Y0043490D01*
X0106094Y0043471D01*
X0106137Y0043449D01*
X0106178Y0043423D01*
X0106216Y0043394D01*
X0106253Y0043362D01*
X0106286Y0043327D01*
X0106317Y0043289D01*
X0106344Y0043250D01*
X0106368Y0043208D01*
X0106389Y0043164D01*
X0106406Y0043119D01*
X0106420Y0043073D01*
X0106429Y0043025D01*
X0106435Y0042977D01*
X0106437Y0042929D01*
X0106437Y0042179D02*
X0106435Y0042137D01*
X0106429Y0042096D01*
X0106420Y0042056D01*
X0106407Y0042016D01*
X0106390Y0041978D01*
X0106370Y0041942D01*
X0106346Y0041908D01*
X0106320Y0041876D01*
X0106290Y0041846D01*
X0106258Y0041820D01*
X0106224Y0041796D01*
X0106188Y0041776D01*
X0106150Y0041759D01*
X0106110Y0041746D01*
X0106070Y0041737D01*
X0106029Y0041731D01*
X0105987Y0041729D01*
X0105237Y0041729D01*
X0103963Y0042179D02*
X0103963Y0043079D01*
X0103961Y0043121D01*
X0103955Y0043162D01*
X0103946Y0043202D01*
X0103933Y0043242D01*
X0103916Y0043280D01*
X0103896Y0043316D01*
X0103872Y0043350D01*
X0103846Y0043382D01*
X0103816Y0043412D01*
X0103784Y0043438D01*
X0103750Y0043462D01*
X0103714Y0043482D01*
X0103676Y0043499D01*
X0103636Y0043512D01*
X0103596Y0043521D01*
X0103555Y0043527D01*
X0103513Y0043529D01*
X0102763Y0043529D01*
X0102763Y0044429D02*
X0102763Y0041729D01*
X0103513Y0041729D01*
X0103555Y0041731D01*
X0103596Y0041737D01*
X0103636Y0041746D01*
X0103676Y0041759D01*
X0103714Y0041776D01*
X0103750Y0041796D01*
X0103784Y0041820D01*
X0103816Y0041846D01*
X0103846Y0041876D01*
X0103872Y0041908D01*
X0103896Y0041942D01*
X0103916Y0041978D01*
X0103933Y0042016D01*
X0103946Y0042056D01*
X0103955Y0042096D01*
X0103961Y0042137D01*
X0103963Y0042179D01*
X0110539Y0041729D02*
X0111289Y0041729D01*
X0111331Y0041731D01*
X0111372Y0041737D01*
X0111412Y0041746D01*
X0111452Y0041759D01*
X0111490Y0041776D01*
X0111526Y0041796D01*
X0111560Y0041820D01*
X0111592Y0041846D01*
X0111622Y0041876D01*
X0111648Y0041908D01*
X0111672Y0041942D01*
X0111692Y0041978D01*
X0111709Y0042016D01*
X0111722Y0042056D01*
X0111731Y0042096D01*
X0111737Y0042137D01*
X0111739Y0042179D01*
X0112866Y0044279D02*
X0113016Y0044279D01*
X0113016Y0044429D01*
X0112866Y0044429D01*
X0112866Y0044279D01*
X0114540Y0041729D02*
X0114634Y0041732D01*
X0114727Y0041739D01*
X0114820Y0041749D01*
X0114913Y0041762D01*
X0115005Y0041779D01*
X0115096Y0041799D01*
X0115187Y0041822D01*
X0115277Y0041849D01*
X0115365Y0041879D01*
X0115053Y0050689D02*
X0115053Y0052489D01*
X0114978Y0053239D02*
X0115128Y0053239D01*
X0115128Y0053389D01*
X0114978Y0053389D01*
X0114978Y0053239D01*
X0114098Y0052489D02*
X0113198Y0052489D01*
X0113798Y0053389D02*
X0113798Y0051139D01*
X0113796Y0051097D01*
X0113790Y0051056D01*
X0113781Y0051016D01*
X0113768Y0050976D01*
X0113751Y0050938D01*
X0113731Y0050902D01*
X0113707Y0050868D01*
X0113681Y0050836D01*
X0113651Y0050806D01*
X0113619Y0050780D01*
X0113585Y0050756D01*
X0113549Y0050736D01*
X0113511Y0050719D01*
X0113471Y0050706D01*
X0113431Y0050697D01*
X0113390Y0050691D01*
X0113348Y0050689D01*
X0113198Y0050689D01*
X0112000Y0051139D02*
X0112000Y0052039D01*
X0111998Y0052081D01*
X0111992Y0052122D01*
X0111983Y0052162D01*
X0111970Y0052202D01*
X0111953Y0052240D01*
X0111933Y0052276D01*
X0111909Y0052310D01*
X0111883Y0052342D01*
X0111853Y0052372D01*
X0111821Y0052398D01*
X0111787Y0052422D01*
X0111751Y0052442D01*
X0111713Y0052459D01*
X0111673Y0052472D01*
X0111633Y0052481D01*
X0111592Y0052487D01*
X0111550Y0052489D01*
X0110950Y0052489D01*
X0109701Y0052489D02*
X0108951Y0052489D01*
X0108909Y0052487D01*
X0108868Y0052481D01*
X0108828Y0052472D01*
X0108788Y0052459D01*
X0108750Y0052442D01*
X0108714Y0052422D01*
X0108680Y0052398D01*
X0108648Y0052372D01*
X0108618Y0052342D01*
X0108592Y0052310D01*
X0108568Y0052276D01*
X0108548Y0052240D01*
X0108531Y0052202D01*
X0108518Y0052162D01*
X0108509Y0052122D01*
X0108503Y0052081D01*
X0108501Y0052039D01*
X0108501Y0050689D01*
X0109701Y0050689D02*
X0109701Y0053389D01*
X0112000Y0051139D02*
X0111998Y0051097D01*
X0111992Y0051056D01*
X0111983Y0051016D01*
X0111970Y0050976D01*
X0111953Y0050938D01*
X0111933Y0050902D01*
X0111909Y0050868D01*
X0111883Y0050836D01*
X0111853Y0050806D01*
X0111821Y0050780D01*
X0111787Y0050756D01*
X0111751Y0050736D01*
X0111713Y0050719D01*
X0111673Y0050706D01*
X0111633Y0050697D01*
X0111592Y0050691D01*
X0111550Y0050689D01*
X0110950Y0050689D01*
X0116265Y0052489D02*
X0116715Y0050689D01*
X0117165Y0051889D01*
X0117615Y0050689D01*
X0118065Y0052489D01*
X0119595Y0051814D02*
X0120420Y0052264D01*
X0120120Y0053389D02*
X0120054Y0053387D01*
X0119989Y0053381D01*
X0119924Y0053372D01*
X0119859Y0053358D01*
X0119796Y0053341D01*
X0119733Y0053320D01*
X0119672Y0053296D01*
X0119613Y0053268D01*
X0119555Y0053237D01*
X0119499Y0053202D01*
X0119445Y0053164D01*
X0120420Y0052264D02*
X0120461Y0052291D01*
X0120500Y0052320D01*
X0120536Y0052353D01*
X0120569Y0052388D01*
X0120600Y0052426D01*
X0120627Y0052466D01*
X0120651Y0052508D01*
X0120672Y0052552D01*
X0120689Y0052598D01*
X0120703Y0052644D01*
X0120712Y0052692D01*
X0120718Y0052740D01*
X0120720Y0052789D01*
X0120718Y0052836D01*
X0120713Y0052883D01*
X0120703Y0052929D01*
X0120691Y0052974D01*
X0120674Y0053019D01*
X0120655Y0053061D01*
X0120632Y0053102D01*
X0120605Y0053142D01*
X0120576Y0053179D01*
X0120544Y0053213D01*
X0120510Y0053245D01*
X0120473Y0053274D01*
X0120433Y0053301D01*
X0120392Y0053324D01*
X0120350Y0053343D01*
X0120305Y0053360D01*
X0120260Y0053372D01*
X0120214Y0053382D01*
X0120167Y0053387D01*
X0120120Y0053389D01*
X0120795Y0051065D02*
X0120746Y0051019D01*
X0120696Y0050975D01*
X0120643Y0050934D01*
X0120588Y0050897D01*
X0120532Y0050862D01*
X0120473Y0050830D01*
X0120413Y0050801D01*
X0120351Y0050775D01*
X0120289Y0050753D01*
X0120225Y0050734D01*
X0120160Y0050718D01*
X0120094Y0050706D01*
X0120028Y0050697D01*
X0119962Y0050692D01*
X0119895Y0050690D01*
X0119895Y0050689D02*
X0119848Y0050691D01*
X0119801Y0050696D01*
X0119755Y0050706D01*
X0119710Y0050718D01*
X0119665Y0050735D01*
X0119623Y0050754D01*
X0119582Y0050777D01*
X0119542Y0050804D01*
X0119505Y0050833D01*
X0119471Y0050865D01*
X0119439Y0050899D01*
X0119410Y0050936D01*
X0119383Y0050976D01*
X0119360Y0051017D01*
X0119341Y0051059D01*
X0119324Y0051104D01*
X0119312Y0051149D01*
X0119302Y0051195D01*
X0119297Y0051242D01*
X0119295Y0051289D01*
X0119296Y0051289D02*
X0119298Y0051338D01*
X0119304Y0051386D01*
X0119313Y0051434D01*
X0119327Y0051480D01*
X0119344Y0051526D01*
X0119365Y0051570D01*
X0119389Y0051612D01*
X0119416Y0051652D01*
X0119447Y0051690D01*
X0119480Y0051725D01*
X0119516Y0051758D01*
X0119555Y0051787D01*
X0119596Y0051814D01*
X0120795Y0055169D02*
X0120795Y0057869D01*
X0120045Y0057869D01*
X0119991Y0057867D01*
X0119938Y0057861D01*
X0119886Y0057852D01*
X0119834Y0057839D01*
X0119783Y0057822D01*
X0119733Y0057801D01*
X0119686Y0057777D01*
X0119640Y0057750D01*
X0119596Y0057719D01*
X0119554Y0057686D01*
X0119515Y0057649D01*
X0119478Y0057610D01*
X0119445Y0057568D01*
X0119414Y0057524D01*
X0119387Y0057478D01*
X0119363Y0057431D01*
X0119342Y0057381D01*
X0119325Y0057330D01*
X0119312Y0057278D01*
X0119303Y0057226D01*
X0119297Y0057173D01*
X0119295Y0057119D01*
X0119297Y0057065D01*
X0119303Y0057012D01*
X0119312Y0056960D01*
X0119325Y0056908D01*
X0119342Y0056857D01*
X0119363Y0056807D01*
X0119387Y0056760D01*
X0119414Y0056714D01*
X0119445Y0056670D01*
X0119478Y0056628D01*
X0119515Y0056589D01*
X0119554Y0056552D01*
X0119596Y0056519D01*
X0119640Y0056488D01*
X0119686Y0056461D01*
X0119733Y0056437D01*
X0119783Y0056416D01*
X0119834Y0056399D01*
X0119886Y0056386D01*
X0119938Y0056377D01*
X0119991Y0056371D01*
X0120045Y0056369D01*
X0120795Y0056369D01*
X0117996Y0056969D02*
X0117996Y0055169D01*
X0117096Y0056669D02*
X0117096Y0056969D01*
X0117996Y0056969D01*
X0116100Y0056369D02*
X0116100Y0055769D01*
X0116098Y0055721D01*
X0116092Y0055673D01*
X0116083Y0055625D01*
X0116069Y0055579D01*
X0116052Y0055534D01*
X0116031Y0055490D01*
X0116007Y0055448D01*
X0115980Y0055409D01*
X0115949Y0055371D01*
X0115916Y0055336D01*
X0115879Y0055304D01*
X0115841Y0055275D01*
X0115800Y0055249D01*
X0115757Y0055227D01*
X0115713Y0055208D01*
X0115667Y0055193D01*
X0115620Y0055181D01*
X0115572Y0055173D01*
X0115524Y0055169D01*
X0115476Y0055169D01*
X0115428Y0055173D01*
X0115380Y0055181D01*
X0115333Y0055193D01*
X0115287Y0055208D01*
X0115243Y0055227D01*
X0115200Y0055249D01*
X0115159Y0055275D01*
X0115121Y0055304D01*
X0115084Y0055336D01*
X0115051Y0055371D01*
X0115020Y0055409D01*
X0114993Y0055448D01*
X0114969Y0055490D01*
X0114948Y0055534D01*
X0114931Y0055579D01*
X0114917Y0055625D01*
X0114908Y0055673D01*
X0114902Y0055721D01*
X0114900Y0055769D01*
X0114900Y0056369D01*
X0114902Y0056417D01*
X0114908Y0056465D01*
X0114917Y0056513D01*
X0114931Y0056559D01*
X0114948Y0056604D01*
X0114969Y0056648D01*
X0114993Y0056690D01*
X0115020Y0056729D01*
X0115051Y0056767D01*
X0115084Y0056802D01*
X0115121Y0056834D01*
X0115159Y0056863D01*
X0115200Y0056889D01*
X0115243Y0056911D01*
X0115287Y0056930D01*
X0115333Y0056945D01*
X0115380Y0056957D01*
X0115428Y0056965D01*
X0115476Y0056969D01*
X0115524Y0056969D01*
X0115572Y0056965D01*
X0115620Y0056957D01*
X0115667Y0056945D01*
X0115713Y0056930D01*
X0115757Y0056911D01*
X0115800Y0056889D01*
X0115841Y0056863D01*
X0115879Y0056834D01*
X0115916Y0056802D01*
X0115949Y0056767D01*
X0115980Y0056729D01*
X0116007Y0056690D01*
X0116031Y0056648D01*
X0116052Y0056604D01*
X0116069Y0056559D01*
X0116083Y0056513D01*
X0116092Y0056465D01*
X0116098Y0056417D01*
X0116100Y0056369D01*
X0113750Y0056969D02*
X0113750Y0054719D01*
X0113752Y0054677D01*
X0113758Y0054636D01*
X0113767Y0054596D01*
X0113780Y0054556D01*
X0113797Y0054518D01*
X0113817Y0054482D01*
X0113841Y0054448D01*
X0113867Y0054416D01*
X0113897Y0054386D01*
X0113929Y0054360D01*
X0113963Y0054336D01*
X0113999Y0054316D01*
X0114037Y0054299D01*
X0114077Y0054286D01*
X0114117Y0054277D01*
X0114158Y0054271D01*
X0114200Y0054269D01*
X0114350Y0054269D01*
X0112452Y0055619D02*
X0112452Y0056369D01*
X0112452Y0056069D02*
X0111252Y0056069D01*
X0111252Y0056369D01*
X0111254Y0056417D01*
X0111260Y0056465D01*
X0111269Y0056513D01*
X0111283Y0056559D01*
X0111300Y0056604D01*
X0111321Y0056648D01*
X0111345Y0056690D01*
X0111372Y0056729D01*
X0111403Y0056767D01*
X0111436Y0056802D01*
X0111473Y0056834D01*
X0111511Y0056863D01*
X0111552Y0056889D01*
X0111595Y0056911D01*
X0111639Y0056930D01*
X0111685Y0056945D01*
X0111732Y0056957D01*
X0111780Y0056965D01*
X0111828Y0056969D01*
X0111876Y0056969D01*
X0111924Y0056965D01*
X0111972Y0056957D01*
X0112019Y0056945D01*
X0112065Y0056930D01*
X0112109Y0056911D01*
X0112152Y0056889D01*
X0112193Y0056863D01*
X0112231Y0056834D01*
X0112268Y0056802D01*
X0112301Y0056767D01*
X0112332Y0056729D01*
X0112359Y0056690D01*
X0112383Y0056648D01*
X0112404Y0056604D01*
X0112421Y0056559D01*
X0112435Y0056513D01*
X0112444Y0056465D01*
X0112450Y0056417D01*
X0112452Y0056369D01*
X0112452Y0055619D02*
X0112450Y0055577D01*
X0112444Y0055536D01*
X0112435Y0055496D01*
X0112422Y0055456D01*
X0112405Y0055418D01*
X0112385Y0055382D01*
X0112361Y0055348D01*
X0112335Y0055316D01*
X0112305Y0055286D01*
X0112273Y0055260D01*
X0112239Y0055236D01*
X0112203Y0055216D01*
X0112165Y0055199D01*
X0112125Y0055186D01*
X0112085Y0055177D01*
X0112044Y0055171D01*
X0112002Y0055169D01*
X0111252Y0055169D01*
X0109951Y0055619D02*
X0109951Y0056519D01*
X0109949Y0056561D01*
X0109943Y0056602D01*
X0109934Y0056642D01*
X0109921Y0056682D01*
X0109904Y0056720D01*
X0109884Y0056756D01*
X0109860Y0056790D01*
X0109834Y0056822D01*
X0109804Y0056852D01*
X0109772Y0056878D01*
X0109738Y0056902D01*
X0109702Y0056922D01*
X0109664Y0056939D01*
X0109624Y0056952D01*
X0109584Y0056961D01*
X0109543Y0056967D01*
X0109501Y0056969D01*
X0108901Y0056969D01*
X0108017Y0056969D02*
X0107117Y0056969D01*
X0107717Y0057869D02*
X0107717Y0055619D01*
X0107715Y0055577D01*
X0107709Y0055536D01*
X0107700Y0055496D01*
X0107687Y0055456D01*
X0107670Y0055418D01*
X0107650Y0055382D01*
X0107626Y0055348D01*
X0107600Y0055316D01*
X0107570Y0055286D01*
X0107538Y0055260D01*
X0107504Y0055236D01*
X0107468Y0055216D01*
X0107430Y0055199D01*
X0107390Y0055186D01*
X0107350Y0055177D01*
X0107309Y0055171D01*
X0107267Y0055169D01*
X0107117Y0055169D01*
X0108901Y0055169D02*
X0109501Y0055169D01*
X0109543Y0055171D01*
X0109584Y0055177D01*
X0109624Y0055186D01*
X0109664Y0055199D01*
X0109702Y0055216D01*
X0109738Y0055236D01*
X0109772Y0055260D01*
X0109804Y0055286D01*
X0109834Y0055316D01*
X0109860Y0055348D01*
X0109884Y0055382D01*
X0109904Y0055418D01*
X0109921Y0055456D01*
X0109934Y0055496D01*
X0109943Y0055536D01*
X0109949Y0055577D01*
X0109951Y0055619D01*
X0113675Y0057719D02*
X0113825Y0057719D01*
X0113825Y0057869D01*
X0113675Y0057869D01*
X0113675Y0057719D01*
X0104250Y0057869D02*
X0104250Y0055169D01*
X0102750Y0055169D02*
X0102750Y0057869D01*
X0102750Y0056669D02*
X0104250Y0056669D01*
X0101316Y0056369D02*
X0101316Y0055619D01*
X0101314Y0055577D01*
X0101308Y0055536D01*
X0101299Y0055496D01*
X0101286Y0055456D01*
X0101269Y0055418D01*
X0101249Y0055382D01*
X0101225Y0055348D01*
X0101199Y0055316D01*
X0101169Y0055286D01*
X0101137Y0055260D01*
X0101103Y0055236D01*
X0101067Y0055216D01*
X0101029Y0055199D01*
X0100989Y0055186D01*
X0100949Y0055177D01*
X0100908Y0055171D01*
X0100866Y0055169D01*
X0100116Y0055169D01*
X0100116Y0056069D02*
X0101316Y0056069D01*
X0101316Y0056369D02*
X0101314Y0056417D01*
X0101308Y0056465D01*
X0101299Y0056513D01*
X0101285Y0056559D01*
X0101268Y0056604D01*
X0101247Y0056648D01*
X0101223Y0056690D01*
X0101196Y0056729D01*
X0101165Y0056767D01*
X0101132Y0056802D01*
X0101095Y0056834D01*
X0101057Y0056863D01*
X0101016Y0056889D01*
X0100973Y0056911D01*
X0100929Y0056930D01*
X0100883Y0056945D01*
X0100836Y0056957D01*
X0100788Y0056965D01*
X0100740Y0056969D01*
X0100692Y0056969D01*
X0100644Y0056965D01*
X0100596Y0056957D01*
X0100549Y0056945D01*
X0100503Y0056930D01*
X0100459Y0056911D01*
X0100416Y0056889D01*
X0100375Y0056863D01*
X0100337Y0056834D01*
X0100300Y0056802D01*
X0100267Y0056767D01*
X0100236Y0056729D01*
X0100209Y0056690D01*
X0100185Y0056648D01*
X0100164Y0056604D01*
X0100147Y0056559D01*
X0100133Y0056513D01*
X0100124Y0056465D01*
X0100118Y0056417D01*
X0100116Y0056369D01*
X0100116Y0056069D01*
X0098702Y0055169D02*
X0097952Y0055169D01*
X0097910Y0055171D01*
X0097869Y0055177D01*
X0097829Y0055186D01*
X0097789Y0055199D01*
X0097751Y0055216D01*
X0097715Y0055236D01*
X0097681Y0055260D01*
X0097649Y0055286D01*
X0097619Y0055316D01*
X0097593Y0055348D01*
X0097569Y0055382D01*
X0097549Y0055418D01*
X0097532Y0055456D01*
X0097519Y0055496D01*
X0097510Y0055536D01*
X0097504Y0055577D01*
X0097502Y0055619D01*
X0097502Y0056519D01*
X0097504Y0056561D01*
X0097510Y0056602D01*
X0097519Y0056642D01*
X0097532Y0056682D01*
X0097549Y0056720D01*
X0097569Y0056756D01*
X0097593Y0056790D01*
X0097619Y0056822D01*
X0097649Y0056852D01*
X0097681Y0056878D01*
X0097715Y0056902D01*
X0097751Y0056922D01*
X0097789Y0056939D01*
X0097829Y0056952D01*
X0097869Y0056961D01*
X0097910Y0056967D01*
X0097952Y0056969D01*
X0098702Y0056969D01*
X0098702Y0054269D01*
X0096197Y0055619D02*
X0096197Y0057869D01*
X0096497Y0056969D02*
X0095597Y0056969D01*
X0094276Y0056969D02*
X0093676Y0056969D01*
X0093634Y0056967D01*
X0093593Y0056961D01*
X0093553Y0056952D01*
X0093513Y0056939D01*
X0093475Y0056922D01*
X0093439Y0056902D01*
X0093405Y0056878D01*
X0093373Y0056852D01*
X0093343Y0056822D01*
X0093317Y0056790D01*
X0093293Y0056756D01*
X0093273Y0056720D01*
X0093256Y0056682D01*
X0093243Y0056642D01*
X0093234Y0056602D01*
X0093228Y0056561D01*
X0093226Y0056519D01*
X0093226Y0055169D01*
X0093901Y0055169D01*
X0093946Y0055171D01*
X0093990Y0055177D01*
X0094033Y0055186D01*
X0094076Y0055199D01*
X0094117Y0055216D01*
X0094157Y0055236D01*
X0094195Y0055259D01*
X0094231Y0055286D01*
X0094264Y0055315D01*
X0094295Y0055347D01*
X0094323Y0055382D01*
X0094348Y0055419D01*
X0094370Y0055458D01*
X0094388Y0055498D01*
X0094403Y0055540D01*
X0094414Y0055583D01*
X0094422Y0055627D01*
X0094426Y0055672D01*
X0094426Y0055716D01*
X0094422Y0055761D01*
X0094414Y0055805D01*
X0094403Y0055848D01*
X0094388Y0055890D01*
X0094370Y0055930D01*
X0094348Y0055969D01*
X0094323Y0056006D01*
X0094295Y0056041D01*
X0094264Y0056073D01*
X0094231Y0056102D01*
X0094195Y0056129D01*
X0094157Y0056152D01*
X0094117Y0056172D01*
X0094076Y0056189D01*
X0094033Y0056202D01*
X0093990Y0056211D01*
X0093946Y0056217D01*
X0093901Y0056219D01*
X0093226Y0056219D01*
X0091695Y0056969D02*
X0090945Y0056969D01*
X0090903Y0056967D01*
X0090862Y0056961D01*
X0090822Y0056952D01*
X0090782Y0056939D01*
X0090744Y0056922D01*
X0090708Y0056902D01*
X0090674Y0056878D01*
X0090642Y0056852D01*
X0090612Y0056822D01*
X0090586Y0056790D01*
X0090562Y0056756D01*
X0090542Y0056720D01*
X0090525Y0056682D01*
X0090512Y0056642D01*
X0090503Y0056602D01*
X0090497Y0056561D01*
X0090495Y0056519D01*
X0090495Y0055619D01*
X0090497Y0055577D01*
X0090503Y0055536D01*
X0090512Y0055496D01*
X0090525Y0055456D01*
X0090542Y0055418D01*
X0090562Y0055382D01*
X0090586Y0055348D01*
X0090612Y0055316D01*
X0090642Y0055286D01*
X0090674Y0055260D01*
X0090708Y0055236D01*
X0090744Y0055216D01*
X0090782Y0055199D01*
X0090822Y0055186D01*
X0090862Y0055177D01*
X0090903Y0055171D01*
X0090945Y0055169D01*
X0091695Y0055169D01*
X0091695Y0054269D02*
X0091695Y0056969D01*
X0089220Y0056369D02*
X0089220Y0055769D01*
X0089218Y0055721D01*
X0089212Y0055673D01*
X0089203Y0055625D01*
X0089189Y0055579D01*
X0089172Y0055534D01*
X0089151Y0055490D01*
X0089127Y0055448D01*
X0089100Y0055409D01*
X0089069Y0055371D01*
X0089036Y0055336D01*
X0088999Y0055304D01*
X0088961Y0055275D01*
X0088920Y0055249D01*
X0088877Y0055227D01*
X0088833Y0055208D01*
X0088787Y0055193D01*
X0088740Y0055181D01*
X0088692Y0055173D01*
X0088644Y0055169D01*
X0088596Y0055169D01*
X0088548Y0055173D01*
X0088500Y0055181D01*
X0088453Y0055193D01*
X0088407Y0055208D01*
X0088363Y0055227D01*
X0088320Y0055249D01*
X0088279Y0055275D01*
X0088241Y0055304D01*
X0088204Y0055336D01*
X0088171Y0055371D01*
X0088140Y0055409D01*
X0088113Y0055448D01*
X0088089Y0055490D01*
X0088068Y0055534D01*
X0088051Y0055579D01*
X0088037Y0055625D01*
X0088028Y0055673D01*
X0088022Y0055721D01*
X0088020Y0055769D01*
X0088020Y0056369D01*
X0088022Y0056417D01*
X0088028Y0056465D01*
X0088037Y0056513D01*
X0088051Y0056559D01*
X0088068Y0056604D01*
X0088089Y0056648D01*
X0088113Y0056690D01*
X0088140Y0056729D01*
X0088171Y0056767D01*
X0088204Y0056802D01*
X0088241Y0056834D01*
X0088279Y0056863D01*
X0088320Y0056889D01*
X0088363Y0056911D01*
X0088407Y0056930D01*
X0088453Y0056945D01*
X0088500Y0056957D01*
X0088548Y0056965D01*
X0088596Y0056969D01*
X0088644Y0056969D01*
X0088692Y0056965D01*
X0088740Y0056957D01*
X0088787Y0056945D01*
X0088833Y0056930D01*
X0088877Y0056911D01*
X0088920Y0056889D01*
X0088961Y0056863D01*
X0088999Y0056834D01*
X0089036Y0056802D01*
X0089069Y0056767D01*
X0089100Y0056729D01*
X0089127Y0056690D01*
X0089151Y0056648D01*
X0089172Y0056604D01*
X0089189Y0056559D01*
X0089203Y0056513D01*
X0089212Y0056465D01*
X0089218Y0056417D01*
X0089220Y0056369D01*
X0086746Y0056519D02*
X0086746Y0055619D01*
X0086744Y0055577D01*
X0086738Y0055536D01*
X0086729Y0055496D01*
X0086716Y0055456D01*
X0086699Y0055418D01*
X0086679Y0055382D01*
X0086655Y0055348D01*
X0086629Y0055316D01*
X0086599Y0055286D01*
X0086567Y0055260D01*
X0086533Y0055236D01*
X0086497Y0055216D01*
X0086459Y0055199D01*
X0086419Y0055186D01*
X0086379Y0055177D01*
X0086338Y0055171D01*
X0086296Y0055169D01*
X0085546Y0055169D01*
X0085546Y0057869D01*
X0085546Y0056969D02*
X0086296Y0056969D01*
X0086338Y0056967D01*
X0086379Y0056961D01*
X0086419Y0056952D01*
X0086459Y0056939D01*
X0086497Y0056922D01*
X0086533Y0056902D01*
X0086567Y0056878D01*
X0086599Y0056852D01*
X0086629Y0056822D01*
X0086655Y0056790D01*
X0086679Y0056756D01*
X0086699Y0056720D01*
X0086716Y0056682D01*
X0086729Y0056642D01*
X0086738Y0056602D01*
X0086744Y0056561D01*
X0086746Y0056519D01*
X0095597Y0055169D02*
X0095747Y0055169D01*
X0095789Y0055171D01*
X0095830Y0055177D01*
X0095870Y0055186D01*
X0095910Y0055199D01*
X0095948Y0055216D01*
X0095984Y0055236D01*
X0096018Y0055260D01*
X0096050Y0055286D01*
X0096080Y0055316D01*
X0096106Y0055348D01*
X0096130Y0055382D01*
X0096150Y0055418D01*
X0096167Y0055456D01*
X0096180Y0055496D01*
X0096189Y0055536D01*
X0096195Y0055577D01*
X0096197Y0055619D01*
X0110645Y0029362D02*
X0112519Y0028293D01*
X0112008Y0027959D01*
X0114264Y0024105D01*
X0116089Y0027685D01*
X0117913Y0024075D01*
X0120581Y0029401D01*
X0121493Y0028940D01*
X0117884Y0021692D01*
X0116108Y0025233D01*
X0114274Y0021662D01*
X0111116Y0027430D01*
X0110606Y0027106D01*
X0110645Y0029362D01*
X0116105Y0027674D02*
X0118489Y0022925D01*
D11*
X0105145Y0020979D02*
X0105145Y0026179D01*
X0093945Y0026179D01*
X0093945Y0020979D01*
X0105145Y0020979D01*
X0078033Y0042179D02*
X0060058Y0042179D01*
X0060058Y0061979D01*
X0078033Y0061979D01*
X0078033Y0042179D01*
X0062445Y0045679D02*
X0062447Y0045763D01*
X0062453Y0045848D01*
X0062463Y0045931D01*
X0062477Y0046015D01*
X0062494Y0046097D01*
X0062516Y0046179D01*
X0062541Y0046259D01*
X0062570Y0046338D01*
X0062603Y0046416D01*
X0062639Y0046492D01*
X0062679Y0046567D01*
X0062723Y0046639D01*
X0062769Y0046710D01*
X0062819Y0046778D01*
X0062872Y0046843D01*
X0062928Y0046906D01*
X0062987Y0046967D01*
X0063049Y0047024D01*
X0063113Y0047079D01*
X0063180Y0047130D01*
X0063249Y0047179D01*
X0063321Y0047224D01*
X0063394Y0047265D01*
X0063469Y0047303D01*
X0063546Y0047338D01*
X0063625Y0047369D01*
X0063705Y0047396D01*
X0063786Y0047419D01*
X0063868Y0047439D01*
X0063951Y0047455D01*
X0064034Y0047467D01*
X0064119Y0047475D01*
X0064203Y0047479D01*
X0064287Y0047479D01*
X0064371Y0047475D01*
X0064456Y0047467D01*
X0064539Y0047455D01*
X0064622Y0047439D01*
X0064704Y0047419D01*
X0064785Y0047396D01*
X0064865Y0047369D01*
X0064944Y0047338D01*
X0065021Y0047303D01*
X0065096Y0047265D01*
X0065169Y0047224D01*
X0065241Y0047179D01*
X0065310Y0047130D01*
X0065377Y0047079D01*
X0065441Y0047024D01*
X0065503Y0046967D01*
X0065562Y0046906D01*
X0065618Y0046843D01*
X0065671Y0046778D01*
X0065721Y0046710D01*
X0065767Y0046639D01*
X0065811Y0046567D01*
X0065851Y0046492D01*
X0065887Y0046416D01*
X0065920Y0046338D01*
X0065949Y0046259D01*
X0065974Y0046179D01*
X0065996Y0046097D01*
X0066013Y0046015D01*
X0066027Y0045931D01*
X0066037Y0045848D01*
X0066043Y0045763D01*
X0066045Y0045679D01*
X0066043Y0045595D01*
X0066037Y0045510D01*
X0066027Y0045427D01*
X0066013Y0045343D01*
X0065996Y0045261D01*
X0065974Y0045179D01*
X0065949Y0045099D01*
X0065920Y0045020D01*
X0065887Y0044942D01*
X0065851Y0044866D01*
X0065811Y0044791D01*
X0065767Y0044719D01*
X0065721Y0044648D01*
X0065671Y0044580D01*
X0065618Y0044515D01*
X0065562Y0044452D01*
X0065503Y0044391D01*
X0065441Y0044334D01*
X0065377Y0044279D01*
X0065310Y0044228D01*
X0065241Y0044179D01*
X0065169Y0044134D01*
X0065096Y0044093D01*
X0065021Y0044055D01*
X0064944Y0044020D01*
X0064865Y0043989D01*
X0064785Y0043962D01*
X0064704Y0043939D01*
X0064622Y0043919D01*
X0064539Y0043903D01*
X0064456Y0043891D01*
X0064371Y0043883D01*
X0064287Y0043879D01*
X0064203Y0043879D01*
X0064119Y0043883D01*
X0064034Y0043891D01*
X0063951Y0043903D01*
X0063868Y0043919D01*
X0063786Y0043939D01*
X0063705Y0043962D01*
X0063625Y0043989D01*
X0063546Y0044020D01*
X0063469Y0044055D01*
X0063394Y0044093D01*
X0063321Y0044134D01*
X0063249Y0044179D01*
X0063180Y0044228D01*
X0063113Y0044279D01*
X0063049Y0044334D01*
X0062987Y0044391D01*
X0062928Y0044452D01*
X0062872Y0044515D01*
X0062819Y0044580D01*
X0062769Y0044648D01*
X0062723Y0044719D01*
X0062679Y0044791D01*
X0062639Y0044866D01*
X0062603Y0044942D01*
X0062570Y0045020D01*
X0062541Y0045099D01*
X0062516Y0045179D01*
X0062494Y0045261D01*
X0062477Y0045343D01*
X0062463Y0045427D01*
X0062453Y0045510D01*
X0062447Y0045595D01*
X0062445Y0045679D01*
X0045033Y0042179D02*
X0027058Y0042179D01*
X0027058Y0061979D01*
X0045033Y0061979D01*
X0045033Y0042179D01*
X0029445Y0045679D02*
X0029447Y0045763D01*
X0029453Y0045848D01*
X0029463Y0045931D01*
X0029477Y0046015D01*
X0029494Y0046097D01*
X0029516Y0046179D01*
X0029541Y0046259D01*
X0029570Y0046338D01*
X0029603Y0046416D01*
X0029639Y0046492D01*
X0029679Y0046567D01*
X0029723Y0046639D01*
X0029769Y0046710D01*
X0029819Y0046778D01*
X0029872Y0046843D01*
X0029928Y0046906D01*
X0029987Y0046967D01*
X0030049Y0047024D01*
X0030113Y0047079D01*
X0030180Y0047130D01*
X0030249Y0047179D01*
X0030321Y0047224D01*
X0030394Y0047265D01*
X0030469Y0047303D01*
X0030546Y0047338D01*
X0030625Y0047369D01*
X0030705Y0047396D01*
X0030786Y0047419D01*
X0030868Y0047439D01*
X0030951Y0047455D01*
X0031034Y0047467D01*
X0031119Y0047475D01*
X0031203Y0047479D01*
X0031287Y0047479D01*
X0031371Y0047475D01*
X0031456Y0047467D01*
X0031539Y0047455D01*
X0031622Y0047439D01*
X0031704Y0047419D01*
X0031785Y0047396D01*
X0031865Y0047369D01*
X0031944Y0047338D01*
X0032021Y0047303D01*
X0032096Y0047265D01*
X0032169Y0047224D01*
X0032241Y0047179D01*
X0032310Y0047130D01*
X0032377Y0047079D01*
X0032441Y0047024D01*
X0032503Y0046967D01*
X0032562Y0046906D01*
X0032618Y0046843D01*
X0032671Y0046778D01*
X0032721Y0046710D01*
X0032767Y0046639D01*
X0032811Y0046567D01*
X0032851Y0046492D01*
X0032887Y0046416D01*
X0032920Y0046338D01*
X0032949Y0046259D01*
X0032974Y0046179D01*
X0032996Y0046097D01*
X0033013Y0046015D01*
X0033027Y0045931D01*
X0033037Y0045848D01*
X0033043Y0045763D01*
X0033045Y0045679D01*
X0033043Y0045595D01*
X0033037Y0045510D01*
X0033027Y0045427D01*
X0033013Y0045343D01*
X0032996Y0045261D01*
X0032974Y0045179D01*
X0032949Y0045099D01*
X0032920Y0045020D01*
X0032887Y0044942D01*
X0032851Y0044866D01*
X0032811Y0044791D01*
X0032767Y0044719D01*
X0032721Y0044648D01*
X0032671Y0044580D01*
X0032618Y0044515D01*
X0032562Y0044452D01*
X0032503Y0044391D01*
X0032441Y0044334D01*
X0032377Y0044279D01*
X0032310Y0044228D01*
X0032241Y0044179D01*
X0032169Y0044134D01*
X0032096Y0044093D01*
X0032021Y0044055D01*
X0031944Y0044020D01*
X0031865Y0043989D01*
X0031785Y0043962D01*
X0031704Y0043939D01*
X0031622Y0043919D01*
X0031539Y0043903D01*
X0031456Y0043891D01*
X0031371Y0043883D01*
X0031287Y0043879D01*
X0031203Y0043879D01*
X0031119Y0043883D01*
X0031034Y0043891D01*
X0030951Y0043903D01*
X0030868Y0043919D01*
X0030786Y0043939D01*
X0030705Y0043962D01*
X0030625Y0043989D01*
X0030546Y0044020D01*
X0030469Y0044055D01*
X0030394Y0044093D01*
X0030321Y0044134D01*
X0030249Y0044179D01*
X0030180Y0044228D01*
X0030113Y0044279D01*
X0030049Y0044334D01*
X0029987Y0044391D01*
X0029928Y0044452D01*
X0029872Y0044515D01*
X0029819Y0044580D01*
X0029769Y0044648D01*
X0029723Y0044719D01*
X0029679Y0044791D01*
X0029639Y0044866D01*
X0029603Y0044942D01*
X0029570Y0045020D01*
X0029541Y0045099D01*
X0029516Y0045179D01*
X0029494Y0045261D01*
X0029477Y0045343D01*
X0029463Y0045427D01*
X0029453Y0045510D01*
X0029447Y0045595D01*
X0029445Y0045679D01*
X0028144Y0028280D02*
X0028144Y0024879D01*
X0030947Y0024879D02*
X0030947Y0028280D01*
X0036644Y0028280D02*
X0036644Y0024879D01*
X0039447Y0024879D02*
X0039447Y0028280D01*
X0045144Y0028280D02*
X0045144Y0024879D01*
X0047947Y0024879D02*
X0047947Y0028280D01*
D12*
X0044133Y0043079D02*
X0027958Y0043079D01*
X0027958Y0061079D01*
X0044133Y0061079D01*
X0044133Y0043079D01*
X0060958Y0043079D02*
X0077133Y0043079D01*
X0077133Y0061079D01*
X0060958Y0061079D01*
X0060958Y0043079D01*
D13*
X0058408Y0043123D03*
X0058408Y0045682D03*
X0058408Y0048241D03*
X0058408Y0050800D03*
X0058408Y0053359D03*
X0058408Y0055918D03*
X0058408Y0058477D03*
X0058408Y0061036D03*
X0046683Y0061036D03*
X0046683Y0058477D03*
X0046683Y0055918D03*
X0046683Y0053359D03*
X0046683Y0050800D03*
X0046683Y0048241D03*
X0046683Y0045682D03*
X0046683Y0043123D03*
X0025408Y0043123D03*
X0025408Y0045682D03*
X0025408Y0048241D03*
X0025408Y0050800D03*
X0025408Y0053359D03*
X0025408Y0055918D03*
X0025408Y0058477D03*
X0025408Y0061036D03*
X0079683Y0061036D03*
X0079683Y0058477D03*
X0079683Y0055918D03*
X0079683Y0053359D03*
X0079683Y0050800D03*
X0079683Y0048241D03*
X0079683Y0045682D03*
X0079683Y0043123D03*
D14*
X0029545Y0024079D03*
X0029545Y0029079D03*
X0038045Y0029079D03*
X0038045Y0024079D03*
X0046545Y0024079D03*
X0046545Y0029079D03*
D15*
X0094033Y0026335D02*
X0094033Y0023186D01*
X0094033Y0026335D02*
X0096396Y0026335D01*
X0102695Y0026335D02*
X0105057Y0026335D01*
X0105057Y0023186D01*
D16*
X0110578Y0027185D02*
X0110578Y0029255D01*
X0112225Y0028518D01*
X0112190Y0027922D01*
X0114293Y0024167D01*
X0115975Y0027501D01*
X0116045Y0025079D01*
X0116087Y0027600D01*
X0118534Y0022939D01*
X0117938Y0021956D01*
X0116185Y0024904D01*
X0115800Y0024588D01*
X0114188Y0021711D01*
X0111034Y0027395D01*
X0110578Y0027185D01*
X0110578Y0027197D02*
X0110603Y0027197D01*
X0110578Y0027293D02*
X0110813Y0027293D01*
X0111023Y0027390D02*
X0110578Y0027390D01*
X0110578Y0027487D02*
X0112433Y0027487D01*
X0112488Y0027390D02*
X0111036Y0027390D01*
X0111090Y0027293D02*
X0112542Y0027293D01*
X0112596Y0027197D02*
X0111144Y0027197D01*
X0111198Y0027100D02*
X0112651Y0027100D01*
X0112705Y0027003D02*
X0111252Y0027003D01*
X0111305Y0026906D02*
X0112759Y0026906D01*
X0112813Y0026809D02*
X0111359Y0026809D01*
X0111413Y0026712D02*
X0112868Y0026712D01*
X0112922Y0026615D02*
X0111467Y0026615D01*
X0111520Y0026518D02*
X0112976Y0026518D01*
X0113031Y0026421D02*
X0111574Y0026421D01*
X0111628Y0026324D02*
X0113085Y0026324D01*
X0113139Y0026227D02*
X0111682Y0026227D01*
X0111736Y0026130D02*
X0113193Y0026130D01*
X0113248Y0026033D02*
X0111789Y0026033D01*
X0111843Y0025936D02*
X0113302Y0025936D01*
X0113356Y0025839D02*
X0111897Y0025839D01*
X0111951Y0025742D02*
X0113411Y0025742D01*
X0113465Y0025646D02*
X0112005Y0025646D01*
X0112058Y0025549D02*
X0113519Y0025549D01*
X0113574Y0025452D02*
X0112112Y0025452D01*
X0112166Y0025355D02*
X0113628Y0025355D01*
X0113682Y0025258D02*
X0112220Y0025258D01*
X0112273Y0025161D02*
X0113736Y0025161D01*
X0113791Y0025064D02*
X0112327Y0025064D01*
X0112381Y0024967D02*
X0113845Y0024967D01*
X0113899Y0024870D02*
X0112435Y0024870D01*
X0112489Y0024773D02*
X0113954Y0024773D01*
X0114008Y0024676D02*
X0112542Y0024676D01*
X0112596Y0024579D02*
X0114062Y0024579D01*
X0114116Y0024482D02*
X0112650Y0024482D01*
X0112704Y0024385D02*
X0114171Y0024385D01*
X0114225Y0024288D02*
X0112758Y0024288D01*
X0112811Y0024191D02*
X0114279Y0024191D01*
X0114305Y0024191D02*
X0115578Y0024191D01*
X0115523Y0024095D02*
X0112865Y0024095D01*
X0112919Y0023998D02*
X0115469Y0023998D01*
X0115415Y0023901D02*
X0112973Y0023901D01*
X0113027Y0023804D02*
X0115360Y0023804D01*
X0115306Y0023707D02*
X0113080Y0023707D01*
X0113134Y0023610D02*
X0115252Y0023610D01*
X0115197Y0023513D02*
X0113188Y0023513D01*
X0113242Y0023416D02*
X0115143Y0023416D01*
X0115089Y0023319D02*
X0113295Y0023319D01*
X0113349Y0023222D02*
X0115035Y0023222D01*
X0114980Y0023125D02*
X0113403Y0023125D01*
X0113457Y0023028D02*
X0114926Y0023028D01*
X0114872Y0022931D02*
X0113511Y0022931D01*
X0113564Y0022834D02*
X0114817Y0022834D01*
X0114763Y0022737D02*
X0113618Y0022737D01*
X0113672Y0022641D02*
X0114709Y0022641D01*
X0114654Y0022544D02*
X0113726Y0022544D01*
X0113780Y0022447D02*
X0114600Y0022447D01*
X0114546Y0022350D02*
X0113833Y0022350D01*
X0113887Y0022253D02*
X0114491Y0022253D01*
X0114437Y0022156D02*
X0113941Y0022156D01*
X0113995Y0022059D02*
X0114383Y0022059D01*
X0114328Y0021962D02*
X0114048Y0021962D01*
X0114102Y0021865D02*
X0114274Y0021865D01*
X0114220Y0021768D02*
X0114156Y0021768D01*
X0117012Y0023513D02*
X0118232Y0023513D01*
X0118182Y0023610D02*
X0116955Y0023610D01*
X0116897Y0023707D02*
X0118131Y0023707D01*
X0118080Y0023804D02*
X0116840Y0023804D01*
X0116782Y0023901D02*
X0118029Y0023901D01*
X0117978Y0023998D02*
X0116724Y0023998D01*
X0116667Y0024095D02*
X0117927Y0024095D01*
X0117876Y0024191D02*
X0116609Y0024191D01*
X0116551Y0024288D02*
X0117825Y0024288D01*
X0117775Y0024385D02*
X0116494Y0024385D01*
X0116436Y0024482D02*
X0117724Y0024482D01*
X0117673Y0024579D02*
X0116379Y0024579D01*
X0116321Y0024676D02*
X0117622Y0024676D01*
X0117571Y0024773D02*
X0116263Y0024773D01*
X0116206Y0024870D02*
X0117520Y0024870D01*
X0117469Y0024967D02*
X0114697Y0024967D01*
X0114745Y0025064D02*
X0117418Y0025064D01*
X0117368Y0025161D02*
X0116047Y0025161D01*
X0116043Y0025161D02*
X0114794Y0025161D01*
X0114843Y0025258D02*
X0116040Y0025258D01*
X0116048Y0025258D02*
X0117317Y0025258D01*
X0117266Y0025355D02*
X0116050Y0025355D01*
X0116037Y0025355D02*
X0114892Y0025355D01*
X0114941Y0025452D02*
X0116034Y0025452D01*
X0116052Y0025452D02*
X0117215Y0025452D01*
X0117164Y0025549D02*
X0116053Y0025549D01*
X0116032Y0025549D02*
X0114990Y0025549D01*
X0115039Y0025646D02*
X0116029Y0025646D01*
X0116055Y0025646D02*
X0117113Y0025646D01*
X0117062Y0025742D02*
X0116056Y0025742D01*
X0116026Y0025742D02*
X0115088Y0025742D01*
X0115137Y0025839D02*
X0116023Y0025839D01*
X0116058Y0025839D02*
X0117012Y0025839D01*
X0116961Y0025936D02*
X0116060Y0025936D01*
X0116020Y0025936D02*
X0115186Y0025936D01*
X0115235Y0026033D02*
X0116018Y0026033D01*
X0116061Y0026033D02*
X0116910Y0026033D01*
X0116859Y0026130D02*
X0116063Y0026130D01*
X0116015Y0026130D02*
X0115284Y0026130D01*
X0115333Y0026227D02*
X0116012Y0026227D01*
X0116064Y0026227D02*
X0116808Y0026227D01*
X0116757Y0026324D02*
X0116066Y0026324D01*
X0116009Y0026324D02*
X0115381Y0026324D01*
X0115430Y0026421D02*
X0116006Y0026421D01*
X0116068Y0026421D02*
X0116706Y0026421D01*
X0116655Y0026518D02*
X0116069Y0026518D01*
X0116004Y0026518D02*
X0115479Y0026518D01*
X0115528Y0026615D02*
X0116001Y0026615D01*
X0116071Y0026615D02*
X0116605Y0026615D01*
X0116554Y0026712D02*
X0116073Y0026712D01*
X0115998Y0026712D02*
X0115577Y0026712D01*
X0115626Y0026809D02*
X0115995Y0026809D01*
X0116074Y0026809D02*
X0116503Y0026809D01*
X0116452Y0026906D02*
X0116076Y0026906D01*
X0115992Y0026906D02*
X0115675Y0026906D01*
X0115724Y0027003D02*
X0115990Y0027003D01*
X0116077Y0027003D02*
X0116401Y0027003D01*
X0116350Y0027100D02*
X0116079Y0027100D01*
X0115987Y0027100D02*
X0115773Y0027100D01*
X0115822Y0027197D02*
X0115984Y0027197D01*
X0115981Y0027293D02*
X0115871Y0027293D01*
X0115920Y0027390D02*
X0115978Y0027390D01*
X0115968Y0027487D02*
X0115976Y0027487D01*
X0116086Y0027487D02*
X0116147Y0027487D01*
X0116198Y0027390D02*
X0116084Y0027390D01*
X0116082Y0027293D02*
X0116248Y0027293D01*
X0116299Y0027197D02*
X0116081Y0027197D01*
X0116087Y0027584D02*
X0116096Y0027584D01*
X0116144Y0024870D02*
X0114648Y0024870D01*
X0114599Y0024773D02*
X0116026Y0024773D01*
X0115907Y0024676D02*
X0114550Y0024676D01*
X0114501Y0024579D02*
X0115795Y0024579D01*
X0115741Y0024482D02*
X0114452Y0024482D01*
X0114403Y0024385D02*
X0115686Y0024385D01*
X0115632Y0024288D02*
X0114354Y0024288D01*
X0117070Y0023416D02*
X0118283Y0023416D01*
X0118334Y0023319D02*
X0117128Y0023319D01*
X0117185Y0023222D02*
X0118385Y0023222D01*
X0118436Y0023125D02*
X0117243Y0023125D01*
X0117301Y0023028D02*
X0118487Y0023028D01*
X0118529Y0022931D02*
X0117358Y0022931D01*
X0117416Y0022834D02*
X0118470Y0022834D01*
X0118411Y0022737D02*
X0117474Y0022737D01*
X0117531Y0022641D02*
X0118353Y0022641D01*
X0118294Y0022544D02*
X0117589Y0022544D01*
X0117646Y0022447D02*
X0118235Y0022447D01*
X0118176Y0022350D02*
X0117704Y0022350D01*
X0117762Y0022253D02*
X0118117Y0022253D01*
X0118059Y0022156D02*
X0117819Y0022156D01*
X0117877Y0022059D02*
X0118000Y0022059D01*
X0117941Y0021962D02*
X0117935Y0021962D01*
X0112379Y0027584D02*
X0110578Y0027584D01*
X0110578Y0027681D02*
X0112325Y0027681D01*
X0112271Y0027778D02*
X0110578Y0027778D01*
X0110578Y0027875D02*
X0112216Y0027875D01*
X0112193Y0027972D02*
X0110578Y0027972D01*
X0110578Y0028069D02*
X0112199Y0028069D01*
X0112204Y0028166D02*
X0110578Y0028166D01*
X0110578Y0028263D02*
X0112210Y0028263D01*
X0112216Y0028360D02*
X0110578Y0028360D01*
X0110578Y0028457D02*
X0112222Y0028457D01*
X0112146Y0028554D02*
X0110578Y0028554D01*
X0110578Y0028651D02*
X0111929Y0028651D01*
X0111713Y0028748D02*
X0110578Y0028748D01*
X0110578Y0028844D02*
X0111496Y0028844D01*
X0111279Y0028941D02*
X0110578Y0028941D01*
X0110578Y0029038D02*
X0111063Y0029038D01*
X0110846Y0029135D02*
X0110578Y0029135D01*
X0110578Y0029232D02*
X0110629Y0029232D01*
M02*
